<!-- icon666.com - MILLIONS vector ICONS FREE --><svg id="Layer_1" enable-background="new 0 0 53 53" viewBox="0 0 53 53" xmlns="http://www.w3.org/2000/svg"><g><g><g><g><g><path d="m32.6756401 13.7140942s.9149246 5.5788116 5.01017 6.3219643c0 0 2.5558929.4789867 4.6469765.3809605 0 0 2.2330894-.3109512 3.9849586.8111954 0 0-.0045547-.0088482-.0091095-.0176964-.105648-.476759-2.692791-11.1829395-9.02985-10.4589443 0-.0000001-2.2749138.3492392-4.6031456 2.9625205z" fill="#6dcb60"></path></g></g><g><g><path d="m32.6756401 13.7140942s.9149246 5.5788116 5.01017 6.3219643c0 0 2.5558929.4789867 4.6469765.3809605 0 0 2.2330894-.3109512 3.9849586.8111954 0 0-.0045547-.0088482-.0091095-.0176964-.2535438-.3838617-5.4473801-8.1377546-13.6329956-7.4964238z" fill="#3db542"></path></g></g><g><g><path d="m29.4993057 18.0650463s4.8582878-2.8532209 4.1067772-6.9864607c0 0-.454937-2.5850163-1.2820511-4.5252585 0 0-1.0748215-1.9984665-.6495056-4.0533228 0 0-.0066128.0074575-.0132256.014915-.4055195.2697682-9.4363155 6.5305872-6.5332947 12.2583151.0000001 0 1.1250974 2.0243215 4.3712998 3.2918119z" fill="#6dcb60"></path></g></g><g><g><path d="m29.4993057 18.0650463s4.8582878-2.8532209 4.1067772-6.9864607c0 0-.454937-2.5850163-1.2820511-4.5252585 0 0-1.0748215-1.9984665-.6495056-4.0533228 0 0-.0066128.0074575-.0132256.014915-.2671928.3763494-5.6389732 8.0468197-2.1619949 15.550127z" fill="#3db542"></path></g></g><g><g><path d="m40.8987961 26.9613533c2.3962517 6.1763 1.0435524 21.5728073-16.3818378 23.4048805-7.2769547.8057404-11.7342138-2.1396942-14.4581633-5.8502159-4.988091-6.794693-4.3642159-16.425415 1.3063526-22.6616631.0634089-.0697346.1273289-.1385651.1917591-.20644 2.4686375-2.5465775 5.5864382-4.5446072 9.2426043-4.7037888 0 0 4.0670948-.7474194 5.8146706 3.1401329 1.7475777 3.8875523 3.2362518 2.9186115 3.2362518 2.9186115s6.0545883-1.5177135 9.4508018 1.580965c0 0 0 0 .0299797.0700188.6494675.5504381 1.1485558 1.3289682 1.5675812 2.3074991z" fill="#f25a5a"></path></g><g opacity=".5"><path d="m20.4354172 24.0471115c-1.2535458 1.8677216-3.3719921 2.7067909-4.6614285 1.8459377-1.2891073-.8606339-1.3187361-3.1338005-.0651903-5.0015221s3.3719931-2.7067909 4.6611013-1.8461571c1.2894364.8608514 1.3190632 3.134018.0655175 5.0017415z" fill="#fc7e7e"></path></g><g opacity=".5"><path d="m17.0217133 30.1186314c.4437199 1.0361958-.0498676 2.2692089-1.086277 2.7130451-1.0361443.4437218-2.2691135-.0499077-2.7128325-1.0861034s.0498686-2.2692089 1.0860138-2.7129307c1.0364084-.4438343 2.2693777.0497932 2.7130957 1.085989z" fill="#fc7e7e"></path></g><g opacity=".5"><g><path d="m33.2436676 25.8782825c1.407608.4712067 2.7113266 1.2536869 3.8468552 2.3005314 1.1259232 1.0264301 1.9378052 2.6684132 1.7412338 4.3648949-.163517 1.7038383-1.1904182 3.0644226-2.1780396 4.2235909-1.0085411 1.1143417-2.1293144 2.1369019-3.3213577 3.0867119-2.4099979 1.8087387-5.4495029 3.2295723-8.6316929 2.9511948-1.5661774-.1223221-3.0558453-.6427269-4.3832607-1.3690147-1.3262672-.7457161-2.4654465-1.7337685-3.4923592-2.7909813 2.4323578 1.6610184 5.1543102 2.8968163 7.9253769 2.8968697 2.7725735-.0014534 5.3660545-1.2794762 7.6025162-2.9777527 1.124752-.8590317 2.186676-1.816803 3.1894913-2.8477974.9579201-.9984322 1.7979507-2.0948257 2.0418777-3.3468704.2372513-1.2319756-.1784019-2.5819378-1.0816002-3.6637325-.847702-1.1287977-2.0177536-2.0352118-3.2590408-2.8276446z" fill="#fc7e7e"></path></g></g><g><g><path d="m30.3392906 26.068821c-1.5796299.4597397-3.8379803-.0854836-5.0309753-1.2279682-1.2055473-1.1455154-.9044037-2.4485664.6657238-2.9239655 1.5983582-.4819489 3.8536587.0759029 5.059206 1.2214184 1.2056236 1.1455345.90448 2.4485836-.6939545 2.9305153z" fill="#c14242"></path></g></g><g><path d="m43.0352135 4.0920773c0-.9545321-1.0629768-1.5473692-1.863472-1.0274322-.8258705.5364156-1.6154709 1.1222155-2.3644714 1.7544305-1.925396 1.694437-3.5939789 3.6455307-5.0573006 5.6994123-1.4376221 2.0792646-2.6699829 4.287015-3.7224636 6.5461597-1.0781784 2.2591438-2.0023308 4.5696831-2.7212219 7.0083923.3782482.470068.9152222.5816307 1.5659523.4365368.7445869-2.233448 1.7201328-4.4925919 2.8240089-6.6235638 1.1038761-2.1563568 2.3360806-4.2099257 3.7737026-6.1353216 1.4376221-1.8997002 3.0292702-3.6455307 4.8263397-5.1600881.6884384-.5355201 1.4057426-1.0199347 2.1430702-1.4624772.3665657-.2200127.5958557-.6085224.5958557-1.036046v-.0000027z" fill="#cea03a"></path></g><g><path d="m40.8987961 26.9613533c2.3962517 6.1763 1.0435524 21.5728073-16.3818378 23.4048805-7.2769547.8057404-11.7342138-2.1396942-14.4581633-5.8502159-4.988091-6.794693-4.3642159-16.425415 1.3063526-22.6616631.0634089-.0697346.1273289-.1385651.1917591-.20644 0 0-3.9793553 9.0703011.5056505 15.6778183 4.4835415 6.6041031 12.1454201 11.9319878 22.6873817 4.8509293 10.0733871-6.6297989 5.2002945-16.4642105 4.5812759-17.5228081.6494676.550438 1.1485559 1.3289681 1.5675813 2.307499z" fill="#dd4a4a"></path></g></g></g><path d="m16.9954586 39.0147247c-.771986.2526169-1.4596796.6737289-2.0350714 1.2491226-.5614281.5614281-.9824562 1.2491226-1.2491226 2.0210228-.0701571.2526169-.4069796.2526169-.4911852 0-.5053205-1.5578499-1.7403946-2.7648277-3.2701464-3.2701454-.2666655-.0842056-.2666655-.4210281 0-.5052376.7719002-.2526169 1.4595947-.7017403 2.0210228-1.2491226.5613432-.5613403.9964209-1.2490349 1.2491236-2.0350685.0842056-.2385712.4210281-.2385712.4911852 0 .2666664.7860336.6876945 1.4737282 1.2491226 2.0350685.5753918.5473824 1.2630854.9965057 2.0350714 1.2491226.2526169.0842095.2526169.421032 0 .5052376z" fill="#fff"></path></g></g></svg>