<svg width="108" height="100" viewBox="0 0 108 100" fill="none" xmlns="http://www.w3.org/2000/svg">
<g id="Group 113">
<path id="Vector" d="M6.92969 52.1533H17.1279V55.9355H6.92969V52.1533ZM20.3136 52.1533H30.51V55.9355H20.3136V52.1533ZM33.6958 52.1533H43.894V55.9355H33.6958V52.1533ZM47.0797 52.1533H57.2743V55.9355H47.0797V52.1533ZM60.46 52.1533H70.6601V55.9355H60.46V52.1533ZM73.844 52.1533H84.0404V55.9355H73.844V52.1533ZM87.2261 52.1533H97.4243V55.9355H87.2261V52.1533ZM47.0797 59.7194H57.2743V63.4997H47.0797V59.7194ZM60.46 59.7194H70.6601V63.4997H60.46V59.7194ZM73.844 59.7194H84.0404V63.4997H73.844V59.7194ZM87.2261 59.7194H97.4243V63.4997H87.2261V59.7194ZM6.92969 67.2819H17.1279V71.0676H6.92969V67.2819ZM20.3136 67.2819H30.51V71.0676H20.3136V67.2819ZM33.6958 67.2819H43.894V71.0676H33.6958V67.2819ZM47.0797 67.2819H57.2743V71.0676H47.0797V67.2819ZM60.46 67.2819H70.6601V71.0676H60.46V67.2819ZM73.844 67.2819H84.0404V71.0676H73.844V67.2819ZM87.2261 67.2819H97.4243V71.0676H87.2261V67.2819ZM6.92969 74.8497H17.1279V78.6337H6.92969V74.8497ZM20.3136 74.8497H30.51V78.6337H20.3136V74.8497ZM33.6958 74.8497H43.894V78.6337H33.6958V74.8497ZM47.0797 74.8497H57.2743V78.6337H47.0797V74.8497ZM60.46 74.8497H70.6601V78.6337H60.46V74.8497ZM73.844 74.8497H84.0404V78.6337H73.844V74.8497ZM87.2261 74.8497H97.4243V78.6337H87.2261V74.8497ZM6.92969 82.414H17.1279V86.198H6.92969V82.414ZM20.3136 82.414H30.51V86.198H20.3136V82.414ZM33.6958 82.414H43.894V86.198H33.6958V82.414ZM47.0797 82.414H57.2743V86.198H47.0797V82.414ZM60.46 82.414H70.6601V86.198H60.46V82.414ZM73.844 82.414H84.0404V86.198H73.844V82.414ZM87.2261 82.414H97.4243V86.198H87.2261V82.414ZM6.92969 89.9837H17.1279V93.764H6.92969V89.9837ZM20.3136 89.9837H30.51V93.764H20.3136V89.9837ZM33.6958 89.9837H43.894V93.764H33.6958V89.9837ZM47.0797 89.9837H57.2743V93.764H47.0797V89.9837ZM60.46 89.9837H70.6601V93.764H60.46V89.9837ZM73.844 89.9837H84.0404V93.764H73.844V89.9837Z" fill="#1E8B93"/>
<path id="Vector_2" d="M102.702 25.7268H99.7928C90.9981 20.3732 57.1713 0 52.1785 0C47.1767 0 14.8785 20.3554 6.44811 25.7268H5.29811C2.60882 25.7268 0.428467 28.0893 0.428467 31.0089V94.7179C0.428467 97.6357 2.60882 100 5.29811 100H102.703C105.391 100 107.571 97.6357 107.571 94.7179V31.0089C107.571 28.0893 105.391 25.7268 102.702 25.7268ZM49.416 2.6375C49.0938 3.18987 48.9238 3.81771 48.9231 4.45714C48.9231 6.375 50.3803 7.93036 52.1803 7.93036C53.9767 7.93036 55.4338 6.375 55.4338 4.45714C55.4338 3.77321 55.2428 3.13929 54.9213 2.6C62.3945 5.68214 81.6338 16.8089 96.3767 25.725H9.75704C23.7838 16.8446 42.116 5.76786 49.416 2.6375ZM100.355 94.7179C100.355 95.6607 99.7606 96.4607 99.057 96.4607H5.29811C4.59454 96.4607 3.9999 95.6607 3.9999 94.7179V47.8964H100.355V94.7179Z" fill="#1E8B93"/>
</g>
</svg>
