<svg width="20" height="30" viewBox="0 0 20 30" fill="none" xmlns="http://www.w3.org/2000/svg">
<path id="Vector" d="M10.3001 0.5C4.9851 0.5 0.672104 4.776 0.610104 10.079V10.084C0.60783 10.1536 0.60783 10.2234 0.610104 10.293C0.613104 10.423 0.622104 10.602 0.643104 10.821C0.728518 12.1624 1.09259 13.4713 1.71208 14.6641C2.33158 15.857 3.1929 16.9076 4.2411 17.749C6.0771 19.821 6.5311 21.677 6.5831 22.301V22.307C6.5891 22.372 6.5991 22.437 6.6131 22.5H6.6091V24.29L14.1091 22.792V22.742C14.1661 22.606 14.2031 22.46 14.2161 22.307V22.3C14.2731 21.611 14.5761 19.776 16.3691 17.759C17.4227 16.9134 18.2874 15.8564 18.9073 14.656C19.5272 13.4556 19.8886 12.1386 19.9681 10.79C19.9859 10.6001 19.9966 10.4097 20.0001 10.219V10.106C19.9331 4.784 15.6211 0.5 10.3001 0.5ZM2.6101 10.11C2.63118 8.08438 3.45067 6.14889 4.89054 4.72399C6.33042 3.29909 8.27437 2.49989 10.3001 2.5C14.5171 2.5 17.9441 5.893 18.0001 10.127V10.22C18.0001 10.273 17.9941 10.394 17.9741 10.637L17.9721 10.649V10.662C17.9099 11.7457 17.6182 12.8037 17.1163 13.7662C16.6145 14.7287 15.914 15.5736 15.0611 16.245L14.9941 16.297L14.9371 16.36C13.0491 18.455 12.4641 20.457 12.2841 21.63H11.6521C11.6971 20.095 11.9011 17.235 12.7701 16.28C13.6301 15.6 14.2001 14.57 14.2701 13.4C14.2801 13.29 14.2801 13.22 14.2801 13.17V13.13C14.2693 12.0841 13.8463 11.0847 13.103 10.3489C12.3597 9.61306 11.356 9.20021 10.3101 9.2C9.48721 9.2003 8.68486 9.45694 8.01455 9.93425C7.34423 10.4116 6.83927 11.0858 6.56983 11.8634C6.30039 12.6409 6.27986 13.483 6.51109 14.2728C6.74233 15.0625 7.21385 15.7606 7.8601 16.27C8.7221 17.233 8.9341 20.095 8.9851 21.63H8.5051C8.2811 20.423 7.5391 18.429 5.6751 16.352L5.6171 16.288L5.5491 16.235C4.69985 15.5659 4.00159 14.7248 3.5001 13.767C2.9986 12.8092 2.70519 11.7562 2.6391 10.677L2.6371 10.659L2.6351 10.64C2.61889 10.4792 2.61021 10.3177 2.6091 10.156V10.127L2.6101 10.11ZM10.3101 10.2C11.9301 10.2 13.2501 11.51 13.2701 13.13V13.21C13.2701 13.24 13.2701 13.28 13.2601 13.34C13.2101 14.18 12.8001 14.97 12.1401 15.49L12.0701 15.54L12.0101 15.6C10.9101 16.82 10.6801 19.92 10.6401 21.62H9.9901C9.9401 19.92 9.7001 16.82 8.6001 15.6L8.5401 15.54L8.4701 15.49C8.1398 15.2288 7.86904 14.9001 7.6759 14.5259C7.48276 14.1517 7.37169 13.7406 7.3501 13.32C7.34991 13.2999 7.3479 13.2798 7.3441 13.26C7.34199 13.2501 7.34065 13.2401 7.3401 13.23V13.14C7.3701 11.52 8.7001 10.2 10.3101 10.2ZM14.1091 23.812L6.6091 25.31V26.279L14.1091 24.699V23.812ZM6.6091 27.5V27.3L14.1091 25.721V27.5C14.1091 27.7652 14.0037 28.0196 13.8162 28.2071C13.6287 28.3946 13.3743 28.5 13.1091 28.5H11.9931C11.8241 28.8009 11.5786 29.0518 11.2815 29.2274C10.9844 29.403 10.6462 29.497 10.3011 29.5C9.956 29.497 9.6178 29.403 9.3207 29.2274C9.0236 29.0518 8.77813 28.8009 8.6091 28.5H7.6091C7.34389 28.5 7.08953 28.3946 6.902 28.2071C6.71446 28.0196 6.6091 27.7652 6.6091 27.5Z" fill="black"/>
</svg>
