<svg width="74" height="100" viewBox="0 0 74 100" fill="none" xmlns="http://www.w3.org/2000/svg">
<g id="Group 114">
<path id="Vector" d="M39.5748 41.0218C38.8494 40.9544 38.1216 40.9171 37.3931 40.9102C22.9465 40.9102 11.2415 52.6368 11.2415 67.1068C11.2415 71.4235 12.3031 75.4818 14.1481 79.0702C13.1861 76.1498 12.695 73.0949 12.6931 70.0202C12.6931 54.6785 24.5448 42.1385 39.5748 41.0218ZM47.8881 88.5652C45.3343 90.2757 42.5295 91.578 39.5748 92.4252C43.7019 91.9171 47.6517 90.4452 51.1048 88.1285C63.1098 80.0585 66.3681 63.9618 58.3831 52.1652C57.9757 51.5761 57.5437 51.0045 57.0881 50.4518C64.4665 63.3402 60.6131 80.0102 47.8881 88.5652Z" fill="#1E8B93"/>
<path id="Vector_2" d="M58.0933 40.865V26.3683C58.0933 25.7617 57.7616 25.2517 57.2933 24.935L73.6666 0H42.2733L36.9999 7.91L31.7266 0H0.333252L16.7033 24.9333C16.2349 25.25 15.9033 25.7617 15.9033 26.3683V40.865C8.43492 46.9783 3.66659 56.2633 3.66659 66.6667C3.66659 85.075 18.5916 100 36.9999 100C38.1366 100 39.2566 99.9417 40.3633 99.83C57.1916 98.145 70.3333 83.9417 70.3333 66.6667C70.3333 56.2633 65.5616 46.9783 58.0933 40.865ZM51.7099 1.66667H62.2566L47.5466 23.7317L42.2733 15.8217L51.7099 1.66667ZM52.8199 31.6417L54.4416 29.2117C54.5299 29.42 54.5783 29.6467 54.5783 29.885V36.9167C54.5767 37.1342 54.5322 37.3492 54.4472 37.5494C54.3623 37.7496 54.2386 37.9311 54.0833 38.0833C49.0833 35.0867 43.2533 33.3333 36.9999 33.3333C30.9783 33.3343 25.0709 34.9771 19.9133 38.085C19.6007 37.7761 19.4228 37.3561 19.4183 36.9167V29.885C19.4183 29.6467 19.4699 29.4183 19.5549 29.2117L21.1766 31.6433L52.8199 31.6417ZM11.7433 1.66667H22.2899L41.1633 29.975H30.6166L11.7433 1.66667ZM36.9999 95C21.3516 95 8.66659 82.315 8.66659 66.6667C8.66659 51.02 21.3516 38.3333 36.9999 38.3333C52.6449 38.3333 65.3333 51.02 65.3333 66.6667C65.3333 82.315 52.6449 95 36.9999 95Z" fill="#1E8B93"/>
<path id="Vector_3" d="M40.7231 78.678V48.333H34.3164C34.3166 48.9972 34.186 49.6549 33.932 50.2686C33.678 50.8823 33.3055 51.44 32.836 51.9097C32.3664 52.3794 31.8089 52.752 31.1953 53.0063C30.5816 53.2605 29.924 53.3913 29.2598 53.3913V59.713C29.7164 59.713 33.1681 59.453 34.3164 58.993V78.678H29.2598V84.9997H45.7798V78.678H40.7231Z" fill="#1E8B93"/>
</g>
</svg>
