<svg width="75" height="74" viewBox="0 0 75 74" fill="none" xmlns="http://www.w3.org/2000/svg">
<rect x="0.708252" y="0.561035" width="73.3032" height="73.3032" rx="36.6516" fill="#80B600"/>
<path d="M53.3585 45.9391V40.1214C53.3585 39.35 53.052 38.6101 52.5065 38.0646C51.961 37.519 51.2211 37.2126 50.4496 37.2126H38.8142V31.3949H51.9041C52.6755 31.3949 53.4154 31.0884 53.9609 30.5429C54.5065 29.9974 54.8129 29.2575 54.8129 28.486V19.7594C54.8129 18.988 54.5065 18.2481 53.9609 17.7026C53.4154 17.1571 52.6755 16.8506 51.9041 16.8506H22.8155C22.044 16.8506 21.3042 17.1571 20.7586 17.7026C20.2131 18.2481 19.9067 18.988 19.9067 19.7594V28.486C19.9067 29.2575 20.2131 29.9974 20.7586 30.5429C21.3042 31.0884 22.044 31.3949 22.8155 31.3949H35.9054V37.2126H24.2699C23.4985 37.2126 22.7586 37.519 22.2131 38.0646C21.6676 38.6101 21.3611 39.35 21.3611 40.1214V45.9391H19.9067C19.1352 45.9391 18.3953 46.2456 17.8498 46.7911C17.3043 47.3366 16.9978 48.0765 16.9978 48.848V54.6657C16.9978 55.4372 17.3043 56.1771 17.8498 56.7226C18.3953 57.2681 19.1352 57.5746 19.9067 57.5746H25.7244C26.4958 57.5746 27.2357 57.2681 27.7812 56.7226C28.3268 56.1771 28.6332 55.4372 28.6332 54.6657V48.848C28.6332 48.0765 28.3268 47.3366 27.7812 46.7911C27.2357 46.2456 26.4958 45.9391 25.7244 45.9391H24.2699V40.1214H35.9054V45.9391H34.4509C33.6795 45.9391 32.9396 46.2456 32.3941 46.7911C31.8485 47.3366 31.5421 48.0765 31.5421 48.848V54.6657C31.5421 55.4372 31.8485 56.1771 32.3941 56.7226C32.9396 57.2681 33.6795 57.5746 34.4509 57.5746H40.2686C41.0401 57.5746 41.78 57.2681 42.3255 56.7226C42.871 56.1771 43.1775 55.4372 43.1775 54.6657V48.848C43.1775 48.0765 42.871 47.3366 42.3255 46.7911C41.78 46.2456 41.0401 45.9391 40.2686 45.9391H38.8142V40.1214H50.4496V45.9391H48.9952C48.2237 45.9391 47.4839 46.2456 46.9383 46.7911C46.3928 47.3366 46.0864 48.0765 46.0864 48.848V54.6657C46.0864 55.4372 46.3928 56.1771 46.9383 56.7226C47.4839 57.2681 48.2237 57.5746 48.9952 57.5746H54.8129C55.5844 57.5746 56.3243 57.2681 56.8698 56.7226C57.4153 56.1771 57.7218 55.4372 57.7218 54.6657V48.848C57.7218 48.0765 57.4153 47.3366 56.8698 46.7911C56.3243 46.2456 55.5844 45.9391 54.8129 45.9391H53.3585ZM25.7244 54.6657H19.9067V48.848H25.7244V54.6657ZM40.2686 48.848V54.6657H34.4509V48.848H40.2686ZM22.8155 28.486V19.7594H51.9041V28.486H22.8155ZM54.8129 54.6657H48.9952V48.848H54.8129V54.6657Z" fill="white"/>
</svg>
