<svg width="74" height="74" viewBox="0 0 74 74" fill="none" xmlns="http://www.w3.org/2000/svg">
<rect x="0.181885" y="0.705566" width="73.3032" height="73.3032" rx="36.6516" fill="#CA4500"/>
<path d="M24.0975 37.5406L36.9344 45.1843L49.7795 37.5406L36.9344 29.9028L24.0975 37.5406Z" fill="white"/>
<path d="M36.1005 23.6958V27.0498H34.4246L36.7815 29.4087L39.1303 27.0498H37.4625V23.6958H36.1005Z" fill="white"/>
<path d="M36.1005 45.8169V49.1709H34.4246L36.7815 51.5238L39.1303 49.1709H37.4625V45.8169H36.1005Z" fill="white"/>
<path d="M26.9683 59.8728H41.583L45.2917 52.5715H30.6708L26.9683 59.8728Z" fill="white"/>
<path d="M32.9159 23.0562H41.3405C43.6078 23.0562 45.451 21.2152 45.451 18.954C45.451 16.6868 43.6078 14.8477 41.3405 14.8477H32.9159C30.6507 14.8477 28.8095 16.6868 28.8075 18.954C28.8075 21.2172 30.6506 23.0562 32.9159 23.0562Z" fill="white"/>
</svg>
