<svg width="74" height="74" viewBox="0 0 74 74" fill="none" xmlns="http://www.w3.org/2000/svg">
<rect x="0.4104" y="0.229004" width="73.3032" height="73.3032" rx="36.6516" fill="#00A290"/>
<g clip-path="url(#clip0_160_551)">
<path d="M24.1691 33.4439H23.4533C23.1495 33.4439 22.8582 33.5646 22.6434 33.7794C22.4286 33.9942 22.3079 34.2855 22.3079 34.5893V35.7346C22.3079 36.0384 22.4286 36.3297 22.6434 36.5445C22.8582 36.7593 23.1495 36.88 23.4533 36.88H24.5943C24.5844 39.9691 24.2012 43.0457 23.4533 46.0429H32.6162C31.8682 43.0457 31.4851 39.9691 31.4751 36.88H32.6162C32.9199 36.88 33.2113 36.7593 33.4261 36.5445C33.6409 36.3297 33.7615 36.0384 33.7615 35.7346V34.5893C33.7615 34.2855 33.6409 33.9942 33.4261 33.7794C33.2113 33.5646 32.9199 33.4439 32.6162 33.4439H31.9003L34.3263 26.974C34.3914 26.8006 34.4134 26.6141 34.3905 26.4303C34.3677 26.2465 34.3006 26.071 34.195 25.9188C34.0894 25.7667 33.9485 25.6424 33.7844 25.5566C33.6203 25.4708 33.4378 25.4261 33.2526 25.4264H29.1801V23.1356H30.8981C31.05 23.1356 31.1957 23.0753 31.3031 22.9679C31.4105 22.8605 31.4708 22.7149 31.4708 22.563V21.4176C31.4708 21.2657 31.4105 21.1201 31.3031 21.0127C31.1957 20.9053 31.05 20.8449 30.8981 20.8449H29.1801V19.1269C29.1801 18.975 29.1197 18.8293 29.0123 18.7219C28.905 18.6145 28.7593 18.5542 28.6074 18.5542H27.462C27.3102 18.5542 27.1645 18.6145 27.0571 18.7219C26.9497 18.8293 26.8894 18.975 26.8894 19.1269V20.8449H25.1713C25.0194 20.8449 24.8738 20.9053 24.7664 21.0127C24.659 21.1201 24.5986 21.2657 24.5986 21.4176V22.563C24.5986 22.7149 24.659 22.8605 24.7664 22.9679C24.8738 23.0753 25.0194 23.1356 25.1713 23.1356H26.8894V25.4264H22.8155C22.6303 25.4261 22.4478 25.4708 22.2836 25.5566C22.1195 25.6424 21.9786 25.7667 21.873 25.9188C21.7674 26.071 21.7003 26.2465 21.6775 26.4303C21.6546 26.6141 21.6766 26.8006 21.7417 26.974L24.1691 33.4439ZM36.5648 51.4533L34.9069 50.6243V49.479C34.9069 49.1752 34.7862 48.8839 34.5714 48.6691C34.3566 48.4543 34.0653 48.3336 33.7615 48.3336H22.3079C22.0041 48.3336 21.7128 48.4543 21.498 48.6691C21.2832 48.8839 21.1625 49.1752 21.1625 49.479V50.6243L19.5054 51.4533C19.315 51.5484 19.155 51.6945 19.0431 51.8755C18.9312 52.0564 18.8719 52.2649 18.8718 52.4777V54.0604C18.8718 54.3642 18.9925 54.6555 19.2073 54.8703C19.4221 55.0851 19.7134 55.2058 20.0172 55.2058H36.0523C36.356 55.2058 36.6474 55.0851 36.8621 54.8703C37.0769 54.6555 37.1976 54.3642 37.1976 54.0604V52.4777C37.1976 52.265 37.1384 52.0565 37.0267 51.8756C36.9149 51.6947 36.755 51.5485 36.5648 51.4533ZM43.2058 40.1586L42.9702 46.0429H52.0415L51.806 40.1579L53.567 38.6696C53.8214 38.4543 54.0258 38.1861 54.1659 37.8837C54.306 37.5813 54.3784 37.2519 54.378 36.9186V32.7281C54.378 32.6141 54.3328 32.5049 54.2522 32.4243C54.1717 32.3438 54.0624 32.2985 53.9485 32.2985H52.0601C51.9462 32.2985 51.837 32.3438 51.7564 32.4243C51.6759 32.5049 51.6306 32.6141 51.6306 32.7281V34.5893H49.8617V32.7281C49.8617 32.6141 49.8165 32.5049 49.7359 32.4243C49.6554 32.3438 49.5461 32.2985 49.4322 32.2985H45.5802C45.4663 32.2985 45.3571 32.3438 45.2765 32.4243C45.196 32.5049 45.1507 32.6141 45.1507 32.7281V34.5893H43.3819V32.7281C43.3819 32.6141 43.3366 32.5049 43.2561 32.4243C43.1755 32.3438 43.0663 32.2985 42.9523 32.2985H41.0632C40.9493 32.2985 40.8401 32.3438 40.7595 32.4243C40.679 32.5049 40.6337 32.6141 40.6337 32.7281V36.9229C40.6343 37.2557 40.7073 37.5843 40.8477 37.8859C40.9882 38.1876 41.1926 38.455 41.4469 38.6696L43.2058 40.1586ZM46.3605 40.3161C46.3605 40.0123 46.4812 39.721 46.696 39.5062C46.9108 39.2914 47.2021 39.1707 47.5059 39.1707C47.8096 39.1707 48.101 39.2914 48.3158 39.5062C48.5306 39.721 48.6512 40.0123 48.6512 40.3161V42.6068H46.3605V40.3161ZM54.8906 51.4533L53.2327 50.6243V49.479C53.2327 49.1752 53.112 48.8839 52.8972 48.6691C52.6824 48.4543 52.3911 48.3336 52.0873 48.3336H42.9244C42.6207 48.3336 42.3293 48.4543 42.1145 48.6691C41.8997 48.8839 41.7791 49.1752 41.7791 49.479V50.6243L40.1219 51.4533C39.9316 51.5484 39.7715 51.6945 39.6596 51.8755C39.5477 52.0564 39.4884 52.2649 39.4883 52.4777V54.0604C39.4883 54.3642 39.609 54.6555 39.8238 54.8703C40.0386 55.0851 40.3299 55.2058 40.6337 55.2058H54.378C54.6818 55.2058 54.9731 55.0851 55.1879 54.8703C55.4027 54.6555 55.5234 54.3642 55.5234 54.0604V52.4777C55.5234 52.265 55.4642 52.0565 55.3525 51.8756C55.2407 51.6947 55.0808 51.5485 54.8906 51.4533Z" fill="white"/>
</g>
<defs>
<clipPath id="clip0_160_551">
<rect width="36.6516" height="36.6516" fill="white" transform="translate(18.7361 18.5547)"/>
</clipPath>
</defs>
</svg>
