<?xml version="1.0" encoding="UTF-8" standalone="no"?>
<svg
   xmlns:dc="http://purl.org/dc/elements/1.1/"
   xmlns:cc="http://creativecommons.org/ns#"
   xmlns:rdf="http://www.w3.org/1999/02/22-rdf-syntax-ns#"
   xmlns:svg="http://www.w3.org/2000/svg"
   xmlns="http://www.w3.org/2000/svg"
   xmlns:sodipodi="http://sodipodi.sourceforge.net/DTD/sodipodi-0.dtd"
   xmlns:inkscape="http://www.inkscape.org/namespaces/inkscape"
   width="163.89622mm"
   height="166.96979mm"
   viewBox="0 0 163.89623 166.96979"
   version="1.1"
   id="svg8"
   inkscape:version="1.0.2-2 (e86c870879, 2021-01-15)"
   sodipodi:docname="sums_on_cube_6_16_20.svg">
  <defs
     id="defs2">
    <inkscape:path-effect
       effect="perspective-envelope"
       up_left_point="96.113298,51.910281"
       up_right_point="161.32706,19.837939"
       down_left_point="95.04422,164.16349"
       down_right_point="155.71441,123.00398"
       id="path-effect154"
       is_visible="true"
       lpeversion="1"
       deform_type="perspective"
       horizontal_mirror="false"
       vertical_mirror="false"
       overflow_perspective="false" />
    <inkscape:path-effect
       effect="perspective-envelope"
       up_left_point="0.43080844,27.321486"
       up_right_point="96.113298,51.910281"
       down_left_point="4.1725816,132.09115"
       down_right_point="95.04422,164.16349"
       id="path-effect143"
       is_visible="true"
       lpeversion="1"
       deform_type="perspective"
       horizontal_mirror="false"
       vertical_mirror="false"
       overflow_perspective="false" />
    <inkscape:path-effect
       effect="perspective-envelope"
       up_left_point="14.99091,76.633748"
       up_right_point="96.113298,51.910281"
       down_left_point="14.99091,84.633234"
       down_right_point="95.044218,164.16349"
       id="path-effect118"
       is_visible="true"
       lpeversion="1"
       deform_type="perspective"
       horizontal_mirror="false"
       vertical_mirror="false"
       overflow_perspective="false" />
    <inkscape:path-effect
       effect="perspective-envelope"
       up_left_point="0.43080844,27.321486"
       up_right_point="70.054521,0.19362949"
       down_left_point="96.113298,51.910281"
       down_right_point="161.32706,19.837939"
       id="path-effect107"
       is_visible="true"
       lpeversion="1"
       deform_type="perspective"
       horizontal_mirror="false"
       vertical_mirror="false"
       overflow_perspective="false" />
    <inkscape:path-effect
       effect="envelope"
       id="path-effect505"
       is_visible="true"
       lpeversion="1"
       yy="true"
       xx="false"
       bendpath1="M 72.707582,5.2870248 142.63318,20.784048"
       bendpath2="M 95.934624,9.1827133 V 16.934153"
       bendpath3="M 20.052623,26.218846 91.606391,42.895654"
       bendpath4="M 84.441821,9.1827133 V 16.934153"
       bendpath1-nodetypes="cc"
       bendpath3-nodetypes="cc" />
    <inkscape:path-effect
       effect="envelope"
       id="path-effect494"
       is_visible="true"
       lpeversion="1"
       yy="true"
       xx="false"
       bendpath1="M 103.13466,59.526608 155.48437,32.50131"
       bendpath2="m 141.77827,90.835901 v 7.751442"
       bendpath3="m 102.18973,148.54 47.43601,-33.26191"
       bendpath4="m 130.25963,90.835901 v 7.751442"
       bendpath1-nodetypes="cc"
       bendpath3-nodetypes="cc" />
    <inkscape:path-effect
       effect="envelope"
       id="path-effect483"
       is_visible="true"
       lpeversion="1"
       yy="true"
       xx="false"
       bendpath1="M 10.5305,40.627797 86.125738,59.904584"
       bendpath2="m 41.751166,81.764477 v 7.75144"
       bendpath3="m 13.554309,122.27065 71.815474,27.21429"
       bendpath4="m 36.340661,81.764477 v 7.75144"
       bendpath1-nodetypes="cc"
       bendpath3-nodetypes="cc" />
    <inkscape:path-effect
       effect="envelope"
       id="path-effect399"
       is_visible="true"
       lpeversion="1"
       yy="true"
       xx="false"
       bendpath1="M 72.707582,5.2870248 142.63318,20.784048"
       bendpath2="m 99.831036,10.704952 v 7.75144"
       bendpath3="M 20.052623,26.218846 91.606391,42.895654"
       bendpath4="m 89.733493,10.704952 v 7.75144"
       bendpath1-nodetypes="cc"
       bendpath3-nodetypes="cc" />
    <inkscape:path-effect
       effect="envelope"
       id="path-effect388"
       is_visible="true"
       lpeversion="1"
       yy="true"
       xx="false"
       bendpath1="M 103.13466,59.526608 155.48437,32.50131"
       bendpath2="m 131.86303,80.252572 v 7.751442"
       bendpath3="m 102.18973,148.54 47.43601,-33.26191"
       bendpath4="m 120.43224,80.252572 v 7.751442"
       bendpath1-nodetypes="cc"
       bendpath3-nodetypes="cc" />
    <inkscape:path-effect
       effect="envelope"
       id="path-effect377"
       is_visible="true"
       lpeversion="1"
       yy="true"
       xx="false"
       bendpath1="M 10.5305,40.627797 86.125738,59.904584"
       bendpath2="m 54.600121,75.338876 v 7.751443"
       bendpath3="m 13.554309,122.27065 71.815474,27.21429"
       bendpath4="m 42.947122,75.338876 v 7.751443"
       bendpath1-nodetypes="cc"
       bendpath3-nodetypes="cc" />
    <inkscape:path-effect
       effect="envelope"
       id="path-effect292"
       is_visible="true"
       lpeversion="1"
       yy="true"
       xx="false"
       bendpath1="M 72.707582,5.2870248 142.63318,20.784048"
       bendpath2="m 88.175061,16.742236 v 7.75144"
       bendpath3="M 20.052623,26.218846 91.606391,42.895654"
       bendpath4="m 82.800729,16.742236 v 7.75144"
       bendpath1-nodetypes="cc"
       bendpath3-nodetypes="cc" />
    <inkscape:path-effect
       effect="envelope"
       id="path-effect283"
       is_visible="true"
       lpeversion="1"
       yy="true"
       xx="false"
       bendpath1="M 103.13466,59.526608 155.48437,32.50131"
       bendpath2="m 145.92566,83.654362 v 7.622249"
       bendpath3="m 102.18973,148.54 47.43601,-33.26191"
       bendpath4="m 134.33467,83.654362 v 7.622249"
       bendpath1-nodetypes="cc"
       bendpath3-nodetypes="cc" />
    <inkscape:path-effect
       effect="envelope"
       id="path-effect272"
       is_visible="true"
       lpeversion="1"
       yy="true"
       xx="false"
       bendpath1="M 10.5305,40.627797 86.125738,59.904584"
       bendpath2="m 41.982214,63.243646 v 7.75144"
       bendpath3="m 13.554309,122.27065 71.815474,27.21429"
       bendpath4="m 30.473909,63.243646 v 7.75144"
       bendpath1-nodetypes="cc"
       bendpath3-nodetypes="cc" />
    <inkscape:path-effect
       effect="envelope"
       id="path-effect132"
       is_visible="true"
       lpeversion="1"
       yy="true"
       xx="true"
       bendpath1="M 15.354861,44.722804 80.302503,63.243638"
       bendpath2="M 79.924527,63.243638 79.546551,140.16472"
       bendpath3="m 18.378671,120.13199 61.16788,19.65476"
       bendpath4="m 15.354861,44.722804 1.511905,74.275256"
       bendpath1-nodetypes="cc"
       bendpath2-nodetypes="cc"
       bendpath3-nodetypes="cc"
       bendpath4-nodetypes="cc" />
    <inkscape:path-effect
       effect="envelope"
       id="path-effect1206"
       is_visible="true"
       lpeversion="1"
       yy="true"
       xx="true"
       bendpath1="M 73.232886,6.6145831 139.3625,20.899397"
       bendpath2="M 139.3625,20.899397 91.714578,42.466967"
       bendpath3="M 25.591674,25.969651 91.714578,42.466967"
       bendpath4="M 73.232886,6.6145831 25.591674,25.969651"
       bendpath1-nodetypes="cc"
       bendpath2-nodetypes="cc"
       bendpath3-nodetypes="cc"
       bendpath4-nodetypes="cc" />
    <inkscape:path-effect
       effect="envelope"
       id="path-effect1197"
       is_visible="true"
       lpeversion="1"
       yy="true"
       xx="true"
       bendpath1="M 106.96726,64.255952 151.81001,40.409875"
       bendpath2="m 151.81001,40.409875 -4.44122,72.973475"
       bendpath3="m 106.21131,140.04017 41.15748,-26.65682"
       bendpath4="m 106.96726,64.255952 -0.75595,75.784218"
       bendpath1-nodetypes="cc"
       bendpath2-nodetypes="cc"
       bendpath3-nodetypes="cc"
       bendpath4-nodetypes="cc" />
    <inkscape:path-effect
       effect="envelope"
       id="path-effect1186"
       is_visible="true"
       lpeversion="1"
       yy="true"
       xx="true"
       bendpath1="M 12.095238,44.60119 83.15476,63.122023"
       bendpath2="M 83.15476,63.122023 83.06027,146.74926"
       bendpath3="m 15.686012,121.70834 67.374254,25.04092"
       bendpath4="m 12.095238,44.60119 3.590774,77.10715"
       bendpath1-nodetypes="cc"
       bendpath2-nodetypes="cc"
       bendpath3-nodetypes="cc"
       bendpath4-nodetypes="cc" />
    <inkscape:path-effect
       effect="dashed_stroke"
       id="path-effect246"
       is_visible="true"
       lpeversion="1"
       numberdashes="17"
       holefactor="0.99999"
       splitsegments="false"
       halfextreme="false"
       unifysegment="false"
       message="Add &lt;b&gt;&quot;Fill Between Many LPE&quot;&lt;/b&gt; to add fill." />
    <inkscape:path-effect
       effect="envelope"
       id="path-effect156"
       is_visible="true"
       lpeversion="1"
       yy="true"
       xx="true"
       bendpath1="M 87.406074,33.948002 104.29095,21.089444"
       bendpath2="m 104.29095,21.089444 -4.02636,48.96645"
       bendpath3="M 84.288834,92.525779 100.26459,70.055894"
       bendpath4="m 87.406074,33.948002 -3.11724,58.577777"
       bendpath1-nodetypes="cc"
       bendpath2-nodetypes="cc"
       bendpath3-nodetypes="cc"
       bendpath4-nodetypes="cc" />
    <inkscape:path-effect
       effect="envelope"
       id="path-effect145"
       is_visible="true"
       lpeversion="1"
       yy="true"
       xx="true"
       bendpath1="m 8.3563621,25.379013 65.8805439,8.1793"
       bendpath2="m 74.236906,33.558313 -3.56914,67.070237"
       bendpath3="M 11.033223,86.946843 70.667766,100.62855"
       bendpath4="m 8.3563621,25.379013 2.6768609,61.56783"
       bendpath1-nodetypes="cc"
       bendpath2-nodetypes="cc"
       bendpath3-nodetypes="cc"
       bendpath4-nodetypes="cc" />
  </defs>
  <sodipodi:namedview
     id="base"
     pagecolor="#ffffff"
     bordercolor="#666666"
     borderopacity="1.0"
     inkscape:pageopacity="0.0"
     inkscape:pageshadow="2"
     inkscape:zoom="0.98994949"
     inkscape:cx="285.17991"
     inkscape:cy="301.03709"
     inkscape:document-units="mm"
     inkscape:current-layer="layer1"
     inkscape:document-rotation="0"
     showgrid="false"
     fit-margin-top="0"
     fit-margin-left="0"
     fit-margin-right="0"
     fit-margin-bottom="0"
     inkscape:window-width="1431"
     inkscape:window-height="1030"
     inkscape:window-x="128"
     inkscape:window-y="0"
     inkscape:window-maximized="0" />
  <metadata
     id="metadata5">
    <rdf:RDF>
      <cc:Work
         rdf:about="">
        <dc:format>image/svg+xml</dc:format>
        <dc:type
           rdf:resource="http://purl.org/dc/dcmitype/StillImage" />
        <dc:title></dc:title>
      </cc:Work>
    </rdf:RDF>
  </metadata>
  <g
     inkscape:label="Layer 1"
     inkscape:groupmode="layer"
     id="layer1"
     transform="translate(1.0691845,1.3063644)">
    <text
       xml:space="preserve"
       style="font-style:normal;font-weight:normal;font-size:10.5833px;line-height:1.25;font-family:sans-serif;fill:#000000;fill-opacity:1;stroke:none;stroke-width:0.264583"
       x="22.300594"
       y="46.491074"
       id="text127"><tspan
         sodipodi:role="line"
         id="tspan125"
         x="22.300594"
         y="46.491074"
         style="stroke-width:0.264583" /></text>
    <path
       style="fill:none;stroke:#696969;stroke-width:3;stroke-linecap:butt;stroke-linejoin:round;stroke-miterlimit:4;stroke-dasharray:none;stroke-opacity:1"
       d="M 0.43080844,27.321486 96.113298,51.910281 95.04422,164.16349 4.1725816,132.09115 Z"
       id="path223" />
    <path
       style="fill:none;stroke:#696969;stroke-width:3;stroke-linecap:butt;stroke-linejoin:round;stroke-miterlimit:4;stroke-dasharray:none;stroke-opacity:1"
       d="M 0.43080844,27.321486 70.054521,0.19362949 161.32706,19.837939 96.113296,51.910281 Z"
       id="path225" />
    <path
       style="fill:none;stroke:#696969;stroke-width:3;stroke-linecap:butt;stroke-linejoin:round;stroke-miterlimit:4;stroke-dasharray:none;stroke-opacity:1"
       d="M 96.113296,51.910281 161.32706,19.837939 155.71441,123.00398 95.044218,164.16349 Z"
       id="path227" />
    <text
       xml:space="preserve"
       style="font-style:normal;font-weight:normal;font-size:10.5833px;line-height:1.25;font-family:sans-serif;fill:#000000;fill-opacity:1;stroke:none;stroke-width:0.264583"
       x="74.408478"
       y="19.839108"
       id="text93"><tspan
         sodipodi:role="line"
         id="tspan91"
         x="74.408478"
         y="19.839108"
         style="stroke-width:0.264583"></tspan></text>
    <g
       aria-label="6"
       id="text102"
       style="font-style:normal;font-variant:normal;font-weight:normal;font-stretch:normal;font-size:10.5833px;line-height:1.25;font-family:'Berlin Sans FB';-inkscape-font-specification:'Berlin Sans FB, Normal';font-variant-ligatures:normal;font-variant-caps:normal;font-variant-numeric:normal;font-variant-east-asian:normal;opacity:1;fill:#d36700;fill-opacity:1;stroke:none;stroke-width:0.265;stroke-miterlimit:4;stroke-dasharray:none;stroke-opacity:1"
       inkscape:path-effect="#path-effect107"
       transform="matrix(0.6,0,0,0.6,35.146415,10.088109)">
      <path
         d="m 125.99178,12.232892 c 10.55773,2.272309 16.49505,5.349199 17.69056,9.286832 1.17972,4.047776 -2.94665,8.445116 -12.65214,13.218309 -10.91664,5.368838 -24.08272,8.574607 -39.242996,9.465345 C 77.924644,45.0322 64.747314,43.849749 52.520083,40.707556 37.921302,36.955914 31.16083,31.48144 31.909302,24.487638 32.620275,17.844321 40.148333,11.846136 54.066328,6.4231938 54.964012,6.0734244 56.073042,5.9311384 57.395888,5.9956385 66.17303,6.4796692 70.622291,6.7326399 70.713955,6.7529138 72.044871,7.0472796 71.85719,7.5385445 70.141466,8.2289731 63.564045,10.875808 58.900089,13.59101 56.209707,16.377743 c -3.540953,3.693032 -3.844228,6.849495 -0.788993,9.427445 0.422427,0.338827 0.853551,0.56182 1.292831,0.668391 0.586225,0.142221 1.109625,0.09974 1.569138,-0.127259 1.912684,-1.552954 3.778513,-3.077622 5.598501,-4.574661 2.141217,-1.56043 4.712275,-2.965113 7.710549,-4.2188 8.124146,-3.396999 17.115331,-5.559114 27.075894,-6.546294 9.889483,-0.980136 18.949123,-0.576263 27.324183,1.226275 z m -13.95933,6.460839 c -5.02277,-1.123477 -10.58033,-1.397442 -16.724872,-0.82772 -6.218138,0.560876 -11.732508,1.871936 -16.581104,3.955754 -12.536472,5.387896 -13.886154,9.416923 -3.518655,11.959109 5.955743,1.460392 12.732375,2.075955 20.273318,1.834849 8.551273,-0.308221 15.499223,-1.730527 20.783003,-4.233279 11.3343,-5.368678 9.72754,-9.566353 -4.23169,-12.688713 z"
         style="font-style:normal;font-variant:normal;font-weight:normal;font-stretch:normal;font-size:10.5833px;font-family:'Berlin Sans FB';-inkscape-font-specification:'Berlin Sans FB, Normal';font-variant-ligatures:normal;font-variant-caps:normal;font-variant-numeric:normal;font-variant-east-asian:normal;fill:#d36700;fill-opacity:1;stroke:none;stroke-width:0.265;stroke-miterlimit:4;stroke-dasharray:none;stroke-opacity:1"
         id="path104"
         inkscape:original-d="m 74.26893,23.255666 q 0,1.095537 -0.635618,1.746657 -0.635618,0.645954 -1.731155,0.645954 -1.188554,0 -1.839675,-0.837156 -0.594277,-0.759641 -0.594277,-1.979201 0,-1.493444 1.059363,-2.588981 1.059364,-1.095537 2.54764,-1.095537 0.09819,0 0.139526,0.108521 0.263549,0.728635 0.263549,0.73897 0,0.149861 -0.191202,0.149861 -0.723468,0 -1.291907,0.294555 -0.733803,0.382404 -1.018022,1.007687 -0.03617,0.08268 -0.03617,0.129191 0,0.06201 0.05168,0.05684 0.310057,-0.118856 0.614947,-0.237711 0.330728,-0.10852 0.651121,-0.10852 0.883664,0 1.446936,0.542601 0.563271,0.5426 0.563271,1.426265 z m -1.11104,0.02067 q 0,-0.52193 -0.330728,-0.857826 -0.330728,-0.341063 -0.852658,-0.341063 -1.312578,0 -1.312578,1.059363 0,0.599445 0.30489,1.054196 0.351399,0.511595 0.925006,0.511595 1.266068,0 1.266068,-1.426265 z" />
    </g>
    <g
       aria-label="16"
       id="text136"
       style="font-size:10.5833px;line-height:1.25;font-family:'Berlin Sans FB';-inkscape-font-specification:'Berlin Sans FB, Normal';fill:#6867e2;fill-opacity:1;stroke-width:0.264583"
       inkscape:path-effect="#path-effect143"
       transform="matrix(0.6,0,0,0.6,19.314019,37.370604)">
      <path
         d="m 25.994019,38.486508 c 0.007,0.29575 -2.14e-4,0.822656 -0.02173,1.580324 -0.651047,10.390125 -0.681945,27.471392 -0.108274,50.931179 0.120567,4.930467 0.33934,12.322009 0.654511,22.122549 0.312213,9.70859 0.525197,16.91044 0.640734,21.6569 0.05103,2.09641 -0.545258,2.92483 -1.786687,2.48928 -1.238641,-0.43458 -3.015221,-1.00492 -5.324338,-1.70947 -2.299194,-0.70153 -4.017908,-1.2523 -5.161752,-1.65395 -1.141446,-0.4008 -1.732024,-1.26452 -1.773564,-2.59308 -0.03494,-1.11734 -0.10236,-10.87907 -0.203704,-29.55309 C 12.848439,92.581371 12.541596,78.977974 11.981827,60.775036 11.941466,59.462565 11.730773,58.751768 11.349984,58.64394 10.437242,58.385479 9.0098482,58.433066 7.0731971,58.785186 5.1828038,59.146449 3.7719904,59.192583 2.8357291,58.92513 1.9758046,58.679483 1.5342423,58.217639 1.5100043,57.538974 1.4857505,56.859867 1.4866954,55.850931 1.5128791,54.51105 1.576552,53.179771 1.5962824,52.172133 1.5719864,51.489308 1.5497029,50.863043 1.4787777,49.912477 1.3591261,48.636881 1.2392764,47.359948 1.1680817,46.406516 1.1456269,45.777315 c -0.026555,-0.744095 0.3643696,-1.2614 1.1740165,-1.551958 2.1418705,-0.78456 4.3959631,-2.519411 6.7673876,-5.217028 0.1092794,-0.143757 1.108566,-1.60991 3.00752,-4.412724 1.654386,-2.421787 2.582384,-3.613104 2.77669,-3.56317 -0.03911,-0.01005 1.591168,0.935697 4.903192,2.844366 1.222315,0.550629 3.003509,1.452025 5.348094,2.706757 0.55958,0.380723 0.850097,1.01535 0.87121,1.903098 z"
         style="fill:#6867e2;fill-opacity:1;stroke-width:0.264583"
         id="path138"
         inkscape:original-d="m 49.571299,87.809137 q 0,0.02584 -0.0052,0.09302 -0.118856,0.935341 -0.118856,3.069571 0,0.454751 0.01034,1.369421 0.01034,0.91467 0.01034,1.369421 0,0.201537 -0.170532,0.201537 -0.170532,0 -0.490924,0.01034 -0.320393,0.01034 -0.48059,0.01034 -0.160196,0 -0.160196,-0.129191 0,-0.10852 0.06718,-1.901686 0.03101,-0.868162 0.03101,-2.532138 0,-0.118855 -0.05168,-0.118855 -0.124023,0 -0.392739,0.08268 -0.263549,0.08268 -0.39274,0.08268 -0.118855,0 -0.118855,-0.06201 0,-0.06201 0.01033,-0.186035 0.0155,-0.124023 0.0155,-0.186035 0,-0.05684 -0.01033,-0.170531 -0.01034,-0.113688 -0.01034,-0.170532 0,-0.06718 0.113688,-0.113688 0.299723,-0.124023 0.635618,-0.423745 0.0155,-0.0155 0.28422,-0.310058 0.232543,-0.253213 0.258381,-0.253213 -0.0052,0 0.428913,0.09302 0.160197,0.02067 0.465087,0.07751 0.07235,0.02067 0.07235,0.09819 z" />
      <path
         d="m 95.422786,124.4048 c -0.117186,12.30455 -2.836388,21.11945 -8.094775,26.49135 -5.174711,5.23076 -12.094039,6.27549 -20.721222,3.2306 C 57.391964,150.87446 50.304748,143.97596 45.234085,133.39173 40.60671,123.77837 38.170759,112.42075 37.923845,99.19111 37.617072,82.754246 41.447442,69.461641 49.579885,59.310694 57.934642,48.882265 68.322379,45.136176 80.770196,48.33905 c 0.830684,0.213739 1.41979,1.016554 1.766257,2.407552 2.201491,9.284984 3.298269,13.973223 3.297699,14.095767 -0.0083,1.7753 -0.820281,2.441532 -2.432741,2.001879 -6.060939,-1.652572 -11.415817,-1.390869 -16.071818,0.75371 -5.932386,2.757432 -9.972,7.372395 -12.165751,13.82224 -0.277115,0.850907 -0.412804,1.538522 -0.407361,2.063548 0.0073,0.699565 0.215044,1.080376 0.623619,1.142824 2.449141,-0.617733 4.891493,-1.245016 7.326866,-1.881897 2.658471,-0.4618 5.293085,-0.316955 7.900983,0.439146 7.254667,2.103327 13.251017,6.983092 17.927065,14.630722 4.685377,7.662899 6.983433,16.555089 6.88786,26.590239 z m -13.796691,-4.05299 c 0.01581,-5.85612 -1.329262,-11.11499 -4.033317,-15.74784 C 74.89129,99.917001 71.41956,96.934948 67.199135,95.661688 56.721148,92.500585 51.624294,96.839089 51.764173,108.53311 c 0.07845,6.55822 1.326085,12.67695 3.74203,18.38483 2.781201,6.43863 6.407111,10.41581 10.905602,11.94376 10.055905,3.41557 15.171558,-2.67774 15.21429,-18.50989 z"
         style="fill:#6867e2;fill-opacity:1;stroke-width:0.264583"
         id="path140"
         inkscape:original-d="m 55.307365,91.669354 q 0,1.095537 -0.635618,1.746658 -0.635618,0.645953 -1.731155,0.645953 -1.188554,0 -1.839675,-0.837155 -0.594277,-0.759641 -0.594277,-1.979201 0,-1.493444 1.059363,-2.588981 1.059364,-1.095537 2.54764,-1.095537 0.09818,0 0.139526,0.10852 0.263549,0.728636 0.263549,0.738971 0,0.149861 -0.191202,0.149861 -0.723468,0 -1.291907,0.294555 -0.733803,0.382404 -1.018022,1.007687 -0.03617,0.08268 -0.03617,0.129191 0,0.06201 0.05168,0.05684 0.310057,-0.118855 0.614947,-0.23771 0.330728,-0.108521 0.651121,-0.108521 0.883664,0 1.446936,0.542601 0.563271,0.542601 0.563271,1.426265 z m -1.11104,0.02067 q 0,-0.52193 -0.330728,-0.857826 -0.330728,-0.341064 -0.852658,-0.341064 -1.312578,0 -1.312578,1.059364 0,0.599445 0.30489,1.054196 0.351399,0.511595 0.925006,0.511595 1.266068,0 1.266068,-1.426265 z" />
    </g>
    <g
       aria-label="20"
       id="text147"
       style="font-size:10.5833px;line-height:1.25;font-family:'Berlin Sans FB';-inkscape-font-specification:'Berlin Sans FB, Normal';fill:#52a547;fill-opacity:1;stroke-width:0.264583"
       inkscape:path-effect="#path-effect154"
       transform="matrix(0.6,0,0,0.6,50.928621,37.607368)">
      <path
         d="m 124.17935,127.76208 c -0.0489,1.57523 -0.1533,4.03112 -0.31276,7.35859 -0.15704,3.25824 -0.26004,5.68241 -0.30945,7.28093 -0.0362,1.16981 -0.3685,1.96677 -0.99812,2.39313 0.20987,-0.14211 -0.69188,0.26003 -2.71686,1.21189 -2.02148,0.94625 -5.07406,2.79639 -9.18937,5.57421 -1.41817,0.95725 -3.58008,2.49688 -6.50168,4.6308 -2.9295,2.14081 -5.149962,3.72253 -6.6457,4.73338 -0.479368,0.32396 -0.776062,-0.0205 -0.889682,-1.03552 l -0.69581,-11.45647 c 0.0068,-0.67347 0.75404,-1.82961 2.237379,-3.46307 1.646476,-1.84788 2.682353,-3.38057 3.112973,-4.60409 2.99554,-8.6657 5.96373,-18.55619 8.91358,-29.70644 3.83097,-14.586304 5.83427,-25.184259 5.99357,-31.774236 0.13173,-5.449703 -0.5292,-9.558646 -1.99504,-12.316219 -1.38072,-2.596676 -3.05487,-3.391944 -5.02215,-2.361388 -1.91582,1.003602 -3.86186,3.101445 -5.83379,6.29688 -1.35553,2.197245 -2.72068,4.895696 -4.093997,8.093719 l -1.75891,4.177227 c -0.176812,0.09631 -0.298133,0.131515 -0.363897,0.105557 -0.218458,-0.18822 -0.340421,-1.198265 -0.365746,-3.03386 -0.0064,-1.479732 -0.05138,-3.593507 -0.13533,-6.34797 -0.414024,-5.481422 -0.627701,-7.702794 -0.637966,-6.624937 0.0048,-0.507012 0.179406,-1.196547 0.523696,-2.068243 1.837425,-4.795422 4.17849,-9.143762 7.01122,-13.02946 2.70403,-3.681022 5.21838,-6.088142 7.54074,-7.230281 3.95082,-1.943029 7.09654,-0.827669 9.44839,3.276102 2.62345,4.541676 3.75806,12.168485 3.44289,22.819374 -0.33811,11.426 -4.30867,29.222129 -11.8884,53.440595 -0.84621,3.08102 -2.17063,7.53961 -3.97227,13.37285 0.52668,-0.23171 1.18525,-0.60384 1.97486,-1.11569 3.93618,-2.55152 8.39764,-6.09035 13.36678,-10.59033 l 0.2342,-0.23186 c 0.40542,-0.26138 0.58082,0.48103 0.52674,2.22354 z"
         style="fill:#52a547;fill-opacity:1;stroke-width:0.264583"
         id="path149"
         inkscape:original-d="m 125.51866,88.057908 q 0,0.149861 -0.0155,0.465086 -0.0155,0.310058 -0.0155,0.465086 0,0.113688 -0.17053,0.113688 0.0568,0 -0.49093,-0.04134 -0.5426,-0.04134 -1.61747,-0.04134 -0.3669,0 -1.11104,0.0155 -0.73897,0.0155 -1.11104,0.0155 -0.11885,0 -0.14986,-0.103353 l -0.13435,-0.744138 q 0,-0.06201 0.36173,-0.124023 0.40307,-0.07235 0.50643,-0.160196 0.7183,-0.625283 1.41076,-1.477942 0.894,-1.111039 0.894,-1.684646 0,-0.470254 -0.38241,-0.775144 -0.35656,-0.284219 -0.83198,-0.284219 -0.45992,0 -0.91984,0.180867 -0.31523,0.124023 -0.63045,0.330728 -0.26872,0.180867 -0.26872,0.180867 -0.0413,0 -0.0568,-0.0052 -0.0517,-0.02584 -0.062,-0.180867 -0.005,-0.124023 -0.031,-0.356566 -0.10852,-0.470254 -0.10852,-0.382405 0,-0.04134 0.0775,-0.09819 0.41341,-0.315225 1.06454,-0.516762 0.62528,-0.191202 1.17821,-0.191202 0.95085,0 1.5658,0.444416 0.69762,0.501259 0.69762,1.421097 0,1.002519 -1.819,2.811189 -0.20154,0.237711 -0.63562,0.676959 0.13436,0.01033 0.3359,0.01033 1.01285,0 2.32026,-0.124023 l 0.0413,-0.0052 q 0.10852,0 0.10852,0.165364 z" />
      <path
         d="m 158.42139,73.247093 c -0.74245,13.6469 -2.65505,26.000899 -5.73825,37.223727 -3.27692,11.96127 -7.07201,19.38736 -11.44891,22.35672 -4.42917,3.00481 -7.93392,0.38749 -10.51054,-8.05123 -2.49539,-8.11395 -3.53809,-19.22818 -3.07389,-33.40782 0.47398,-14.478328 2.37844,-27.990503 5.71772,-40.350609 3.55965,-13.235272 7.74812,-21.060526 12.4898,-23.394038 4.67984,-2.303077 8.18349,1.530696 10.52355,11.275679 2.1344,8.96327 2.7978,20.427905 2.04052,34.347571 z m -6.23235,3.670232 c 0.42803,-8.5502 0.0693,-15.609229 -1.09261,-21.157745 -1.31502,-6.176766 -3.36795,-8.567901 -6.16408,-7.086929 -2.82488,1.496198 -5.24832,6.32281 -7.24236,14.443391 -1.76499,7.227967 -2.81378,15.31456 -3.14799,24.19363 -0.32575,8.654478 0.14889,15.604428 1.4071,20.873438 1.39639,5.77685 3.43157,7.76204 6.10281,6.03724 2.55607,-1.65044 4.82412,-6.43512 6.82783,-14.389219 1.80197,-7.227968 2.90558,-14.849274 3.3093,-22.913806 z"
         style="fill:#52a547;fill-opacity:1;stroke-width:0.264583"
         id="path151"
         inkscape:original-d="m 131.67331,85.89784 q 0,1.302242 -0.76998,2.24275 -0.82165,1.007687 -2.09806,1.007687 -1.27123,0 -2.09288,-1.007687 -0.77515,-0.945676 -0.77515,-2.24275 0,-1.297075 0.77515,-2.232415 0.82165,-0.997352 2.09288,-0.997352 1.27641,0 2.09806,0.992184 0.76998,0.935341 0.76998,2.237583 z m -1.2144,0 q 0,-0.795815 -0.41857,-1.374589 -0.46509,-0.635618 -1.23507,-0.635618 -0.76997,0 -1.22989,0.635618 -0.40824,0.568439 -0.40824,1.374589 0,0.795814 0.41341,1.379756 0.46508,0.651121 1.22472,0.651121 0.73381,0 1.21956,-0.666624 0.43408,-0.604612 0.43408,-1.364253 z" />
    </g>
  </g>
</svg>
