<svg width="500" height="107" viewBox="0 0 500 107" fill="none" xmlns="http://www.w3.org/2000/svg">
<rect width="500" height="107" rx="5" fill="#494D9B"/>
<path d="M93.9 24L90.02 13.24H92.96L96.18 22.5H94.78L98.14 13.24H100.78L104.04 22.5H102.64L105.96 13.24H108.72L104.82 24H101.8L98.94 16.06H99.86L96.9 24H93.9ZM116.71 13.08C117.564 13.08 118.324 13.2533 118.99 13.6C119.67 13.9333 120.204 14.4533 120.59 15.16C120.977 15.8533 121.17 16.7467 121.17 17.84V24H118.05V18.32C118.05 17.4533 117.857 16.8133 117.47 16.4C117.097 15.9867 116.564 15.78 115.87 15.78C115.377 15.78 114.93 15.8867 114.53 16.1C114.144 16.3 113.837 16.6133 113.61 17.04C113.397 17.4667 113.29 18.0133 113.29 18.68V24H110.17V9.16H113.29V16.22L112.59 15.32C112.977 14.6 113.53 14.0467 114.25 13.66C114.97 13.2733 115.79 13.08 116.71 13.08ZM123.999 24V13.24H127.119V24H123.999ZM125.559 11.74C124.985 11.74 124.519 11.5733 124.159 11.24C123.799 10.9067 123.619 10.4933 123.619 10C123.619 9.50667 123.799 9.09333 124.159 8.76C124.519 8.42667 124.985 8.26 125.559 8.26C126.132 8.26 126.599 8.42 126.959 8.74C127.319 9.04667 127.499 9.44667 127.499 9.94C127.499 10.46 127.319 10.8933 126.959 11.24C126.612 11.5733 126.145 11.74 125.559 11.74ZM130.014 24V9.16H133.134V24H130.014ZM141.37 24.16C140.143 24.16 139.063 23.92 138.13 23.44C137.21 22.96 136.497 22.3067 135.99 21.48C135.483 20.64 135.23 19.6867 135.23 18.62C135.23 17.54 135.477 16.5867 135.97 15.76C136.477 14.92 137.163 14.2667 138.03 13.8C138.897 13.32 139.877 13.08 140.97 13.08C142.023 13.08 142.97 13.3067 143.81 13.76C144.663 14.2 145.337 14.84 145.83 15.68C146.323 16.5067 146.57 17.5 146.57 18.66C146.57 18.78 146.563 18.92 146.55 19.08C146.537 19.2267 146.523 19.3667 146.51 19.5H137.77V17.68H144.87L143.67 18.22C143.67 17.66 143.557 17.1733 143.33 16.76C143.103 16.3467 142.79 16.0267 142.39 15.8C141.99 15.56 141.523 15.44 140.99 15.44C140.457 15.44 139.983 15.56 139.57 15.8C139.17 16.0267 138.857 16.3533 138.63 16.78C138.403 17.1933 138.29 17.6867 138.29 18.26V18.74C138.29 19.3267 138.417 19.8467 138.67 20.3C138.937 20.74 139.303 21.08 139.77 21.32C140.25 21.5467 140.81 21.66 141.45 21.66C142.023 21.66 142.523 21.5733 142.95 21.4C143.39 21.2267 143.79 20.9667 144.15 20.62L145.81 22.42C145.317 22.98 144.697 23.4133 143.95 23.72C143.203 24.0133 142.343 24.16 141.37 24.16Z" fill="#FF9900"/>
<path d="M159.511 24.16C158.351 24.16 157.318 23.9267 156.411 23.46C155.504 22.98 154.791 22.32 154.271 21.48C153.764 20.64 153.511 19.6867 153.511 18.62C153.511 17.54 153.764 16.5867 154.271 15.76C154.791 14.92 155.504 14.2667 156.411 13.8C157.318 13.32 158.351 13.08 159.511 13.08C160.644 13.08 161.631 13.32 162.471 13.8C163.311 14.2667 163.931 14.94 164.331 15.82L161.911 17.12C161.631 16.6133 161.278 16.24 160.851 16C160.438 15.76 159.984 15.64 159.491 15.64C158.958 15.64 158.478 15.76 158.051 16C157.624 16.24 157.284 16.58 157.031 17.02C156.791 17.46 156.671 17.9933 156.671 18.62C156.671 19.2467 156.791 19.78 157.031 20.22C157.284 20.66 157.624 21 158.051 21.24C158.478 21.48 158.958 21.6 159.491 21.6C159.984 21.6 160.438 21.4867 160.851 21.26C161.278 21.02 161.631 20.64 161.911 20.12L164.331 21.44C163.931 22.3067 163.311 22.98 162.471 23.46C161.631 23.9267 160.644 24.16 159.511 24.16ZM170.668 24.16C169.774 24.16 168.974 23.9867 168.268 23.64C167.574 23.2933 167.034 22.7667 166.648 22.06C166.261 21.34 166.068 20.4267 166.068 19.32V13.24H169.188V18.86C169.188 19.7533 169.374 20.4133 169.748 20.84C170.134 21.2533 170.674 21.46 171.368 21.46C171.848 21.46 172.274 21.36 172.648 21.16C173.021 20.9467 173.314 20.6267 173.528 20.2C173.741 19.76 173.848 19.2133 173.848 18.56V13.24H176.968V24H174.008V21.04L174.548 21.9C174.188 22.6467 173.654 23.2133 172.948 23.6C172.254 23.9733 171.494 24.16 170.668 24.16ZM179.858 24V13.24H182.838V16.28L182.418 15.4C182.738 14.64 183.251 14.0667 183.958 13.68C184.665 13.28 185.525 13.08 186.538 13.08V15.96C186.405 15.9467 186.285 15.94 186.178 15.94C186.071 15.9267 185.958 15.92 185.838 15.92C184.985 15.92 184.291 16.1667 183.758 16.66C183.238 17.14 182.978 17.8933 182.978 18.92V24H179.858ZM203.455 21.92L193.935 18.3V15.7L203.455 12.08V14.58L194.875 17.7V16.3L203.455 19.42V21.92ZM205.908 15.74V13.3H215.428V15.74H205.908ZM205.908 20.7V18.26H215.428V20.7H205.908ZM230.285 13.08C231.138 13.08 231.898 13.2533 232.565 13.6C233.245 13.9333 233.778 14.4533 234.165 15.16C234.551 15.8533 234.745 16.7467 234.745 17.84V24H231.625V18.32C231.625 17.4533 231.431 16.8133 231.045 16.4C230.671 15.9867 230.138 15.78 229.445 15.78C228.951 15.78 228.505 15.8867 228.105 16.1C227.718 16.3 227.411 16.6133 227.185 17.04C226.971 17.4667 226.865 18.0133 226.865 18.68V24H223.745V13.24H226.725V16.22L226.165 15.32C226.551 14.6 227.105 14.0467 227.825 13.66C228.545 13.2733 229.365 13.08 230.285 13.08ZM238.753 16.98C238.219 16.98 237.759 16.8 237.373 16.44C236.999 16.0667 236.813 15.5933 236.813 15.02C236.813 14.4467 236.999 13.9867 237.373 13.64C237.759 13.28 238.219 13.1 238.753 13.1C239.299 13.1 239.759 13.28 240.133 13.64C240.506 13.9867 240.693 14.4467 240.693 15.02C240.693 15.5933 240.506 16.0667 240.133 16.44C239.759 16.8 239.299 16.98 238.753 16.98ZM238.753 24.16C238.219 24.16 237.759 23.98 237.373 23.62C236.999 23.2467 236.813 22.7733 236.813 22.2C236.813 21.6267 236.999 21.1667 237.373 20.82C237.759 20.46 238.219 20.28 238.753 20.28C239.299 20.28 239.759 20.46 240.133 20.82C240.506 21.1667 240.693 21.6267 240.693 22.2C240.693 22.7733 240.506 23.2467 240.133 23.62C239.759 23.98 239.299 24.16 238.753 24.16Z" fill="white"/>
<path d="M131.44 60.5V49.74H134.56V60.5H131.44ZM133 48.24C132.427 48.24 131.96 48.0733 131.6 47.74C131.24 47.4067 131.06 46.9933 131.06 46.5C131.06 46.0067 131.24 45.5933 131.6 45.26C131.96 44.9267 132.427 44.76 133 44.76C133.573 44.76 134.04 44.92 134.4 45.24C134.76 45.5467 134.94 45.9467 134.94 46.44C134.94 46.96 134.76 47.3933 134.4 47.74C134.053 48.0733 133.587 48.24 133 48.24ZM141.076 60.66C140.156 60.66 139.269 60.5533 138.416 60.34C137.576 60.1133 136.909 59.8333 136.416 59.5L137.456 57.26C137.949 57.5667 138.529 57.82 139.196 58.02C139.876 58.2067 140.542 58.3 141.196 58.3C141.916 58.3 142.422 58.2133 142.716 58.04C143.022 57.8667 143.176 57.6267 143.176 57.32C143.176 57.0667 143.056 56.88 142.816 56.76C142.589 56.6267 142.282 56.5267 141.896 56.46C141.509 56.3933 141.082 56.3267 140.616 56.26C140.162 56.1933 139.702 56.1067 139.236 56C138.769 55.88 138.342 55.7067 137.956 55.48C137.569 55.2533 137.256 54.9467 137.016 54.56C136.789 54.1733 136.676 53.6733 136.676 53.06C136.676 52.38 136.869 51.78 137.256 51.26C137.656 50.74 138.229 50.3333 138.976 50.04C139.722 49.7333 140.616 49.58 141.656 49.58C142.389 49.58 143.136 49.66 143.896 49.82C144.656 49.98 145.289 50.2133 145.796 50.52L144.756 52.74C144.236 52.4333 143.709 52.2267 143.176 52.12C142.656 52 142.149 51.94 141.656 51.94C140.962 51.94 140.456 52.0333 140.136 52.22C139.816 52.4067 139.656 52.6467 139.656 52.94C139.656 53.2067 139.769 53.4067 139.996 53.54C140.236 53.6733 140.549 53.78 140.936 53.86C141.322 53.94 141.742 54.0133 142.196 54.08C142.662 54.1333 143.129 54.22 143.596 54.34C144.062 54.46 144.482 54.6333 144.856 54.86C145.242 55.0733 145.556 55.3733 145.796 55.76C146.036 56.1333 146.156 56.6267 146.156 57.24C146.156 57.9067 145.956 58.5 145.556 59.02C145.156 59.5267 144.576 59.9267 143.816 60.22C143.069 60.5133 142.156 60.66 141.076 60.66ZM146.641 62.3V60.5H156.641V62.3H146.641ZM164.441 60.66C163.534 60.66 162.741 60.46 162.061 60.06C161.381 59.66 160.847 59.0533 160.461 58.24C160.087 57.4133 159.901 56.3733 159.901 55.12C159.901 53.8533 160.081 52.8133 160.441 52C160.801 51.1867 161.321 50.58 162.001 50.18C162.681 49.78 163.494 49.58 164.441 49.58C165.454 49.58 166.361 49.8133 167.161 50.28C167.974 50.7333 168.614 51.3733 169.081 52.2C169.561 53.0267 169.801 54 169.801 55.12C169.801 56.2533 169.561 57.2333 169.081 58.06C168.614 58.8867 167.974 59.5267 167.161 59.98C166.361 60.4333 165.454 60.66 164.441 60.66ZM158.081 64.38V49.74H161.061V51.94L161.001 55.14L161.201 58.32V64.38H158.081ZM163.901 58.1C164.421 58.1 164.881 57.98 165.281 57.74C165.694 57.5 166.021 57.16 166.261 56.72C166.514 56.2667 166.641 55.7333 166.641 55.12C166.641 54.4933 166.514 53.96 166.261 53.52C166.021 53.08 165.694 52.74 165.281 52.5C164.881 52.26 164.421 52.14 163.901 52.14C163.381 52.14 162.914 52.26 162.501 52.5C162.087 52.74 161.761 53.08 161.521 53.52C161.281 53.96 161.161 54.4933 161.161 55.12C161.161 55.7333 161.281 56.2667 161.521 56.72C161.761 57.16 162.087 57.5 162.501 57.74C162.914 57.98 163.381 58.1 163.901 58.1ZM171.889 60.5V49.74H174.869V52.78L174.449 51.9C174.769 51.14 175.283 50.5667 175.989 50.18C176.696 49.78 177.556 49.58 178.569 49.58V52.46C178.436 52.4467 178.316 52.44 178.209 52.44C178.103 52.4267 177.989 52.42 177.869 52.42C177.016 52.42 176.323 52.6667 175.789 53.16C175.269 53.64 175.009 54.3933 175.009 55.42V60.5H171.889ZM180.444 60.5V49.74H183.564V60.5H180.444ZM182.004 48.24C181.431 48.24 180.964 48.0733 180.604 47.74C180.244 47.4067 180.064 46.9933 180.064 46.5C180.064 46.0067 180.244 45.5933 180.604 45.26C180.964 44.9267 181.431 44.76 182.004 44.76C182.577 44.76 183.044 44.92 183.404 45.24C183.764 45.5467 183.944 45.9467 183.944 46.44C183.944 46.96 183.764 47.3933 183.404 47.74C183.057 48.0733 182.591 48.24 182.004 48.24ZM200.24 49.58C201.093 49.58 201.846 49.7533 202.5 50.1C203.166 50.4333 203.686 50.9533 204.06 51.66C204.446 52.3533 204.64 53.2467 204.64 54.34V60.5H201.52V54.82C201.52 53.9533 201.34 53.3133 200.98 52.9C200.62 52.4867 200.113 52.28 199.46 52.28C199.006 52.28 198.6 52.3867 198.24 52.6C197.88 52.8 197.6 53.1067 197.4 53.52C197.2 53.9333 197.1 54.46 197.1 55.1V60.5H193.98V54.82C193.98 53.9533 193.8 53.3133 193.44 52.9C193.093 52.4867 192.593 52.28 191.94 52.28C191.486 52.28 191.08 52.3867 190.72 52.6C190.36 52.8 190.08 53.1067 189.88 53.52C189.68 53.9333 189.58 54.46 189.58 55.1V60.5H186.46V49.74H189.44V52.68L188.88 51.82C189.253 51.0867 189.78 50.5333 190.46 50.16C191.153 49.7733 191.94 49.58 192.82 49.58C193.806 49.58 194.666 49.8333 195.4 50.34C196.146 50.8333 196.64 51.5933 196.88 52.62L195.78 52.32C196.14 51.48 196.713 50.8133 197.5 50.32C198.3 49.8267 199.213 49.58 200.24 49.58ZM212.854 60.66C211.628 60.66 210.548 60.42 209.614 59.94C208.694 59.46 207.981 58.8067 207.474 57.98C206.968 57.14 206.714 56.1867 206.714 55.12C206.714 54.04 206.961 53.0867 207.454 52.26C207.961 51.42 208.648 50.7667 209.514 50.3C210.381 49.82 211.361 49.58 212.454 49.58C213.508 49.58 214.454 49.8067 215.294 50.26C216.148 50.7 216.821 51.34 217.314 52.18C217.808 53.0067 218.054 54 218.054 55.16C218.054 55.28 218.048 55.42 218.034 55.58C218.021 55.7267 218.008 55.8667 217.994 56H209.254V54.18H216.354L215.154 54.72C215.154 54.16 215.041 53.6733 214.814 53.26C214.588 52.8467 214.274 52.5267 213.874 52.3C213.474 52.06 213.008 51.94 212.474 51.94C211.941 51.94 211.468 52.06 211.054 52.3C210.654 52.5267 210.341 52.8533 210.114 53.28C209.888 53.6933 209.774 54.1867 209.774 54.76V55.24C209.774 55.8267 209.901 56.3467 210.154 56.8C210.421 57.24 210.788 57.58 211.254 57.82C211.734 58.0467 212.294 58.16 212.934 58.16C213.508 58.16 214.008 58.0733 214.434 57.9C214.874 57.7267 215.274 57.4667 215.634 57.12L217.294 58.92C216.801 59.48 216.181 59.9133 215.434 60.22C214.688 60.5133 213.828 60.66 212.854 60.66ZM220.351 64.38V45.66H225.771V48.1H223.471V61.94H225.771V64.38H220.351ZM232.695 60.66C231.535 60.66 230.501 60.4267 229.595 59.96C228.688 59.48 227.975 58.82 227.455 57.98C226.948 57.14 226.695 56.1867 226.695 55.12C226.695 54.04 226.948 53.0867 227.455 52.26C227.975 51.42 228.688 50.7667 229.595 50.3C230.501 49.82 231.535 49.58 232.695 49.58C233.828 49.58 234.815 49.82 235.655 50.3C236.495 50.7667 237.115 51.44 237.515 52.32L235.095 53.62C234.815 53.1133 234.461 52.74 234.035 52.5C233.621 52.26 233.168 52.14 232.675 52.14C232.141 52.14 231.661 52.26 231.235 52.5C230.808 52.74 230.468 53.08 230.215 53.52C229.975 53.96 229.855 54.4933 229.855 55.12C229.855 55.7467 229.975 56.28 230.215 56.72C230.468 57.16 230.808 57.5 231.235 57.74C231.661 57.98 232.141 58.1 232.675 58.1C233.168 58.1 233.621 57.9867 234.035 57.76C234.461 57.52 234.815 57.14 235.095 56.62L237.515 57.94C237.115 58.8067 236.495 59.48 235.655 59.96C234.815 60.4267 233.828 60.66 232.695 60.66ZM243.851 60.66C242.958 60.66 242.158 60.4867 241.451 60.14C240.758 59.7933 240.218 59.2667 239.831 58.56C239.444 57.84 239.251 56.9267 239.251 55.82V49.74H242.371V55.36C242.371 56.2533 242.558 56.9133 242.931 57.34C243.318 57.7533 243.858 57.96 244.551 57.96C245.031 57.96 245.458 57.86 245.831 57.66C246.204 57.4467 246.498 57.1267 246.711 56.7C246.924 56.26 247.031 55.7133 247.031 55.06V49.74H250.151V60.5H247.191V57.54L247.731 58.4C247.371 59.1467 246.838 59.7133 246.131 60.1C245.438 60.4733 244.678 60.66 243.851 60.66ZM253.042 60.5V49.74H256.022V52.78L255.602 51.9C255.922 51.14 256.435 50.5667 257.142 50.18C257.848 49.78 258.708 49.58 259.722 49.58V52.46C259.588 52.4467 259.468 52.44 259.362 52.44C259.255 52.4267 259.142 52.42 259.022 52.42C258.168 52.42 257.475 52.6667 256.942 53.16C256.422 53.64 256.162 54.3933 256.162 55.42V60.5H253.042ZM265.798 64.38H260.398V61.94H262.678V48.1H260.398V45.66H265.798V64.38ZM274.365 52.24V49.8H283.885V52.24H274.365ZM274.365 57.2V54.76H283.885V57.2H274.365Z" fill="white"/>
<path d="M297.542 60.74C296.395 60.74 295.368 60.46 294.462 59.9C293.555 59.3267 292.842 58.5 292.322 57.42C291.802 56.34 291.542 55.0333 291.542 53.5C291.542 51.9667 291.802 50.66 292.322 49.58C292.842 48.5 293.555 47.68 294.462 47.12C295.368 46.5467 296.395 46.26 297.542 46.26C298.702 46.26 299.728 46.5467 300.622 47.12C301.528 47.68 302.242 48.5 302.762 49.58C303.282 50.66 303.542 51.9667 303.542 53.5C303.542 55.0333 303.282 56.34 302.762 57.42C302.242 58.5 301.528 59.3267 300.622 59.9C299.728 60.46 298.702 60.74 297.542 60.74ZM297.542 58C298.088 58 298.562 57.8467 298.962 57.54C299.375 57.2333 299.695 56.7467 299.922 56.08C300.162 55.4133 300.282 54.5533 300.282 53.5C300.282 52.4467 300.162 51.5867 299.922 50.92C299.695 50.2533 299.375 49.7667 298.962 49.46C298.562 49.1533 298.088 49 297.542 49C297.008 49 296.535 49.1533 296.122 49.46C295.722 49.7667 295.402 50.2533 295.162 50.92C294.935 51.5867 294.822 52.4467 294.822 53.5C294.822 54.5533 294.935 55.4133 295.162 56.08C295.402 56.7467 295.722 57.2333 296.122 57.54C296.535 57.8467 297.008 58 297.542 58Z" fill="#49D3FF"/>
<path d="M136.64 97.16C135.48 97.16 134.447 96.9267 133.54 96.46C132.633 95.98 131.92 95.32 131.4 94.48C130.893 93.64 130.64 92.6867 130.64 91.62C130.64 90.54 130.893 89.5867 131.4 88.76C131.92 87.92 132.633 87.2667 133.54 86.8C134.447 86.32 135.48 86.08 136.64 86.08C137.773 86.08 138.76 86.32 139.6 86.8C140.44 87.2667 141.06 87.94 141.46 88.82L139.04 90.12C138.76 89.6133 138.407 89.24 137.98 89C137.567 88.76 137.113 88.64 136.62 88.64C136.087 88.64 135.607 88.76 135.18 89C134.753 89.24 134.413 89.58 134.16 90.02C133.92 90.46 133.8 90.9933 133.8 91.62C133.8 92.2467 133.92 92.78 134.16 93.22C134.413 93.66 134.753 94 135.18 94.24C135.607 94.48 136.087 94.6 136.62 94.6C137.113 94.6 137.567 94.4867 137.98 94.26C138.407 94.02 138.76 93.64 139.04 93.12L141.46 94.44C141.06 95.3067 140.44 95.98 139.6 96.46C138.76 96.9267 137.773 97.16 136.64 97.16ZM147.796 97.16C146.903 97.16 146.103 96.9867 145.396 96.64C144.703 96.2933 144.163 95.7667 143.776 95.06C143.39 94.34 143.196 93.4267 143.196 92.32V86.24H146.316V91.86C146.316 92.7533 146.503 93.4133 146.876 93.84C147.263 94.2533 147.803 94.46 148.496 94.46C148.976 94.46 149.403 94.36 149.776 94.16C150.15 93.9467 150.443 93.6267 150.656 93.2C150.87 92.76 150.976 92.2133 150.976 91.56V86.24H154.096V97H151.136V94.04L151.676 94.9C151.316 95.6467 150.783 96.2133 150.076 96.6C149.383 96.9733 148.623 97.16 147.796 97.16ZM156.987 97V86.24H159.967V89.28L159.547 88.4C159.867 87.64 160.38 87.0667 161.087 86.68C161.794 86.28 162.654 86.08 163.667 86.08V88.96C163.534 88.9467 163.414 88.94 163.307 88.94C163.2 88.9267 163.087 88.92 162.967 88.92C162.114 88.92 161.42 89.1667 160.887 89.66C160.367 90.14 160.107 90.8933 160.107 91.92V97H156.987ZM174.524 94.62V85.38H177.104V94.62H174.524ZM171.064 91.22V88.78H180.584V91.22H171.064ZM183.037 88.74V86.3H192.557V88.74H183.037ZM183.037 93.7V91.26H192.557V93.7H183.037ZM203.454 94.8L203.534 91L208.554 86.24H212.274L207.454 91.14L205.834 92.46L203.454 94.8ZM200.874 97V82.16H203.994V97H200.874ZM208.894 97L205.254 92.48L207.214 90.06L212.674 97H208.894Z" fill="white"/>
</svg>
