<svg width="500" height="34" viewBox="0 0 500 34" fill="none" xmlns="http://www.w3.org/2000/svg">
<rect width="500" height="34" rx="5" fill="#494D9B"/>
<path d="M96.64 24.16C95.48 24.16 94.4467 23.9267 93.54 23.46C92.6333 22.98 91.92 22.32 91.4 21.48C90.8933 20.64 90.64 19.6867 90.64 18.62C90.64 17.54 90.8933 16.5867 91.4 15.76C91.92 14.92 92.6333 14.2667 93.54 13.8C94.4467 13.32 95.48 13.08 96.64 13.08C97.7733 13.08 98.76 13.32 99.6 13.8C100.44 14.2667 101.06 14.94 101.46 15.82L99.04 17.12C98.76 16.6133 98.4067 16.24 97.98 16C97.5667 15.76 97.1133 15.64 96.62 15.64C96.0867 15.64 95.6067 15.76 95.18 16C94.7533 16.24 94.4133 16.58 94.16 17.02C93.92 17.46 93.8 17.9933 93.8 18.62C93.8 19.2467 93.92 19.78 94.16 20.22C94.4133 20.66 94.7533 21 95.18 21.24C95.6067 21.48 96.0867 21.6 96.62 21.6C97.1133 21.6 97.5667 21.4867 97.98 21.26C98.4067 21.02 98.76 20.64 99.04 20.12L101.46 21.44C101.06 22.3067 100.44 22.98 99.6 23.46C98.76 23.9267 97.7733 24.16 96.64 24.16ZM107.796 24.16C106.903 24.16 106.103 23.9867 105.396 23.64C104.703 23.2933 104.163 22.7667 103.776 22.06C103.39 21.34 103.196 20.4267 103.196 19.32V13.24H106.316V18.86C106.316 19.7533 106.503 20.4133 106.876 20.84C107.263 21.2533 107.803 21.46 108.496 21.46C108.976 21.46 109.403 21.36 109.776 21.16C110.15 20.9467 110.443 20.6267 110.656 20.2C110.87 19.76 110.976 19.2133 110.976 18.56V13.24H114.096V24H111.136V21.04L111.676 21.9C111.316 22.6467 110.783 23.2133 110.076 23.6C109.383 23.9733 108.623 24.16 107.796 24.16ZM116.987 24V13.24H119.967V16.28L119.547 15.4C119.867 14.64 120.38 14.0667 121.087 13.68C121.794 13.28 122.654 13.08 123.667 13.08V15.96C123.534 15.9467 123.414 15.94 123.307 15.94C123.2 15.9267 123.087 15.92 122.967 15.92C122.114 15.92 121.42 16.1667 120.887 16.66C120.367 17.14 120.107 17.8933 120.107 18.92V24H116.987ZM131.064 15.74V13.3H140.584V15.74H131.064ZM131.064 20.7V18.26H140.584V20.7H131.064ZM173.342 11.92L170.682 13.38V12.86L173.342 14.3L172.362 15.94L169.882 14.46L170.162 14.28L170.202 17.06H168.322L168.342 14.28L168.622 14.46L166.142 15.94L165.182 14.3L167.842 12.86V13.38L165.182 11.92L166.142 10.28L168.622 11.78L168.342 11.94L168.322 9.16H170.202L170.162 11.94L169.882 11.78L172.362 10.28L173.342 11.92ZM183.278 21.8L183.358 18L188.378 13.24H192.098L187.278 18.14L185.658 19.46L183.278 21.8ZM180.698 24V9.16H183.818V24H180.698ZM188.718 24L185.078 19.48L187.038 17.06L192.498 24H188.718Z" fill="white"/>
<path d="M148.121 24V21.9L153.521 16.8C153.948 16.4133 154.261 16.0667 154.461 15.76C154.661 15.4533 154.794 15.1733 154.861 14.92C154.941 14.6667 154.981 14.4333 154.981 14.22C154.981 13.66 154.788 13.2333 154.401 12.94C154.028 12.6333 153.474 12.48 152.741 12.48C152.154 12.48 151.608 12.5933 151.101 12.82C150.608 13.0467 150.188 13.4 149.841 13.88L147.481 12.36C148.014 11.56 148.761 10.9267 149.721 10.46C150.681 9.99333 151.788 9.76 153.041 9.76C154.081 9.76 154.988 9.93333 155.761 10.28C156.548 10.6133 157.154 11.0867 157.581 11.7C158.021 12.3133 158.241 13.0467 158.241 13.9C158.241 14.3533 158.181 14.8067 158.061 15.26C157.954 15.7 157.728 16.1667 157.381 16.66C157.048 17.1533 156.554 17.7067 155.901 18.32L151.421 22.54L150.801 21.36H158.701V24H148.121Z" fill="#49D3FF"/>
</svg>
