<svg width="500" height="71" viewBox="0 0 500 71" fill="none" xmlns="http://www.w3.org/2000/svg">
<rect width="500" height="70.5" rx="5" fill="#494D9B"/>
<path d="M91.44 24V13.24H94.56V24H91.44ZM93 11.74C92.4267 11.74 91.96 11.5733 91.6 11.24C91.24 10.9067 91.06 10.4933 91.06 10C91.06 9.50667 91.24 9.09333 91.6 8.76C91.96 8.42667 92.4267 8.26 93 8.26C93.5733 8.26 94.04 8.42 94.4 8.74C94.76 9.04667 94.94 9.44667 94.94 9.94C94.94 10.46 94.76 10.8933 94.4 11.24C94.0533 11.5733 93.5867 11.74 93 11.74ZM97.8356 24V13C97.8356 11.7867 98.1956 10.82 98.9156 10.1C99.6356 9.36667 100.662 9 101.996 9C102.449 9 102.882 9.04667 103.296 9.14C103.722 9.23333 104.082 9.38 104.376 9.58L103.556 11.84C103.382 11.72 103.189 11.6267 102.976 11.56C102.762 11.4933 102.536 11.46 102.296 11.46C101.842 11.46 101.489 11.5933 101.236 11.86C100.996 12.1133 100.876 12.5 100.876 13.02V14.02L100.956 15.36V24H97.8356ZM96.1756 15.88V13.48H103.636V15.88H96.1756Z" fill="#FF9900"/>
<path d="M110.854 24V13.24H113.974V24H110.854ZM112.414 11.74C111.841 11.74 111.374 11.5733 111.014 11.24C110.654 10.9067 110.474 10.4933 110.474 10C110.474 9.50667 110.654 9.09333 111.014 8.76C111.374 8.42667 111.841 8.26 112.414 8.26C112.987 8.26 113.454 8.42 113.814 8.74C114.174 9.04667 114.354 9.44667 114.354 9.94C114.354 10.46 114.174 10.8933 113.814 11.24C113.467 11.5733 113.001 11.74 112.414 11.74ZM120.49 24.16C119.57 24.16 118.683 24.0533 117.83 23.84C116.99 23.6133 116.323 23.3333 115.83 23L116.87 20.76C117.363 21.0667 117.943 21.32 118.61 21.52C119.29 21.7067 119.956 21.8 120.61 21.8C121.33 21.8 121.836 21.7133 122.13 21.54C122.436 21.3667 122.59 21.1267 122.59 20.82C122.59 20.5667 122.47 20.38 122.23 20.26C122.003 20.1267 121.696 20.0267 121.31 19.96C120.923 19.8933 120.496 19.8267 120.03 19.76C119.576 19.6933 119.116 19.6067 118.65 19.5C118.183 19.38 117.756 19.2067 117.37 18.98C116.983 18.7533 116.67 18.4467 116.43 18.06C116.203 17.6733 116.09 17.1733 116.09 16.56C116.09 15.88 116.283 15.28 116.67 14.76C117.07 14.24 117.643 13.8333 118.39 13.54C119.136 13.2333 120.03 13.08 121.07 13.08C121.803 13.08 122.55 13.16 123.31 13.32C124.07 13.48 124.703 13.7133 125.21 14.02L124.17 16.24C123.65 15.9333 123.123 15.7267 122.59 15.62C122.07 15.5 121.563 15.44 121.07 15.44C120.376 15.44 119.87 15.5333 119.55 15.72C119.23 15.9067 119.07 16.1467 119.07 16.44C119.07 16.7067 119.183 16.9067 119.41 17.04C119.65 17.1733 119.963 17.28 120.35 17.36C120.736 17.44 121.156 17.5133 121.61 17.58C122.076 17.6333 122.543 17.72 123.01 17.84C123.476 17.96 123.896 18.1333 124.27 18.36C124.656 18.5733 124.97 18.8733 125.21 19.26C125.45 19.6333 125.57 20.1267 125.57 20.74C125.57 21.4067 125.37 22 124.97 22.52C124.57 23.0267 123.99 23.4267 123.23 23.72C122.483 24.0133 121.57 24.16 120.49 24.16ZM126.055 25.8V24H136.055V25.8H126.055ZM143.855 24.16C142.948 24.16 142.155 23.96 141.475 23.56C140.795 23.16 140.261 22.5533 139.875 21.74C139.501 20.9133 139.315 19.8733 139.315 18.62C139.315 17.3533 139.495 16.3133 139.855 15.5C140.215 14.6867 140.735 14.08 141.415 13.68C142.095 13.28 142.908 13.08 143.855 13.08C144.868 13.08 145.775 13.3133 146.575 13.78C147.388 14.2333 148.028 14.8733 148.495 15.7C148.975 16.5267 149.215 17.5 149.215 18.62C149.215 19.7533 148.975 20.7333 148.495 21.56C148.028 22.3867 147.388 23.0267 146.575 23.48C145.775 23.9333 144.868 24.16 143.855 24.16ZM137.495 27.88V13.24H140.475V15.44L140.415 18.64L140.615 21.82V27.88H137.495ZM143.315 21.6C143.835 21.6 144.295 21.48 144.695 21.24C145.108 21 145.435 20.66 145.675 20.22C145.928 19.7667 146.055 19.2333 146.055 18.62C146.055 17.9933 145.928 17.46 145.675 17.02C145.435 16.58 145.108 16.24 144.695 16C144.295 15.76 143.835 15.64 143.315 15.64C142.795 15.64 142.328 15.76 141.915 16C141.501 16.24 141.175 16.58 140.935 17.02C140.695 17.46 140.575 17.9933 140.575 18.62C140.575 19.2333 140.695 19.7667 140.935 20.22C141.175 20.66 141.501 21 141.915 21.24C142.328 21.48 142.795 21.6 143.315 21.6ZM151.303 24V13.24H154.283V16.28L153.863 15.4C154.183 14.64 154.697 14.0667 155.403 13.68C156.11 13.28 156.97 13.08 157.983 13.08V15.96C157.85 15.9467 157.73 15.94 157.623 15.94C157.517 15.9267 157.403 15.92 157.283 15.92C156.43 15.92 155.737 16.1667 155.203 16.66C154.683 17.14 154.423 17.8933 154.423 18.92V24H151.303ZM159.858 24V13.24H162.978V24H159.858ZM161.418 11.74C160.845 11.74 160.378 11.5733 160.018 11.24C159.658 10.9067 159.478 10.4933 159.478 10C159.478 9.50667 159.658 9.09333 160.018 8.76C160.378 8.42667 160.845 8.26 161.418 8.26C161.991 8.26 162.458 8.42 162.818 8.74C163.178 9.04667 163.358 9.44667 163.358 9.94C163.358 10.46 163.178 10.8933 162.818 11.24C162.471 11.5733 162.005 11.74 161.418 11.74ZM179.654 13.08C180.507 13.08 181.26 13.2533 181.914 13.6C182.58 13.9333 183.1 14.4533 183.474 15.16C183.86 15.8533 184.054 16.7467 184.054 17.84V24H180.934V18.32C180.934 17.4533 180.754 16.8133 180.394 16.4C180.034 15.9867 179.527 15.78 178.874 15.78C178.42 15.78 178.014 15.8867 177.654 16.1C177.294 16.3 177.014 16.6067 176.814 17.02C176.614 17.4333 176.514 17.96 176.514 18.6V24H173.394V18.32C173.394 17.4533 173.214 16.8133 172.854 16.4C172.507 15.9867 172.007 15.78 171.354 15.78C170.9 15.78 170.494 15.8867 170.134 16.1C169.774 16.3 169.494 16.6067 169.294 17.02C169.094 17.4333 168.994 17.96 168.994 18.6V24H165.874V13.24H168.854V16.18L168.294 15.32C168.667 14.5867 169.194 14.0333 169.874 13.66C170.567 13.2733 171.354 13.08 172.234 13.08C173.22 13.08 174.08 13.3333 174.814 13.84C175.56 14.3333 176.054 15.0933 176.294 16.12L175.194 15.82C175.554 14.98 176.127 14.3133 176.914 13.82C177.714 13.3267 178.627 13.08 179.654 13.08ZM192.268 24.16C191.042 24.16 189.962 23.92 189.028 23.44C188.108 22.96 187.395 22.3067 186.888 21.48C186.382 20.64 186.128 19.6867 186.128 18.62C186.128 17.54 186.375 16.5867 186.868 15.76C187.375 14.92 188.062 14.2667 188.928 13.8C189.795 13.32 190.775 13.08 191.868 13.08C192.922 13.08 193.868 13.3067 194.708 13.76C195.562 14.2 196.235 14.84 196.728 15.68C197.222 16.5067 197.468 17.5 197.468 18.66C197.468 18.78 197.462 18.92 197.448 19.08C197.435 19.2267 197.422 19.3667 197.408 19.5H188.668V17.68H195.768L194.568 18.22C194.568 17.66 194.455 17.1733 194.228 16.76C194.002 16.3467 193.688 16.0267 193.288 15.8C192.888 15.56 192.422 15.44 191.888 15.44C191.355 15.44 190.882 15.56 190.468 15.8C190.068 16.0267 189.755 16.3533 189.528 16.78C189.302 17.1933 189.188 17.6867 189.188 18.26V18.74C189.188 19.3267 189.315 19.8467 189.568 20.3C189.835 20.74 190.202 21.08 190.668 21.32C191.148 21.5467 191.708 21.66 192.348 21.66C192.922 21.66 193.422 21.5733 193.848 21.4C194.288 21.2267 194.688 20.9667 195.048 20.62L196.708 22.42C196.215 22.98 195.595 23.4133 194.848 23.72C194.102 24.0133 193.242 24.16 192.268 24.16ZM199.765 27.88V9.16H205.185V11.6H202.885V25.44H205.185V27.88H199.765ZM209.489 21.8L209.569 18L214.589 13.24H218.309L213.489 18.14L211.869 19.46L209.489 21.8ZM206.909 24V9.16H210.029V24H206.909ZM214.929 24L211.289 19.48L213.249 17.06L218.709 24H214.929ZM224.372 27.88H218.972V25.44H221.252V11.6H218.972V9.16H224.372V27.88ZM232.939 15.74V13.3H242.459V15.74H232.939ZM232.939 20.7V18.26H242.459V20.7H232.939ZM244.912 15.74V13.3H254.432V15.74H244.912ZM244.912 20.7V18.26H254.432V20.7H244.912ZM277.503 16.98C276.969 16.98 276.509 16.8 276.123 16.44C275.749 16.0667 275.563 15.5933 275.563 15.02C275.563 14.4467 275.749 13.9867 276.123 13.64C276.509 13.28 276.969 13.1 277.503 13.1C278.049 13.1 278.509 13.28 278.883 13.64C279.256 13.9867 279.443 14.4467 279.443 15.02C279.443 15.5933 279.256 16.0667 278.883 16.44C278.509 16.8 278.049 16.98 277.503 16.98ZM277.503 24.16C276.969 24.16 276.509 23.98 276.123 23.62C275.749 23.2467 275.563 22.7733 275.563 22.2C275.563 21.6267 275.749 21.1667 276.123 20.82C276.509 20.46 276.969 20.28 277.503 20.28C278.049 20.28 278.509 20.46 278.883 20.82C279.256 21.1667 279.443 21.6267 279.443 22.2C279.443 22.7733 279.256 23.2467 278.883 23.62C278.509 23.98 278.049 24.16 277.503 24.16Z" fill="white"/>
<path d="M268.089 24.24C266.942 24.24 265.915 23.96 265.009 23.4C264.102 22.8267 263.389 22 262.869 20.92C262.349 19.84 262.089 18.5333 262.089 17C262.089 15.4667 262.349 14.16 262.869 13.08C263.389 12 264.102 11.18 265.009 10.62C265.915 10.0467 266.942 9.76 268.089 9.76C269.249 9.76 270.275 10.0467 271.169 10.62C272.075 11.18 272.789 12 273.309 13.08C273.829 14.16 274.089 15.4667 274.089 17C274.089 18.5333 273.829 19.84 273.309 20.92C272.789 22 272.075 22.8267 271.169 23.4C270.275 23.96 269.249 24.24 268.089 24.24ZM268.089 21.5C268.635 21.5 269.109 21.3467 269.509 21.04C269.922 20.7333 270.242 20.2467 270.469 19.58C270.709 18.9133 270.829 18.0533 270.829 17C270.829 15.9467 270.709 15.0867 270.469 14.42C270.242 13.7533 269.922 13.2667 269.509 12.96C269.109 12.6533 268.635 12.5 268.089 12.5C267.555 12.5 267.082 12.6533 266.669 12.96C266.269 13.2667 265.949 13.7533 265.709 14.42C265.482 15.0867 265.369 15.9467 265.369 17C265.369 18.0533 265.482 18.9133 265.709 19.58C265.949 20.2467 266.269 20.7333 266.669 21.04C267.082 21.3467 267.555 21.5 268.089 21.5Z" fill="#49D3FF"/>
<path d="M136.64 60.66C135.48 60.66 134.447 60.4267 133.54 59.96C132.633 59.48 131.92 58.82 131.4 57.98C130.893 57.14 130.64 56.1867 130.64 55.12C130.64 54.04 130.893 53.0867 131.4 52.26C131.92 51.42 132.633 50.7667 133.54 50.3C134.447 49.82 135.48 49.58 136.64 49.58C137.773 49.58 138.76 49.82 139.6 50.3C140.44 50.7667 141.06 51.44 141.46 52.32L139.04 53.62C138.76 53.1133 138.407 52.74 137.98 52.5C137.567 52.26 137.113 52.14 136.62 52.14C136.087 52.14 135.607 52.26 135.18 52.5C134.753 52.74 134.413 53.08 134.16 53.52C133.92 53.96 133.8 54.4933 133.8 55.12C133.8 55.7467 133.92 56.28 134.16 56.72C134.413 57.16 134.753 57.5 135.18 57.74C135.607 57.98 136.087 58.1 136.62 58.1C137.113 58.1 137.567 57.9867 137.98 57.76C138.407 57.52 138.76 57.14 139.04 56.62L141.46 57.94C141.06 58.8067 140.44 59.48 139.6 59.96C138.76 60.4267 137.773 60.66 136.64 60.66ZM148.24 60.66C147.093 60.66 146.073 60.42 145.18 59.94C144.3 59.46 143.6 58.8067 143.08 57.98C142.573 57.14 142.32 56.1867 142.32 55.12C142.32 54.04 142.573 53.0867 143.08 52.26C143.6 51.42 144.3 50.7667 145.18 50.3C146.073 49.82 147.093 49.58 148.24 49.58C149.373 49.58 150.386 49.82 151.28 50.3C152.173 50.7667 152.873 51.4133 153.38 52.24C153.886 53.0667 154.14 54.0267 154.14 55.12C154.14 56.1867 153.886 57.14 153.38 57.98C152.873 58.8067 152.173 59.46 151.28 59.94C150.386 60.42 149.373 60.66 148.24 60.66ZM148.24 58.1C148.76 58.1 149.226 57.98 149.64 57.74C150.053 57.5 150.38 57.16 150.62 56.72C150.86 56.2667 150.98 55.7333 150.98 55.12C150.98 54.4933 150.86 53.96 150.62 53.52C150.38 53.08 150.053 52.74 149.64 52.5C149.226 52.26 148.76 52.14 148.24 52.14C147.72 52.14 147.253 52.26 146.84 52.5C146.426 52.74 146.093 53.08 145.84 53.52C145.6 53.96 145.48 54.4933 145.48 55.12C145.48 55.7333 145.6 56.2667 145.84 56.72C146.093 57.16 146.426 57.5 146.84 57.74C147.253 57.98 147.72 58.1 148.24 58.1ZM162.765 49.58C163.618 49.58 164.378 49.7533 165.045 50.1C165.725 50.4333 166.258 50.9533 166.645 51.66C167.032 52.3533 167.225 53.2467 167.225 54.34V60.5H164.105V54.82C164.105 53.9533 163.912 53.3133 163.525 52.9C163.152 52.4867 162.618 52.28 161.925 52.28C161.432 52.28 160.985 52.3867 160.585 52.6C160.198 52.8 159.892 53.1133 159.665 53.54C159.452 53.9667 159.345 54.5133 159.345 55.18V60.5H156.225V49.74H159.205V52.72L158.645 51.82C159.032 51.1 159.585 50.5467 160.305 50.16C161.025 49.7733 161.845 49.58 162.765 49.58ZM174.453 60.66C173.187 60.66 172.2 60.34 171.493 59.7C170.787 59.0467 170.433 58.08 170.433 56.8V47.36H173.553V56.76C173.553 57.2133 173.673 57.5667 173.913 57.82C174.153 58.06 174.48 58.18 174.893 58.18C175.387 58.18 175.807 58.0467 176.153 57.78L176.993 59.98C176.673 60.2067 176.287 60.38 175.833 60.5C175.393 60.6067 174.933 60.66 174.453 60.66ZM168.773 52.38V49.98H176.233V52.38H168.773ZM178.745 60.5V49.74H181.865V60.5H178.745ZM180.305 48.24C179.731 48.24 179.265 48.0733 178.905 47.74C178.545 47.4067 178.365 46.9933 178.365 46.5C178.365 46.0067 178.545 45.5933 178.905 45.26C179.265 44.9267 179.731 44.76 180.305 44.76C180.878 44.76 181.345 44.92 181.705 45.24C182.065 45.5467 182.245 45.9467 182.245 46.44C182.245 46.96 182.065 47.3933 181.705 47.74C181.358 48.0733 180.891 48.24 180.305 48.24ZM191.3 49.58C192.154 49.58 192.914 49.7533 193.58 50.1C194.26 50.4333 194.794 50.9533 195.18 51.66C195.567 52.3533 195.76 53.2467 195.76 54.34V60.5H192.64V54.82C192.64 53.9533 192.447 53.3133 192.06 52.9C191.687 52.4867 191.154 52.28 190.46 52.28C189.967 52.28 189.52 52.3867 189.12 52.6C188.734 52.8 188.427 53.1133 188.2 53.54C187.987 53.9667 187.88 54.5133 187.88 55.18V60.5H184.76V49.74H187.74V52.72L187.18 51.82C187.567 51.1 188.12 50.5467 188.84 50.16C189.56 49.7733 190.38 49.58 191.3 49.58ZM203.128 60.66C202.235 60.66 201.435 60.4867 200.728 60.14C200.035 59.7933 199.495 59.2667 199.108 58.56C198.722 57.84 198.528 56.9267 198.528 55.82V49.74H201.648V55.36C201.648 56.2533 201.835 56.9133 202.208 57.34C202.595 57.7533 203.135 57.96 203.828 57.96C204.308 57.96 204.735 57.86 205.108 57.66C205.482 57.4467 205.775 57.1267 205.988 56.7C206.202 56.26 206.308 55.7133 206.308 55.06V49.74H209.428V60.5H206.468V57.54L207.008 58.4C206.648 59.1467 206.115 59.7133 205.408 60.1C204.715 60.4733 203.955 60.66 203.128 60.66ZM217.659 60.66C216.432 60.66 215.352 60.42 214.419 59.94C213.499 59.46 212.786 58.8067 212.279 57.98C211.772 57.14 211.519 56.1867 211.519 55.12C211.519 54.04 211.766 53.0867 212.259 52.26C212.766 51.42 213.452 50.7667 214.319 50.3C215.186 49.82 216.166 49.58 217.259 49.58C218.312 49.58 219.259 49.8067 220.099 50.26C220.952 50.7 221.626 51.34 222.119 52.18C222.612 53.0067 222.859 54 222.859 55.16C222.859 55.28 222.852 55.42 222.839 55.58C222.826 55.7267 222.812 55.8667 222.799 56H214.059V54.18H221.159L219.959 54.72C219.959 54.16 219.846 53.6733 219.619 53.26C219.392 52.8467 219.079 52.5267 218.679 52.3C218.279 52.06 217.812 51.94 217.279 51.94C216.746 51.94 216.272 52.06 215.859 52.3C215.459 52.5267 215.146 52.8533 214.919 53.28C214.692 53.6933 214.579 54.1867 214.579 54.76V55.24C214.579 55.8267 214.706 56.3467 214.959 56.8C215.226 57.24 215.592 57.58 216.059 57.82C216.539 58.0467 217.099 58.16 217.739 58.16C218.312 58.16 218.812 58.0733 219.239 57.9C219.679 57.7267 220.079 57.4667 220.439 57.12L222.099 58.92C221.606 59.48 220.986 59.9133 220.239 60.22C219.492 60.5133 218.632 60.66 217.659 60.66Z" fill="#FF9900"/>
</svg>
