<svg width="500" height="34" viewBox="0 0 500 34" fill="none" xmlns="http://www.w3.org/2000/svg">
<rect width="500" height="34" rx="5" fill="#494D9B"/>
<path d="M51.44 24V13.24H54.42V16.28L54 15.4C54.32 14.64 54.8333 14.0667 55.54 13.68C56.2467 13.28 57.1067 13.08 58.12 13.08V15.96C57.9867 15.9467 57.8667 15.94 57.76 15.94C57.6533 15.9267 57.54 15.92 57.42 15.92C56.5667 15.92 55.8733 16.1667 55.34 16.66C54.82 17.14 54.56 17.8933 54.56 18.92V24H51.44ZM65.237 24.16C64.0104 24.16 62.9304 23.92 61.997 23.44C61.077 22.96 60.3637 22.3067 59.857 21.48C59.3504 20.64 59.097 19.6867 59.097 18.62C59.097 17.54 59.3437 16.5867 59.837 15.76C60.3437 14.92 61.0304 14.2667 61.897 13.8C62.7637 13.32 63.7437 13.08 64.837 13.08C65.8904 13.08 66.837 13.3067 67.677 13.76C68.5304 14.2 69.2037 14.84 69.697 15.68C70.1904 16.5067 70.437 17.5 70.437 18.66C70.437 18.78 70.4304 18.92 70.417 19.08C70.4037 19.2267 70.3904 19.3667 70.377 19.5H61.637V17.68H68.737L67.537 18.22C67.537 17.66 67.4237 17.1733 67.197 16.76C66.9704 16.3467 66.657 16.0267 66.257 15.8C65.857 15.56 65.3904 15.44 64.857 15.44C64.3237 15.44 63.8504 15.56 63.437 15.8C63.037 16.0267 62.7237 16.3533 62.497 16.78C62.2704 17.1933 62.157 17.6867 62.157 18.26V18.74C62.157 19.3267 62.2837 19.8467 62.537 20.3C62.8037 20.74 63.1704 21.08 63.637 21.32C64.117 21.5467 64.677 21.66 65.317 21.66C65.8904 21.66 66.3904 21.5733 66.817 21.4C67.257 21.2267 67.657 20.9667 68.017 20.62L69.677 22.42C69.1837 22.98 68.5637 23.4133 67.817 23.72C67.0704 24.0133 66.2104 24.16 65.237 24.16ZM76.9142 24.16C75.6476 24.16 74.6609 23.84 73.9542 23.2C73.2476 22.5467 72.8942 21.58 72.8942 20.3V10.86H76.0142V20.26C76.0142 20.7133 76.1342 21.0667 76.3742 21.32C76.6142 21.56 76.9409 21.68 77.3542 21.68C77.8476 21.68 78.2676 21.5467 78.6142 21.28L79.4542 23.48C79.1342 23.7067 78.7476 23.88 78.2942 24C77.8542 24.1067 77.3942 24.16 76.9142 24.16ZM71.2342 15.88V13.48H78.6942V15.88H71.2342ZM85.7456 24.16C84.8523 24.16 84.0523 23.9867 83.3456 23.64C82.6523 23.2933 82.1123 22.7667 81.7256 22.06C81.339 21.34 81.1456 20.4267 81.1456 19.32V13.24H84.2656V18.86C84.2656 19.7533 84.4523 20.4133 84.8256 20.84C85.2123 21.2533 85.7523 21.46 86.4456 21.46C86.9256 21.46 87.3523 21.36 87.7256 21.16C88.099 20.9467 88.3923 20.6267 88.6056 20.2C88.819 19.76 88.9256 19.2133 88.9256 18.56V13.24H92.0456V24H89.0856V21.04L89.6256 21.9C89.2656 22.6467 88.7323 23.2133 88.0256 23.6C87.3323 23.9733 86.5723 24.16 85.7456 24.16ZM94.9361 24V13.24H97.9161V16.28L97.4961 15.4C97.8161 14.64 98.3294 14.0667 99.0361 13.68C99.7428 13.28 100.603 13.08 101.616 13.08V15.96C101.483 15.9467 101.363 15.94 101.256 15.94C101.149 15.9267 101.036 15.92 100.916 15.92C100.063 15.92 99.3694 16.1667 98.8361 16.66C98.3161 17.14 98.0561 17.8933 98.0561 18.92V24H94.9361ZM110.031 13.08C110.884 13.08 111.644 13.2533 112.311 13.6C112.991 13.9333 113.524 14.4533 113.911 15.16C114.297 15.8533 114.491 16.7467 114.491 17.84V24H111.371V18.32C111.371 17.4533 111.177 16.8133 110.791 16.4C110.417 15.9867 109.884 15.78 109.191 15.78C108.697 15.78 108.251 15.8867 107.851 16.1C107.464 16.3 107.157 16.6133 106.931 17.04C106.717 17.4667 106.611 18.0133 106.611 18.68V24H103.491V13.24H106.471V16.22L105.911 15.32C106.297 14.6 106.851 14.0467 107.571 13.66C108.291 13.2733 109.111 13.08 110.031 13.08Z" fill="#FF9900"/>
<path d="M122.983 24V13.24H126.103V24H122.983ZM124.543 11.74C123.97 11.74 123.503 11.5733 123.143 11.24C122.783 10.9067 122.603 10.4933 122.603 10C122.603 9.50667 122.783 9.09333 123.143 8.76C123.503 8.42667 123.97 8.26 124.543 8.26C125.116 8.26 125.583 8.42 125.943 8.74C126.303 9.04667 126.483 9.44667 126.483 9.94C126.483 10.46 126.303 10.8933 125.943 11.24C125.596 11.5733 125.13 11.74 124.543 11.74ZM132.619 24.16C131.699 24.16 130.812 24.0533 129.959 23.84C129.119 23.6133 128.452 23.3333 127.959 23L128.999 20.76C129.492 21.0667 130.072 21.32 130.739 21.52C131.419 21.7067 132.085 21.8 132.739 21.8C133.459 21.8 133.965 21.7133 134.259 21.54C134.565 21.3667 134.719 21.1267 134.719 20.82C134.719 20.5667 134.599 20.38 134.359 20.26C134.132 20.1267 133.825 20.0267 133.439 19.96C133.052 19.8933 132.625 19.8267 132.159 19.76C131.705 19.6933 131.245 19.6067 130.779 19.5C130.312 19.38 129.885 19.2067 129.499 18.98C129.112 18.7533 128.799 18.4467 128.559 18.06C128.332 17.6733 128.219 17.1733 128.219 16.56C128.219 15.88 128.412 15.28 128.799 14.76C129.199 14.24 129.772 13.8333 130.519 13.54C131.265 13.2333 132.159 13.08 133.199 13.08C133.932 13.08 134.679 13.16 135.439 13.32C136.199 13.48 136.832 13.7133 137.339 14.02L136.299 16.24C135.779 15.9333 135.252 15.7267 134.719 15.62C134.199 15.5 133.692 15.44 133.199 15.44C132.505 15.44 131.999 15.5333 131.679 15.72C131.359 15.9067 131.199 16.1467 131.199 16.44C131.199 16.7067 131.312 16.9067 131.539 17.04C131.779 17.1733 132.092 17.28 132.479 17.36C132.865 17.44 133.285 17.5133 133.739 17.58C134.205 17.6333 134.672 17.72 135.139 17.84C135.605 17.96 136.025 18.1333 136.399 18.36C136.785 18.5733 137.099 18.8733 137.339 19.26C137.579 19.6333 137.699 20.1267 137.699 20.74C137.699 21.4067 137.499 22 137.099 22.52C136.699 23.0267 136.119 23.4267 135.359 23.72C134.612 24.0133 133.699 24.16 132.619 24.16ZM138.184 25.8V24H148.184V25.8H138.184ZM155.984 24.16C155.077 24.16 154.284 23.96 153.604 23.56C152.924 23.16 152.39 22.5533 152.004 21.74C151.63 20.9133 151.444 19.8733 151.444 18.62C151.444 17.3533 151.624 16.3133 151.984 15.5C152.344 14.6867 152.864 14.08 153.544 13.68C154.224 13.28 155.037 13.08 155.984 13.08C156.997 13.08 157.904 13.3133 158.704 13.78C159.517 14.2333 160.157 14.8733 160.624 15.7C161.104 16.5267 161.344 17.5 161.344 18.62C161.344 19.7533 161.104 20.7333 160.624 21.56C160.157 22.3867 159.517 23.0267 158.704 23.48C157.904 23.9333 156.997 24.16 155.984 24.16ZM149.624 27.88V13.24H152.604V15.44L152.544 18.64L152.744 21.82V27.88H149.624ZM155.444 21.6C155.964 21.6 156.424 21.48 156.824 21.24C157.237 21 157.564 20.66 157.804 20.22C158.057 19.7667 158.184 19.2333 158.184 18.62C158.184 17.9933 158.057 17.46 157.804 17.02C157.564 16.58 157.237 16.24 156.824 16C156.424 15.76 155.964 15.64 155.444 15.64C154.924 15.64 154.457 15.76 154.044 16C153.63 16.24 153.304 16.58 153.064 17.02C152.824 17.46 152.704 17.9933 152.704 18.62C152.704 19.2333 152.824 19.7667 153.064 20.22C153.304 20.66 153.63 21 154.044 21.24C154.457 21.48 154.924 21.6 155.444 21.6ZM163.432 24V13.24H166.412V16.28L165.992 15.4C166.312 14.64 166.826 14.0667 167.532 13.68C168.239 13.28 169.099 13.08 170.112 13.08V15.96C169.979 15.9467 169.859 15.94 169.752 15.94C169.646 15.9267 169.532 15.92 169.412 15.92C168.559 15.92 167.866 16.1667 167.332 16.66C166.812 17.14 166.552 17.8933 166.552 18.92V24H163.432ZM171.987 24V13.24H175.107V24H171.987ZM173.547 11.74C172.974 11.74 172.507 11.5733 172.147 11.24C171.787 10.9067 171.607 10.4933 171.607 10C171.607 9.50667 171.787 9.09333 172.147 8.76C172.507 8.42667 172.974 8.26 173.547 8.26C174.12 8.26 174.587 8.42 174.947 8.74C175.307 9.04667 175.487 9.44667 175.487 9.94C175.487 10.46 175.307 10.8933 174.947 11.24C174.6 11.5733 174.134 11.74 173.547 11.74ZM191.783 13.08C192.636 13.08 193.389 13.2533 194.043 13.6C194.709 13.9333 195.229 14.4533 195.603 15.16C195.989 15.8533 196.183 16.7467 196.183 17.84V24H193.063V18.32C193.063 17.4533 192.883 16.8133 192.523 16.4C192.163 15.9867 191.656 15.78 191.003 15.78C190.549 15.78 190.143 15.8867 189.783 16.1C189.423 16.3 189.143 16.6067 188.943 17.02C188.743 17.4333 188.643 17.96 188.643 18.6V24H185.523V18.32C185.523 17.4533 185.343 16.8133 184.983 16.4C184.636 15.9867 184.136 15.78 183.483 15.78C183.029 15.78 182.623 15.8867 182.263 16.1C181.903 16.3 181.623 16.6067 181.423 17.02C181.223 17.4333 181.123 17.96 181.123 18.6V24H178.003V13.24H180.983V16.18L180.423 15.32C180.796 14.5867 181.323 14.0333 182.003 13.66C182.696 13.2733 183.483 13.08 184.363 13.08C185.349 13.08 186.209 13.3333 186.943 13.84C187.689 14.3333 188.183 15.0933 188.423 16.12L187.323 15.82C187.683 14.98 188.256 14.3133 189.043 13.82C189.843 13.3267 190.756 13.08 191.783 13.08ZM204.397 24.16C203.171 24.16 202.091 23.92 201.157 23.44C200.237 22.96 199.524 22.3067 199.017 21.48C198.511 20.64 198.257 19.6867 198.257 18.62C198.257 17.54 198.504 16.5867 198.997 15.76C199.504 14.92 200.191 14.2667 201.057 13.8C201.924 13.32 202.904 13.08 203.997 13.08C205.051 13.08 205.997 13.3067 206.837 13.76C207.691 14.2 208.364 14.84 208.857 15.68C209.351 16.5067 209.597 17.5 209.597 18.66C209.597 18.78 209.591 18.92 209.577 19.08C209.564 19.2267 209.551 19.3667 209.537 19.5H200.797V17.68H207.897L206.697 18.22C206.697 17.66 206.584 17.1733 206.357 16.76C206.131 16.3467 205.817 16.0267 205.417 15.8C205.017 15.56 204.551 15.44 204.017 15.44C203.484 15.44 203.011 15.56 202.597 15.8C202.197 16.0267 201.884 16.3533 201.657 16.78C201.431 17.1933 201.317 17.6867 201.317 18.26V18.74C201.317 19.3267 201.444 19.8467 201.697 20.3C201.964 20.74 202.331 21.08 202.797 21.32C203.277 21.5467 203.837 21.66 204.477 21.66C205.051 21.66 205.551 21.5733 205.977 21.4C206.417 21.2267 206.817 20.9667 207.177 20.62L208.837 22.42C208.344 22.98 207.724 23.4133 206.977 23.72C206.231 24.0133 205.371 24.16 204.397 24.16Z" fill="white"/>
</svg>
