<svg width="500" height="108" viewBox="0 0 500 108" fill="none" xmlns="http://www.w3.org/2000/svg">
<rect y="0.5" width="500" height="107" rx="5" fill="#494D9B"/>
<path d="M51.44 24.5V13.74H54.56V24.5H51.44ZM53 12.24C52.4267 12.24 51.96 12.0733 51.6 11.74C51.24 11.4067 51.06 10.9933 51.06 10.5C51.06 10.0067 51.24 9.59333 51.6 9.26C51.96 8.92667 52.4267 8.76 53 8.76C53.5733 8.76 54.04 8.92 54.4 9.24C54.76 9.54667 54.94 9.94667 54.94 10.44C54.94 10.96 54.76 11.3933 54.4 11.74C54.0533 12.0733 53.5867 12.24 53 12.24ZM61.0756 24.66C60.1556 24.66 59.269 24.5533 58.4156 24.34C57.5756 24.1133 56.909 23.8333 56.4156 23.5L57.4556 21.26C57.949 21.5667 58.529 21.82 59.1956 22.02C59.8756 22.2067 60.5423 22.3 61.1956 22.3C61.9156 22.3 62.4223 22.2133 62.7156 22.04C63.0223 21.8667 63.1756 21.6267 63.1756 21.32C63.1756 21.0667 63.0556 20.88 62.8156 20.76C62.589 20.6267 62.2823 20.5267 61.8956 20.46C61.509 20.3933 61.0823 20.3267 60.6156 20.26C60.1623 20.1933 59.7023 20.1067 59.2356 20C58.769 19.88 58.3423 19.7067 57.9556 19.48C57.569 19.2533 57.2556 18.9467 57.0156 18.56C56.789 18.1733 56.6756 17.6733 56.6756 17.06C56.6756 16.38 56.869 15.78 57.2556 15.26C57.6556 14.74 58.229 14.3333 58.9756 14.04C59.7223 13.7333 60.6156 13.58 61.6556 13.58C62.389 13.58 63.1356 13.66 63.8956 13.82C64.6556 13.98 65.289 14.2133 65.7956 14.52L64.7556 16.74C64.2356 16.4333 63.709 16.2267 63.1756 16.12C62.6556 16 62.149 15.94 61.6556 15.94C60.9623 15.94 60.4556 16.0333 60.1356 16.22C59.8156 16.4067 59.6556 16.6467 59.6556 16.94C59.6556 17.2067 59.769 17.4067 59.9956 17.54C60.2356 17.6733 60.549 17.78 60.9356 17.86C61.3223 17.94 61.7423 18.0133 62.1956 18.08C62.6623 18.1333 63.129 18.22 63.5956 18.34C64.0623 18.46 64.4823 18.6333 64.8556 18.86C65.2423 19.0733 65.5556 19.3733 65.7956 19.76C66.0356 20.1333 66.1556 20.6267 66.1556 21.24C66.1556 21.9067 65.9556 22.5 65.5556 23.02C65.1556 23.5267 64.5756 23.9267 63.8156 24.22C63.069 24.5133 62.1556 24.66 61.0756 24.66ZM66.6406 26.3V24.5H76.6406V26.3H66.6406ZM84.4406 24.66C83.534 24.66 82.7406 24.46 82.0606 24.06C81.3806 23.66 80.8473 23.0533 80.4606 22.24C80.0873 21.4133 79.9006 20.3733 79.9006 19.12C79.9006 17.8533 80.0806 16.8133 80.4406 16C80.8006 15.1867 81.3206 14.58 82.0006 14.18C82.6806 13.78 83.494 13.58 84.4406 13.58C85.454 13.58 86.3606 13.8133 87.1606 14.28C87.974 14.7333 88.614 15.3733 89.0806 16.2C89.5606 17.0267 89.8006 18 89.8006 19.12C89.8006 20.2533 89.5606 21.2333 89.0806 22.06C88.614 22.8867 87.974 23.5267 87.1606 23.98C86.3606 24.4333 85.454 24.66 84.4406 24.66ZM78.0806 28.38V13.74H81.0606V15.94L81.0006 19.14L81.2006 22.32V28.38H78.0806ZM83.9006 22.1C84.4206 22.1 84.8806 21.98 85.2806 21.74C85.694 21.5 86.0206 21.16 86.2606 20.72C86.514 20.2667 86.6406 19.7333 86.6406 19.12C86.6406 18.4933 86.514 17.96 86.2606 17.52C86.0206 17.08 85.694 16.74 85.2806 16.5C84.8806 16.26 84.4206 16.14 83.9006 16.14C83.3806 16.14 82.914 16.26 82.5006 16.5C82.0873 16.74 81.7606 17.08 81.5206 17.52C81.2806 17.96 81.1606 18.4933 81.1606 19.12C81.1606 19.7333 81.2806 20.2667 81.5206 20.72C81.7606 21.16 82.0873 21.5 82.5006 21.74C82.914 21.98 83.3806 22.1 83.9006 22.1ZM91.8892 24.5V13.74H94.8692V16.78L94.4492 15.9C94.7692 15.14 95.2826 14.5667 95.9892 14.18C96.6959 13.78 97.5559 13.58 98.5692 13.58V16.46C98.4359 16.4467 98.3159 16.44 98.2092 16.44C98.1026 16.4267 97.9892 16.42 97.8692 16.42C97.0159 16.42 96.3226 16.6667 95.7892 17.16C95.2692 17.64 95.0092 18.3933 95.0092 19.42V24.5H91.8892ZM100.444 24.5V13.74H103.564V24.5H100.444ZM102.004 12.24C101.431 12.24 100.964 12.0733 100.604 11.74C100.244 11.4067 100.064 10.9933 100.064 10.5C100.064 10.0067 100.244 9.59333 100.604 9.26C100.964 8.92667 101.431 8.76 102.004 8.76C102.577 8.76 103.044 8.92 103.404 9.24C103.764 9.54667 103.944 9.94667 103.944 10.44C103.944 10.96 103.764 11.3933 103.404 11.74C103.057 12.0733 102.591 12.24 102.004 12.24ZM120.24 13.58C121.093 13.58 121.846 13.7533 122.5 14.1C123.166 14.4333 123.686 14.9533 124.06 15.66C124.446 16.3533 124.64 17.2467 124.64 18.34V24.5H121.52V18.82C121.52 17.9533 121.34 17.3133 120.98 16.9C120.62 16.4867 120.113 16.28 119.46 16.28C119.006 16.28 118.6 16.3867 118.24 16.6C117.88 16.8 117.6 17.1067 117.4 17.52C117.2 17.9333 117.1 18.46 117.1 19.1V24.5H113.98V18.82C113.98 17.9533 113.8 17.3133 113.44 16.9C113.093 16.4867 112.593 16.28 111.94 16.28C111.486 16.28 111.08 16.3867 110.72 16.6C110.36 16.8 110.08 17.1067 109.88 17.52C109.68 17.9333 109.58 18.46 109.58 19.1V24.5H106.46V13.74H109.44V16.68L108.88 15.82C109.253 15.0867 109.78 14.5333 110.46 14.16C111.153 13.7733 111.94 13.58 112.82 13.58C113.806 13.58 114.666 13.8333 115.4 14.34C116.146 14.8333 116.64 15.5933 116.88 16.62L115.78 16.32C116.14 15.48 116.713 14.8133 117.5 14.32C118.3 13.8267 119.213 13.58 120.24 13.58ZM132.854 24.66C131.628 24.66 130.548 24.42 129.614 23.94C128.694 23.46 127.981 22.8067 127.474 21.98C126.968 21.14 126.714 20.1867 126.714 19.12C126.714 18.04 126.961 17.0867 127.454 16.26C127.961 15.42 128.648 14.7667 129.514 14.3C130.381 13.82 131.361 13.58 132.454 13.58C133.508 13.58 134.454 13.8067 135.294 14.26C136.148 14.7 136.821 15.34 137.314 16.18C137.808 17.0067 138.054 18 138.054 19.16C138.054 19.28 138.048 19.42 138.034 19.58C138.021 19.7267 138.008 19.8667 137.994 20H129.254V18.18H136.354L135.154 18.72C135.154 18.16 135.041 17.6733 134.814 17.26C134.588 16.8467 134.274 16.5267 133.874 16.3C133.474 16.06 133.008 15.94 132.474 15.94C131.941 15.94 131.468 16.06 131.054 16.3C130.654 16.5267 130.341 16.8533 130.114 17.28C129.888 17.6933 129.774 18.1867 129.774 18.76V19.24C129.774 19.8267 129.901 20.3467 130.154 20.8C130.421 21.24 130.788 21.58 131.254 21.82C131.734 22.0467 132.294 22.16 132.934 22.16C133.508 22.16 134.008 22.0733 134.434 21.9C134.874 21.7267 135.274 21.4667 135.634 21.12L137.294 22.92C136.801 23.48 136.181 23.9133 135.434 24.22C134.688 24.5133 133.828 24.66 132.854 24.66ZM145.595 16.24V13.8H155.115V16.24H145.595ZM145.595 21.2V18.76H155.115V21.2H145.595ZM163.652 28.38V9.66H169.072V12.1H166.772V25.94H169.072V28.38H163.652ZM183.356 28.38H177.956V25.94H180.236V12.1H177.956V9.66H183.356V28.38ZM199.104 12.42L196.444 13.88V13.36L199.104 14.8L198.124 16.44L195.644 14.96L195.924 14.78L195.964 17.56H194.084L194.104 14.78L194.384 14.96L191.904 16.44L190.944 14.8L193.604 13.36V13.88L190.944 12.42L191.904 10.78L194.384 12.28L194.104 12.44L194.084 9.66H195.964L195.924 12.44L195.644 12.28L198.124 10.78L199.104 12.42ZM208.98 28.38C208.18 27.1667 207.56 25.7667 207.12 24.18C206.693 22.58 206.48 20.86 206.48 19.02C206.48 17.18 206.693 15.46 207.12 13.86C207.56 12.2467 208.18 10.8467 208.98 9.66H211.96C211.12 11.1667 210.506 12.6867 210.12 14.22C209.733 15.74 209.54 17.34 209.54 19.02C209.54 20.7 209.733 22.3067 210.12 23.84C210.506 25.36 211.12 26.8733 211.96 28.38H208.98ZM220.148 13.58C221.001 13.58 221.761 13.7533 222.428 14.1C223.108 14.4333 223.641 14.9533 224.028 15.66C224.415 16.3533 224.608 17.2467 224.608 18.34V24.5H221.488V18.82C221.488 17.9533 221.295 17.3133 220.908 16.9C220.535 16.4867 220.001 16.28 219.308 16.28C218.815 16.28 218.368 16.3867 217.968 16.6C217.581 16.8 217.275 17.1133 217.048 17.54C216.835 17.9667 216.728 18.5133 216.728 19.18V24.5H213.608V13.74H216.588V16.72L216.028 15.82C216.415 15.1 216.968 14.5467 217.688 14.16C218.408 13.7733 219.228 13.58 220.148 13.58ZM236.36 22.12V12.88H238.94V22.12H236.36ZM232.9 18.72V16.28H242.42V18.72H232.9ZM260.309 28.38H257.329C258.196 26.8733 258.816 25.36 259.189 23.84C259.576 22.3067 259.769 20.7 259.769 19.02C259.769 17.34 259.576 15.74 259.189 14.22C258.816 12.6867 258.196 11.1667 257.329 9.66H260.309C261.136 10.8467 261.762 12.2467 262.189 13.86C262.616 15.46 262.829 17.18 262.829 19.02C262.829 20.86 262.616 22.58 262.189 24.18C261.762 25.7667 261.136 27.1667 260.309 28.38Z" fill="white"/>
<path d="M172.764 24.5V11.7L174.164 13.1H169.964V10.5H176.004V24.5H172.764Z" fill="#49D3FF"/>
<path d="M252.237 24.5V11.7L253.637 13.1H249.437V10.5H255.477V24.5H252.237Z" fill="#49D3FF"/>
<path d="M51.44 61V50.24H54.56V61H51.44ZM53 48.74C52.4267 48.74 51.96 48.5733 51.6 48.24C51.24 47.9067 51.06 47.4933 51.06 47C51.06 46.5067 51.24 46.0933 51.6 45.76C51.96 45.4267 52.4267 45.26 53 45.26C53.5733 45.26 54.04 45.42 54.4 45.74C54.76 46.0467 54.94 46.4467 54.94 46.94C54.94 47.46 54.76 47.8933 54.4 48.24C54.0533 48.5733 53.5867 48.74 53 48.74ZM61.0756 61.16C60.1556 61.16 59.269 61.0533 58.4156 60.84C57.5756 60.6133 56.909 60.3333 56.4156 60L57.4556 57.76C57.949 58.0667 58.529 58.32 59.1956 58.52C59.8756 58.7067 60.5423 58.8 61.1956 58.8C61.9156 58.8 62.4223 58.7133 62.7156 58.54C63.0223 58.3667 63.1756 58.1267 63.1756 57.82C63.1756 57.5667 63.0556 57.38 62.8156 57.26C62.589 57.1267 62.2823 57.0267 61.8956 56.96C61.509 56.8933 61.0823 56.8267 60.6156 56.76C60.1623 56.6933 59.7023 56.6067 59.2356 56.5C58.769 56.38 58.3423 56.2067 57.9556 55.98C57.569 55.7533 57.2556 55.4467 57.0156 55.06C56.789 54.6733 56.6756 54.1733 56.6756 53.56C56.6756 52.88 56.869 52.28 57.2556 51.76C57.6556 51.24 58.229 50.8333 58.9756 50.54C59.7223 50.2333 60.6156 50.08 61.6556 50.08C62.389 50.08 63.1356 50.16 63.8956 50.32C64.6556 50.48 65.289 50.7133 65.7956 51.02L64.7556 53.24C64.2356 52.9333 63.709 52.7267 63.1756 52.62C62.6556 52.5 62.149 52.44 61.6556 52.44C60.9623 52.44 60.4556 52.5333 60.1356 52.72C59.8156 52.9067 59.6556 53.1467 59.6556 53.44C59.6556 53.7067 59.769 53.9067 59.9956 54.04C60.2356 54.1733 60.549 54.28 60.9356 54.36C61.3223 54.44 61.7423 54.5133 62.1956 54.58C62.6623 54.6333 63.129 54.72 63.5956 54.84C64.0623 54.96 64.4823 55.1333 64.8556 55.36C65.2423 55.5733 65.5556 55.8733 65.7956 56.26C66.0356 56.6333 66.1556 57.1267 66.1556 57.74C66.1556 58.4067 65.9556 59 65.5556 59.52C65.1556 60.0267 64.5756 60.4267 63.8156 60.72C63.069 61.0133 62.1556 61.16 61.0756 61.16ZM66.6406 62.8V61H76.6406V62.8H66.6406ZM84.4406 61.16C83.534 61.16 82.7406 60.96 82.0606 60.56C81.3806 60.16 80.8473 59.5533 80.4606 58.74C80.0873 57.9133 79.9006 56.8733 79.9006 55.62C79.9006 54.3533 80.0806 53.3133 80.4406 52.5C80.8006 51.6867 81.3206 51.08 82.0006 50.68C82.6806 50.28 83.494 50.08 84.4406 50.08C85.454 50.08 86.3606 50.3133 87.1606 50.78C87.974 51.2333 88.614 51.8733 89.0806 52.7C89.5606 53.5267 89.8006 54.5 89.8006 55.62C89.8006 56.7533 89.5606 57.7333 89.0806 58.56C88.614 59.3867 87.974 60.0267 87.1606 60.48C86.3606 60.9333 85.454 61.16 84.4406 61.16ZM78.0806 64.88V50.24H81.0606V52.44L81.0006 55.64L81.2006 58.82V64.88H78.0806ZM83.9006 58.6C84.4206 58.6 84.8806 58.48 85.2806 58.24C85.694 58 86.0206 57.66 86.2606 57.22C86.514 56.7667 86.6406 56.2333 86.6406 55.62C86.6406 54.9933 86.514 54.46 86.2606 54.02C86.0206 53.58 85.694 53.24 85.2806 53C84.8806 52.76 84.4206 52.64 83.9006 52.64C83.3806 52.64 82.914 52.76 82.5006 53C82.0873 53.24 81.7606 53.58 81.5206 54.02C81.2806 54.46 81.1606 54.9933 81.1606 55.62C81.1606 56.2333 81.2806 56.7667 81.5206 57.22C81.7606 57.66 82.0873 58 82.5006 58.24C82.914 58.48 83.3806 58.6 83.9006 58.6ZM91.8892 61V50.24H94.8692V53.28L94.4492 52.4C94.7692 51.64 95.2826 51.0667 95.9892 50.68C96.6959 50.28 97.5559 50.08 98.5692 50.08V52.96C98.4359 52.9467 98.3159 52.94 98.2092 52.94C98.1026 52.9267 97.9892 52.92 97.8692 52.92C97.0159 52.92 96.3226 53.1667 95.7892 53.66C95.2692 54.14 95.0092 54.8933 95.0092 55.92V61H91.8892ZM100.444 61V50.24H103.564V61H100.444ZM102.004 48.74C101.431 48.74 100.964 48.5733 100.604 48.24C100.244 47.9067 100.064 47.4933 100.064 47C100.064 46.5067 100.244 46.0933 100.604 45.76C100.964 45.4267 101.431 45.26 102.004 45.26C102.577 45.26 103.044 45.42 103.404 45.74C103.764 46.0467 103.944 46.4467 103.944 46.94C103.944 47.46 103.764 47.8933 103.404 48.24C103.057 48.5733 102.591 48.74 102.004 48.74ZM120.24 50.08C121.093 50.08 121.846 50.2533 122.5 50.6C123.166 50.9333 123.686 51.4533 124.06 52.16C124.446 52.8533 124.64 53.7467 124.64 54.84V61H121.52V55.32C121.52 54.4533 121.34 53.8133 120.98 53.4C120.62 52.9867 120.113 52.78 119.46 52.78C119.006 52.78 118.6 52.8867 118.24 53.1C117.88 53.3 117.6 53.6067 117.4 54.02C117.2 54.4333 117.1 54.96 117.1 55.6V61H113.98V55.32C113.98 54.4533 113.8 53.8133 113.44 53.4C113.093 52.9867 112.593 52.78 111.94 52.78C111.486 52.78 111.08 52.8867 110.72 53.1C110.36 53.3 110.08 53.6067 109.88 54.02C109.68 54.4333 109.58 54.96 109.58 55.6V61H106.46V50.24H109.44V53.18L108.88 52.32C109.253 51.5867 109.78 51.0333 110.46 50.66C111.153 50.2733 111.94 50.08 112.82 50.08C113.806 50.08 114.666 50.3333 115.4 50.84C116.146 51.3333 116.64 52.0933 116.88 53.12L115.78 52.82C116.14 51.98 116.713 51.3133 117.5 50.82C118.3 50.3267 119.213 50.08 120.24 50.08ZM132.854 61.16C131.628 61.16 130.548 60.92 129.614 60.44C128.694 59.96 127.981 59.3067 127.474 58.48C126.968 57.64 126.714 56.6867 126.714 55.62C126.714 54.54 126.961 53.5867 127.454 52.76C127.961 51.92 128.648 51.2667 129.514 50.8C130.381 50.32 131.361 50.08 132.454 50.08C133.508 50.08 134.454 50.3067 135.294 50.76C136.148 51.2 136.821 51.84 137.314 52.68C137.808 53.5067 138.054 54.5 138.054 55.66C138.054 55.78 138.048 55.92 138.034 56.08C138.021 56.2267 138.008 56.3667 137.994 56.5H129.254V54.68H136.354L135.154 55.22C135.154 54.66 135.041 54.1733 134.814 53.76C134.588 53.3467 134.274 53.0267 133.874 52.8C133.474 52.56 133.008 52.44 132.474 52.44C131.941 52.44 131.468 52.56 131.054 52.8C130.654 53.0267 130.341 53.3533 130.114 53.78C129.888 54.1933 129.774 54.6867 129.774 55.26V55.74C129.774 56.3267 129.901 56.8467 130.154 57.3C130.421 57.74 130.788 58.08 131.254 58.32C131.734 58.5467 132.294 58.66 132.934 58.66C133.508 58.66 134.008 58.5733 134.434 58.4C134.874 58.2267 135.274 57.9667 135.634 57.62L137.294 59.42C136.801 59.98 136.181 60.4133 135.434 60.72C134.688 61.0133 133.828 61.16 132.854 61.16ZM140.351 64.88V46.16H145.771V48.6H143.471V62.44H145.771V64.88H140.351ZM165.329 64.88H159.929V62.44H162.209V48.6H159.929V46.16H165.329V64.88ZM173.896 52.74V50.3H183.416V52.74H173.896ZM173.896 57.7V55.26H183.416V57.7H173.896Z" fill="white"/>
<path d="M152.835 61.24C151.688 61.24 150.661 60.96 149.755 60.4C148.848 59.8267 148.135 59 147.615 57.92C147.095 56.84 146.835 55.5333 146.835 54C146.835 52.4667 147.095 51.16 147.615 50.08C148.135 49 148.848 48.18 149.755 47.62C150.661 47.0467 151.688 46.76 152.835 46.76C153.995 46.76 155.021 47.0467 155.915 47.62C156.821 48.18 157.535 49 158.055 50.08C158.575 51.16 158.835 52.4667 158.835 54C158.835 55.5333 158.575 56.84 158.055 57.92C157.535 59 156.821 59.8267 155.915 60.4C155.021 60.96 153.995 61.24 152.835 61.24ZM152.835 58.5C153.381 58.5 153.855 58.3467 154.255 58.04C154.668 57.7333 154.988 57.2467 155.215 56.58C155.455 55.9133 155.575 55.0533 155.575 54C155.575 52.9467 155.455 52.0867 155.215 51.42C154.988 50.7533 154.668 50.2667 154.255 49.96C153.855 49.6533 153.381 49.5 152.835 49.5C152.301 49.5 151.828 49.6533 151.415 49.96C151.015 50.2667 150.695 50.7533 150.455 51.42C150.228 52.0867 150.115 52.9467 150.115 54C150.115 55.0533 150.228 55.9133 150.455 56.58C150.695 57.2467 151.015 57.7333 151.415 58.04C151.828 58.3467 152.301 58.5 152.835 58.5ZM197.073 61.24C195.926 61.24 194.9 60.96 193.993 60.4C193.086 59.8267 192.373 59 191.853 57.92C191.333 56.84 191.073 55.5333 191.073 54C191.073 52.4667 191.333 51.16 191.853 50.08C192.373 49 193.086 48.18 193.993 47.62C194.9 47.0467 195.926 46.76 197.073 46.76C198.233 46.76 199.26 47.0467 200.153 47.62C201.06 48.18 201.773 49 202.293 50.08C202.813 51.16 203.073 52.4667 203.073 54C203.073 55.5333 202.813 56.84 202.293 57.92C201.773 59 201.06 59.8267 200.153 60.4C199.26 60.96 198.233 61.24 197.073 61.24ZM197.073 58.5C197.62 58.5 198.093 58.3467 198.493 58.04C198.906 57.7333 199.226 57.2467 199.453 56.58C199.693 55.9133 199.813 55.0533 199.813 54C199.813 52.9467 199.693 52.0867 199.453 51.42C199.226 50.7533 198.906 50.2667 198.493 49.96C198.093 49.6533 197.62 49.5 197.073 49.5C196.54 49.5 196.066 49.6533 195.653 49.96C195.253 50.2667 194.933 50.7533 194.693 51.42C194.466 52.0867 194.353 52.9467 194.353 54C194.353 55.0533 194.466 55.9133 194.693 56.58C194.933 57.2467 195.253 57.7333 195.653 58.04C196.066 58.3467 196.54 58.5 197.073 58.5Z" fill="#49D3FF"/>
<path d="M51.44 97.5V86.74H54.56V97.5H51.44ZM53 85.24C52.4267 85.24 51.96 85.0733 51.6 84.74C51.24 84.4067 51.06 83.9933 51.06 83.5C51.06 83.0067 51.24 82.5933 51.6 82.26C51.96 81.9267 52.4267 81.76 53 81.76C53.5733 81.76 54.04 81.92 54.4 82.24C54.76 82.5467 54.94 82.9467 54.94 83.44C54.94 83.96 54.76 84.3933 54.4 84.74C54.0533 85.0733 53.5867 85.24 53 85.24ZM61.0756 97.66C60.1556 97.66 59.269 97.5533 58.4156 97.34C57.5756 97.1133 56.909 96.8333 56.4156 96.5L57.4556 94.26C57.949 94.5667 58.529 94.82 59.1956 95.02C59.8756 95.2067 60.5423 95.3 61.1956 95.3C61.9156 95.3 62.4223 95.2133 62.7156 95.04C63.0223 94.8667 63.1756 94.6267 63.1756 94.32C63.1756 94.0667 63.0556 93.88 62.8156 93.76C62.589 93.6267 62.2823 93.5267 61.8956 93.46C61.509 93.3933 61.0823 93.3267 60.6156 93.26C60.1623 93.1933 59.7023 93.1067 59.2356 93C58.769 92.88 58.3423 92.7067 57.9556 92.48C57.569 92.2533 57.2556 91.9467 57.0156 91.56C56.789 91.1733 56.6756 90.6733 56.6756 90.06C56.6756 89.38 56.869 88.78 57.2556 88.26C57.6556 87.74 58.229 87.3333 58.9756 87.04C59.7223 86.7333 60.6156 86.58 61.6556 86.58C62.389 86.58 63.1356 86.66 63.8956 86.82C64.6556 86.98 65.289 87.2133 65.7956 87.52L64.7556 89.74C64.2356 89.4333 63.709 89.2267 63.1756 89.12C62.6556 89 62.149 88.94 61.6556 88.94C60.9623 88.94 60.4556 89.0333 60.1356 89.22C59.8156 89.4067 59.6556 89.6467 59.6556 89.94C59.6556 90.2067 59.769 90.4067 59.9956 90.54C60.2356 90.6733 60.549 90.78 60.9356 90.86C61.3223 90.94 61.7423 91.0133 62.1956 91.08C62.6623 91.1333 63.129 91.22 63.5956 91.34C64.0623 91.46 64.4823 91.6333 64.8556 91.86C65.2423 92.0733 65.5556 92.3733 65.7956 92.76C66.0356 93.1333 66.1556 93.6267 66.1556 94.24C66.1556 94.9067 65.9556 95.5 65.5556 96.02C65.1556 96.5267 64.5756 96.9267 63.8156 97.22C63.069 97.5133 62.1556 97.66 61.0756 97.66ZM66.6406 99.3V97.5H76.6406V99.3H66.6406ZM84.4406 97.66C83.534 97.66 82.7406 97.46 82.0606 97.06C81.3806 96.66 80.8473 96.0533 80.4606 95.24C80.0873 94.4133 79.9006 93.3733 79.9006 92.12C79.9006 90.8533 80.0806 89.8133 80.4406 89C80.8006 88.1867 81.3206 87.58 82.0006 87.18C82.6806 86.78 83.494 86.58 84.4406 86.58C85.454 86.58 86.3606 86.8133 87.1606 87.28C87.974 87.7333 88.614 88.3733 89.0806 89.2C89.5606 90.0267 89.8006 91 89.8006 92.12C89.8006 93.2533 89.5606 94.2333 89.0806 95.06C88.614 95.8867 87.974 96.5267 87.1606 96.98C86.3606 97.4333 85.454 97.66 84.4406 97.66ZM78.0806 101.38V86.74H81.0606V88.94L81.0006 92.14L81.2006 95.32V101.38H78.0806ZM83.9006 95.1C84.4206 95.1 84.8806 94.98 85.2806 94.74C85.694 94.5 86.0206 94.16 86.2606 93.72C86.514 93.2667 86.6406 92.7333 86.6406 92.12C86.6406 91.4933 86.514 90.96 86.2606 90.52C86.0206 90.08 85.694 89.74 85.2806 89.5C84.8806 89.26 84.4206 89.14 83.9006 89.14C83.3806 89.14 82.914 89.26 82.5006 89.5C82.0873 89.74 81.7606 90.08 81.5206 90.52C81.2806 90.96 81.1606 91.4933 81.1606 92.12C81.1606 92.7333 81.2806 93.2667 81.5206 93.72C81.7606 94.16 82.0873 94.5 82.5006 94.74C82.914 94.98 83.3806 95.1 83.9006 95.1ZM91.8892 97.5V86.74H94.8692V89.78L94.4492 88.9C94.7692 88.14 95.2826 87.5667 95.9892 87.18C96.6959 86.78 97.5559 86.58 98.5692 86.58V89.46C98.4359 89.4467 98.3159 89.44 98.2092 89.44C98.1026 89.4267 97.9892 89.42 97.8692 89.42C97.0159 89.42 96.3226 89.6667 95.7892 90.16C95.2692 90.64 95.0092 91.3933 95.0092 92.42V97.5H91.8892ZM100.444 97.5V86.74H103.564V97.5H100.444ZM102.004 85.24C101.431 85.24 100.964 85.0733 100.604 84.74C100.244 84.4067 100.064 83.9933 100.064 83.5C100.064 83.0067 100.244 82.5933 100.604 82.26C100.964 81.9267 101.431 81.76 102.004 81.76C102.577 81.76 103.044 81.92 103.404 82.24C103.764 82.5467 103.944 82.9467 103.944 83.44C103.944 83.96 103.764 84.3933 103.404 84.74C103.057 85.0733 102.591 85.24 102.004 85.24ZM120.24 86.58C121.093 86.58 121.846 86.7533 122.5 87.1C123.166 87.4333 123.686 87.9533 124.06 88.66C124.446 89.3533 124.64 90.2467 124.64 91.34V97.5H121.52V91.82C121.52 90.9533 121.34 90.3133 120.98 89.9C120.62 89.4867 120.113 89.28 119.46 89.28C119.006 89.28 118.6 89.3867 118.24 89.6C117.88 89.8 117.6 90.1067 117.4 90.52C117.2 90.9333 117.1 91.46 117.1 92.1V97.5H113.98V91.82C113.98 90.9533 113.8 90.3133 113.44 89.9C113.093 89.4867 112.593 89.28 111.94 89.28C111.486 89.28 111.08 89.3867 110.72 89.6C110.36 89.8 110.08 90.1067 109.88 90.52C109.68 90.9333 109.58 91.46 109.58 92.1V97.5H106.46V86.74H109.44V89.68L108.88 88.82C109.253 88.0867 109.78 87.5333 110.46 87.16C111.153 86.7733 111.94 86.58 112.82 86.58C113.806 86.58 114.666 86.8333 115.4 87.34C116.146 87.8333 116.64 88.5933 116.88 89.62L115.78 89.32C116.14 88.48 116.713 87.8133 117.5 87.32C118.3 86.8267 119.213 86.58 120.24 86.58ZM132.854 97.66C131.628 97.66 130.548 97.42 129.614 96.94C128.694 96.46 127.981 95.8067 127.474 94.98C126.968 94.14 126.714 93.1867 126.714 92.12C126.714 91.04 126.961 90.0867 127.454 89.26C127.961 88.42 128.648 87.7667 129.514 87.3C130.381 86.82 131.361 86.58 132.454 86.58C133.508 86.58 134.454 86.8067 135.294 87.26C136.148 87.7 136.821 88.34 137.314 89.18C137.808 90.0067 138.054 91 138.054 92.16C138.054 92.28 138.048 92.42 138.034 92.58C138.021 92.7267 138.008 92.8667 137.994 93H129.254V91.18H136.354L135.154 91.72C135.154 91.16 135.041 90.6733 134.814 90.26C134.588 89.8467 134.274 89.5267 133.874 89.3C133.474 89.06 133.008 88.94 132.474 88.94C131.941 88.94 131.468 89.06 131.054 89.3C130.654 89.5267 130.341 89.8533 130.114 90.28C129.888 90.6933 129.774 91.1867 129.774 91.76V92.24C129.774 92.8267 129.901 93.3467 130.154 93.8C130.421 94.24 130.788 94.58 131.254 94.82C131.734 95.0467 132.294 95.16 132.934 95.16C133.508 95.16 134.008 95.0733 134.434 94.9C134.874 94.7267 135.274 94.4667 135.634 94.12L137.294 95.92C136.801 96.48 136.181 96.9133 135.434 97.22C134.688 97.5133 133.828 97.66 132.854 97.66ZM140.351 101.38V82.66H145.771V85.1H143.471V98.94H145.771V101.38H140.351ZM160.055 101.38H154.655V98.94H156.935V85.1H154.655V82.66H160.055V101.38ZM168.623 89.24V86.8H178.143V89.24H168.623ZM168.623 94.2V91.76H178.143V94.2H168.623Z" fill="white"/>
<path d="M149.463 97.5V84.7L150.863 86.1H146.663V83.5H152.703V97.5H149.463ZM191.8 97.74C190.653 97.74 189.626 97.46 188.72 96.9C187.813 96.3267 187.1 95.5 186.58 94.42C186.06 93.34 185.8 92.0333 185.8 90.5C185.8 88.9667 186.06 87.66 186.58 86.58C187.1 85.5 187.813 84.68 188.72 84.12C189.626 83.5467 190.653 83.26 191.8 83.26C192.96 83.26 193.986 83.5467 194.88 84.12C195.786 84.68 196.5 85.5 197.02 86.58C197.54 87.66 197.8 88.9667 197.8 90.5C197.8 92.0333 197.54 93.34 197.02 94.42C196.5 95.5 195.786 96.3267 194.88 96.9C193.986 97.46 192.96 97.74 191.8 97.74ZM191.8 95C192.346 95 192.82 94.8467 193.22 94.54C193.633 94.2333 193.953 93.7467 194.18 93.08C194.42 92.4133 194.54 91.5533 194.54 90.5C194.54 89.4467 194.42 88.5867 194.18 87.92C193.953 87.2533 193.633 86.7667 193.22 86.46C192.82 86.1533 192.346 86 191.8 86C191.266 86 190.793 86.1533 190.38 86.46C189.98 86.7667 189.66 87.2533 189.42 87.92C189.193 88.5867 189.08 89.4467 189.08 90.5C189.08 91.5533 189.193 92.4133 189.42 93.08C189.66 93.7467 189.98 94.2333 190.38 94.54C190.793 94.8467 191.266 95 191.8 95Z" fill="#49D3FF"/>
</svg>
