<svg width="500" height="34" viewBox="0 0 500 34" fill="none" xmlns="http://www.w3.org/2000/svg">
<rect width="500" height="34" rx="5" fill="#494D9B"/>
<path d="M51.82 24V13C51.82 11.7867 52.18 10.82 52.9 10.1C53.62 9.36667 54.6467 9 55.98 9C56.4333 9 56.8667 9.04667 57.28 9.14C57.7067 9.23333 58.0667 9.38 58.36 9.58L57.54 11.84C57.3667 11.72 57.1733 11.6267 56.96 11.56C56.7467 11.4933 56.52 11.46 56.28 11.46C55.8267 11.46 55.4733 11.5933 55.22 11.86C54.98 12.1133 54.86 12.5 54.86 13.02V14.02L54.94 15.36V24H51.82ZM50.16 15.88V13.48H57.62V15.88H50.16ZM64.1577 24.16C63.011 24.16 61.991 23.92 61.0977 23.44C60.2177 22.96 59.5177 22.3067 58.9977 21.48C58.491 20.64 58.2377 19.6867 58.2377 18.62C58.2377 17.54 58.491 16.5867 58.9977 15.76C59.5177 14.92 60.2177 14.2667 61.0977 13.8C61.991 13.32 63.011 13.08 64.1577 13.08C65.291 13.08 66.3043 13.32 67.1977 13.8C68.091 14.2667 68.791 14.9133 69.2977 15.74C69.8043 16.5667 70.0577 17.5267 70.0577 18.62C70.0577 19.6867 69.8043 20.64 69.2977 21.48C68.791 22.3067 68.091 22.96 67.1977 23.44C66.3043 23.92 65.291 24.16 64.1577 24.16ZM64.1577 21.6C64.6777 21.6 65.1443 21.48 65.5577 21.24C65.971 21 66.2977 20.66 66.5377 20.22C66.7777 19.7667 66.8977 19.2333 66.8977 18.62C66.8977 17.9933 66.7777 17.46 66.5377 17.02C66.2977 16.58 65.971 16.24 65.5577 16C65.1443 15.76 64.6777 15.64 64.1577 15.64C63.6377 15.64 63.171 15.76 62.7577 16C62.3443 16.24 62.011 16.58 61.7577 17.02C61.5177 17.46 61.3977 17.9933 61.3977 18.62C61.3977 19.2333 61.5177 19.7667 61.7577 20.22C62.011 20.66 62.3443 21 62.7577 21.24C63.171 21.48 63.6377 21.6 64.1577 21.6ZM72.1431 24V13.24H75.1231V16.28L74.7031 15.4C75.0231 14.64 75.5365 14.0667 76.2431 13.68C76.9498 13.28 77.8098 13.08 78.8231 13.08V15.96C78.6898 15.9467 78.5698 15.94 78.4631 15.94C78.3565 15.9267 78.2431 15.92 78.1231 15.92C77.2698 15.92 76.5765 16.1667 76.0431 16.66C75.5231 17.14 75.2631 17.8933 75.2631 18.92V24H72.1431ZM105.288 24V13.24H108.408V24H105.288ZM106.848 11.74C106.274 11.74 105.808 11.5733 105.448 11.24C105.088 10.9067 104.908 10.4933 104.908 10C104.908 9.50667 105.088 9.09333 105.448 8.76C105.808 8.42667 106.274 8.26 106.848 8.26C107.421 8.26 107.888 8.42 108.248 8.74C108.608 9.04667 108.788 9.44667 108.788 9.94C108.788 10.46 108.608 10.8933 108.248 11.24C107.901 11.5733 107.434 11.74 106.848 11.74ZM117.843 13.08C118.697 13.08 119.457 13.2533 120.123 13.6C120.803 13.9333 121.337 14.4533 121.723 15.16C122.11 15.8533 122.303 16.7467 122.303 17.84V24H119.183V18.32C119.183 17.4533 118.99 16.8133 118.603 16.4C118.23 15.9867 117.697 15.78 117.003 15.78C116.51 15.78 116.063 15.8867 115.663 16.1C115.277 16.3 114.97 16.6133 114.743 17.04C114.53 17.4667 114.423 18.0133 114.423 18.68V24H111.303V13.24H114.283V16.22L113.723 15.32C114.11 14.6 114.663 14.0467 115.383 13.66C116.103 13.2733 116.923 13.08 117.843 13.08Z" fill="#FF9900"/>
<path d="M89.0005 21.8L89.0805 18L94.1005 13.24H97.8205L93.0005 18.14L91.3805 19.46L89.0005 21.8ZM86.4205 24V9.16H89.5405V24H86.4205ZM94.4405 24L90.8005 19.48L92.7605 17.06L98.2205 24H94.4405ZM199.683 27.88C198.883 26.6667 198.263 25.2667 197.823 23.68C197.396 22.08 197.183 20.36 197.183 18.52C197.183 16.68 197.396 14.96 197.823 13.36C198.263 11.7467 198.883 10.3467 199.683 9.16H202.663C201.823 10.6667 201.209 12.1867 200.823 13.72C200.436 15.24 200.243 16.84 200.243 18.52C200.243 20.2 200.436 21.8067 200.823 23.34C201.209 24.86 201.823 26.3733 202.663 27.88H199.683ZM215.763 27.08L217.083 22.28L217.523 24.08C216.95 24.08 216.477 23.9133 216.103 23.58C215.743 23.2467 215.563 22.7867 215.563 22.2C215.563 21.6133 215.75 21.1467 216.123 20.8C216.497 20.4533 216.957 20.28 217.503 20.28C218.063 20.28 218.523 20.46 218.883 20.82C219.243 21.1667 219.423 21.6267 219.423 22.2C219.423 22.3733 219.41 22.5467 219.383 22.72C219.357 22.88 219.303 23.08 219.223 23.32C219.157 23.5467 219.043 23.84 218.883 24.2L217.743 27.08H215.763ZM233.742 13.08C234.595 13.08 235.355 13.2533 236.022 13.6C236.702 13.9333 237.235 14.4533 237.622 15.16C238.008 15.8533 238.202 16.7467 238.202 17.84V24H235.082V18.32C235.082 17.4533 234.888 16.8133 234.502 16.4C234.128 15.9867 233.595 15.78 232.902 15.78C232.408 15.78 231.962 15.8867 231.562 16.1C231.175 16.3 230.868 16.6133 230.642 17.04C230.428 17.4667 230.322 18.0133 230.322 18.68V24H227.202V13.24H230.182V16.22L229.622 15.32C230.008 14.6 230.562 14.0467 231.282 13.66C232.002 13.2733 232.822 13.08 233.742 13.08ZM249.954 21.62V12.38H252.534V21.62H249.954ZM246.494 18.22V15.78H256.014V18.22H246.494ZM273.903 27.88H270.923C271.789 26.3733 272.409 24.86 272.783 23.34C273.169 21.8067 273.363 20.2 273.363 18.52C273.363 16.84 273.169 15.24 272.783 13.72C272.409 12.1867 271.789 10.6667 270.923 9.16H273.903C274.729 10.3467 275.356 11.7467 275.783 13.36C276.209 14.96 276.423 16.68 276.423 18.52C276.423 20.36 276.209 22.08 275.783 23.68C275.356 25.2667 274.729 26.6667 273.903 27.88ZM280.511 16.98C279.977 16.98 279.517 16.8 279.131 16.44C278.757 16.0667 278.571 15.5933 278.571 15.02C278.571 14.4467 278.757 13.9867 279.131 13.64C279.517 13.28 279.977 13.1 280.511 13.1C281.057 13.1 281.517 13.28 281.891 13.64C282.264 13.9867 282.451 14.4467 282.451 15.02C282.451 15.5933 282.264 16.0667 281.891 16.44C281.517 16.8 281.057 16.98 280.511 16.98ZM280.511 24.16C279.977 24.16 279.517 23.98 279.131 23.62C278.757 23.2467 278.571 22.7733 278.571 22.2C278.571 21.6267 278.757 21.1667 279.131 20.82C279.517 20.46 279.977 20.28 280.511 20.28C281.057 20.28 281.517 20.46 281.891 20.82C282.264 21.1667 282.451 21.6267 282.451 22.2C282.451 22.7733 282.264 23.2467 281.891 23.62C281.517 23.98 281.057 24.16 280.511 24.16Z" fill="white"/>
<path d="M130.795 24V13.24H133.775V16.28L133.355 15.4C133.675 14.64 134.189 14.0667 134.895 13.68C135.602 13.28 136.462 13.08 137.475 13.08V15.96C137.342 15.9467 137.222 15.94 137.115 15.94C137.009 15.9267 136.895 15.92 136.775 15.92C135.922 15.92 135.229 16.1667 134.695 16.66C134.175 17.14 133.915 17.8933 133.915 18.92V24H130.795ZM145.228 24V21.9L145.028 21.44V17.68C145.028 17.0133 144.821 16.4933 144.408 16.12C144.008 15.7467 143.388 15.56 142.548 15.56C141.974 15.56 141.408 15.6533 140.848 15.84C140.301 16.0133 139.834 16.2533 139.448 16.56L138.328 14.38C138.914 13.9667 139.621 13.6467 140.448 13.42C141.274 13.1933 142.114 13.08 142.968 13.08C144.608 13.08 145.881 13.4667 146.788 14.24C147.694 15.0133 148.148 16.22 148.148 17.86V24H145.228ZM141.948 24.16C141.108 24.16 140.388 24.02 139.788 23.74C139.188 23.4467 138.728 23.0533 138.408 22.56C138.088 22.0667 137.928 21.5133 137.928 20.9C137.928 20.26 138.081 19.7 138.388 19.22C138.708 18.74 139.208 18.3667 139.888 18.1C140.568 17.82 141.454 17.68 142.548 17.68H145.408V19.5H142.888C142.154 19.5 141.648 19.62 141.368 19.86C141.101 20.1 140.968 20.4 140.968 20.76C140.968 21.16 141.121 21.48 141.428 21.72C141.748 21.9467 142.181 22.06 142.728 22.06C143.248 22.06 143.714 21.94 144.128 21.7C144.541 21.4467 144.841 21.08 145.028 20.6L145.508 22.04C145.281 22.7333 144.868 23.26 144.268 23.62C143.668 23.98 142.894 24.16 141.948 24.16ZM157.511 13.08C158.365 13.08 159.125 13.2533 159.791 13.6C160.471 13.9333 161.005 14.4533 161.391 15.16C161.778 15.8533 161.971 16.7467 161.971 17.84V24H158.851V18.32C158.851 17.4533 158.658 16.8133 158.271 16.4C157.898 15.9867 157.365 15.78 156.671 15.78C156.178 15.78 155.731 15.8867 155.331 16.1C154.945 16.3 154.638 16.6133 154.411 17.04C154.198 17.4667 154.091 18.0133 154.091 18.68V24H150.971V13.24H153.951V16.22L153.391 15.32C153.778 14.6 154.331 14.0467 155.051 13.66C155.771 13.2733 156.591 13.08 157.511 13.08ZM169.938 28.04C168.924 28.04 167.944 27.9133 166.998 27.66C166.064 27.42 165.284 27.0533 164.658 26.56L165.898 24.32C166.351 24.6933 166.924 24.9867 167.618 25.2C168.324 25.4267 169.018 25.54 169.698 25.54C170.804 25.54 171.604 25.2933 172.098 24.8C172.604 24.3067 172.858 23.5733 172.858 22.6V20.98L173.058 18.28L173.018 15.56V13.24H175.978V22.2C175.978 24.2 175.458 25.6733 174.418 26.62C173.378 27.5667 171.884 28.04 169.938 28.04ZM169.458 23.48C168.458 23.48 167.551 23.2667 166.738 22.84C165.938 22.4 165.291 21.7933 164.798 21.02C164.318 20.2333 164.078 19.32 164.078 18.28C164.078 17.2267 164.318 16.3133 164.798 15.54C165.291 14.7533 165.938 14.1467 166.738 13.72C167.551 13.2933 168.458 13.08 169.458 13.08C170.364 13.08 171.164 13.2667 171.858 13.64C172.551 14 173.091 14.5667 173.478 15.34C173.864 16.1 174.058 17.08 174.058 18.28C174.058 19.4667 173.864 20.4467 173.478 21.22C173.091 21.98 172.551 22.5467 171.858 22.92C171.164 23.2933 170.364 23.48 169.458 23.48ZM170.078 20.92C170.624 20.92 171.111 20.8133 171.538 20.6C171.964 20.3733 172.298 20.06 172.538 19.66C172.778 19.26 172.898 18.8 172.898 18.28C172.898 17.7467 172.778 17.2867 172.538 16.9C172.298 16.5 171.964 16.1933 171.538 15.98C171.111 15.7533 170.624 15.64 170.078 15.64C169.531 15.64 169.044 15.7533 168.618 15.98C168.191 16.1933 167.851 16.5 167.598 16.9C167.358 17.2867 167.238 17.7467 167.238 18.28C167.238 18.8 167.358 19.26 167.598 19.66C167.851 20.06 168.191 20.3733 168.618 20.6C169.044 20.8133 169.531 20.92 170.078 20.92ZM184.221 24.16C182.995 24.16 181.915 23.92 180.981 23.44C180.061 22.96 179.348 22.3067 178.841 21.48C178.335 20.64 178.081 19.6867 178.081 18.62C178.081 17.54 178.328 16.5867 178.821 15.76C179.328 14.92 180.015 14.2667 180.881 13.8C181.748 13.32 182.728 13.08 183.821 13.08C184.875 13.08 185.821 13.3067 186.661 13.76C187.515 14.2 188.188 14.84 188.681 15.68C189.175 16.5067 189.421 17.5 189.421 18.66C189.421 18.78 189.415 18.92 189.401 19.08C189.388 19.2267 189.375 19.3667 189.361 19.5H180.621V17.68H187.721L186.521 18.22C186.521 17.66 186.408 17.1733 186.181 16.76C185.955 16.3467 185.641 16.0267 185.241 15.8C184.841 15.56 184.375 15.44 183.841 15.44C183.308 15.44 182.835 15.56 182.421 15.8C182.021 16.0267 181.708 16.3533 181.481 16.78C181.255 17.1933 181.141 17.6867 181.141 18.26V18.74C181.141 19.3267 181.268 19.8467 181.521 20.3C181.788 20.74 182.155 21.08 182.621 21.32C183.101 21.5467 183.661 21.66 184.301 21.66C184.875 21.66 185.375 21.5733 185.801 21.4C186.241 21.2267 186.641 20.9667 187.001 20.62L188.661 22.42C188.168 22.98 187.548 23.4133 186.801 23.72C186.055 24.0133 185.195 24.16 184.221 24.16Z" fill="#D0A3FD"/>
<path d="M203.531 24V21.9L208.931 16.8C209.358 16.4133 209.671 16.0667 209.871 15.76C210.071 15.4533 210.204 15.1733 210.271 14.92C210.351 14.6667 210.391 14.4333 210.391 14.22C210.391 13.66 210.198 13.2333 209.811 12.94C209.438 12.6333 208.884 12.48 208.151 12.48C207.564 12.48 207.018 12.5933 206.511 12.82C206.018 13.0467 205.598 13.4 205.251 13.88L202.891 12.36C203.424 11.56 204.171 10.9267 205.131 10.46C206.091 9.99333 207.198 9.76 208.451 9.76C209.491 9.76 210.398 9.93333 211.171 10.28C211.958 10.6133 212.564 11.0867 212.991 11.7C213.431 12.3133 213.651 13.0467 213.651 13.9C213.651 14.3533 213.591 14.8067 213.471 15.26C213.364 15.7 213.138 16.1667 212.791 16.66C212.458 17.1533 211.964 17.7067 211.311 18.32L206.831 22.54L206.211 21.36H214.111V24H203.531ZM265.831 24V11.2L267.231 12.6H263.031V10H269.071V24H265.831Z" fill="#49D3FF"/>
</svg>
