<?xml version="1.0" encoding="UTF-8" standalone="no"?>
<svg
   xmlns:dc="http://purl.org/dc/elements/1.1/"
   xmlns:cc="http://creativecommons.org/ns#"
   xmlns:rdf="http://www.w3.org/1999/02/22-rdf-syntax-ns#"
   xmlns:svg="http://www.w3.org/2000/svg"
   xmlns="http://www.w3.org/2000/svg"
   xmlns:sodipodi="http://sodipodi.sourceforge.net/DTD/sodipodi-0.dtd"
   xmlns:inkscape="http://www.inkscape.org/namespaces/inkscape"
   width="163.89622mm"
   height="166.96979mm"
   viewBox="0 0 163.89623 166.96979"
   version="1.1"
   id="svg8"
   inkscape:version="1.0.2-2 (e86c870879, 2021-01-15)"
   sodipodi:docname="sums_on_cube_8_12_22.svg">
  <defs
     id="defs2">
    <inkscape:path-effect
       effect="perspective-envelope"
       up_left_point="96.113298,51.910281"
       up_right_point="161.32706,19.837939"
       down_left_point="95.04422,164.16349"
       down_right_point="155.71441,123.00398"
       id="path-effect948"
       is_visible="true"
       lpeversion="1"
       deform_type="perspective"
       horizontal_mirror="false"
       vertical_mirror="false"
       overflow_perspective="false" />
    <inkscape:path-effect
       effect="perspective-envelope"
       up_left_point="0.43080844,27.321486"
       up_right_point="96.113296,51.910281"
       down_left_point="4.1725816,132.09115"
       down_right_point="95.044218,164.16349"
       id="path-effect923"
       is_visible="true"
       lpeversion="1"
       deform_type="perspective"
       horizontal_mirror="false"
       vertical_mirror="false"
       overflow_perspective="false" />
    <inkscape:path-effect
       effect="perspective-envelope"
       up_left_point="0.43080844,26.911964"
       up_right_point="70.054521,0.19362949"
       down_left_point="96.113298,51.910281"
       down_right_point="161.32706,19.837939"
       id="path-effect893"
       is_visible="true"
       lpeversion="1"
       deform_type="perspective"
       horizontal_mirror="false"
       vertical_mirror="false"
       overflow_perspective="false" />
    <inkscape:path-effect
       effect="perspective-envelope"
       up_left_point="96.113298,51.910281"
       up_right_point="161.32706,19.837939"
       down_left_point="95.04422,164.16349"
       down_right_point="155.71441,123.00398"
       id="path-effect154"
       is_visible="true"
       lpeversion="1"
       deform_type="perspective"
       horizontal_mirror="false"
       vertical_mirror="false"
       overflow_perspective="false" />
    <inkscape:path-effect
       effect="perspective-envelope"
       up_left_point="0.43080844,27.321486"
       up_right_point="96.113298,51.910281"
       down_left_point="4.1725816,132.09115"
       down_right_point="95.04422,164.16349"
       id="path-effect143"
       is_visible="true"
       lpeversion="1"
       deform_type="perspective"
       horizontal_mirror="false"
       vertical_mirror="false"
       overflow_perspective="false" />
    <inkscape:path-effect
       effect="perspective-envelope"
       up_left_point="14.99091,76.633748"
       up_right_point="96.113298,51.910281"
       down_left_point="14.99091,84.633234"
       down_right_point="95.044218,164.16349"
       id="path-effect118"
       is_visible="true"
       lpeversion="1"
       deform_type="perspective"
       horizontal_mirror="false"
       vertical_mirror="false"
       overflow_perspective="false" />
    <inkscape:path-effect
       effect="perspective-envelope"
       up_left_point="0.43080844,27.321486"
       up_right_point="70.054521,0.19362949"
       down_left_point="96.113298,51.910281"
       down_right_point="161.32706,19.837939"
       id="path-effect107"
       is_visible="true"
       lpeversion="1"
       deform_type="perspective"
       horizontal_mirror="false"
       vertical_mirror="false"
       overflow_perspective="false" />
    <inkscape:path-effect
       effect="envelope"
       id="path-effect505"
       is_visible="true"
       lpeversion="1"
       yy="true"
       xx="false"
       bendpath1="M 72.707582,5.2870248 142.63318,20.784048"
       bendpath2="M 95.934624,9.1827133 V 16.934153"
       bendpath3="M 20.052623,26.218846 91.606391,42.895654"
       bendpath4="M 84.441821,9.1827133 V 16.934153"
       bendpath1-nodetypes="cc"
       bendpath3-nodetypes="cc" />
    <inkscape:path-effect
       effect="envelope"
       id="path-effect494"
       is_visible="true"
       lpeversion="1"
       yy="true"
       xx="false"
       bendpath1="M 103.13466,59.526608 155.48437,32.50131"
       bendpath2="m 141.77827,90.835901 v 7.751442"
       bendpath3="m 102.18973,148.54 47.43601,-33.26191"
       bendpath4="m 130.25963,90.835901 v 7.751442"
       bendpath1-nodetypes="cc"
       bendpath3-nodetypes="cc" />
    <inkscape:path-effect
       effect="envelope"
       id="path-effect483"
       is_visible="true"
       lpeversion="1"
       yy="true"
       xx="false"
       bendpath1="M 10.5305,40.627797 86.125738,59.904584"
       bendpath2="m 41.751166,81.764477 v 7.75144"
       bendpath3="m 13.554309,122.27065 71.815474,27.21429"
       bendpath4="m 36.340661,81.764477 v 7.75144"
       bendpath1-nodetypes="cc"
       bendpath3-nodetypes="cc" />
    <inkscape:path-effect
       effect="envelope"
       id="path-effect399"
       is_visible="true"
       lpeversion="1"
       yy="true"
       xx="false"
       bendpath1="M 72.707582,5.2870248 142.63318,20.784048"
       bendpath2="m 99.831036,10.704952 v 7.75144"
       bendpath3="M 20.052623,26.218846 91.606391,42.895654"
       bendpath4="m 89.733493,10.704952 v 7.75144"
       bendpath1-nodetypes="cc"
       bendpath3-nodetypes="cc" />
    <inkscape:path-effect
       effect="envelope"
       id="path-effect388"
       is_visible="true"
       lpeversion="1"
       yy="true"
       xx="false"
       bendpath1="M 103.13466,59.526608 155.48437,32.50131"
       bendpath2="m 131.86303,80.252572 v 7.751442"
       bendpath3="m 102.18973,148.54 47.43601,-33.26191"
       bendpath4="m 120.43224,80.252572 v 7.751442"
       bendpath1-nodetypes="cc"
       bendpath3-nodetypes="cc" />
    <inkscape:path-effect
       effect="envelope"
       id="path-effect377"
       is_visible="true"
       lpeversion="1"
       yy="true"
       xx="false"
       bendpath1="M 10.5305,40.627797 86.125738,59.904584"
       bendpath2="m 54.600121,75.338876 v 7.751443"
       bendpath3="m 13.554309,122.27065 71.815474,27.21429"
       bendpath4="m 42.947122,75.338876 v 7.751443"
       bendpath1-nodetypes="cc"
       bendpath3-nodetypes="cc" />
    <inkscape:path-effect
       effect="envelope"
       id="path-effect292"
       is_visible="true"
       lpeversion="1"
       yy="true"
       xx="false"
       bendpath1="M 72.707582,5.2870248 142.63318,20.784048"
       bendpath2="m 88.175061,16.742236 v 7.75144"
       bendpath3="M 20.052623,26.218846 91.606391,42.895654"
       bendpath4="m 82.800729,16.742236 v 7.75144"
       bendpath1-nodetypes="cc"
       bendpath3-nodetypes="cc" />
    <inkscape:path-effect
       effect="envelope"
       id="path-effect283"
       is_visible="true"
       lpeversion="1"
       yy="true"
       xx="false"
       bendpath1="M 103.13466,59.526608 155.48437,32.50131"
       bendpath2="m 145.92566,83.654362 v 7.622249"
       bendpath3="m 102.18973,148.54 47.43601,-33.26191"
       bendpath4="m 134.33467,83.654362 v 7.622249"
       bendpath1-nodetypes="cc"
       bendpath3-nodetypes="cc" />
    <inkscape:path-effect
       effect="envelope"
       id="path-effect272"
       is_visible="true"
       lpeversion="1"
       yy="true"
       xx="false"
       bendpath1="M 10.5305,40.627797 86.125738,59.904584"
       bendpath2="m 41.982214,63.243646 v 7.75144"
       bendpath3="m 13.554309,122.27065 71.815474,27.21429"
       bendpath4="m 30.473909,63.243646 v 7.75144"
       bendpath1-nodetypes="cc"
       bendpath3-nodetypes="cc" />
    <inkscape:path-effect
       effect="envelope"
       id="path-effect132"
       is_visible="true"
       lpeversion="1"
       yy="true"
       xx="true"
       bendpath1="M 15.354861,44.722804 80.302503,63.243638"
       bendpath2="M 79.924527,63.243638 79.546551,140.16472"
       bendpath3="m 18.378671,120.13199 61.16788,19.65476"
       bendpath4="m 15.354861,44.722804 1.511905,74.275256"
       bendpath1-nodetypes="cc"
       bendpath2-nodetypes="cc"
       bendpath3-nodetypes="cc"
       bendpath4-nodetypes="cc" />
    <inkscape:path-effect
       effect="envelope"
       id="path-effect1206"
       is_visible="true"
       lpeversion="1"
       yy="true"
       xx="true"
       bendpath1="M 73.232886,6.6145831 139.3625,20.899397"
       bendpath2="M 139.3625,20.899397 91.714578,42.466967"
       bendpath3="M 25.591674,25.969651 91.714578,42.466967"
       bendpath4="M 73.232886,6.6145831 25.591674,25.969651"
       bendpath1-nodetypes="cc"
       bendpath2-nodetypes="cc"
       bendpath3-nodetypes="cc"
       bendpath4-nodetypes="cc" />
    <inkscape:path-effect
       effect="envelope"
       id="path-effect1197"
       is_visible="true"
       lpeversion="1"
       yy="true"
       xx="true"
       bendpath1="M 106.96726,64.255952 151.81001,40.409875"
       bendpath2="m 151.81001,40.409875 -4.44122,72.973475"
       bendpath3="m 106.21131,140.04017 41.15748,-26.65682"
       bendpath4="m 106.96726,64.255952 -0.75595,75.784218"
       bendpath1-nodetypes="cc"
       bendpath2-nodetypes="cc"
       bendpath3-nodetypes="cc"
       bendpath4-nodetypes="cc" />
    <inkscape:path-effect
       effect="envelope"
       id="path-effect1186"
       is_visible="true"
       lpeversion="1"
       yy="true"
       xx="true"
       bendpath1="M 12.095238,44.60119 83.15476,63.122023"
       bendpath2="M 83.15476,63.122023 83.06027,146.74926"
       bendpath3="m 15.686012,121.70834 67.374254,25.04092"
       bendpath4="m 12.095238,44.60119 3.590774,77.10715"
       bendpath1-nodetypes="cc"
       bendpath2-nodetypes="cc"
       bendpath3-nodetypes="cc"
       bendpath4-nodetypes="cc" />
    <inkscape:path-effect
       effect="dashed_stroke"
       id="path-effect246"
       is_visible="true"
       lpeversion="1"
       numberdashes="17"
       holefactor="0.99999"
       splitsegments="false"
       halfextreme="false"
       unifysegment="false"
       message="Add &lt;b&gt;&quot;Fill Between Many LPE&quot;&lt;/b&gt; to add fill." />
    <inkscape:path-effect
       effect="envelope"
       id="path-effect156"
       is_visible="true"
       lpeversion="1"
       yy="true"
       xx="true"
       bendpath1="M 87.406074,33.948002 104.29095,21.089444"
       bendpath2="m 104.29095,21.089444 -4.02636,48.96645"
       bendpath3="M 84.288834,92.525779 100.26459,70.055894"
       bendpath4="m 87.406074,33.948002 -3.11724,58.577777"
       bendpath1-nodetypes="cc"
       bendpath2-nodetypes="cc"
       bendpath3-nodetypes="cc"
       bendpath4-nodetypes="cc" />
    <inkscape:path-effect
       effect="envelope"
       id="path-effect145"
       is_visible="true"
       lpeversion="1"
       yy="true"
       xx="true"
       bendpath1="m 8.3563621,25.379013 65.8805439,8.1793"
       bendpath2="m 74.236906,33.558313 -3.56914,67.070237"
       bendpath3="M 11.033223,86.946843 70.667766,100.62855"
       bendpath4="m 8.3563621,25.379013 2.6768609,61.56783"
       bendpath1-nodetypes="cc"
       bendpath2-nodetypes="cc"
       bendpath3-nodetypes="cc"
       bendpath4-nodetypes="cc" />
  </defs>
  <sodipodi:namedview
     id="base"
     pagecolor="#ffffff"
     bordercolor="#666666"
     borderopacity="1.0"
     inkscape:pageopacity="0.0"
     inkscape:pageshadow="2"
     inkscape:zoom="0.98994949"
     inkscape:cx="285.17991"
     inkscape:cy="301.03709"
     inkscape:document-units="mm"
     inkscape:current-layer="layer1"
     inkscape:document-rotation="0"
     showgrid="false"
     fit-margin-top="0"
     fit-margin-left="0"
     fit-margin-right="0"
     fit-margin-bottom="0"
     inkscape:window-width="1431"
     inkscape:window-height="1030"
     inkscape:window-x="128"
     inkscape:window-y="0"
     inkscape:window-maximized="0" />
  <metadata
     id="metadata5">
    <rdf:RDF>
      <cc:Work
         rdf:about="">
        <dc:format>image/svg+xml</dc:format>
        <dc:type
           rdf:resource="http://purl.org/dc/dcmitype/StillImage" />
        <dc:title></dc:title>
      </cc:Work>
    </rdf:RDF>
  </metadata>
  <g
     inkscape:label="Layer 1"
     inkscape:groupmode="layer"
     id="layer1"
     transform="translate(1.0691845,1.3063644)">
    <text
       xml:space="preserve"
       style="font-style:normal;font-weight:normal;font-size:10.5833px;line-height:1.25;font-family:sans-serif;fill:#000000;fill-opacity:1;stroke:none;stroke-width:0.264583"
       x="22.300594"
       y="46.491074"
       id="text127"><tspan
         sodipodi:role="line"
         id="tspan125"
         x="22.300594"
         y="46.491074"
         style="stroke-width:0.264583" /></text>
    <path
       style="fill:none;stroke:#696969;stroke-width:3;stroke-linecap:butt;stroke-linejoin:round;stroke-miterlimit:4;stroke-dasharray:none;stroke-opacity:1"
       d="M 0.43080844,27.321486 96.113298,51.910281 95.04422,164.16349 4.1725816,132.09115 Z"
       id="path223" />
    <path
       style="fill:none;stroke:#696969;stroke-width:3;stroke-linecap:butt;stroke-linejoin:round;stroke-miterlimit:4;stroke-dasharray:none;stroke-opacity:1"
       d="M 0.43080844,27.321486 70.054521,0.19362949 161.32706,19.837939 96.113296,51.910281 Z"
       id="path225" />
    <path
       style="fill:none;stroke:#696969;stroke-width:3;stroke-linecap:butt;stroke-linejoin:round;stroke-miterlimit:4;stroke-dasharray:none;stroke-opacity:1"
       d="M 96.113296,51.910281 161.32706,19.837939 155.71441,123.00398 95.044218,164.16349 Z"
       id="path227" />
    <text
       xml:space="preserve"
       style="font-style:normal;font-weight:normal;font-size:10.5833px;line-height:1.25;font-family:sans-serif;fill:#000000;fill-opacity:1;stroke:none;stroke-width:0.264583"
       x="74.408478"
       y="19.839108"
       id="text93"><tspan
         sodipodi:role="line"
         id="tspan91"
         x="74.408478"
         y="19.839108"
         style="stroke-width:0.264583" /></text>
    <g
       aria-label="8"
       id="text875"
       style="font-size:10.5833px;line-height:1.25;font-family:'Berlin Sans FB';-inkscape-font-specification:'Berlin Sans FB, Normal';fill:#d36700;fill-opacity:1;stroke-width:0.264583"
       inkscape:path-effect="#path-effect893"
       transform="matrix(0.6,0,0,0.6,33.005794,10.114036)">
      <path
         d="m 133.669,13.885179 c 8.37563,1.802661 12.32659,4.61418 11.7373,8.504429 -0.51057,3.743074 -5.01786,7.746011 -13.72048,12.025989 -9.95669,4.896734 -20.51935,8.330586 -31.51355,10.18155 -12.890016,2.193401 -24.768379,1.902527 -35.314057,-0.852671 -9.4014,-2.45624 -11.791784,-6.168505 -7.432058,-11.03293 -4.805262,0.707828 -9.9392,0.97847 -15.37585,0.809446 C 36.575088,33.339745 32.004932,32.774109 28.353304,31.829371 20.334311,29.754722 17.845327,26.710278 20.713944,22.765084 23.276222,19.340371 29.266871,15.846028 38.532665,12.290248 46.670173,9.167452 55.626891,6.9607721 65.480256,5.6207898 76.113337,4.13893 84.839141,4.1512429 91.825415,5.6603488 c 3.599704,0.7775723 6.344881,1.9416067 8.235385,3.5038983 2.05937,1.6152179 2.62618,3.2991159 1.66788,5.0537859 11.87575,-2.270472 22.426,-2.380591 31.94032,-0.332854 z M 77.988398,11.832602 C 74.78746,11.111349 70.641151,11.057545 65.515779,11.669836 60.41655,12.264981 55.772988,13.390088 51.559478,15.0602 c -4.954677,1.963889 -8.046529,3.747895 -9.227057,5.343827 -1.196168,1.617084 -0.370956,2.78512 2.500562,3.491171 3.744829,0.920783 10.154481,0.458044 19.111637,-1.374207 4.050845,-0.810167 10.808377,-2.479593 20.151438,-4.974658 0.856641,-2.714989 -1.196351,-4.607087 -6.10766,-5.713731 z m 40.255962,9.847821 c -4.5832,-1.036192 -11.21959,-0.593355 -20.038204,1.343162 -6.743321,1.700269 -13.577059,3.440344 -20.504477,5.221397 -2.053867,3.464579 -0.0015,6.002422 6.259152,7.556246 4.357122,1.081397 9.3953,1.276407 15.06504,0.580405 6.163669,-0.749749 12.056459,-2.457599 17.617799,-5.086452 9.60104,-4.538434 10.01689,-7.711984 1.60069,-9.614758 z"
         style="fill:#d36700;fill-opacity:1;stroke-width:0.264583"
         id="path877"
         inkscape:original-d="m 45.003286,25.046451 q 0,0.862993 -0.661456,1.379756 -0.614948,0.485757 -1.550288,0.485757 -1.033525,0 -1.643305,-0.449584 -0.707965,-0.516762 -0.707965,-1.550288 0,-0.940508 0.80615,-1.390091 -0.263549,-0.206705 -0.428913,-0.58911 -0.165365,-0.387572 -0.165365,-0.780311 0,-0.873329 0.661457,-1.364254 0.594277,-0.43408 1.498611,-0.43408 0.816485,0 1.426265,0.470254 0.671792,0.506427 0.671792,1.297074 0,0.403075 -0.201538,0.811317 -0.201537,0.423746 -0.532265,0.645954 0.82682,0.470254 0.82682,1.467606 z m -1.152381,-2.862866 q 0,-0.356566 -0.294554,-0.614947 -0.289387,-0.258382 -0.713133,-0.258382 -0.490924,0 -0.775144,0.19637 -0.284219,0.19637 -0.284219,0.511595 0,0.408243 0.594277,0.7183 0.268716,0.144694 1.002519,0.382405 0.470254,-0.39274 0.470254,-0.935341 z m -0.08268,2.94038 q 0,-0.470254 -0.620115,-0.775144 -0.50126,-0.19637 -1.007687,-0.387572 -0.568439,0.387572 -0.568439,1.018023 0,0.43408 0.289387,0.702797 0.315225,0.294554 0.888832,0.294554 1.018022,0 1.018022,-0.852658 z" />
    </g>
    <g
       aria-label="12"
       id="text897"
       style="font-size:10.5833px;line-height:1.25;font-family:'Berlin Sans FB';-inkscape-font-specification:'Berlin Sans FB, Normal';fill:#6867e2;fill-opacity:1;stroke-width:0.264583"
       inkscape:path-effect="#path-effect923"
       transform="matrix(0.6,0,0,0.6,19.271907,38.91886)">
      <path
         d="m 26.508978,38.654102 c 0.007,0.297984 -6.79e-4,0.828799 -0.02307,1.592045 -0.670387,10.464741 -0.71144,27.670397 -0.139016,51.299864 0.120293,4.96562 0.339392,12.409699 0.655467,22.279419 0.313164,9.77649 0.526457,17.02818 0.641684,21.80716 0.05089,2.11073 -0.558067,2.94146 -1.824615,2.49628 -1.263639,-0.44416 -3.076018,-1.02791 -5.431519,-1.74963 -2.345172,-0.71846 -4.09811,-1.28202 -5.264648,-1.69238 -1.16406,-0.40949 -1.765987,-1.28192 -1.807682,-2.61927 -0.03507,-1.12476 -0.0989,-10.95034 -0.192838,-29.7485 -0.05736,-9.237831 -0.363518,-22.935397 -0.925427,-41.267058 -0.04052,-1.321854 -0.255111,-2.038469 -0.643533,-2.14853 -0.931017,-0.263808 -2.3871523,-0.221415 -4.3628103,0.125649 -1.928321,0.356425 -3.3672363,0.397397 -4.32196,0.124476 -0.8768672,-0.250665 -1.3269648,-0.717375 -1.3513718,-1.400773 -0.024423,-0.683844 -0.022998,-1.699685 0.00432,-3.048653 0.065544,-1.340182 0.086128,-2.354672 0.061663,-3.042278 C 1.5611859,51.031259 1.4892897,50.073869 1.367849,48.789014 1.2462808,47.502837 1.1741468,46.542558 1.151534,45.908919 1.1247919,45.159571 1.5237098,44.640092 2.3495756,44.350436 4.5344859,43.568072 6.834528,41.829029 9.2549805,39.120585 c 0.1115545,-0.144402 1.1317445,-1.61757 3.0705735,-4.434041 1.689273,-2.43378 2.636816,-3.63069 2.835067,-3.579743 -0.03991,-0.01026 1.623246,0.947879 5.002344,2.881779 1.247247,0.558857 3.064816,1.473023 5.457414,2.745159 0.571022,0.385499 0.867238,1.02582 0.888291,1.920162 z"
         style="fill:#6867e2;fill-opacity:1;stroke-width:0.264583"
         id="path918"
         inkscape:original-d="m 16.542287,43.09427 q 0,0.02584 -0.0052,0.09302 -0.118855,0.93534 -0.118855,3.06957 0,0.454751 0.01033,1.369421 0.01034,0.91467 0.01034,1.369421 0,0.201538 -0.170532,0.201538 -0.170531,0 -0.490924,0.01033 -0.320393,0.01034 -0.480589,0.01034 -0.160197,0 -0.160197,-0.12919 0,-0.108521 0.06718,-1.901687 0.03101,-0.868161 0.03101,-2.532137 0,-0.118856 -0.05168,-0.118856 -0.124023,0 -0.39274,0.08268 -0.263549,0.08268 -0.392739,0.08268 -0.118856,0 -0.118856,-0.06201 0,-0.06201 0.01033,-0.186035 0.0155,-0.124023 0.0155,-0.186034 0,-0.05684 -0.01033,-0.170532 -0.01033,-0.113688 -0.01033,-0.170532 0,-0.06718 0.113688,-0.113687 0.299722,-0.124023 0.635618,-0.423746 0.0155,-0.0155 0.284219,-0.310057 0.232543,-0.253214 0.258381,-0.253214 -0.0052,0 0.428913,0.09302 0.160197,0.02067 0.465087,0.07751 0.07235,0.02067 0.07235,0.09818 z" />
      <path
         d="m 95.208744,146.88696 c -0.01587,1.66654 -0.105757,4.22474 -0.269218,7.66707 -0.162322,3.3727 -0.251199,5.90552 -0.267055,7.60549 -0.01161,1.2448 -0.730304,1.61501 -2.153494,1.11271 0.473979,0.16729 -1.568463,-0.77967 -6.10261,-2.82966 -4.458807,-2.02016 -11.045011,-4.56166 -19.684483,-7.60085 -2.919481,-1.02701 -7.310892,-2.48924 -13.139485,-4.37575 -5.728298,-1.85291 -9.996528,-3.27453 -12.837961,-4.27533 -0.904652,-0.31863 -1.484238,-1.06357 -1.73998,-2.23577 L 37.25684,129.59073 c -0.01274,-0.66116 1.355748,-0.85447 4.117087,-0.57843 3.094736,0.27449 5.043402,0.0748 5.832693,-0.60165 5.535738,-4.90662 11.050766,-11.18324 16.553321,-18.87712 C 71.021835,99.26298 74.719553,90.731791 74.714929,84.103453 74.711115,78.637461 73.100151,73.658878 69.887217,69.196626 66.89756,65.045299 63.430712,62.432652 59.502589,61.358054 55.728202,60.325513 51.99093,60.3487 48.295959,61.41557 45.781732,62.142189 43.289684,63.338282 40.8213,64.998614 l -3.130719,2.186136 c -0.325444,-0.09247 -0.549621,-0.185504 -0.672656,-0.279124 -0.411912,-0.40847 -0.675203,-1.503663 -0.790145,-3.287784 -0.06797,-1.422545 -0.229072,-3.488247 -0.483669,-6.200162 -0.961192,-5.622714 -1.433012,-7.936221 -1.412864,-6.925996 -0.0095,-0.47527 0.285231,-0.957654 0.884907,-1.447622 3.213517,-2.766823 7.423008,-4.646437 12.651091,-5.627831 5.078571,-0.925674 9.924515,-0.804046 14.522728,0.379845 7.994914,2.05843 14.6612,6.44595 19.930351,13.161078 6.003607,7.61602 8.975744,16.926041 8.89622,27.817164 -0.08573,11.740543 -7.902369,25.590562 -22.91975,41.101652 -1.619958,2.08628 -4.159064,4.95495 -7.595813,8.58481 1.071158,0.47375 2.412229,0.98267 4.025206,1.52728 8.175779,2.76051 17.687494,5.28659 28.610093,7.58279 l 0.523729,0.0887 c 0.916366,0.30771 1.366303,1.38411 1.348758,3.22628 z"
         style="fill:#6867e2;fill-opacity:1;stroke-width:0.264583"
         id="path920"
         inkscape:original-d="m 22.123323,48.25673 q 0,0.149861 -0.0155,0.465086 -0.0155,0.310058 -0.0155,0.465086 0,0.113688 -0.170532,0.113688 0.05684,0 -0.490925,-0.04134 -0.5426,-0.04134 -1.617467,-0.04134 -0.366901,0 -1.11104,0.0155 -0.73897,0.0155 -1.111039,0.0155 -0.118856,0 -0.149861,-0.103353 L 17.3071,48.401419 q 0,-0.06201 0.361734,-0.124023 0.403075,-0.07235 0.506428,-0.160196 0.7183,-0.625283 1.410762,-1.477942 0.893999,-1.111039 0.893999,-1.684646 0,-0.470254 -0.382404,-0.775144 -0.356567,-0.284219 -0.831988,-0.284219 -0.459919,0 -0.919838,0.180867 -0.315225,0.124023 -0.63045,0.330728 -0.268717,0.180867 -0.268717,0.180867 -0.04134,0 -0.05684,-0.0052 -0.05168,-0.02584 -0.06201,-0.180867 -0.0052,-0.124023 -0.03101,-0.356566 -0.10852,-0.470254 -0.10852,-0.382405 0,-0.04134 0.07751,-0.09819 0.41341,-0.315225 1.064531,-0.516762 0.625283,-0.191202 1.178219,-0.191202 0.950844,0 1.565791,0.444416 0.69763,0.501259 0.69763,1.421097 0,1.002519 -1.819005,2.811189 -0.201537,0.237711 -0.635618,0.676959 0.134358,0.01034 0.335896,0.01034 1.012855,0 2.320264,-0.124023 l 0.04134,-0.0052 q 0.10852,0 0.10852,0.165364 z" />
    </g>
    <g
       aria-label="22"
       id="text927"
       style="font-size:10.5833px;line-height:1.25;font-family:'Berlin Sans FB';-inkscape-font-specification:'Berlin Sans FB, Normal';fill:#52a547;fill-opacity:1;stroke-width:0.264583"
       inkscape:path-effect="#path-effect948"
       transform="matrix(0.6,0,0,0.6,50.747573,37.642115)">
      <path
         d="m 126.9472,126.56477 c -0.0522,1.57952 -0.16444,4.04378 -0.33609,7.38369 -0.16907,3.27051 -0.27976,5.70298 -0.33255,7.30584 -0.0386,1.17296 -0.40068,1.9912 -1.08745,2.45711 0.22894,-0.15531 -0.75497,0.30337 -2.96551,1.38275 -2.20829,1.07431 -5.54549,3.12016 -10.04975,6.16599 -1.55364,1.05059 -3.92345,2.73375 -7.12868,5.06379 -3.21706,2.33977 -5.657633,4.07364 -7.302719,5.18742 -0.527453,0.35711 -0.854412,0.0303 -0.980381,-0.98254 l -0.776654,-11.47297 c 0.0069,-0.6776 0.82877,-1.88729 2.460289,-3.62277 1.810025,-1.96031 2.947955,-3.56494 3.420325,-4.8209 3.28446,-8.8877 6.53488,-18.99515 9.76128,-30.35674 4.18587,-14.846367 6.37064,-25.5821 6.54,-32.199372 0.14006,-5.472444 -0.58633,-9.561125 -2.19322,-12.255776 -1.51445,-2.538701 -3.34991,-3.255956 -5.50652,-2.125728 -2.10159,1.10139 -4.23681,3.304663 -6.40095,6.614023 -1.48841,2.276765 -2.98766,5.059094 -4.49618,8.345587 l -1.932813,4.293041 c -0.19465,0.106103 -0.328244,0.147835 -0.400704,0.125139 -0.240803,-0.178023 -0.376062,-1.188036 -0.40561,-3.033832 -0.0083,-1.488719 -0.05984,-3.613563 -0.154798,-6.381316 -0.461125,-5.496198 -0.698601,-7.721647 -0.708938,-6.636169 0.0049,-0.510595 0.196623,-1.213188 0.575212,-2.10734 2.019661,-4.915205 4.592741,-9.401601 7.704781,-13.442256 2.96803,-3.82532 5.72634,-6.358839 8.27285,-7.611221 4.32744,-2.128246 7.77085,-1.150133 10.34516,2.858885 2.869,4.431782 4.11286,12.020061 3.77626,22.704788 -0.36107,11.461902 -4.68472,29.500898 -12.95973,54.210817 -0.92471,3.14058 -2.37276,7.69278 -4.34369,13.65546 0.57748,-0.26479 1.29932,-0.67847 2.16452,-1.24023 4.30977,-2.79823 9.18727,-6.61337 14.61082,-11.41498 l 0.25539,-0.2459 c 0.44214,-0.2855 0.63399,0.44726 0.57621,2.19452 z"
         style="fill:#52a547;fill-opacity:1;stroke-width:0.264583"
         id="path929"
         inkscape:original-d="m 123.13013,48.791272 q 0,0.149861 -0.0155,0.465086 -0.0155,0.310058 -0.0155,0.465087 0,0.113687 -0.17053,0.113687 0.0568,0 -0.49092,-0.04134 -0.5426,-0.04134 -1.61747,-0.04134 -0.3669,0 -1.11104,0.0155 -0.73897,0.0155 -1.11104,0.0155 -0.11886,0 -0.14986,-0.103353 l -0.13436,-0.744138 q 0,-0.06201 0.36173,-0.124023 0.40308,-0.07235 0.50643,-0.160196 0.7183,-0.625283 1.41076,-1.477941 0.894,-1.11104 0.894,-1.684647 0,-0.470254 -0.3824,-0.775144 -0.35657,-0.284219 -0.83199,-0.284219 -0.45992,0 -0.91984,0.180867 -0.31522,0.124023 -0.63045,0.330728 -0.26871,0.180867 -0.26871,0.180867 -0.0413,0 -0.0568,-0.0052 -0.0517,-0.02584 -0.062,-0.180867 -0.005,-0.124023 -0.031,-0.356566 -0.10852,-0.470254 -0.10852,-0.382405 0,-0.04134 0.0775,-0.09818 0.41341,-0.315226 1.06453,-0.516763 0.62528,-0.191202 1.17822,-0.191202 0.95084,0 1.56579,0.444416 0.69763,0.501259 0.69763,1.421097 0,1.00252 -1.819,2.811189 -0.20154,0.237711 -0.63562,0.676959 0.13436,0.01033 0.33589,0.01033 1.01286,0 2.32027,-0.124023 l 0.0413,-0.0052 q 0.10852,0 0.10852,0.165364 z" />
      <path
         d="m 156.56855,107.30303 c -0.0826,1.51861 -0.23865,3.88688 -0.46747,7.09657 -0.22499,3.14371 -0.37905,5.48302 -0.46279,7.02561 -0.0613,1.12897 -0.40015,1.90188 -1.01774,2.32086 0.20621,-0.1399 -0.67358,0.25897 -2.65109,1.20217 -1.97418,0.93776 -4.96586,2.76099 -9.00753,5.49401 -1.39332,0.94218 -3.51974,2.45646 -6.39563,4.55507 -2.88488,2.10624 -5.07136,3.66368 -6.54331,4.66025 -0.4718,0.31943 -0.751,-0.01 -0.83711,-0.99014 l -0.40383,-11.0662 c 0.0224,-0.65084 0.77294,-1.777 2.24688,-3.37298 1.63637,-1.80458 2.67432,-3.29705 3.11942,-4.48355 3.09835,-8.39855 6.19581,-17.96997 9.30146,-28.745053 4.03077,-14.077869 6.20382,-24.286669 6.50708,-30.61978 0.25067,-5.234926 -0.29283,-9.173825 -1.64241,-11.807859 -1.27112,-2.480171 -2.86611,-3.229013 -4.78562,-2.223039 -1.86969,0.979861 -3.79424,3.010897 -5.76983,6.09705 -1.35852,2.122822 -2.73836,4.727964 -4.13818,7.814216 l -1.79547,4.032547 c -0.17296,0.09428 -0.29092,0.129273 -0.35381,0.104928 -0.20651,-0.178949 -0.30062,-1.149082 -0.28209,-2.913807 0.0285,-1.422561 0.0345,-3.454077 0.018,-6.100665 -0.27127,-5.263064 -0.42545,-7.395005 -0.4606,-6.359586 0.0165,-0.48706 0.20114,-1.150828 0.55375,-1.990912 1.88465,-4.620291 4.24355,-8.81334 7.06439,-12.564384 2.69072,-3.551828 5.16818,-5.879322 7.43087,-6.992122 3.84784,-1.892382 6.85009,-0.848019 9.02069,3.065546 2.4224,4.331384 3.34338,11.633541 2.80138,21.853445 -0.58192,10.972769 -4.80943,28.116567 -12.67523,51.516825 -0.88799,2.97967 -2.26998,7.29433 -4.14555,12.94294 0.5144,-0.22977 1.15946,-0.59656 1.93432,-1.09966 3.8614,-2.50711 8.25031,-5.97075 13.14786,-10.36399 l 0.23118,-0.22603 c 0.39702,-0.25637 0.54953,0.45697 0.45815,2.13662 z"
         style="fill:#52a547;fill-opacity:1;stroke-width:0.264583"
         id="path931"
         inkscape:original-d="m 128.26158,48.791272 q 0,0.149861 -0.0155,0.465086 -0.0155,0.310058 -0.0155,0.465087 0,0.113687 -0.17054,0.113687 0.0569,0 -0.49092,-0.04134 -0.5426,-0.04134 -1.61747,-0.04134 -0.3669,0 -1.11104,0.0155 -0.73897,0.0155 -1.11104,0.0155 -0.11885,0 -0.14986,-0.103353 l -0.13436,-0.744138 q 0,-0.06201 0.36174,-0.124023 0.40307,-0.07235 0.50643,-0.160196 0.7183,-0.625283 1.41076,-1.477941 0.894,-1.11104 0.894,-1.684647 0,-0.470254 -0.38241,-0.775144 -0.35656,-0.284219 -0.83199,-0.284219 -0.45991,0 -0.91983,0.180867 -0.31523,0.124023 -0.63045,0.330728 -0.26872,0.180867 -0.26872,0.180867 -0.0413,0 -0.0568,-0.0052 -0.0517,-0.02584 -0.062,-0.180867 -0.005,-0.124023 -0.031,-0.356566 -0.10852,-0.470254 -0.10852,-0.382405 0,-0.04134 0.0775,-0.09818 0.41341,-0.315226 1.06453,-0.516763 0.62529,-0.191202 1.17822,-0.191202 0.95085,0 1.56579,0.444416 0.69763,0.501259 0.69763,1.421097 0,1.00252 -1.819,2.811189 -0.20154,0.237711 -0.63562,0.676959 0.13436,0.01033 0.3359,0.01033 1.01285,0 2.32026,-0.124023 l 0.0413,-0.0052 q 0.10852,0 0.10852,0.165364 z" />
    </g>
  </g>
</svg>
