<?xml version="1.0" encoding="UTF-8" standalone="no"?>
<svg
   xmlns:dc="http://purl.org/dc/elements/1.1/"
   xmlns:cc="http://creativecommons.org/ns#"
   xmlns:rdf="http://www.w3.org/1999/02/22-rdf-syntax-ns#"
   xmlns:svg="http://www.w3.org/2000/svg"
   xmlns="http://www.w3.org/2000/svg"
   xmlns:sodipodi="http://sodipodi.sourceforge.net/DTD/sodipodi-0.dtd"
   xmlns:inkscape="http://www.inkscape.org/namespaces/inkscape"
   width="163.89622mm"
   height="166.96979mm"
   viewBox="0 0 163.89623 166.96979"
   version="1.1"
   id="svg8"
   inkscape:version="1.0.2-2 (e86c870879, 2021-01-15)"
   sodipodi:docname="sums_on_cube_13_17_21.svg">
  <defs
     id="defs2">
    <inkscape:path-effect
       effect="perspective-envelope"
       up_left_point="96.113296,51.910281"
       up_right_point="161.32706,19.837939"
       down_left_point="95.044218,164.16349"
       down_right_point="155.71441,123.00398"
       id="path-effect1094"
       is_visible="true"
       lpeversion="1"
       deform_type="perspective"
       horizontal_mirror="false"
       vertical_mirror="false"
       overflow_perspective="false" />
    <inkscape:path-effect
       effect="perspective-envelope"
       up_left_point="0.43080844,27.321486"
       up_right_point="96.113296,51.910281"
       down_left_point="4.1725816,132.09115"
       down_right_point="95.044218,164.16349"
       id="path-effect1069"
       is_visible="true"
       lpeversion="1"
       deform_type="perspective"
       horizontal_mirror="false"
       vertical_mirror="false"
       overflow_perspective="false" />
    <inkscape:path-effect
       effect="perspective-envelope"
       up_left_point="0.43080844,27.321486"
       up_right_point="70.054521,0.19362949"
       down_left_point="96.113296,51.910281"
       down_right_point="161.32706,19.837939"
       id="path-effect1044"
       is_visible="true"
       lpeversion="1"
       deform_type="perspective"
       horizontal_mirror="false"
       vertical_mirror="false"
       overflow_perspective="false" />
    <inkscape:path-effect
       effect="perspective-envelope"
       up_left_point="96.113296,51.910281"
       up_right_point="161.32706,19.837939"
       down_left_point="95.04422,164.16349"
       down_right_point="155.71441,123.00398"
       id="path-effect1020"
       is_visible="true"
       lpeversion="1"
       deform_type="perspective"
       horizontal_mirror="false"
       vertical_mirror="false"
       overflow_perspective="false" />
    <inkscape:path-effect
       effect="perspective-envelope"
       up_left_point="0.43080844,27.321486"
       up_right_point="96.113296,51.910281"
       down_left_point="4.1725816,132.09115"
       down_right_point="95.044218,164.16349"
       id="path-effect995"
       is_visible="true"
       lpeversion="1"
       deform_type="perspective"
       horizontal_mirror="false"
       vertical_mirror="false"
       overflow_perspective="false" />
    <inkscape:path-effect
       effect="perspective-envelope"
       up_left_point="0.43080844,27.321486"
       up_right_point="70.054521,0.19362949"
       down_left_point="96.113296,51.910281"
       down_right_point="161.32706,19.837939"
       id="path-effect970"
       is_visible="true"
       lpeversion="1"
       deform_type="perspective"
       horizontal_mirror="false"
       vertical_mirror="false"
       overflow_perspective="false" />
    <inkscape:path-effect
       effect="perspective-envelope"
       up_left_point="96.113298,51.910281"
       up_right_point="161.32706,19.837939"
       down_left_point="95.04422,164.16349"
       down_right_point="155.71441,123.00398"
       id="path-effect948"
       is_visible="true"
       lpeversion="1"
       deform_type="perspective"
       horizontal_mirror="false"
       vertical_mirror="false"
       overflow_perspective="false" />
    <inkscape:path-effect
       effect="perspective-envelope"
       up_left_point="0.43080844,27.321486"
       up_right_point="96.113296,51.910281"
       down_left_point="4.1725816,132.09115"
       down_right_point="95.044218,164.16349"
       id="path-effect923"
       is_visible="true"
       lpeversion="1"
       deform_type="perspective"
       horizontal_mirror="false"
       vertical_mirror="false"
       overflow_perspective="false" />
    <inkscape:path-effect
       effect="perspective-envelope"
       up_left_point="0.43080844,26.911964"
       up_right_point="70.054521,0.19362949"
       down_left_point="96.113298,51.910281"
       down_right_point="161.32706,19.837939"
       id="path-effect893"
       is_visible="true"
       lpeversion="1"
       deform_type="perspective"
       horizontal_mirror="false"
       vertical_mirror="false"
       overflow_perspective="false" />
    <inkscape:path-effect
       effect="perspective-envelope"
       up_left_point="96.113298,51.910281"
       up_right_point="161.32706,19.837939"
       down_left_point="95.04422,164.16349"
       down_right_point="155.71441,123.00398"
       id="path-effect154"
       is_visible="true"
       lpeversion="1"
       deform_type="perspective"
       horizontal_mirror="false"
       vertical_mirror="false"
       overflow_perspective="false" />
    <inkscape:path-effect
       effect="perspective-envelope"
       up_left_point="0.43080844,27.321486"
       up_right_point="96.113298,51.910281"
       down_left_point="4.1725816,132.09115"
       down_right_point="95.04422,164.16349"
       id="path-effect143"
       is_visible="true"
       lpeversion="1"
       deform_type="perspective"
       horizontal_mirror="false"
       vertical_mirror="false"
       overflow_perspective="false" />
    <inkscape:path-effect
       effect="perspective-envelope"
       up_left_point="14.99091,76.633748"
       up_right_point="96.113298,51.910281"
       down_left_point="14.99091,84.633234"
       down_right_point="95.044218,164.16349"
       id="path-effect118"
       is_visible="true"
       lpeversion="1"
       deform_type="perspective"
       horizontal_mirror="false"
       vertical_mirror="false"
       overflow_perspective="false" />
    <inkscape:path-effect
       effect="perspective-envelope"
       up_left_point="0.43080844,27.321486"
       up_right_point="70.054521,0.19362949"
       down_left_point="96.113298,51.910281"
       down_right_point="161.32706,19.837939"
       id="path-effect107"
       is_visible="true"
       lpeversion="1"
       deform_type="perspective"
       horizontal_mirror="false"
       vertical_mirror="false"
       overflow_perspective="false" />
    <inkscape:path-effect
       effect="envelope"
       id="path-effect505"
       is_visible="true"
       lpeversion="1"
       yy="true"
       xx="false"
       bendpath1="M 72.707582,5.2870248 142.63318,20.784048"
       bendpath2="M 95.934624,9.1827133 V 16.934153"
       bendpath3="M 20.052623,26.218846 91.606391,42.895654"
       bendpath4="M 84.441821,9.1827133 V 16.934153"
       bendpath1-nodetypes="cc"
       bendpath3-nodetypes="cc" />
    <inkscape:path-effect
       effect="envelope"
       id="path-effect494"
       is_visible="true"
       lpeversion="1"
       yy="true"
       xx="false"
       bendpath1="M 103.13466,59.526608 155.48437,32.50131"
       bendpath2="m 141.77827,90.835901 v 7.751442"
       bendpath3="m 102.18973,148.54 47.43601,-33.26191"
       bendpath4="m 130.25963,90.835901 v 7.751442"
       bendpath1-nodetypes="cc"
       bendpath3-nodetypes="cc" />
    <inkscape:path-effect
       effect="envelope"
       id="path-effect483"
       is_visible="true"
       lpeversion="1"
       yy="true"
       xx="false"
       bendpath1="M 10.5305,40.627797 86.125738,59.904584"
       bendpath2="m 41.751166,81.764477 v 7.75144"
       bendpath3="m 13.554309,122.27065 71.815474,27.21429"
       bendpath4="m 36.340661,81.764477 v 7.75144"
       bendpath1-nodetypes="cc"
       bendpath3-nodetypes="cc" />
    <inkscape:path-effect
       effect="envelope"
       id="path-effect399"
       is_visible="true"
       lpeversion="1"
       yy="true"
       xx="false"
       bendpath1="M 72.707582,5.2870248 142.63318,20.784048"
       bendpath2="m 99.831036,10.704952 v 7.75144"
       bendpath3="M 20.052623,26.218846 91.606391,42.895654"
       bendpath4="m 89.733493,10.704952 v 7.75144"
       bendpath1-nodetypes="cc"
       bendpath3-nodetypes="cc" />
    <inkscape:path-effect
       effect="envelope"
       id="path-effect388"
       is_visible="true"
       lpeversion="1"
       yy="true"
       xx="false"
       bendpath1="M 103.13466,59.526608 155.48437,32.50131"
       bendpath2="m 131.86303,80.252572 v 7.751442"
       bendpath3="m 102.18973,148.54 47.43601,-33.26191"
       bendpath4="m 120.43224,80.252572 v 7.751442"
       bendpath1-nodetypes="cc"
       bendpath3-nodetypes="cc" />
    <inkscape:path-effect
       effect="envelope"
       id="path-effect377"
       is_visible="true"
       lpeversion="1"
       yy="true"
       xx="false"
       bendpath1="M 10.5305,40.627797 86.125738,59.904584"
       bendpath2="m 54.600121,75.338876 v 7.751443"
       bendpath3="m 13.554309,122.27065 71.815474,27.21429"
       bendpath4="m 42.947122,75.338876 v 7.751443"
       bendpath1-nodetypes="cc"
       bendpath3-nodetypes="cc" />
    <inkscape:path-effect
       effect="envelope"
       id="path-effect292"
       is_visible="true"
       lpeversion="1"
       yy="true"
       xx="false"
       bendpath1="M 72.707582,5.2870248 142.63318,20.784048"
       bendpath2="m 88.175061,16.742236 v 7.75144"
       bendpath3="M 20.052623,26.218846 91.606391,42.895654"
       bendpath4="m 82.800729,16.742236 v 7.75144"
       bendpath1-nodetypes="cc"
       bendpath3-nodetypes="cc" />
    <inkscape:path-effect
       effect="envelope"
       id="path-effect283"
       is_visible="true"
       lpeversion="1"
       yy="true"
       xx="false"
       bendpath1="M 103.13466,59.526608 155.48437,32.50131"
       bendpath2="m 145.92566,83.654362 v 7.622249"
       bendpath3="m 102.18973,148.54 47.43601,-33.26191"
       bendpath4="m 134.33467,83.654362 v 7.622249"
       bendpath1-nodetypes="cc"
       bendpath3-nodetypes="cc" />
    <inkscape:path-effect
       effect="envelope"
       id="path-effect272"
       is_visible="true"
       lpeversion="1"
       yy="true"
       xx="false"
       bendpath1="M 10.5305,40.627797 86.125738,59.904584"
       bendpath2="m 41.982214,63.243646 v 7.75144"
       bendpath3="m 13.554309,122.27065 71.815474,27.21429"
       bendpath4="m 30.473909,63.243646 v 7.75144"
       bendpath1-nodetypes="cc"
       bendpath3-nodetypes="cc" />
    <inkscape:path-effect
       effect="envelope"
       id="path-effect132"
       is_visible="true"
       lpeversion="1"
       yy="true"
       xx="true"
       bendpath1="M 15.354861,44.722804 80.302503,63.243638"
       bendpath2="M 79.924527,63.243638 79.546551,140.16472"
       bendpath3="m 18.378671,120.13199 61.16788,19.65476"
       bendpath4="m 15.354861,44.722804 1.511905,74.275256"
       bendpath1-nodetypes="cc"
       bendpath2-nodetypes="cc"
       bendpath3-nodetypes="cc"
       bendpath4-nodetypes="cc" />
    <inkscape:path-effect
       effect="envelope"
       id="path-effect1206"
       is_visible="true"
       lpeversion="1"
       yy="true"
       xx="true"
       bendpath1="M 73.232886,6.6145831 139.3625,20.899397"
       bendpath2="M 139.3625,20.899397 91.714578,42.466967"
       bendpath3="M 25.591674,25.969651 91.714578,42.466967"
       bendpath4="M 73.232886,6.6145831 25.591674,25.969651"
       bendpath1-nodetypes="cc"
       bendpath2-nodetypes="cc"
       bendpath3-nodetypes="cc"
       bendpath4-nodetypes="cc" />
    <inkscape:path-effect
       effect="envelope"
       id="path-effect1197"
       is_visible="true"
       lpeversion="1"
       yy="true"
       xx="true"
       bendpath1="M 106.96726,64.255952 151.81001,40.409875"
       bendpath2="m 151.81001,40.409875 -4.44122,72.973475"
       bendpath3="m 106.21131,140.04017 41.15748,-26.65682"
       bendpath4="m 106.96726,64.255952 -0.75595,75.784218"
       bendpath1-nodetypes="cc"
       bendpath2-nodetypes="cc"
       bendpath3-nodetypes="cc"
       bendpath4-nodetypes="cc" />
    <inkscape:path-effect
       effect="envelope"
       id="path-effect1186"
       is_visible="true"
       lpeversion="1"
       yy="true"
       xx="true"
       bendpath1="M 12.095238,44.60119 83.15476,63.122023"
       bendpath2="M 83.15476,63.122023 83.06027,146.74926"
       bendpath3="m 15.686012,121.70834 67.374254,25.04092"
       bendpath4="m 12.095238,44.60119 3.590774,77.10715"
       bendpath1-nodetypes="cc"
       bendpath2-nodetypes="cc"
       bendpath3-nodetypes="cc"
       bendpath4-nodetypes="cc" />
    <inkscape:path-effect
       effect="dashed_stroke"
       id="path-effect246"
       is_visible="true"
       lpeversion="1"
       numberdashes="17"
       holefactor="0.99999"
       splitsegments="false"
       halfextreme="false"
       unifysegment="false"
       message="Add &lt;b&gt;&quot;Fill Between Many LPE&quot;&lt;/b&gt; to add fill." />
    <inkscape:path-effect
       effect="envelope"
       id="path-effect156"
       is_visible="true"
       lpeversion="1"
       yy="true"
       xx="true"
       bendpath1="M 87.406074,33.948002 104.29095,21.089444"
       bendpath2="m 104.29095,21.089444 -4.02636,48.96645"
       bendpath3="M 84.288834,92.525779 100.26459,70.055894"
       bendpath4="m 87.406074,33.948002 -3.11724,58.577777"
       bendpath1-nodetypes="cc"
       bendpath2-nodetypes="cc"
       bendpath3-nodetypes="cc"
       bendpath4-nodetypes="cc" />
    <inkscape:path-effect
       effect="envelope"
       id="path-effect145"
       is_visible="true"
       lpeversion="1"
       yy="true"
       xx="true"
       bendpath1="m 8.3563621,25.379013 65.8805439,8.1793"
       bendpath2="m 74.236906,33.558313 -3.56914,67.070237"
       bendpath3="M 11.033223,86.946843 70.667766,100.62855"
       bendpath4="m 8.3563621,25.379013 2.6768609,61.56783"
       bendpath1-nodetypes="cc"
       bendpath2-nodetypes="cc"
       bendpath3-nodetypes="cc"
       bendpath4-nodetypes="cc" />
  </defs>
  <sodipodi:namedview
     id="base"
     pagecolor="#ffffff"
     bordercolor="#666666"
     borderopacity="1.0"
     inkscape:pageopacity="0.0"
     inkscape:pageshadow="2"
     inkscape:zoom="0.98994949"
     inkscape:cx="284.94116"
     inkscape:cy="267.24071"
     inkscape:document-units="mm"
     inkscape:current-layer="layer1"
     inkscape:document-rotation="0"
     showgrid="false"
     fit-margin-top="0"
     fit-margin-left="0"
     fit-margin-right="0"
     fit-margin-bottom="0"
     inkscape:window-width="1431"
     inkscape:window-height="1030"
     inkscape:window-x="128"
     inkscape:window-y="0"
     inkscape:window-maximized="0" />
  <metadata
     id="metadata5">
    <rdf:RDF>
      <cc:Work
         rdf:about="">
        <dc:format>image/svg+xml</dc:format>
        <dc:type
           rdf:resource="http://purl.org/dc/dcmitype/StillImage" />
        <dc:title></dc:title>
      </cc:Work>
    </rdf:RDF>
  </metadata>
  <g
     inkscape:label="Layer 1"
     inkscape:groupmode="layer"
     id="layer1"
     transform="translate(1.0691845,1.3063644)">
    <text
       xml:space="preserve"
       style="font-style:normal;font-weight:normal;font-size:10.5833px;line-height:1.25;font-family:sans-serif;fill:#000000;fill-opacity:1;stroke:none;stroke-width:0.264583"
       x="22.300594"
       y="46.491074"
       id="text127"><tspan
         sodipodi:role="line"
         id="tspan125"
         x="22.300594"
         y="46.491074"
         style="stroke-width:0.264583" /></text>
    <path
       style="fill:none;stroke:#696969;stroke-width:3;stroke-linecap:butt;stroke-linejoin:round;stroke-miterlimit:4;stroke-dasharray:none;stroke-opacity:1"
       d="M 0.43080844,27.321486 96.113298,51.910281 95.04422,164.16349 4.1725816,132.09115 Z"
       id="path223" />
    <path
       style="fill:none;stroke:#696969;stroke-width:3;stroke-linecap:butt;stroke-linejoin:round;stroke-miterlimit:4;stroke-dasharray:none;stroke-opacity:1"
       d="M 0.43080844,27.321486 70.054521,0.19362949 161.32706,19.837939 96.113296,51.910281 Z"
       id="path225" />
    <path
       style="fill:none;stroke:#696969;stroke-width:3;stroke-linecap:butt;stroke-linejoin:round;stroke-miterlimit:4;stroke-dasharray:none;stroke-opacity:1"
       d="M 96.113296,51.910281 161.32706,19.837939 155.71441,123.00398 95.044218,164.16349 Z"
       id="path227" />
    <text
       xml:space="preserve"
       style="font-style:normal;font-weight:normal;font-size:10.5833px;line-height:1.25;font-family:sans-serif;fill:#000000;fill-opacity:1;stroke:none;stroke-width:0.264583"
       x="74.408478"
       y="19.839108"
       id="text93"><tspan
         sodipodi:role="line"
         id="tspan91"
         x="74.408478"
         y="19.839108"
         style="stroke-width:0.264583" /></text>
    <g
       aria-label="13"
       id="text1024"
       style="font-size:10.5833px;line-height:1.25;font-family:'Berlin Sans FB';-inkscape-font-specification:'Berlin Sans FB, Normal';fill:#d36700;fill-opacity:1;stroke-width:0.264583"
       inkscape:path-effect="#path-effect1044"
       transform="matrix(0.6,0,0,0.6,32.550355,10.246507)">
      <path
         d="m 26.399413,19.46871 c 0.230442,0.05598 0.629553,0.163081 1.19779,0.321423 7.673449,2.351172 21.434966,5.948511 41.746215,10.897779 4.429103,1.079246 11.198899,2.706764 20.394899,4.902842 9.349646,2.23277 16.436023,3.936208 21.171473,5.089525 2.11157,0.514272 2.65578,1.023778 1.62395,1.528386 -1.03539,0.506353 -2.47763,1.251745 -4.33347,2.239885 -1.86846,0.994947 -3.30567,1.73881 -4.3045,2.227684 -1.00217,0.490513 -2.1903,0.563924 -3.55935,0.219637 -1.147402,-0.28855 -10.887193,-2.892272 -28.74444,-7.683705 -8.434893,-2.25621 -20.68017,-5.397346 -36.478876,-9.360687 -1.110466,-0.278577 -1.834141,-0.347872 -2.173056,-0.208222 -0.814405,0.335574 -1.721881,0.966091 -2.726034,1.895653 -0.976553,0.921643 -1.899013,1.563675 -2.764115,1.922135 -0.797828,0.330584 -1.489182,0.4212 -2.072152,0.271386 -0.582313,-0.149645 -1.419884,-0.388097 -2.511193,-0.714881 -1.053564,-0.340341 -1.868096,-0.584344 -2.445128,-0.732534 -0.528346,-0.135687 -1.354661,-0.324821 -2.477793,-0.567172 -1.121022,-0.241893 -1.943018,-0.43006 -2.467136,-0.564732 -0.618728,-0.158981 -0.757208,-0.448162 -0.416788,-0.866719 0.879735,-1.100713 1.072185,-2.443902 0.587005,-4.022131 -0.03735,-0.07619 -0.495347,-0.80196 -1.367195,-2.166704 -0.732207,-1.165928 -1.011058,-1.778075 -0.841472,-1.844151 -0.03281,0.01278 1.785196,-0.431889 5.435797,-1.329537 1.219948,-0.359747 3.062963,-0.861216 5.522658,-1.502825 0.646157,-0.136401 1.313955,-0.120744 2.004576,0.04704 z"
         style="fill:#d36700;fill-opacity:1;stroke-width:0.264583"
         id="path1026"
         inkscape:original-d="m 123.4501,20.109092 q 0,0.02584 -0.005,0.09302 -0.11885,0.93534 -0.11885,3.06957 0,0.454751 0.0103,1.369421 0.0103,0.91467 0.0103,1.369421 0,0.201538 -0.17054,0.201538 -0.17053,0 -0.49092,0.01033 -0.32039,0.01034 -0.48059,0.01034 -0.1602,0 -0.1602,-0.12919 0,-0.108521 0.0672,-1.901687 0.031,-0.868161 0.031,-2.532137 0,-0.118856 -0.0517,-0.118856 -0.12402,0 -0.39274,0.08268 -0.26355,0.08268 -0.39274,0.08268 -0.11885,0 -0.11885,-0.06201 0,-0.06201 0.0103,-0.186035 0.0155,-0.124023 0.0155,-0.186034 0,-0.05684 -0.0103,-0.170532 -0.0103,-0.113688 -0.0103,-0.170532 0,-0.06718 0.11368,-0.113687 0.29973,-0.124023 0.63562,-0.423746 0.0155,-0.0155 0.28422,-0.310057 0.23254,-0.253214 0.25838,-0.253214 -0.005,0 0.42892,0.09302 0.16019,0.02067 0.46508,0.07752 0.0724,0.02067 0.0724,0.09818 z" />
      <path
         d="m 133.18547,13.78111 c 9.25417,1.991747 14.56664,4.419229 15.84546,7.30565 1.19497,2.595405 -0.84114,5.212129 -6.20299,7.849105 -6.5091,3.201199 -14.77914,5.62695 -24.77798,7.234223 -1.05948,0.164378 -1.83036,0.18922 -2.31142,0.07446 0.16027,0.03823 -3.25941,-1.302102 -10.15504,-3.980602 -0.96302,-0.357292 -1.26016,-0.6208 -0.89367,-0.791084 10.11454,-1.39881 16.82882,-2.89442 20.18651,-4.483023 7.81729,-3.698543 6.56606,-6.635016 -3.46172,-8.854412 -6.14098,-1.359153 -11.71194,-1.700788 -16.78121,-1.033535 -3.66695,0.468868 -7.472018,1.564749 -11.444626,3.303418 -0.836682,0.366186 -1.956491,0.889301 -3.363072,1.571193 -1.41385,0.685414 -2.442912,1.169341 -3.082741,1.44958 -1.77408,0.777028 -3.260941,1.027288 -4.450945,0.74787 -6.694648,-1.571928 -9.546373,-2.54842 -8.618698,-2.943034 1.355668,-0.576672 3.620616,-1.380798 6.780908,-2.408287 3.166111,-1.032428 5.396266,-1.825824 6.704657,-2.384395 1.952223,-0.833433 2.466645,-1.743008 1.557871,-2.726932 -0.87257,-0.988609 -2.872458,-1.828968 -5.99138,-2.52388 -8.601993,-1.9165691 -16.400918,-1.4356352 -23.619068,1.468887 -4.304818,1.732222 -6.853323,3.633091 -7.611167,5.709953 -0.03247,0.07369 -0.143539,0.149102 -0.333281,0.226252 -0.791928,0.322 -4.685122,-0.345929 -11.609264,-1.98804 C 37.24939,16.058251 38.027268,14.62597 41.82751,12.33664 44.42241,10.784893 47.093115,9.4756882 49.845645,8.4017947 54.892204,6.4328908 60.778191,5.1406669 67.537954,4.5046074 75.517758,3.736355 83.075353,4.1291496 90.316357,5.6951278 c 3.773518,0.8160811 6.953457,1.8976574 9.541645,3.2516622 2.743208,1.46961 3.843398,2.801806 3.271928,3.991697 9.15104,-1.79369 19.08614,-1.517971 30.05526,0.842883 z"
         style="fill:#d36700;fill-opacity:1;stroke-width:0.264583"
         id="path1028"
         inkscape:original-d="m 128.75208,24.455067 q 0,0.950843 -0.71313,1.452103 -0.62528,0.444416 -1.6123,0.444416 -1.17305,0 -2.11873,-0.434081 -0.0982,-0.04651 -0.0982,-0.09302 0,0.0155 0.24805,-0.80615 0.031,-0.113688 0.093,-0.113688 0.91984,0.470254 1.51412,0.470254 1.41076,0 1.41076,-1.02319 0,-0.635618 -0.48576,-0.883664 -0.34623,-0.180867 -1.03869,-0.180867 -0.14469,0 -0.40307,0.01034 -0.25839,0.01034 -0.36691,0.01034 -0.29972,0 -0.29972,-0.124023 0,-0.702797 0.15503,-0.702797 0.22738,0 0.68213,0.05168 0.45992,0.05168 0.68729,0.05168 0.34106,0 0.55294,-0.227376 0.21704,-0.227375 0.21704,-0.568439 0,-0.950843 -1.23507,-0.950843 -0.72346,0 -1.30224,0.30489 -0.0207,0.01034 -0.0517,0.01034 -0.12919,0 -0.12919,-0.769976 0,-0.258382 0.83198,-0.403075 0.57361,-0.09819 1.0387,-0.09819 0.86299,0 1.47277,0.377237 0.72864,0.444416 0.72864,1.255733 0,0.418578 -0.22738,0.837155 -0.24805,0.444416 -0.61495,0.599445 1.06453,0.356566 1.06453,1.50378 z" />
    </g>
    <g
       aria-label="17"
       id="text1048"
       style="font-size:10.5833px;line-height:1.25;font-family:'Berlin Sans FB';-inkscape-font-specification:'Berlin Sans FB, Normal';fill:#6867e2;fill-opacity:1;stroke-width:0.264583"
       inkscape:path-effect="#path-effect1069"
       transform="matrix(0.6,0,0,0.6,19.430867,36.906295)">
      <path
         d="m 28.243533,39.099751 c 0.0068,0.297914 -0.0028,0.828239 -0.02857,1.590573 -0.742442,10.44502 -0.828519,27.636786 -0.27447,51.259052 0.116431,4.964113 0.332423,12.406794 0.646151,22.275304 0.310766,9.77537 0.520989,17.02585 0.632464,21.80345 0.04923,2.11011 -0.603901,2.92539 -1.956842,2.45004 -1.349644,-0.47419 -3.285137,-1.10096 -5.800098,-1.87842 -2.503221,-0.77374 -4.373767,-1.37843 -5.618264,-1.81604 -1.241678,-0.43662 -1.882067,-1.32192 -1.923321,-2.65795 -0.0347,-1.12364 -0.07895,-10.93386 -0.133531,-29.70258 -0.03878,-9.223892 -0.332282,-22.90565 -0.887511,-41.219147 -0.04004,-1.320521 -0.267338,-2.04013 -0.681633,-2.157505 -0.992951,-0.281316 -2.546834,-0.267049 -4.6553729,0.0413 -2.0575695,0.318532 -3.5920704,0.331652 -4.6093426,0.0409 -0.9342113,-0.267015 -1.4128902,-0.741352 -1.4372594,-1.423691 -0.024385,-0.682785 -0.020377,-1.696315 0.012073,-3.041725 0.073101,-1.335962 0.097489,-2.347822 0.073068,-3.034378 -0.022398,-0.62969 -0.096729,-1.586305 -0.2230831,-2.870571 -0.1264856,-1.285585 -0.2010614,-2.245067 -0.2236378,-2.877716 -0.026699,-0.748176 0.3997866,-1.259169 1.2808964,-1.533024 2.3315347,-0.74063 4.7888197,-2.43424 7.3776336,-5.093885 0.1193803,-0.14214 1.2115869,-1.594465 3.2877079,-4.371816 1.809258,-2.400266 2.823866,-3.578826 3.035438,-3.524456 -0.04258,-0.01094 1.731145,0.975285 5.336034,2.96689 1.33133,0.580507 3.271551,1.526295 5.82609,2.840328 0.609579,0.395499 0.924734,1.040786 0.945054,1.935035 z"
         style="fill:#6867e2;fill-opacity:1;stroke-width:0.264583"
         id="path1050"
         inkscape:original-d="m 12.265974,51.914171 q 0,0.02584 -0.0052,0.09302 -0.118855,0.935341 -0.118855,3.069571 0,0.454751 0.01033,1.369421 0.01033,0.91467 0.01033,1.369421 0,0.201537 -0.170531,0.201537 -0.170532,0 -0.490925,0.01033 -0.320393,0.01034 -0.480589,0.01034 -0.160197,0 -0.160197,-0.129191 0,-0.10852 0.06718,-1.901687 0.03101,-0.868161 0.03101,-2.532137 0,-0.118855 -0.05168,-0.118855 -0.124023,0 -0.39274,0.08268 -0.263549,0.08268 -0.392739,0.08268 -0.118856,0 -0.118856,-0.06201 0,-0.06201 0.01034,-0.186034 0.0155,-0.124023 0.0155,-0.186035 0,-0.05684 -0.01033,-0.170531 -0.01033,-0.113688 -0.01033,-0.170532 0,-0.06718 0.113688,-0.113688 0.299722,-0.124023 0.635618,-0.423745 0.0155,-0.0155 0.284219,-0.310058 0.232543,-0.253214 0.258382,-0.253214 -0.0052,0 0.428913,0.09302 0.160196,0.02067 0.465086,0.07751 0.07235,0.02067 0.07235,0.09819 z" />
      <path
         d="m 95.998622,63.93772 c -0.01955,2.053322 -0.08092,3.406897 -0.184045,4.063354 -0.0035,0.372176 -1.009929,1.930179 -3.009427,4.660719 -6.447182,9.213035 -11.952118,21.871454 -16.531505,37.821657 -4.334047,15.03275 -7.089273,28.05262 -8.328996,39.20771 -0.126649,1.28901 -0.277002,2.12408 -0.451111,2.5065 -0.304354,0.66859 -0.872946,0.99421 -1.704993,0.97754 -1.22329,0.0104 -3.795645,-0.67688 -7.699279,-2.05463 -4.005752,-1.4138 -6.471011,-2.50202 -7.416064,-3.27144 -0.514722,-0.39936 -0.779139,-1.14663 -0.793527,-2.24291 -0.08956,-6.82379 1.952493,-16.33315 6.193969,-28.68936 2.864619,-8.31427 6.963987,-18.561429 12.359674,-30.862577 4.600848,-10.499574 6.935208,-16.008954 6.93507,-16.373027 -3.44e-4,-0.910711 -0.605242,-1.533171 -1.812793,-1.866255 -3.976249,-1.096788 -9.90965,-2.312466 -17.734584,-3.638108 -7.712102,-1.306527 -13.415971,-2.478082 -17.17569,-3.523456 -1.175177,-0.326752 -1.771814,-1.020124 -1.791781,-2.081439 -0.0211,-1.121474 0.08169,-2.56304 0.30877,-4.326731 0.303865,-2.337972 0.472529,-3.801156 0.505337,-4.384658 0.06778,-1.04895 0.05147,-4.32093 -0.04939,-9.836636 -0.0231,-1.263085 0.58126,-1.736221 1.815131,-1.417743 2.963593,0.764941 8.047798,2.470203 15.306244,5.136779 4.735489,1.715452 17.413753,5.25333 38.575223,10.751166 1.843204,0.478872 2.739209,3.635295 2.683889,9.443814 z"
         style="fill:#6867e2;fill-opacity:1;stroke-width:0.264583"
         id="path1052"
         inkscape:original-d="m 17.366421,52.306911 q 0,0.170531 -0.01033,0.227375 0,0.03101 -0.211873,0.30489 -0.692462,0.930173 -1.204057,2.449455 -0.496092,1.467606 -0.645953,2.537305 -0.0155,0.124023 -0.03617,0.165364 -0.03617,0.07235 -0.134359,0.09819 -0.144693,0.04134 -0.60978,0.04134 -0.480589,0 -0.594277,-0.04134 -0.06201,-0.02067 -0.06201,-0.124023 0,-0.640786 0.52193,-1.906854 0.346231,-0.837156 0.971514,-2.061883 0.52193,-1.023191 0.52193,-1.054196 0,-0.07751 -0.134358,-0.07751 -0.444416,0 -1.338415,0.07235 -0.894,0.07235 -1.338416,0.07235 -0.139526,0 -0.139526,-0.09302 0,-0.09819 0.03101,-0.258382 0.04134,-0.211872 0.04651,-0.263549 0.01033,-0.09302 0.01033,-0.568439 0,-0.10852 0.144693,-0.10852 0.346231,0 1.178219,0.06718 0.537434,0.04134 2.837027,0.04134 0.19637,0 0.19637,0.48059 z" />
    </g>
    <g
       aria-label="21"
       id="text1073"
       style="font-size:10.5833px;line-height:1.25;font-family:'Berlin Sans FB';-inkscape-font-specification:'Berlin Sans FB, Normal';fill:#52a547;fill-opacity:1;stroke-width:0.264583"
       inkscape:path-effect="#path-effect1094"
       transform="matrix(0.6,0,0,0.6,51.410049,36.830964)">
      <path
         d="m 137.32541,119.8921 c -0.063,1.55081 -0.20134,3.97707 -0.41443,7.27022 -0.20998,3.22552 -0.34652,5.62159 -0.4102,7.19614 -0.0466,1.15231 -0.51678,2.0309 -1.41275,2.63874 0.29875,-0.20267 -0.98646,0.46494 -3.87913,2.01541 -2.89712,1.54897 -7.288,4.31141 -13.24051,8.33663 -2.06042,1.3933 -5.21016,3.60289 -9.48396,6.65398 -4.30568,3.07497 -7.5831,5.37472 -9.79774,6.87413 -0.710913,0.48132 -1.153722,0.23617 -1.327454,-0.73801 L 96.27004,148.94092 c 0.007,-0.67407 1.114104,-2.06624 3.310922,-4.16598 2.432018,-2.35931 3.957098,-4.20823 4.587588,-5.55842 4.37389,-9.52035 8.68169,-20.19901 12.93726,-32.06603 5.49712,-15.434431 8.34589,-26.387753 8.54725,-32.904345 0.1665,-5.388338 -0.80499,-9.261925 -2.93593,-11.61201 -2.01198,-2.218049 -4.44733,-2.591801 -7.30887,-1.089873 -2.79544,1.467243 -5.63899,4.031556 -8.52461,7.70045 -1.98895,2.529464 -3.99419,5.565735 -6.01369,9.108503 l -2.592422,4.629836 c -0.262514,0.143273 -0.443144,0.210961 -0.541746,0.202967 -0.325977,-0.12951 -0.512222,-1.105146 -0.558455,-2.930733 -0.01635,-1.475468 -0.0932,-3.573841 -0.231023,-6.302027 -0.642339,-5.367634 -0.971214,-7.532446 -0.981495,-6.452924 0.0048,-0.507788 0.261877,-1.240957 0.770859,-2.198739 2.710975,-5.245582 6.161592,-10.153182 10.325832,-14.700265 3.95763,-4.293376 7.62674,-7.264195 11.00724,-8.930014 5.72185,-2.81958 10.26316,-2.438053 13.6572,1.04971 3.77047,3.839444 5.41983,11.025172 5.01549,21.50329 -0.43391,11.24434 -6.03525,29.695091 -16.86596,55.622794 -1.21546,3.28552 -3.12264,8.07773 -5.7244,14.38354 0.76789,-0.38985 1.72673,-0.95824 2.87473,-1.70377 5.70128,-3.7025 12.11714,-8.50467 19.20704,-14.3582 l 0.33269,-0.29405 c 0.5762,-0.37216 0.82895,0.30139 0.75928,2.01681 z"
         style="fill:#52a547;fill-opacity:1;stroke-width:0.264583"
         id="path1075"
         inkscape:original-d="m 139.70083,49.058541 q 0,0.149861 -0.0155,0.465086 -0.0155,0.310058 -0.0155,0.465087 0,0.113687 -0.17053,0.113687 0.0568,0 -0.49092,-0.04134 -0.5426,-0.04134 -1.61747,-0.04134 -0.3669,0 -1.11104,0.0155 -0.73897,0.0155 -1.11104,0.0155 -0.11885,0 -0.14986,-0.103352 l -0.13436,-0.744139 q 0,-0.06201 0.36174,-0.124023 0.40307,-0.07235 0.50642,-0.160196 0.7183,-0.625283 1.41077,-1.477941 0.894,-1.11104 0.894,-1.684647 0,-0.470254 -0.38241,-0.775144 -0.35657,-0.284219 -0.83199,-0.284219 -0.45992,0 -0.91983,0.180867 -0.31523,0.124023 -0.63046,0.330728 -0.26871,0.180867 -0.26871,0.180867 -0.0413,0 -0.0569,-0.0052 -0.0517,-0.02584 -0.062,-0.180867 -0.005,-0.124023 -0.031,-0.356566 -0.10852,-0.470254 -0.10852,-0.382404 0,-0.04134 0.0775,-0.09819 0.41341,-0.315226 1.06453,-0.516763 0.62529,-0.191202 1.17822,-0.191202 0.95084,0 1.56579,0.444416 0.69763,0.50126 0.69763,1.421097 0,1.00252 -1.819,2.811189 -0.20154,0.237711 -0.63562,0.676959 0.13436,0.01034 0.33589,0.01034 1.01286,0 2.32027,-0.124023 l 0.0413,-0.0052 q 0.10852,0 0.10852,0.165364 z" />
      <path
         d="m 161.07564,24.43428 c -0.016,0.293619 -0.0577,0.828312 -0.12505,1.603609 -1.1855,10.85023 -2.40476,27.982729 -3.63792,50.924567 -0.25759,4.792321 -0.61633,11.930095 -1.07273,21.338956 -0.4501,9.278978 -0.79559,16.150048 -1.0399,20.686008 -0.10775,2.00053 -0.5796,3.28107 -1.41774,3.84738 -0.84075,0.56807 -2.05817,1.44021 -3.65714,2.62013 -1.60816,1.1868 -2.81911,2.05555 -3.62772,2.60235 -0.81101,0.54842 -1.18707,0.17556 -1.12631,-1.12168 0.0511,-1.09163 0.67472,-10.84552 1.8942,-29.622301 0.59399,-9.263872 1.31826,-22.897844 2.18379,-41.165437 0.0627,-1.323192 -0.0432,-1.910994 -0.31804,-1.761431 -0.66038,0.359393 -1.73051,1.392596 -3.2136,3.104022 -1.46104,1.702907 -2.54353,2.748954 -3.24456,3.133935 -0.6465,0.355034 -0.95567,0.184479 -0.92636,-0.512812 0.0293,-0.697982 0.10154,-1.761587 0.21672,-3.192207 0.14382,-1.448511 0.23065,-2.525096 0.26031,-3.228453 0.0272,-0.64532 0.0399,-1.599427 0.038,-2.863804 -0.002,-1.266909 0.0108,-2.226237 0.0381,-2.876494 0.0324,-0.769277 0.37236,-1.584424 1.01923,-2.443837 1.70136,-2.275637 3.53953,-5.59969 5.5168,-9.972842 0.092,-0.220787 0.94262,-2.393099 2.55102,-6.515089 1.39011,-3.54554 2.15408,-5.351611 2.2924,-5.419639 -0.0268,0.01316 1.09176,-0.01304 3.33854,-0.0781 0.83201,-0.180642 2.02932,-0.341636 3.58606,-0.482723 0.36366,0.04835 0.52126,0.513683 0.47329,1.395255 z"
         style="fill:#52a547;fill-opacity:1;stroke-width:0.264583"
         id="path1077"
         inkscape:original-d="m 142.2123,43.896082 q 0,0.02584 -0.005,0.09302 -0.11886,0.93534 -0.11886,3.06957 0,0.454751 0.0103,1.369421 0.0103,0.91467 0.0103,1.369421 0,0.201538 -0.17053,0.201538 -0.17053,0 -0.49092,0.01033 -0.32039,0.01034 -0.48059,0.01034 -0.1602,0 -0.1602,-0.12919 0,-0.10852 0.0672,-1.901687 0.031,-0.868161 0.031,-2.532137 0,-0.118855 -0.0517,-0.118855 -0.12402,0 -0.39274,0.08268 -0.26355,0.08268 -0.39274,0.08268 -0.11885,0 -0.11885,-0.06201 0,-0.06201 0.0103,-0.186034 0.0155,-0.124024 0.0155,-0.186035 0,-0.05684 -0.0103,-0.170532 -0.0103,-0.113688 -0.0103,-0.170531 0,-0.06718 0.11369,-0.113688 0.29972,-0.124023 0.63562,-0.423746 0.0155,-0.0155 0.28422,-0.310057 0.23254,-0.253214 0.25838,-0.253214 -0.005,0 0.42891,0.09302 0.1602,0.02067 0.46509,0.07751 0.0724,0.02067 0.0724,0.09819 z" />
    </g>
  </g>
</svg>
