<svg width="18" height="25" viewBox="0 0 18 25" fill="none" xmlns="http://www.w3.org/2000/svg">
<path id="Vector" d="M1.50872 1.09103C1.73146 0.90375 1.99646 0.755105 2.28844 0.653666C2.58042 0.552226 2.89359 0.5 3.2099 0.5C3.5262 0.5 3.83938 0.552226 4.13136 0.653666C4.42334 0.755105 4.68834 0.90375 4.91108 1.09103L16.8912 11.0814C17.1158 11.2671 17.2941 11.4881 17.4157 11.7316C17.5373 11.9751 17.6 12.2362 17.6 12.5C17.6 12.7638 17.5373 13.0249 17.4157 13.2684C17.2941 13.5119 17.1158 13.7329 16.8912 13.9186L4.91108 23.909C4.68834 24.0963 4.42334 24.2449 4.13136 24.3463C3.83938 24.4478 3.5262 24.5 3.2099 24.5C2.89359 24.5 2.58042 24.4478 2.28844 24.3463C1.99646 24.2449 1.73146 24.0963 1.50872 23.909C1.28414 23.7232 1.10589 23.5022 0.984247 23.2588C0.862604 23.0153 0.799974 22.7541 0.799974 22.4903C0.799974 22.2266 0.862604 21.9654 0.984247 21.7219C1.10589 21.4785 1.28414 21.2575 1.50872 21.0717L11.8116 12.5L1.50872 3.92828C1.28414 3.74254 1.10589 3.52155 0.984247 3.27807C0.862604 3.03458 0.799974 2.77342 0.799974 2.50965C0.799974 2.24589 0.862604 1.98473 0.984247 1.74124C1.10589 1.49776 1.28414 1.27677 1.50872 1.09103Z" fill="#1E8B93"/>
</svg>
