<svg width="80" height="100" viewBox="0 0 80 100" fill="none" xmlns="http://www.w3.org/2000/svg">
<g id="Group 112">
<path id="Vector" d="M70.5556 34.7217L72.6623 32.6317L74.3023 34.2583L79.2623 29.3383C79.4964 29.1066 79.6822 28.8308 79.809 28.5269C79.9358 28.2229 80.0011 27.8968 80.0011 27.5675C80.0011 27.2382 79.9358 26.9121 79.809 26.6081C79.6822 26.3042 79.4964 26.0284 79.2623 25.7967L74.7973 21.37C74.3224 20.9001 73.6812 20.6365 73.0131 20.6365C72.345 20.6365 71.7039 20.9001 71.229 21.37L66.2673 26.29L67.9073 27.9167L65.8006 30.005C59.199 24.464 50.9837 21.2043 42.379 20.7117V18.7417C46.5256 17.69 49.599 13.9683 49.599 9.525C49.6023 4.26333 45.304 0 40.0023 0C34.699 0 30.4006 4.26333 30.4006 9.52333C30.4006 13.9683 33.4723 17.6867 37.6206 18.74V20.71C29.0156 21.2029 20.8003 24.4632 14.199 30.005L12.0923 27.915L13.729 26.2883L8.76897 21.3683C8.29384 20.8988 7.65278 20.6355 6.9848 20.6355C6.31682 20.6355 5.67577 20.8988 5.20064 21.3683L0.737303 25.795C0.503033 26.0266 0.317042 26.3023 0.190104 26.6063C0.0631656 26.9103 -0.00219727 27.2364 -0.00219727 27.5658C-0.00219727 27.8952 0.0631656 28.2214 0.190104 28.5254C0.317042 28.8293 0.503033 29.1051 0.737303 29.3367L5.69897 34.26L7.3373 32.6317L9.4423 34.7217C3.55897 41.6333 0.00230328 50.5617 0.00230328 60.3167C0.00230328 82.2367 17.9123 100 40.0023 100C62.0923 100 80.0023 82.2367 80.0023 60.3167C80.0023 50.5617 76.444 41.6317 70.5556 34.7217ZM35.979 7.85333V15.01C35.1044 14.3866 34.391 13.5637 33.8979 12.6095C33.4049 11.6553 33.1464 10.5974 33.144 9.52333C33.144 5.76667 36.2156 2.72167 40.0023 2.72167C43.7873 2.72167 46.8573 5.76667 46.8573 9.52333C46.8573 11.785 45.734 13.7733 44.0223 15.01L44.024 7.85333C44.024 5.42833 35.9806 5.42833 35.979 7.85333ZM40.0023 94.71C20.8573 94.71 5.33564 79.3133 5.33564 60.3167C5.33564 41.3233 20.8573 25.9267 40.0023 25.9267C59.1456 25.9267 74.6673 41.325 74.6673 60.3167C74.6673 79.3133 59.1456 94.71 40.0023 94.71Z" fill="#1E8B93"/>
<path id="Vector_2" d="M40.0035 28.5723V31.2189H38.8751V40.1723H40.0035V55.8389C37.5101 55.8389 35.4885 57.8423 35.4885 60.3173C35.4885 62.7923 37.5101 64.7973 40.0035 64.7973C40.5301 64.7973 41.0318 64.6906 41.5035 64.5239L58.3735 78.3689L58.3718 78.3656L62.7368 82.6573C68.4651 76.9223 72.0018 69.0289 72.0018 60.3173C72.0018 42.7873 57.6751 28.5723 40.0035 28.5723ZM62.5918 78.0473L44.5118 60.2806C44.5037 59.1093 44.0335 57.9886 43.2035 57.1623V31.9223C46.8518 32.3239 50.2968 33.4123 53.4085 35.0439L51.4335 38.4356L53.3868 39.5539L55.3618 36.1673C58.9786 38.4388 62.0467 41.4842 64.3451 45.0839L60.9335 47.0389L62.0618 48.9773L65.4701 47.0289C67.4688 50.7882 68.5907 54.9511 68.7518 59.2056H60.3118V61.4389H68.7568C68.6011 65.6965 67.4831 69.8635 65.4868 73.6273L62.0618 71.6639L60.9335 73.6023L64.3518 75.5623C63.8051 76.4123 63.2318 77.2489 62.5918 78.0473ZM38.8751 80.4656H41.1301V89.4189H38.8751V80.4656ZM10.6685 59.2023H19.6951V61.4356H10.6685V59.2023ZM24.3585 35.6773L26.6151 39.5523L28.5701 38.4339L26.3135 34.5589L24.3585 35.6773ZM19.0718 47.0373L15.1635 44.7989L14.0351 46.7389L17.9435 48.9789L19.0718 47.0373ZM14.0351 73.9006L15.1635 75.8406L19.0718 73.5989L17.9435 71.6606L14.0351 73.9006ZM24.3568 84.9623L26.3118 86.0806L28.5685 82.2023L26.6151 81.0823L24.3568 84.9623ZM51.4351 82.2023L53.6918 86.0806L55.6485 84.9623L53.3885 81.0823L51.4351 82.2023Z" fill="#1E8B93"/>
</g>
</svg>
