<svg width="15" height="10" viewBox="0 0 15 10" fill="none" xmlns="http://www.w3.org/2000/svg">
<path id="Vector" d="M0.369391 0.991287C0.252343 1.10738 0.15944 1.2455 0.0960408 1.39767C0.0326412 1.54985 -3.35041e-07 1.71307 -3.27835e-07 1.87793C-3.20629e-07 2.04279 0.0326412 2.20601 0.0960408 2.35819C0.15944 2.51036 0.252343 2.64848 0.369391 2.76457L6.61336 9.00854C6.72945 9.12559 6.86757 9.21849 7.01974 9.28189C7.17192 9.34529 7.33514 9.37793 7.5 9.37793C7.66486 9.37793 7.82808 9.34529 7.98026 9.28189C8.13243 9.21849 8.27055 9.12559 8.38664 9.00854L14.6306 2.76457C14.7477 2.64848 14.8406 2.51036 14.904 2.35819C14.9674 2.20601 15 2.04278 15 1.87793C15 1.71307 14.9674 1.54985 14.904 1.39767C14.8406 1.2455 14.7477 1.10738 14.6306 0.991287C14.5145 0.874238 14.3764 0.781336 14.2242 0.717937C14.072 0.654537 13.9088 0.621895 13.744 0.621895C13.5791 0.621895 13.4159 0.654537 13.2637 0.717937C13.1115 0.781336 12.9734 0.874238 12.8573 0.991287L7.5 6.3611L2.14268 0.991287C2.02659 0.874239 1.88847 0.781337 1.73629 0.717937C1.58411 0.654537 1.42089 0.621896 1.25603 0.621896C1.09118 0.621896 0.927954 0.654537 0.775777 0.717937C0.6236 0.781337 0.485482 0.874239 0.369391 0.991287Z" fill="black"/>
</svg>
