<svg width="15.000000" height="15.000000" viewBox="0 0 15 15" fill="none" xmlns="http://www.w3.org/2000/svg" xmlns:xlink="http://www.w3.org/1999/xlink">
	<desc>
			Created with Pixso.
	</desc>
	<defs/>
	<path id="Vector" d="M0.37 14.5L14.57 14.5C14.69 14.5 14.79 14.45 14.87 14.37C14.95 14.29 15 14.19 15 14.08C15 13.96 14.95 13.86 14.87 13.78C14.79 13.7 14.69 13.65 14.57 13.65L0.37 13.65C0.26 13.65 0.15 13.7 0.07 13.78C-0.01 13.86 -0.05 13.96 -0.05 14.08C-0.05 14.19 -0.01 14.29 0.07 14.37C0.15 14.45 0.26 14.5 0.37 14.5ZM5.55 11.34C5.9 11.24 6.23 11.05 6.49 10.79L14.51 2.77C14.78 2.49 14.94 2.12 14.94 1.73C14.94 1.34 14.78 0.97 14.51 0.69L13.72 -0.09C13.44 -0.36 13.07 -0.5 12.68 -0.5C12.29 -0.5 11.92 -0.36 11.64 -0.09L3.62 7.92C3.36 8.18 3.18 8.51 3.08 8.86L2.46 11.18C2.43 11.29 2.43 11.4 2.46 11.51C2.49 11.62 2.54 11.71 2.62 11.79C2.74 11.91 2.9 11.97 3.07 11.97L5.55 11.34ZM5.89 10.19C5.74 10.35 5.54 10.46 5.33 10.52L4.51 10.74L3.67 9.9L3.89 9.08C3.95 8.87 4.06 8.68 4.22 8.52L4.54 8.21L6.21 9.88L5.89 10.19ZM6.81 9.29L5.14 7.61L10.79 1.95L12.47 3.63L6.81 9.29ZM13.91 2.18L13.06 3.03L11.39 1.36L12.24 0.5C12.3 0.44 12.37 0.39 12.44 0.36C12.52 0.33 12.6 0.31 12.68 0.31C12.77 0.31 12.85 0.33 12.93 0.36C13 0.39 13.07 0.44 13.13 0.5L13.91 1.29C14.03 1.41 14.1 1.57 14.1 1.74C14.1 1.9 14.03 2.06 13.91 2.18Z" fill="#000000" fill-opacity="1.000000" fill-rule="nonzero"/>
</svg>
