<svg width="32" height="25" viewBox="0 0 32 25" fill="none" xmlns="http://www.w3.org/2000/svg">
<path id="Vector" d="M28.5 0H3.5C1.78125 0 0.375 1.40625 0.375 3.125V21.875C0.375 23.5938 1.78125 25 3.5 25H28.5C30.2188 25 31.625 23.5938 31.625 21.875V3.125C31.625 1.40625 30.2188 0 28.5 0ZM27.875 6.64062L17.6562 13.0312C16.6406 13.6719 15.3594 13.6719 14.3437 13.0312L4.125 6.64062C3.96832 6.55267 3.83112 6.43385 3.7217 6.29133C3.61228 6.14882 3.53291 5.98559 3.4884 5.81152C3.44389 5.63744 3.43516 5.45615 3.46274 5.2786C3.49033 5.10106 3.55365 4.93096 3.64888 4.7786C3.7441 4.62623 3.86926 4.49477 4.01676 4.39218C4.16426 4.28959 4.33105 4.21799 4.50702 4.18172C4.683 4.14545 4.8645 4.14526 5.04055 4.18117C5.2166 4.21708 5.38354 4.28833 5.53125 4.39062L16 10.9375L26.4688 4.39062C26.6165 4.28833 26.7834 4.21708 26.9594 4.18117C27.1355 4.14526 27.317 4.14545 27.493 4.18172C27.669 4.21799 27.8357 4.28959 27.9832 4.39218C28.1307 4.49477 28.2559 4.62623 28.3511 4.7786C28.4464 4.93096 28.5097 5.10106 28.5373 5.2786C28.5648 5.45615 28.5561 5.63744 28.5116 5.81152C28.4671 5.98559 28.3877 6.14882 28.2783 6.29133C28.1689 6.43385 28.0317 6.55267 27.875 6.64062Z" fill="white"/>
</svg>
