<svg width="100" height="100" viewBox="0 0 100 100" fill="none" xmlns="http://www.w3.org/2000/svg">
<path id="Vector" d="M82.3809 23.0933C89.9776 15.9283 81.1893 6.635 64.5693 12.3917C63.5909 12.7317 62.6809 13.09 61.8226 13.4617C63.4509 10.335 65.8559 6.92167 69.4559 3.65333C69.4559 3.65333 62.7326 6.06833 59.6259 5.45667C55.7726 4.69833 54.5643 0 54.5643 0C54.5643 0 50.5559 8.73 48.5143 15.5817C45.5909 9.695 42.3526 3.96667 42.3526 3.96667C42.3526 3.96667 40.6243 7.97333 37.4593 9.49667C34.9076 10.73 24.4109 11.7933 24.4109 11.7933C27.9109 13.5833 30.9159 15.795 33.4659 18.0833C30.7843 17.3733 27.7226 16.84 24.2209 16.5867C10.3143 15.5783 4.8526 20.54 6.7126 25.4417L-0.000732422 25.6567L3.6526 39.355L5.9226 40C11.3093 58.2483 10.0059 78.4967 9.98927 78.725L9.8976 80.045L11.1543 80.415C31.2759 86.3417 49.5576 100 49.5576 100C49.5576 100 73.2609 84.3133 86.2943 80.4117L87.4343 80.07L87.4576 78.87C87.4643 78.5867 88.0343 53.3133 94.5759 36.84C95.0359 36.775 95.4693 36.7233 95.8409 36.7L97.2193 36.6167L97.3576 35.23C97.3626 35.175 97.9259 27.2367 100.001 23.9983L82.3809 23.0933ZM4.31093 29.5L15.1159 32.4317V39.2033L6.1476 36.6567L4.31093 29.5ZM21.1009 80.3533C18.5331 79.3564 15.9309 78.4503 13.2993 77.6367C13.5126 72.9333 13.8209 56.7217 9.5776 41.0367L17.4276 43.2667C18.9476 49.9717 21.4709 63.785 21.1009 80.3533ZM34.2559 21.7383C47.7459 22.715 50.1176 29.6783 50.1176 29.6783C50.1176 29.6783 41.8993 32.6833 36.8209 32.6833C20.2509 32.6833 17.8576 20.55 34.2559 21.7383ZM50.9026 30.7033L64.4459 32.2383L47.5626 36.3233L37.9193 34.1683L50.9026 30.7033ZM34.6876 36.805L45.9543 39.3217V47.9617L34.3226 44.7167L34.6876 36.805ZM48.0893 95.0333C45.6293 93.2067 41.5293 90.3883 36.0859 87.3667C36.5176 79.405 36.5693 58.1317 36.5709 48.7033L48.0893 51.975V95.0333ZM63.1659 87.7733C59.1466 90.1508 55.2003 92.6497 51.3326 95.2667V50.4833C55.8532 48.8243 60.3878 47.2037 64.9359 45.6217C63.9576 55.0517 63.3459 79.6617 63.1659 87.7733ZM68.6326 41.3867C68.6326 41.3867 52.4026 46.595 49.2009 47.7767V39.3L68.8859 34.5367L68.6326 41.3867ZM66.6326 28.9517C59.0343 30.8983 50.9526 29.525 50.9526 29.525C50.9526 29.525 49.4376 22.0833 61.7043 17.835C76.6143 12.67 82.5093 24.8833 66.6326 28.9517ZM77.8176 26.12L87.4776 26.6633L81.6759 28.0683L74.7476 27.385C75.8693 26.995 76.8876 26.5683 77.8176 26.12ZM84.2443 77.62C81.8326 78.4083 79.2893 79.44 76.7259 80.6083C76.7443 72.8017 77.2209 55.4983 80.8376 40.3667C84.5559 39.22 88.0026 38.2417 90.8159 37.58C85.4376 52.5567 84.4193 72.5133 84.2443 77.62ZM94.3076 33.5683C94.3076 33.5683 88.9726 35.1317 85.5659 36.0717L86.4226 30.2917L95.6976 28.0483C94.9376 30.14 94.3076 33.5683 94.3076 33.5683Z" fill="#1E8B93"/>
</svg>
