<?xml version="1.0" encoding="UTF-8" standalone="no"?>
<svg
   xmlns:dc="http://purl.org/dc/elements/1.1/"
   xmlns:cc="http://creativecommons.org/ns#"
   xmlns:rdf="http://www.w3.org/1999/02/22-rdf-syntax-ns#"
   xmlns:svg="http://www.w3.org/2000/svg"
   xmlns="http://www.w3.org/2000/svg"
   xmlns:sodipodi="http://sodipodi.sourceforge.net/DTD/sodipodi-0.dtd"
   xmlns:inkscape="http://www.inkscape.org/namespaces/inkscape"
   width="48"
   height="48"
   viewBox="0 0 48 48"
   fill="none"
   version="1.1"
   id="svg800"
   sodipodi:docname="logo.svg"
   inkscape:version="1.0.2-2 (e86c870879, 2021-01-15)">
  <metadata
     id="metadata804">
    <rdf:RDF>
      <cc:Work
         rdf:about="">
        <dc:format>image/svg+xml</dc:format>
        <dc:type
           rdf:resource="http://purl.org/dc/dcmitype/StillImage" />
        <dc:title></dc:title>
      </cc:Work>
    </rdf:RDF>
  </metadata>
  <sodipodi:namedview
     pagecolor="#ffffff"
     bordercolor="#666666"
     borderopacity="1"
     objecttolerance="10"
     gridtolerance="10"
     guidetolerance="10"
     inkscape:pageopacity="0"
     inkscape:pageshadow="2"
     inkscape:window-width="1920"
     inkscape:window-height="1001"
     id="namedview802"
     showgrid="false"
     inkscape:zoom="11.286512"
     inkscape:cx="14.690724"
     inkscape:cy="30.241459"
     inkscape:window-x="-9"
     inkscape:window-y="-9"
     inkscape:window-maximized="1"
     inkscape:current-layer="svg800" />
  <g
     id="Логотип"
     transform="scale(0.92307692)">
    <g
       clip-path="url(#clip0_7_48)"
       id="g487">
      <rect
         id="Rectangle 27"
         width="52"
         height="52"
         fill="#1e8b93"
         x="0"
         y="0" />
      <g
         id="Group 103">
        <g
           id="Ellipse 6"
           filter="url(#filter0_f_7_48)">
          <ellipse
             cx="43"
             cy="4.5"
             rx="12"
             ry="0.5"
             fill="url(#paint0_linear_7_48)"
             fill-opacity="0.1"
             id="ellipse409"
             style="fill:url(#paint0_linear_7_48)" />
        </g>
        <g
           id="Ellipse 7"
           filter="url(#filter1_f_7_48)">
          <ellipse
             cx="7"
             cy="0.5"
             rx="7"
             ry="0.5"
             transform="matrix(1,0,0,-1,40,7)"
             fill="url(#paint1_linear_7_48)"
             fill-opacity="0.1"
             id="ellipse412"
             style="fill:url(#paint1_linear_7_48)" />
        </g>
        <g
           id="Ellipse 24"
           filter="url(#filter2_f_7_48)">
          <ellipse
             cx="7"
             cy="40.5"
             rx="12"
             ry="0.5"
             fill="url(#paint2_linear_7_48)"
             fill-opacity="0.1"
             id="ellipse415"
             style="fill:url(#paint2_linear_7_48)" />
        </g>
        <g
           id="Ellipse 25"
           filter="url(#filter3_f_7_48)">
          <ellipse
             cx="7"
             cy="0.5"
             rx="7"
             ry="0.5"
             transform="matrix(1,0,0,-1,4,43)"
             fill="url(#paint3_linear_7_48)"
             fill-opacity="0.1"
             id="ellipse418"
             style="fill:url(#paint3_linear_7_48)" />
        </g>
        <g
           id="Ellipse 26"
           filter="url(#filter4_f_7_48)">
          <ellipse
             cx="21"
             cy="45.5"
             rx="12"
             ry="0.5"
             fill="url(#paint4_linear_7_48)"
             fill-opacity="0.1"
             id="ellipse421"
             style="fill:url(#paint4_linear_7_48)" />
        </g>
        <g
           id="Ellipse 27"
           filter="url(#filter5_f_7_48)">
          <ellipse
             cx="14.5"
             cy="0.5"
             rx="14.5"
             ry="0.5"
             transform="matrix(1,0,0,-1,18,48)"
             fill="url(#paint5_linear_7_48)"
             fill-opacity="0.1"
             id="ellipse424"
             style="fill:url(#paint5_linear_7_48)" />
        </g>
        <g
           id="Ellipse 10"
           filter="url(#filter6_f_7_48)">
          <ellipse
             cx="41"
             cy="16.5"
             rx="12"
             ry="0.5"
             fill="url(#paint6_linear_7_48)"
             fill-opacity="0.1"
             id="ellipse427"
             style="fill:url(#paint6_linear_7_48)" />
        </g>
        <g
           id="Ellipse 11"
           filter="url(#filter7_f_7_48)">
          <ellipse
             cx="7"
             cy="0.5"
             rx="7"
             ry="0.5"
             transform="matrix(1,0,0,-1,38,19)"
             fill="url(#paint7_linear_7_48)"
             fill-opacity="0.1"
             id="ellipse430"
             style="fill:url(#paint7_linear_7_48)" />
        </g>
        <g
           id="Ellipse 8"
           filter="url(#filter8_f_7_48)">
          <ellipse
             cx="35"
             cy="9.5"
             rx="12"
             ry="0.5"
             fill="url(#paint8_linear_7_48)"
             fill-opacity="0.1"
             id="ellipse433"
             style="fill:url(#paint8_linear_7_48)" />
        </g>
        <g
           id="Ellipse 9"
           filter="url(#filter9_f_7_48)">
          <ellipse
             cx="7"
             cy="0.5"
             rx="7"
             ry="0.5"
             transform="matrix(1,0,0,-1,32,12)"
             fill="url(#paint9_linear_7_48)"
             fill-opacity="0.1"
             id="ellipse436"
             style="fill:url(#paint9_linear_7_48)" />
        </g>
        <g
           id="Ellipse 12"
           filter="url(#filter10_f_7_48)">
          <ellipse
             cx="32"
             cy="25.5"
             rx="12"
             ry="0.5"
             fill="url(#paint10_linear_7_48)"
             fill-opacity="0.1"
             id="ellipse439"
             style="fill:url(#paint10_linear_7_48)" />
        </g>
        <g
           id="Ellipse 13"
           filter="url(#filter11_f_7_48)">
          <ellipse
             cx="7"
             cy="0.5"
             rx="7"
             ry="0.5"
             transform="matrix(1,0,0,-1,29,28)"
             fill="url(#paint11_linear_7_48)"
             fill-opacity="0.1"
             id="ellipse442"
             style="fill:url(#paint11_linear_7_48)" />
        </g>
        <g
           id="Ellipse 14"
           filter="url(#filter12_f_7_48)">
          <ellipse
             cx="40"
             cy="31.5"
             rx="12"
             ry="0.5"
             fill="url(#paint12_linear_7_48)"
             fill-opacity="0.1"
             id="ellipse445"
             style="fill:url(#paint12_linear_7_48)" />
        </g>
        <g
           id="Ellipse 15"
           filter="url(#filter13_f_7_48)">
          <ellipse
             cx="7"
             cy="0.5"
             rx="7"
             ry="0.5"
             transform="matrix(1,0,0,-1,37,34)"
             fill="url(#paint13_linear_7_48)"
             fill-opacity="0.1"
             id="ellipse448"
             style="fill:url(#paint13_linear_7_48)" />
        </g>
        <g
           id="Ellipse 16"
           filter="url(#filter14_f_7_48)">
          <ellipse
             cx="15"
             cy="29.5"
             rx="12"
             ry="0.5"
             fill="url(#paint14_linear_7_48)"
             fill-opacity="0.1"
             id="ellipse451"
             style="fill:url(#paint14_linear_7_48)" />
        </g>
        <g
           id="Ellipse 17"
           filter="url(#filter15_f_7_48)">
          <ellipse
             cx="7"
             cy="0.5"
             rx="7"
             ry="0.5"
             transform="matrix(1,0,0,-1,12,32)"
             fill="url(#paint15_linear_7_48)"
             fill-opacity="0.1"
             id="ellipse454"
             style="fill:url(#paint15_linear_7_48)" />
        </g>
        <g
           id="Ellipse 18"
           filter="url(#filter16_f_7_48)">
          <ellipse
             cx="12"
             cy="0.5"
             rx="12"
             ry="0.5"
             transform="matrix(-1,0,0,1,34,35)"
             fill="url(#paint16_linear_7_48)"
             fill-opacity="0.1"
             id="ellipse457"
             style="fill:url(#paint16_linear_7_48)" />
        </g>
        <g
           id="Ellipse 19"
           filter="url(#filter17_f_7_48)">
          <ellipse
             cx="18"
             cy="37.5"
             rx="7"
             ry="0.5"
             transform="rotate(180,18,37.5)"
             fill="url(#paint17_linear_7_48)"
             fill-opacity="0.1"
             id="ellipse460"
             style="fill:url(#paint17_linear_7_48)" />
        </g>
        <g
           id="Ellipse 20"
           filter="url(#filter18_f_7_48)">
          <ellipse
             cx="39"
             cy="41.5"
             rx="12"
             ry="0.5"
             fill="url(#paint18_linear_7_48)"
             fill-opacity="0.1"
             id="ellipse463"
             style="fill:url(#paint18_linear_7_48)" />
        </g>
        <g
           id="Ellipse 21"
           filter="url(#filter19_f_7_48)">
          <ellipse
             cx="7"
             cy="0.5"
             rx="7"
             ry="0.5"
             transform="matrix(1,0,0,-1,36,44)"
             fill="url(#paint19_linear_7_48)"
             fill-opacity="0.1"
             id="ellipse466"
             style="fill:url(#paint19_linear_7_48)" />
        </g>
        <g
           id="Ellipse 22"
           filter="url(#filter20_f_7_48)">
          <ellipse
             cx="39"
             cy="36.5"
             rx="12"
             ry="0.5"
             fill="url(#paint20_linear_7_48)"
             fill-opacity="0.1"
             id="ellipse469"
             style="fill:url(#paint20_linear_7_48)" />
        </g>
        <g
           id="Ellipse 23"
           filter="url(#filter21_f_7_48)">
          <ellipse
             cx="7"
             cy="0.5"
             rx="7"
             ry="0.5"
             transform="matrix(1,0,0,-1,36,39)"
             fill="url(#paint21_linear_7_48)"
             fill-opacity="0.1"
             id="ellipse472"
             style="fill:url(#paint21_linear_7_48)" />
        </g>
        <g
           id="Ellipse 28"
           filter="url(#filter22_f_7_48)">
          <ellipse
             cx="8"
             cy="49.5"
             rx="12"
             ry="0.5"
             fill="url(#paint22_linear_7_48)"
             fill-opacity="0.1"
             id="ellipse475"
             style="fill:url(#paint22_linear_7_48)" />
        </g>
        <g
           id="Ellipse 29"
           filter="url(#filter23_f_7_48)">
          <ellipse
             cx="7"
             cy="0.5"
             rx="7"
             ry="0.5"
             transform="matrix(1,0,0,-1,5,51)"
             fill="url(#paint23_linear_7_48)"
             fill-opacity="0.1"
             id="ellipse478"
             style="fill:url(#paint23_linear_7_48)" />
        </g>
      </g>
      <g
         id="Vector"
         filter="url(#filter24_d_7_48)">
        <path
           d="m 8.43263,-30.1637 c -0.06434,0.1201 -0.26588,0.2215 -0.44935,0.2167 -0.41281,-0.0108 -0.55717,0.2444 -0.36875,0.6453 0.24641,0.5244 -0.21823,0.7407 -0.80497,0.3598 -0.24066,-0.1586 -0.39394,-0.1474 -0.87507,0.1143 -0.54307,0.2904 -0.59133,0.3805 -0.62331,1.0194 -0.03079,0.5933 0.0119,0.7162 0.35919,0.8929 0.468,0.2407 0.50393,0.6224 0.07345,0.7025 -0.4148,0.0654 -0.55876,0.3053 -0.46485,0.8104 0.09351,0.5203 -0.29389,0.7082 -0.69716,0.3321 -0.32841,-0.3132 -0.45073,-0.3164 -0.77935,-0.0355 -0.43804,0.3693 -0.79862,0.1162 -0.66081,-0.4742 0.08798,-0.4395 0.05938,-0.5164 -0.33416,-0.679 -0.22696,-0.0973 -0.54406,-0.2579 -0.69417,-0.3684 -0.22497,-0.1734 -0.30181,-0.1602 -0.47556,0.0485 -0.111,0.1494 -0.31293,0.266 -0.43525,0.2628 -0.382229,-0.01 -0.589337,0.3045 -0.429503,0.6285 0.101461,0.2159 0.097886,0.3529 -0.044091,0.5167 -0.236491,0.268 -0.542278,0.2601 -0.6570414,-0.0323 -0.0849788,-0.2612 -0.6341966,-0.3212 -0.7781606,-0.0813 -0.063145,0.0745 -0.265483,0.2063 -0.466234,0.2772 -0.29327,0.099 -0.34232,0.2196 -0.34293,0.8288 1.9e-4,0.5788 0.05737,0.7327 0.37447,0.8933 0.482897,0.2563 0.474155,0.5911 -0.03675,0.8215 -0.37171,0.1731 -0.41996,0.2632 -0.40608,0.9033 -0.00219,0.6702 0.04208,0.7322 0.56965,1.0354 0.467613,0.2559 0.635,0.2908 0.868312,0.1445 0.574845,-0.3353 1.133791,-0.0617 0.771009,0.3553 -0.236492,0.268 -0.06415,0.699 0.272213,0.7077 0.152896,0.004 0.349266,0.1006 0.437826,0.2247 0.17751,0.2331 0.01985,0.4118 -0.520445,0.5957 -0.216037,0.0705 -0.26508,0.1911 -0.212669,0.5276 0.11972,0.6885 -0.5641351,1.0971 -0.746205,0.4527 -0.112377,-0.3838 -0.402474,-0.4066 -0.764462,-0.02 -0.141579,0.1486 -0.313339,0.2812 -0.374099,0.2644 -0.36575,-0.0552 -0.44617,0.095 -0.46445,0.7952 -0.01709,0.6545 0.04049,0.7931 0.3282,0.9072 0.19678,0.0813 0.39196,0.2235 0.450734,0.3164 0.102653,0.1702 -0.184084,0.6045 -0.366754,0.5692 -0.39633,-0.056 -0.52143,0.0474 -0.46941,0.399 0.08021,0.4439 -0.15549,0.6814 -0.28355,0.3125 -0.11397,-0.3228 -0.4966,-0.3176 -0.8566,-0.0071 -0.26588,0.2215 -0.31175,0.2203 -0.53512,-0.014 -0.1936,-0.2031 -0.2065,-0.2948 -0.04884,-0.4735 0.23649,-0.268 0.12054,-0.5147 -0.31769,-0.7242 -0.18148,-0.0808 -0.45311,-0.225 -0.58793,-0.3352 -0.21008,-0.1578 -0.30221,-0.1449 -0.53671,0.0469 -0.15647,0.133 -0.41997,0.2632 -0.58894,0.2893 -0.24583,0.0393 -0.29448,0.1446 -0.27582,0.6021 0.02957,0.6252 -0.39118,0.9189 -0.68624,0.4999 -0.2061,-0.31 -0.66478,-0.322 -0.88678,-0.0231 -0.1106,0.1342 -0.28037,0.1907 -0.46185,0.1098 -0.21207,-0.0817 -0.23907,-0.2195 -0.16797,-0.5985 0.10365,-0.4542 0.07466,-0.5159 -0.36475,-0.6797 -0.56054,-0.2126 -0.54901,-0.654 0.03556,-0.7759 0.35364,-0.0669 0.3866,-0.1574 0.40608,-0.9033 0.01987,-0.761 -0.00872,-0.8379 -0.3286,-0.892 -0.19797,-0.0356 -0.39355,-0.1626 -0.43624,-0.2856 -0.09947,-0.292 -0.635,-0.2907 -0.74957,-0.0043 -0.06434,0.1202 -0.22001,0.2227 -0.3729,0.2187 -0.32108,-0.0083 -0.52358,-0.4553 -0.30398,-0.6629 0.23529,-0.2223 -0.0731,-0.7178 -0.44,-0.7273 -0.1682,-0.0044 -0.3336,-0.1154 -0.3763,-0.2383 -0.058,-0.1234 -0.1928,-0.2336 -0.2998,-0.2363 -0.1223,-0.0032 -0.2627,0.0997 -0.3117,0.2203 -0.0644,0.1202 -0.2201,0.2227 -0.373,0.2187 -0.3975,-0.0103 -0.6516,0.3486 -0.5412,0.8084 0.1092,0.5055 -0.3088,0.6926 -0.7117,0.3013 -0.2837,-0.2663 -0.7585,-0.2483 -0.7665,0.0561 -0.0019,0.0762 -0.1721,0.1479 -0.3709,0.1427 -0.4281,-0.0112 -0.5724,0.244 -0.384,0.6449 0.087,0.1851 0.0673,0.3521 -0.059,0.5011 -0.2365,0.268 0.0437,0.6714 0.4718,0.6825 0.3822,0.01 0.3824,0.5888 0.0119,0.7162 -0.5399,0.1687 -0.667,0.3482 -0.5072,0.6722 0.1313,0.2472 0.0975,0.3681 -0.0907,0.546 -0.2196,0.2075 -0.2808,0.2059 -0.6237,-0.1381 l -0.3731,-0.3601 -0.36,0.3105 c -0.4388,0.3998 -0.801,0.2075 -0.6789,-0.3681 0.1025,-0.4086 -0.2207,-0.9197 -0.485,-0.759 -0.0777,0.0437 -0.1827,-0.0352 -0.2254,-0.1582 -0.1003,-0.2616 -0.8169,-0.3564 -0.8232,-0.1129 -0.002,0.0761 -0.1263,0.149 -0.2945,0.1446 -0.4128,-0.0107 -0.667,0.3482 -0.5566,0.808 0.1088,0.5207 -0.3088,0.6926 -0.7265,0.2857 -0.2387,-0.2347 -0.3453,-0.2527 -0.5633,-0.1061 -0.2647,0.1758 -0.4659,0.262 -0.8823,0.3882 -0.2003,0.0557 -0.2176,0.1314 -0.0863,0.3785 0.1018,0.2007 0.0966,0.3986 10e-5,0.5788 -0.1922,0.3301 0.0292,0.6405 0.442,0.6513 0.1376,0.0036 0.2881,0.0989 0.3163,0.1911 0.1136,0.338 -0.0609,0.5772 -0.4279,0.5676 -0.3822,-0.01 -0.5889,0.2893 -0.3981,0.5989 0.0733,0.1237 0.0524,0.3364 -0.0276,0.4714 -0.2087,0.3754 -0.0348,0.7455 0.378,0.7563 0.1988,0.0052 0.3795,0.1165 0.4375,0.23987 0.0994,0.292 0.3746,0.29918 0.7189,0.00354 0.4224,-0.35451 0.7689,-0.14751 0.7075,0.44496 -0.0562,0.39456 0.0167,0.53354 0.364,0.71016 0.5436,0.27314 0.5051,0.57677 -0.0815,0.7747 -0.4316,0.12581 -0.4642,0.20112 -0.3832,0.61449 0.1076,0.56639 -0.2649,0.76991 -0.6831,0.37819 -0.3284,-0.31321 -0.5271,-0.3184 -0.7793,-0.03558 -0.1102,0.11897 -0.3271,0.21994 -0.4799,0.21595 -0.1682,-0.00439 -0.3082,0.08334 -0.3106,0.17467 -0.1557,1.2754 -0.0582,1.64351 0.4616,1.65708 0.4128,0.01078 0.304,0.6629 -0.1265,0.74306 -0.4148,0.06532 -0.4795,0.20072 -0.4837,0.94697 0.001,0.54837 0.0586,0.68696 0.4059,0.86357 0.2265,0.11254 0.406,0.26954 0.4036,0.36088 -0.0059,0.22832 0.5465,0.16658 0.7669,-0.07137 0.3627,-0.41702 0.6932,-0.17992 0.6761,0.4746 -0.0139,0.53275 0.0299,0.61005 0.3498,0.664104 0.198,0.035632 0.47,0.164587 0.5891,0.289554 0.1783,0.202668 0.2548,0.204664 0.4736,0.027598 0.1408,-0.11818 0.42,-0.263206 0.605,-0.3193 0.3235,-0.082946 0.3561,-0.158256 0.2762,-0.617296 -0.0907,-0.62687 0.2516,-0.84641 0.6847,-0.43907 0.3437,0.31361 0.6189,0.32079 0.8566,0.00713 0.111,-0.14942 0.2961,-0.20551 0.4474,-0.14064 0.2116,0.09692 0.239,0.21949 0.153,0.58281 -0.1024,0.40858 -0.0734,0.47026 0.3503,0.648876 0.5907,0.22867 0.5772,0.746197 -0.0074,0.86802 -0.3536,0.066926 -0.3866,0.1574546 -0.4041,0.827198 -0.0179,0.684966 0.026,0.762266 0.3306,0.815916 0.198,0.03563 0.3936,0.16259 0.4363,0.28556 0.0994,0.292 0.4821,0.28676 0.8421,-0.02371 0.3756,-0.32529 0.659,-0.04372 0.6415,0.62603 -0.0103,0.39575 0.0633,0.5043 0.3377,0.54192 0.4418,0.07247 0.4355,0.31601 -0.0095,0.36532 -0.2913,0.02285 -0.3548,0.11259 -0.3201,0.53999 0.03,0.61005 -0.3264,0.78352 -0.7446,0.39181 -0.2837,-0.26635 -0.3759,-0.25352 -0.997,0.09582 -0.714,0.39262 -0.6987,0.39301 -0.5389,0.71705 0.1011,0.23112 0.0975,0.36811 -0.0445,0.53196 -0.2365,0.26799 0.0437,0.67133 0.4718,0.68251 0.3822,0.00998 0.3824,0.58879 0.0119,0.7162 -0.5552,0.16829 -0.667,0.34815 -0.5076,0.68741 0.1313,0.24714 0.1132,0.35329 -0.1205,0.51474 -0.2337,0.16144 -0.325,0.14382 -0.6233,-0.15337 -0.3284,-0.31321 -0.3586,-0.32923 -0.6405,-0.07765 -0.5479,0.47312 -0.9535,0.18835 -0.7514,-0.52226 0.0338,-0.12098 -0.0991,-0.30723 -0.2798,-0.41857 -0.1963,-0.09651 -0.4366,-0.27034 -0.5259,-0.36406 -0.1936,-0.20307 -0.7127,-0.24708 -0.7178,-0.0492 -0.002,0.0761 -0.1581,0.19388 -0.3432,0.24998 -0.4775,0.12461 -0.5897,0.3197 -0.4962,0.84002 0.0673,0.35209 0.0195,0.427 -0.2404,0.42021 -0.1682,-0.00439 -0.3795,-0.11653 -0.4833,-0.2411 -0.1039,-0.12456 -0.2846,-0.2359 -0.4069,-0.2391 -0.107,-0.00279 -0.2474,0.10017 -0.2964,0.22074 -0.0644,0.12017 -0.2201,0.22273 -0.373,0.21874 -0.3669,-0.00958 -0.6356,0.3185 -0.4741,0.58166 0.0579,0.12337 0.0802,0.44381 0.0268,0.73182 -0.0876,0.42421 -0.059,0.50111 0.2009,0.5079 0.6727,0.01756 0.747,0.68969 0.102,0.77949 -0.2305,0.0397 -0.3109,0.1899 -0.3365,0.5852 -0.0229,0.2888 -0.0614,0.5925 -0.0791,0.6834 -0.0856,0.3481 0.0014,0.5332 0.2919,0.5407 0.1682,0.0044 0.3489,0.1158 0.3916,0.2387 0.1143,0.3077 0.6651,0.3068 0.8871,0.008 0.3005,-0.373 0.752,-0.087 0.6475,0.3977 -0.1197,0.4843 -0.0034,0.7158 0.4075,0.8027 0.5017,0.1197 0.4447,0.5447 -0.0956,0.7286 -0.4469,0.1254 -0.4791,0.1855 -0.4001,0.675 0.1205,0.6581 -0.1594,0.8336 -0.607,0.3954 -0.388,-0.3757 -0.6314,-0.4278 -0.8071,-0.1429 -0.064,0.1049 -0.3283,0.2656 -0.5604,0.3661 -0.3399,0.1282 -0.4195,0.248 -0.3483,0.4479 0.1152,0.2772 0.1128,0.3685 0.0236,0.8536 -0.0361,0.2123 0.0529,0.3212 0.3261,0.4045 0.4864,0.1193 0.6222,0.7779 0.1636,0.7659 -0.4281,-0.0112 -0.7129,0.3469 -0.5385,0.7018 0.1022,0.1855 0.097,0.3833 0.0013,0.5332 -0.16,0.2699 0.1644,0.7354 0.5467,0.7454 0.1223,0.0031 0.2124,0.0664 0.2104,0.1425 -0.0067,0.2588 0.4355,0.316 0.6704,0.1089 0.1255,-0.1186 0.3729,-0.2187 0.5564,-0.2139 0.2752,0.0072 0.319,0.0845 0.2624,0.4942 -0.0413,0.4102 0.0167,0.5336 0.3487,0.7098 0.2418,0.1129 0.4213,0.27 0.419,0.3613 -0.006,0.2283 0.6076,0.1682 0.7057,-0.073 0.0643,-0.1202 0.22,-0.2227 0.3729,-0.2187 0.4128,0.0108 0.6673,-0.3634 0.493,-0.7183 -0.2617,-0.5247 0.2931,-0.6777 0.7857,-0.2079 0.254,0.2351 0.2845,0.2359 0.5504,0.0143 0.1569,-0.1482 0.4196,-0.2479 0.5725,-0.244 0.214,0.0056 0.2422,0.0978 0.1723,0.431 -0.1201,0.4995 -0.0038,0.7311 0.4071,0.8179 0.4257,0.1025 0.5003,0.7595 0.0875,0.7487 -0.5198,-0.0136 -0.6364,0.3489 -0.5471,1.6155 -0.0027,0.1066 0.1325,0.2015 0.2701,0.2051 0.1376,0.0036 0.379,0.1317 0.5283,0.2727 0.2391,0.2195 0.3457,0.2375 0.5791,0.0913 0.1709,-0.1022 0.4481,-0.1711 0.6163,-0.1667 0.2752,0.0072 0.3042,0.0689 0.2001,0.5383 -0.0879,0.4395 -0.0601,0.5468 0.1672,0.6289 0.167,0.0501 0.3936,0.1626 0.5139,0.2419 0.4813,0.3172 0.6185,0.336 0.8079,0.1125 0.1102,-0.119 0.3279,-0.2504 0.4968,-0.2765 0.2306,-0.0396 0.3102,-0.1594 0.3189,-0.4943 0.0195,-0.7458 0.2066,-0.878 0.7184,-0.56 0.3614,0.2227 0.4986,0.2415 0.71666,0.0948 0.14038,-0.1029 0.41916,-0.2327 0.58933,-0.3044 0.27839,-0.1146 0.32823,-0.2656 0.32685,-0.7988 0.00498,-0.7767 -0.12586,-1.039 -0.53867,-1.0498 -0.18348,-0.0048 -0.28772,-0.1141 -0.28255,-0.312 0.00517,-0.1979 0.11497,-0.3017 0.29844,-0.2969 0.41281,0.0108 0.66698,-0.3481 0.55659,-0.8079 -0.1092,-0.5055 0.30878,-0.6927 0.69676,-0.317 0.32841,0.3133 0.45073,0.3164 0.79504,0.0208 0.40666,-0.3397 0.8147,-0.1463 0.68007,0.3224 -0.13464,0.4687 0.00832,0.8532 0.3141,0.8612 0.12232,0.0032 0.36416,0.1161 0.51308,0.2723 0.23867,0.2347 0.29983,0.2363 0.53473,0.0292 0.15647,-0.133 0.41996,-0.2632 0.58894,-0.2893 0.23014,-0.0244 0.31055,-0.1746 0.33538,-0.5395 0.00716,-0.274 0.09116,-0.5612 0.16959,-0.6353 0.18824,-0.1779 0.67392,-0.0281 0.66835,0.185 -0.00198,0.0761 0.13403,0.1405 0.30221,0.1449 0.16818,0.0044 0.30777,-0.0681 0.30976,-0.1442 0.00239,-0.0913 0.06513,-0.1506 0.14158,-0.1486 0.09173,0.0024 0.13283,0.1862 0.11158,0.4142 -0.03892,0.3188 0.03474,0.4273 0.33854,0.5114 0.24304,0.0673 0.37706,0.2079 0.37229,0.3906 -0.00437,0.1674 -0.17811,0.3761 -0.39494,0.4771 -0.32505,0.1438 -0.39018,0.2944 -0.42097,0.8876 -0.03198,0.6389 -0.00339,0.7158 0.39055,0.8632 0.24264,0.0825 0.43782,0.2247 0.43623,0.2856 -0.00635,0.2435 0.45113,0.3012 0.68643,0.0788 0.407856,-0.3853 0.769631,-0.1779 0.754131,0.4157 -0.010731,0.411 0.062537,0.5348 0.290682,0.5864 0.608393,0.1378 0.607785,0.747 0.009119,0.8228 -0.260713,0.0237 -0.340339,0.1434 -0.350275,0.524 -0.019475,0.7458 -0.315137,0.9361 -0.777577,0.4823 l -0.37309,-0.3601 -0.36,0.3105 c -0.20353,0.1775 -0.48271,0.3225 -0.60503,0.3193 -0.19876,-0.0052 -0.2486,0.1458 -0.24921,0.7551 0.01349,0.6553 0.07068,0.8091 0.38778,0.9697 0.48289,0.2563 0.47415,0.5912 -0.03676,0.8216 -0.35602,0.1582 -0.40467,0.2636 -0.40607,0.9033 -0.00141,0.6397 0.04208,0.7322 0.34667,0.7858 0.19796,0.0357 0.39355,0.1626 0.43623,0.2856 0.09988,0.2768 0.48211,0.2868 0.81073,0.0059 0.42275,-0.3697 0.768043,-0.117 0.705481,0.5211 -0.042103,0.4406 0.015875,0.564 0.25931,0.6161 0.16699,0.05 0.377463,0.1926 0.4809109,0.3324 0.1477277,0.2018 0.2237771,0.2191 0.4574871,0.0576 0.279976,-0.1755 0.481121,-0.2616 0.912801,-0.3874 0.18506,-0.0561 0.2345,-0.1919 0.16839,-0.5896 -0.09153,-0.5965 0.22062,-0.832 0.59331,-0.4567 0.25316,0.2655 0.84825,0.3267 0.85421,0.0984 0.00239,-0.0913 0.17216,-0.1478 0.38621,-0.1422 0.33636,0.0088 0.36535,0.0705 0.32166,0.572 -0.0433,0.4862 5.8e-4,0.5636 0.33456,0.6637 0.24304,0.0672 0.37707,0.2078 0.3723,0.3905 -0.00477,0.1826 -0.14596,0.316 -0.39217,0.3705 -0.35364,0.067 -0.3866,0.1575 -0.40608,0.9033 -0.01987,0.7611 0.00872,0.838 0.3286,0.8921 0.19797,0.0356 0.39355,0.1626 0.43624,0.2855 0.09947,0.292 0.58912,0.2896 0.71939,-0.0117 0.04944,-0.1358 0.2349,-0.2071 0.43287,-0.1714 0.30459,0.0536 0.34847,0.1309 0.28988,0.6168 -0.04329,0.4863 -0.0151,0.5784 0.22953,0.5848 0.16818,0.0044 0.37945,0.1165 0.4833,0.2411 0.23707,0.2956 1.00153,0.3155 1.1314,0.0295 0.04904,-0.1205 0.22001,-0.2227 0.38819,-0.2183 0.35166,0.0092 0.48073,-0.2464 0.38801,-0.7972 -0.05202,-0.3516 -0.01985,-0.4117 0.25536,-0.4045 0.18347,0.0047 0.36416,0.1161 0.40685,0.2391 0.11476,0.2924 0.60362,0.3203 0.77935,0.0355 0.06434,-0.1201 0.26587,-0.2215 0.43527,-0.2628 0.2611,-0.0389 0.3105,-0.1746 0.3582,-0.8284 0.0344,-0.7302 0.0062,-0.8223 -0.3564,-0.9993 -0.51307,-0.2724 -0.51922,-0.6229 -0.0115,-0.7315 0.3231,-0.0677 0.387,-0.1726 0.3981,-0.5988 0.0104,-0.3958 0.0908,-0.546 0.3056,-0.5709 0.1537,-0.0264 0.3513,0.0244 0.4406,0.1182 0.2234,0.2343 0.6366,0.2298 0.8727,-0.0229 0.2844,-0.343 0.6606,-0.1047 0.557,0.3496 -0.1206,0.5147 -0.0054,0.7919 0.331,0.8007 0.1529,0.004 0.3488,0.1157 0.4527,0.2403 0.2371,0.2956 0.5123,0.3028 0.7644,0.0199 0.1103,-0.1189 0.3271,-0.2199 0.48,-0.2159 0.3058,0.008 0.3391,-0.0978 0.3115,-0.7991 -0.0069,-0.3201 0.0566,-0.4098 0.286,-0.4038 0.1682,0.0043 0.3794,0.1165 0.4833,0.2411 0.2218,0.2951 0.3746,0.2991 0.6417,0.0319 0.1255,-0.1185 0.358,-0.2343 0.527,-0.2604 0.2458,-0.0392 0.2957,-0.1903 0.3433,-0.844 0.034,-0.715 0.0062,-0.8223 -0.3117,-0.9525 -0.1968,-0.0813 -0.3923,-0.2083 -0.4358,-0.3008 -0.1176,-0.1858 0.3221,-0.6161 0.6126,-0.6085 0.1528,0.004 0.22,-0.2227 0.2359,-0.8316 0.0182,-0.7002 -0.024,-0.8383 -0.2534,-0.8443 -0.1529,-0.004 -0.3641,-0.1162 -0.468,-0.2407 -0.2367,-0.3108 -0.711,-0.308 -0.8876,0.0073 -0.2557,0.4198 -0.6759,0.1042 -0.6,-0.4574 0.0413,-0.4102 -0.0167,-0.5336 -0.3487,-0.7098 -0.2418,-0.1129 -0.4205,-0.3004 -0.4173,-0.4221 0.0031,-0.1218 0.1914,-0.2997 0.4388,-0.3999 0.3407,-0.1586 0.4051,-0.2788 0.3852,-0.6906 -0.0355,-0.3969 0.0127,-0.487 0.2574,-0.4807 0.1681,0.0044 0.3794,0.1166 0.4833,0.2411 0.2217,0.2952 0.3746,0.2992 0.6417,0.032 0.1255,-0.1185 0.358,-0.2343 0.527,-0.2604 0.2458,-0.0393 0.2957,-0.1903 0.3453,-0.9201 0.0501,-0.7451 0.0227,-0.8676 -0.222,-0.874 -0.1528,-0.004 -0.3641,-0.1161 -0.468,-0.2407 -0.237,-0.2956 0.0638,-0.6838 0.5072,-0.6722 0.2599,0.0068 0.3078,-0.0681 0.2565,-0.4502 -0.0496,-0.4431 0.0924,-0.6069 0.2679,-0.2977 0.1316,0.2319 0.5456,0.197 0.8586,-0.069 0.4066,-0.3397 0.6453,-0.105 0.5071,0.5007 -0.0876,0.4242 -0.0445,0.5319 0.1676,0.6136 0.1517,0.0497 0.3782,0.1622 0.4986,0.2415 0.4813,0.3172 0.6185,0.3361 0.9,0.0997 0.1565,-0.133 0.3886,-0.2336 0.5109,-0.2304 0.3058,0.008 0.4204,-0.2784 0.3422,-0.7983 -0.0524,-0.3365 -0.0199,-0.4118 0.24,-0.405 0.1682,0.0044 0.3795,0.1165 0.4833,0.2411 0.2371,0.2956 0.5429,0.3036 0.6728,0.0176 0.1142,-0.2712 0.6654,-0.2873 0.7503,-0.0261 0.0278,0.1073 0.0074,0.3048 -0.0726,0.4398 -0.1605,0.2852 -0.0144,0.5479 0.3816,0.6192 0.2128,0.0513 0.301,0.1906 0.2942,0.4494 -0.0067,0.2588 -0.102,0.3934 -0.3173,0.4334 -0.3991,0.0506 -0.5587,0.3053 -0.3985,0.6141 0.0729,0.139 0.0677,0.3369 -0.0119,0.4567 -0.191,0.2844 -0.0312,0.6084 0.3052,0.6172 0.1681,0.0044 0.3339,0.1001 0.3766,0.2231 0.143,0.3845 0.5546,0.441 0.8233,0.1129 0.3478,-0.4326 0.8323,-0.2372 0.7114,0.2927 -0.1209,0.53 -0.0054,0.792 0.3463,0.8011 0.1682,0.0044 0.3336,0.1154 0.3762,0.2383 0.1148,0.2924 0.5735,0.3044 0.8257,0.0216 0.1102,-0.119 0.327,-0.2199 0.4799,-0.216 0.3058,0.008 0.3391,-0.0977 0.3116,-0.7991 -0.007,-0.3201 0.0566,-0.4098 0.3165,-0.403 0.1682,0.0044 0.3488,0.1157 0.3915,0.2387 0.1148,0.2924 0.6499,0.3064 0.7645,0.02 0.0643,-0.1202 0.22,-0.2228 0.3576,-0.2192 0.4128,0.0108 0.6501,-0.2876 0.4754,-0.6273 -0.0874,-0.1698 -0.0818,-0.3829 -0.0014,-0.5331 0.193,-0.3606 0.0782,-0.653 -0.2581,-0.6618 -0.3364,-0.0087 -0.6922,-0.4445 -0.5044,-0.6072 0.0785,-0.0741 0.2796,-0.1602 0.4486,-0.1863 0.2148,-0.0248 0.3106,-0.1746 0.3495,-0.4935 0.0067,-0.2587 0.0449,-0.5472 0.0476,-0.6537 0.0221,-0.2584 0.4035,-0.2179 0.6257,0.062 0.2367,0.3108 0.604,0.3052 0.8417,-0.0085 0.3008,-0.3881 0.7528,-0.1174 0.6326,0.3821 -0.1209,0.53 -0.0057,0.8072 0.3306,0.8159 0.1529,0.004 0.3489,0.1158 0.4527,0.2403 0.2371,0.2956 0.5123,0.3028 0.7645,0.02 0.1102,-0.119 0.3117,-0.2203 0.4646,-0.2164 0.3364,0.0088 0.4659,-0.262 0.3724,-0.7823 -0.0791,-0.4895 0.2166,-0.6798 0.5599,-0.3509 0.3284,0.3132 0.6801,0.3224 0.9323,0.0396 0.1102,-0.119 0.3117,-0.2204 0.4646,-0.2164 0.3058,0.008 0.5302,-0.3822 0.3044,-0.5252 -0.0749,-0.0628 -0.0983,-0.3376 -0.0296,-0.6252 0.088,-0.4395 0.0747,-0.516 -0.2005,-0.5231 -0.4434,-0.0116 -0.7236,-0.415 -0.4714,-0.6978 0.1102,-0.119 0.3271,-0.2199 0.4647,-0.2163 0.2446,0.0064 0.2787,-0.1298 0.297,-0.83 0.0042,-0.7463 -0.0236,-0.8536 -0.3427,-0.9381 -0.1822,-0.0505 -0.3774,-0.1926 -0.4201,-0.3156 -0.0995,-0.292 -0.3751,-0.284 -0.7194,0.0117 -0.4224,0.3545 -0.7688,0.1474 -0.7075,-0.445 0.0562,-0.3946 -0.0022,-0.5027 -0.3212,-0.5872 -0.532,-0.1357 -0.5514,-0.5627 -0.0252,-0.7927 0.356,-0.1583 0.4203,-0.2784 0.4001,-0.675 -0.0316,-0.5491 0.4041,-0.8272 0.6842,-0.4238 0.2061,0.31 0.7561,0.3396 0.8864,0.0383 0.0491,-0.1205 0.2353,-0.2223 0.4035,-0.2179 0.2905,0.0076 0.4023,-0.1723 0.3197,-0.5248 -0.0282,-0.0921 -0.0211,-0.3661 0.001,-0.6244 0.026,-0.4106 -0.0328,-0.5035 -0.4267,-0.6509 -0.2423,-0.0977 -0.4527,-0.2403 -0.4511,-0.3012 0.0059,-0.2283 0.3647,-0.4931 0.6552,-0.4855 0.2294,0.0059 0.2788,-0.1298 0.2971,-0.83 C 37.763,10.2351 37.7352,10.1278 37.46,10.1206 37.3071,10.1166 37.0966,9.97403 37.0092,9.8042 36.82,9.4337 36.4692,9.39408 36.2769,9.72416 36.1969,9.85915 35.9962,9.93007 35.8441,9.89564 35.6312,9.84438 35.5584,9.70539 35.5687,9.30964 35.5802,8.86822 35.5218,8.76007 35.2321,8.72204 35.0342,8.68641 34.8386,8.55945 34.7959,8.43648 34.696,8.1597 34.2373,8.14773 33.9852,8.43054 33.875,8.54952 33.6581,8.65048 33.5205,8.64689 33.1842,8.63811 33.0543,8.92412 33.2282,9.29422 33.3011,9.43321 33.3112,9.63149 33.2634,9.7064 33.1198,9.93113 32.5706,9.87109 32.4856,9.60993 32.3708,9.31753 32.0651,9.30955 31.8129,9.59236 31.7027,9.71134 31.4858,9.8123 31.3177,9.80791 31.0577,9.80113 31.0139,9.72382 31.0995,9.37572 31.2196,8.87621 31.1032,8.6447 30.6924,8.55781 30.2667,8.45531 30.1921,7.79839 30.6049,7.80917 31.033,7.82035 31.193,7.55035 31.1984,6.75844 31.2139,6.16481 31.1704,6.07229 30.8811,6.01904 30.6984,5.9838 30.4723,5.85604 30.3837,5.73188 30.1462,5.4515 29.9475,5.44632 29.6032,5.74196 29.1804,6.11172 28.8037,5.88864 28.9404,5.34386 29.026,4.99576 28.9837,4.85758 28.7285,4.66813 L 28.413,4.44665 28.7518,4.3641 C 29.0289,4.29518 29.0772,4.20505 29.0107,3.82252 28.9043,3.21047 29.2643,2.9 29.6523,3.2757 c 0.3139,0.28236 0.7255,0.33881 0.8695,0.09886 0.0631,-0.07451 0.2654,-0.20632 0.4662,-0.27723 0.2933,-0.09897 0.3423,-0.21954 0.3437,-0.85924 6e-4,-0.60925 -0.057,-0.74784 -0.3737,-0.92366 -0.4981,-0.25672 -0.4753,-0.545523 0.0815,-0.774694 0.3717,-0.173077 0.4199,-0.263207 0.3534,-0.645738 -0.0927,-0.550764 0.2645,-0.754683 0.6674,-0.363369 0.3284,0.31321 0.7102,0.338409 0.8409,0.021956 0.0491,-0.120575 0.2196,-0.207511 0.3564,-0.173476 0.198,0.035632 0.2701,0.205063 0.2605,0.570379 -0.0107,0.410977 0.0767,0.580807 0.438,0.803489 C 34.7232,1.26042 34.8145,1.27804 35.02,1.02446 35.131,0.875043 35.3173,0.773283 35.4549,0.776876 35.776,0.785259 36.0486,0.304961 35.8876,0.0265845 35.741,-0.22095 35.9799,-0.580274 36.2857,-0.57229 c 0.107,0.002794 0.2266,0.112534 0.2845,0.235905 0.0995,0.2919982 0.6342,0.3211935 0.81,0.036381 0.0643,-0.120177 0.2658,-0.221537 0.4352,-0.262807 0.2611,-0.038879 0.3102,-0.159451 0.3289,-0.874859 0.0194,-0.74585 -0.0088,-0.83797 -0.3584,-0.92326 -0.5014,-0.13495 -0.477,-0.48464 0.0496,-0.72983 0.3866,-0.15745 0.4196,-0.24798 0.3908,-0.9037 -0.0202,-0.39656 -0.0413,-0.76267 -0.0546,-0.83917 0.0016,-0.06089 -0.1501,-0.11055 -0.3183,-0.11494 -0.1681,-0.00439 -0.3488,-0.11573 -0.3915,-0.2387 -0.114,-0.32284 -0.3594,-0.29879 -0.7669,0.07137 -0.3133,0.28122 -0.3592,0.28003 -0.5826,0.04572 -0.1634,-0.18705 -0.1904,-0.32484 -0.0935,-0.52032 0.1918,-0.31486 0.0453,-0.5624 -0.3502,-0.64889 -0.4563,-0.1033 -0.4706,-0.72817 -0.0256,-0.77748 0.2913,-0.02286 0.3552,-0.12782 0.3816,-0.55361 0.0159,-0.60886 0.4057,-0.88808 0.7482,-0.52881 0.2677,0.29639 0.4974,0.28716 1.0872,-0.03254 0.4191,-0.23277 0.4674,-0.3229 0.4868,-1.06875 0.0195,-0.74584 -0.0087,-0.83802 -0.3583,-0.92322 -0.2129,-0.0513 -0.3775,-0.1927 -0.3743,-0.3144 0.0032,-0.1218 0.1761,-0.3001 0.3929,-0.401 0.3251,-0.1439 0.3902,-0.2945 0.4206,-0.8725 0.0328,-0.6693 0.0332,-0.6846 -0.4561,-0.6973 -0.3058,-0.008 -0.5327,-0.1053 -0.5903,-0.2439 -0.0991,-0.3073 -0.5429,-0.3036 -0.7805,0.01 -0.3165,0.403 -0.7222,0.1183 -0.6464,-0.4433 0.041,-0.395 -0.0166,-0.5336 -0.3929,-0.7719 -0.7521,-0.4918 -0.8282,-0.509 -1.1093,-0.2879 -0.1408,0.1182 -0.3894,0.264 -0.5435,0.3057 -0.2008,0.0709 -0.2659,0.2215 -0.2445,0.5724 0.0457,0.5953 -0.4386,0.9786 -0.6717,0.5308 -0.1904,-0.3248 -0.557,-0.3496 -0.9323,-0.0395 -0.376,0.3405 -0.8111,0.0092 -0.5549,-0.4258 0.193,-0.3605 0.0911,-0.5612 -0.3934,-0.7566 -0.4993,-0.2111 -0.4846,-0.7743 0.0199,-0.7611 0.474,0.0124 0.5576,-0.2596 0.4557,-1.6331 0.0024,-0.0913 -0.1328,-0.1863 -0.301,-0.1907 -0.1529,-0.0039 -0.3641,-0.1161 -0.468,-0.2407 -0.2367,-0.3108 -0.604,-0.3051 -0.8417,0.0085 -0.1263,0.1491 -0.296,0.2055 -0.4622,0.125 -0.1968,-0.0812 -0.2395,-0.2042 -0.1539,-0.5523 0.0868,-0.3938 0.0433,-0.4863 -0.2444,-0.6004 -0.1968,-0.0813 -0.4371,-0.2552 -0.5405,-0.3949 -0.252,-0.3113 -0.6032,-0.3357 -0.7182,-0.034 -0.0643,0.1202 -0.22,0.2227 -0.3729,0.2187 -0.4281,-0.0112 -0.6988,0.393 -0.477,0.6882 0.1634,0.1871 0.1458,0.278 -0.0581,0.4707 -0.2358,0.2375 -0.2812,0.2211 -0.6096,-0.0921 -0.4029,-0.3913 -0.6463,-0.4433 -0.7613,-0.1417 -0.0491,0.1206 -0.251,0.2371 -0.4506,0.2624 -0.3069,0.0377 -0.3552,0.1278 -0.4045,0.8424 -0.0339,0.715 -0.0061,0.8224 0.3118,0.9525 0.1967,0.0813 0.3919,0.2235 0.4507,0.3164 0.1316,0.2319 -0.2147,0.6037 -0.5816,0.5941 -0.2599,-0.0068 -0.2925,0.0685 -0.2401,0.405 0.1182,0.7494 -0.2728,1.0743 -0.6725,0.5612 -0.2367,-0.3108 -0.604,-0.3051 -0.8417,0.0085 -0.2852,0.3734 -0.7528,0.1175 -0.6185,-0.336 0.135,-0.4839 -0.0083,-0.8532 -0.3447,-0.862 -0.1529,-0.004 -0.3489,-0.1157 -0.4527,-0.2403 -0.1039,-0.1245 -0.2846,-0.2359 -0.4069,-0.2391 -0.107,-0.0028 -0.2474,0.1002 -0.2964,0.2208 -0.0644,0.1201 -0.2659,0.2215 -0.4647,0.2163 -0.3363,-0.0088 -0.3685,0.0513 -0.3502,0.524 0.0263,0.747 -0.2078,0.9237 -0.7169,0.4991 -0.3742,-0.3144 -0.4201,-0.3156 -0.686,-0.094 -0.3757,0.3253 -0.4513,0.2928 -0.3638,-0.1314 0.0687,-0.2876 -0.0053,-0.3809 -0.384,-0.5279 -0.2575,-0.0981 -0.468,-0.2407 -0.4664,-0.3016 0.0064,-0.2435 0.2417,-0.4658 0.5487,-0.5035 0.2615,-0.0541 0.3105,-0.1747 0.3292,-0.8901 0.0187,-0.7154 -0.024,-0.8384 -0.2827,-0.8908 -0.167,-0.0501 -0.363,-0.1618 -0.421,-0.2852 -0.1606,-0.2936 -0.6503,-0.2911 -0.7801,-0.0051 -0.1142,0.2712 -0.7113,0.286 -0.7194,0.0117 0.0023,-0.0914 -0.0203,-0.3966 -0.0139,-0.6401 -0.0215,-0.3509 -0.0947,-0.4747 -0.3538,-0.5119 -0.396,-0.0713 -0.4879,-0.6525 -0.121,-0.6429 0.3823,0.01 0.6835,-0.3934 0.6178,-0.8064 -0.0943,-0.4899 0.386,-0.721 0.6513,-0.3333 0.221,0.3256 0.664,0.3524 0.7789,0.0508 0.0644,-0.1202 0.2659,-0.2216 0.4494,-0.2168 0.4128,0.0108 0.5572,-0.2444 0.3691,-0.6605 -0.1022,-0.1855 -0.083,-0.3373 0.0268,-0.441 0.2196,-0.2076 -0.0577,-0.7174 -0.4094,-0.7266 -0.3058,-0.008 -0.4672,-0.2712 -0.3518,-0.588 0.0482,-0.0902 0.1882,-0.1779 0.3411,-0.1739 0.4128,0.0108 0.6501,-0.2877 0.4754,-0.6273 -0.1168,-0.2163 -0.0975,-0.3681 0.0445,-0.532 0.1733,-0.1935 0.16,-0.27 -0.0802,-0.4438 -0.1498,-0.1257 -0.3614,-0.2227 -0.4684,-0.2255 -0.0918,-0.0024 -0.2113,-0.1121 -0.2693,-0.2355 -0.0991,-0.3072 -0.6346,-0.3059 -0.7648,-0.0047 -0.0491,0.1206 -0.2197,0.2075 -0.3565,0.1735 -0.1979,-0.0357 -0.27,-0.2051 -0.2601,-0.5856 0.0108,-0.411 -0.0625,-0.5348 -0.2907,-0.5864 -0.1673,-0.0349 -0.4229,-0.2091 -0.5557,-0.3953 l -0.2512,-0.3417 -0.3608,0.3409 c -0.2188,0.1771 -0.4827,0.3225 -0.6203,0.3189 -0.2905,-0.0076 -0.4521,0.3233 -0.2911,0.6017 0.0584,0.1081 0.0842,0.2916 0.0351,0.4122 -0.1141,0.2712 -0.603,0.2432 -0.7178,-0.0492 -0.0427,-0.123 -0.2081,-0.234 -0.3762,-0.2383 -0.1529,-0.004 -0.3239,0.0981 -0.3882,0.2183 -0.1146,0.2864 -0.6501,0.2877 -0.75,0.0109 -0.0427,-0.123 -0.0073,-0.3048 0.0566,-0.4098 0.191,-0.2844 -0.0872,-0.7639 -0.4388,-0.773 -0.1988,-0.0052 -0.303,-0.1146 -0.2979,-0.3125 0.0052,-0.1978 0.115,-0.3016 0.2985,-0.2968 0.1682,0.0044 0.3536,-0.0669 0.4172,-0.1567 0.1118,-0.1798 0.1918,-1.4877 0.0864,-1.5513 -0.4821,-0.2868 -1.1014,-0.5924 -1.2237,-0.5956 -0.0765,-0.002 -0.2475,0.1002 -0.3729,0.2188 -0.3765,0.3557 -0.69084,0.0886 -0.62868,-0.5343 0.05779,-0.4555 0.01431,-0.548 -0.275,-0.6012 -0.18267,-0.0353 -0.40883,-0.163 -0.49739,-0.2872 -0.23747,-0.2804 -0.58913,-0.2896 -0.7037,-0.0031 z m 0.74419,0.7962 c 0.13443,0.1254 0.23549,0.3565 0.23231,0.4783 -0.0159,0.6088 0.88997,1.0742 1.31347,0.674 0.251,-0.2372 0.8076,0.1277 0.7976,0.5082 -0.0048,0.1827 -0.1487,0.4226 -0.3205,0.5552 -0.5004,0.4135 -0.5774,1.0207 -0.1596,1.4277 0.2088,0.2034 0.4141,0.5439 0.4693,0.7738 0.1221,0.5972 0.7089,0.9781 1.1429,0.761 0.2479,-0.1154 0.4623,-0.1251 0.8104,0.0211 0.3939,0.1474 0.5472,0.1362 0.8746,-0.099 0.2185,-0.1618 0.4099,-0.4615 0.446,-0.6738 0.0382,-0.2884 0.1797,-0.437 0.4412,-0.4911 0.3847,-0.0814 0.882,0.2058 0.7232,0.4301 -0.1275,0.1947 0.1954,0.721 0.5418,0.9281 0.2262,0.1277 0.425,0.1329 0.7649,0.0047 0.8657,-0.3429 1.212,0.4582 0.4904,1.14 -0.2196,0.2075 -0.3949,0.4771 -0.3981,0.5989 -0.0032,0.1217 0.1571,0.4305 0.3648,0.6797 0.4145,0.5287 0.4779,1.033 0.1226,1.1608 -0.1388,0.0421 -0.5363,0.0317 -0.902,-0.0236 -0.5786,-0.1065 -0.6869,-0.0636 -0.9241,0.2349 -0.1428,0.1942 -0.257,0.4654 -0.261,0.6176 -0.0035,0.137 -0.1,0.3173 -0.2087,0.3754 -0.5744,0.3201 -0.6179,1.4004 -0.0578,1.6283 0.1211,0.0488 0.2085,0.2187 0.2041,0.3861 -0.0043,0.1674 0.1555,0.4915 0.3479,0.7402 0.3409,0.4202 0.3868,0.4214 0.9267,0.2527 0.9571,-0.3254 1.352,0.3704 0.5845,1.051 -0.2192,0.1923 -0.3949,0.4771 -0.3989,0.6293 -0.0111,0.4262 0.2522,0.89 0.5121,0.8968 0.1529,0.004 0.2249,0.1735 0.2158,0.5236 -0.0159,0.6088 0.2103,0.7366 0.7678,0.477 0.2478,-0.1154 0.4623,-0.1251 0.6128,-0.0297 0.6467,0.4281 1.516,-0.0518 1.5367,-0.8434 0.0052,-0.1978 0.1318,-0.3621 0.3169,-0.4182 0.416,-0.111 0.8977,0.191 0.8129,0.5087 -0.0345,0.1514 0.0351,0.4121 0.1531,0.5828 0.1924,0.2487 0.4354,0.316 1.5202,0.3748 1.1306,0.0599 1.3148,0.0343 1.4592,-0.2209 0.0804,-0.1502 0.1636,-0.407 0.168,-0.5744 0.0044,-0.1674 0.1789,-0.4066 0.3965,-0.538 0.2643,-0.1606 0.3926,-0.3858 0.3998,-0.6598 0.0067,-0.2587 -0.1378,-0.5824 -0.3616,-0.8014 -0.4476,-0.4382 -0.4674,-0.85 -0.0486,-1.0675 0.2172,-0.1162 0.385,-0.0966 0.5955,0.046 0.4817,0.302 1.1318,0.0143 1.3464,-0.5894 0.3469,-0.981 0.9726,-0.9189 1.2827,0.0944 0.1837,0.5837 0.5306,0.7755 1.2226,0.6412 0.492,-0.0937 0.8992,0.1301 0.8893,0.5107 -0.0032,0.1218 -0.1793,0.4218 -0.4001,0.675 -0.2204,0.2379 -0.3966,0.538 -0.3993,0.6445 -0.0028,0.1066 0.1574,0.4154 0.3651,0.6645 0.2073,0.2644 0.3679,0.558 0.3648,0.6797 -0.0032,0.1218 0.0825,0.3525 0.2009,0.5079 0.1618,0.2479 0.4201,0.3156 1.4437,0.3728 1.1153,0.0596 1.2537,0.0328 1.4757,-0.2661 0.1271,-0.1795 0.2409,-0.4354 0.2445,-0.5724 0.0036,-0.137 0.1158,-0.3321 0.2408,-0.4354 0.3279,-0.2504 1.0232,0.0724 0.9674,0.4517 -0.0341,0.1362 0.0199,0.4118 0.1221,0.5972 0.1603,0.3089 0.2971,0.3429 1.0929,0.3332 1.1785,-0.0149 1.4626,0.2362 0.852,0.7686 -0.5321,0.4583 -0.5621,1.0211 -0.0695,1.4909 0.716,0.70412 0.3351,1.22729 -0.7464,1.04674 -0.6092,-0.1073 -0.717,-0.07965 -0.9547,0.23401 -0.1428,0.19428 -0.2566,0.45026 -0.2593,0.55681 -0.0032,0.12176 -0.179,0.40658 -0.3998,0.65975 -0.2204,0.23795 -0.3965,0.53799 -0.3997,0.65977 -0.0032,0.12177 0.1579,0.40014 0.3664,0.61883 0.2084,0.21869 0.3691,0.51228 0.3651,0.6645 -0.0151,0.57841 0.3455,0.83153 1.0814,0.77459 0.3834,-0.03568 0.8107,0.00594 0.9463,0.08564 0.3618,0.20746 0.2871,0.72339 -0.1654,1.0619 -0.2494,0.17627 -0.3942,0.44666 -0.4009,0.70543 -0.0064,0.24354 0.1381,0.56718 0.3619,0.78627 0.2089,0.20346 0.3707,0.4514 0.3679,0.55795 -0.0083,0.31964 -0.5176,0.489128 -1.1727,0.380635 -0.6703,-0.108895 -1.0754,0.169933 -1.1846,0.837281 -0.0385,0.303629 -0.1475,0.376942 -0.4992,0.36776 -0.3669,-0.009581 -0.472,-0.088483 -0.5546,-0.440971 -0.1789,-0.76626 -0.3451,-0.846755 -1.6905,-0.881885 -1.3608,-0.03553 -1.6391,0.07905 -1.6538,0.642247 -0.006,0.228319 -0.1661,0.4983084 -0.4002,0.674978 C 29.921,0.601917 29.9027,1.30211 30.4138,1.65055 30.91,1.98337 30.8957,2.53134 30.3852,2.74649 30.153,2.84705 29.9692,2.85748 29.9257,2.76495 29.7792,2.51742 29.059,2.55954 28.7456,2.84077 c -0.1564,0.133 -0.2855,0.38856 -0.2903,0.57122 -0.0051,0.19788 -0.1801,0.45225 -0.3977,0.58366 -0.4662,0.27723 -0.5052,0.59608 -0.1301,0.88004 0.1501,0.11055 0.3264,0.38932 0.3664,0.61884 0.1506,0.67413 0.5108,0.94248 1.1711,0.85309 0.3222,-0.03728 0.6892,-0.0277 0.8103,0.02116 0.3026,0.12975 0.3,0.81512 0.0067,0.91408 -0.1235,0.04247 -0.3133,0.28122 -0.4114,0.52237 -0.1625,0.36132 -0.166,0.49832 0.0397,0.82355 0.132,0.2167 0.3111,0.38892 0.3876,0.39092 0.0917,0.00239 0.1485,0.17142 0.1429,0.38452 -0.0147,0.56319 0.523,1.06468 1.0158,0.94048 0.2306,-0.0397 0.5223,-0.0778 0.6446,-0.0746 0.1223,0.0032 0.4116,0.0564 0.6397,0.1081 0.4857,0.1498 1.0489,-0.323 1.0636,-0.88615 0.0071,-0.27399 0.1173,-0.39296 0.3945,-0.46189 0.4309,-0.09537 0.8973,0.20622 0.767,0.50745 -0.0486,0.10535 0.0517,0.36691 0.2143,0.58439 0.3107,0.4042 0.7819,0.5231 1.1858,0.2899 0.5595,-0.3357 1.0422,0.5146 0.5117,0.912 -0.4534,0.369 -0.5703,0.7467 -0.3988,1.2082 0.1007,0.2463 0.2629,0.479 0.384,0.5279 0.2877,0.1141 0.2546,0.7987 -0.0544,0.9125 -0.1235,0.0424 -0.5057,0.0325 -0.8409,-0.022 -0.6547,-0.1237 -1.0577,0.079 -1.0693,0.5204 -0.0039,0.1523 -0.1805,0.4675 -0.3856,0.7059 -0.5832,0.6549 -0.6217,0.9586 -0.2067,1.472 0.2077,0.2492 0.3683,0.5428 0.3659,0.6341 -0.0087,0.3349 0.601,1.0058 0.9068,1.0137 0.1682,0.0044 0.4301,-0.0649 0.5858,-0.1674 0.2329,-0.131 0.3552,-0.1279 0.5347,0.0292 0.3288,0.2979 0.2907,0.5863 -0.1666,1.1075 -0.504,0.5504 -0.5143,0.9462 -0.0366,1.4004 0.4178,0.4069 0.4803,0.9417 0.1251,1.0695 -0.1388,0.042 -0.5363,0.0317 -0.9021,-0.0236 -0.5786,-0.1065 -0.6868,-0.0636 -0.9241,0.2348 -0.1427,0.1943 -0.2569,0.4655 -0.2605,0.6025 -0.0036,0.137 -0.1158,0.3321 -0.2565,0.4503 -0.3436,0.2652 -0.7038,-0.0032 -0.8407,-0.616 -0.1515,-0.6437 -0.4236,-0.7727 -1.7079,-0.8062 -1.1467,-0.03 -1.6109,0.1712 -1.6256,0.7344 -0.0044,0.1674 -0.1801,0.4522 -0.3993,0.6445 -0.2192,0.1923 -0.3958,0.5075 -0.4009,0.7054 -0.0052,0.1979 0.1546,0.5219 0.3635,0.7254 0.2089,0.2035 0.3695,0.4971 0.366,0.6341 -0.0104,0.3957 -0.5523,0.6405 -0.9136,0.4178 -0.1662,-0.0805 -0.4089,-0.163 -0.5312,-0.1661 -0.3669,-0.0096 -0.8709,0.5408 -0.8816,0.9518 -0.0187,0.7154 -0.9964,0.6594 -1.1149,-0.0748 -0.148,-0.7807 -0.9468,-1.2433 -1.4174,-0.7986 -0.251,0.2371 -0.8075,-0.1277 -0.7972,-0.5235 0.0044,-0.1674 0.1805,-0.4675 0.3997,-0.6598 0.2192,-0.1923 0.395,-0.4771 0.3998,-0.6597 0.0047,-0.1827 -0.1559,-0.4763 -0.3648,-0.6797 -0.2089,-0.2035 -0.3691,-0.5123 -0.3643,-0.695 0.0135,-0.5175 -0.5403,-0.9889 -1.0175,-0.8795 -0.523,0.1082 -0.7676,0.1018 -1.2843,-0.0336 -0.486,-0.1345 -1.0488,0.323 -1.0631,0.8709 -0.0107,0.411 -0.4138,0.6137 -0.8222,0.4355 -0.1364,-0.0492 -0.3268,-0.3741 -0.3949,-0.6957 -0.0834,-0.3221 -0.1982,-0.6145 -0.2594,-0.616 -0.0607,-0.0169 -0.6409,-0.0625 -1.2827,-0.0945 l -1.1917,-0.0615 -0.0127,0.487 c -0.0096,0.3654 -0.1218,0.5604 -0.4018,0.7359 -0.2333,0.1462 -0.3925,0.3858 -0.3981,0.5989 -0.0056,0.2131 0.1531,0.5828 0.3608,0.8319 0.4596,0.5604 0.4529,0.8191 0.0333,1.0671 -0.2333,0.1462 -0.3713,0.1579 -0.4904,0.0329 -0.0894,-0.0937 -0.3473,-0.1766 -0.5766,-0.1826 -0.4434,-0.0116 -0.9144,0.4483 -0.926,0.8897 -0.0035,0.137 -0.1789,0.4066 -0.3981,0.5989 -0.2192,0.1923 -0.3937,0.4314 -0.3965,0.538 -0.0096,0.3653 0.3262,0.9833 0.5402,0.9889 0.1071,0.0028 0.1948,0.1574 0.1897,0.3553 -0.0179,0.685 0.327,0.9529 1.3055,0.9785 0.8103,0.0211 0.886,0.0536 0.9235,0.3744 0.0246,0.2291 -0.1045,0.4847 -0.3551,0.7066 -0.5164,0.4435 -0.5303,0.9763 -0.053,1.4457 0.4475,0.4381 0.469,0.789 0.0494,1.037 -0.2329,0.131 -0.3705,0.1274 -0.5814,10e-5 -0.1654,-0.111 -0.4551,-0.149 -0.6703,-0.1089 -0.3541,0.0821 -0.5125,0.2912 -0.8269,1.1969 -0.0663,0.1963 -0.2208,0.2532 -0.5105,0.2152 -0.3355,-0.0393 -0.4394,-0.1638 -0.5047,-0.592 -0.1205,-0.6581 -0.5101,-0.9729 -1.1095,-0.8667 -0.5991,0.091 -0.6908,0.0886 -1.1922,-0.0464 -0.5014,-0.1349 -1.0315,0.2472 -1.0443,0.7343 -0.0047,0.1827 -0.19614,0.4823 -0.40007,0.675 -0.50118,0.4439 -0.5135,0.9157 -0.03617,1.3852 0.73094,0.7197 0.34885,1.2885 -0.748,1.1076 C 8.29267,36.1365 8.18485,36.1641 7.94717,36.4778 7.8044,36.6721 7.69022,36.9433 7.68664,37.0803 7.68306,37.2173 7.52461,37.4264 7.32227,37.5582 7.01132,37.7481 6.93487,37.7461 6.63465,37.525 6.45436,37.3984 6.30782,37.1509 6.31299,36.953 6.3273,36.405 5.8319,36.0418 5.17168,36.1312 4.09666,36.2859 3.70014,35.651 4.45072,35.0309 4.93542,34.6323 4.96581,34.0543 4.54884,33.6169 4.37014,33.4294 4.18091,33.0589 4.09673,32.7673 3.95894,32.1849 3.44507,31.943 2.873,32.1718 2.65617,32.2728 2.41154,32.2664 2.20028,32.1542 1.61075,31.8799 1.11514,32.1107 0.914573,32.7604 0.814492,33.0777 0.637966,33.3929 0.499169,33.435 c -0.324253,0.1134 -0.821248,-0.189 -0.812902,-0.5087 0.003974,-0.1522 -0.095895,-0.429 -0.228333,-0.6304 -0.220991,-0.3257 -0.327223,-0.3589 -0.941184,-0.2835 -1.07382,0.109 -1.51541,-0.5575 -0.69156,-1.0539 0.52858,-0.3213 0.54686,-1.0214 0.03895,-1.4916 -0.7172,-0.6585 -0.23984,-1.3619 0.68366,-0.9875 0.37826,0.1622 0.516262,0.1506 0.858189,-0.0537 0.218024,-0.1467 0.408253,-0.4006 0.413022,-0.5833 0.004372,-0.1674 0.18050449,-0.4675 0.399719,-0.6598 0.50118,-0.4438 0.516283,-1.0222 0.038949,-1.4917 -0.2088814,-0.2034 -0.369514,-0.497 -0.365143,-0.6645 0.0143082,-0.5479 -0.497578,-0.8659 -1.249536,-0.7789 -0.47595,0.0637 -0.71979,0.0269 -0.83813,-0.1285 -0.1779,-0.2179 -0.05379,-0.8697 0.16026,-0.8641 0.07645,0.002 0.249,-0.161 0.37648,-0.3557 0.222,-0.2988 0.22558,-0.4358 0.08024,-0.729 -0.10186,-0.2007 -0.26408,-0.4334 -0.36912,-0.5123 -0.08935,-0.0937 -0.21861,-0.417 -0.27142,-0.7382 -0.07782,-0.5352 -0.1225,-0.582 -0.41538,-0.4983 -0.30857,0.0986 -0.66062,0.1046 -1.5462,0.0358 -0.39712,-0.0256 -0.86773,0.4191 -0.87846,0.83 -0.00516,0.1979 -0.14873,0.4226 -0.33458,0.5092 -0.40349,0.2179 -0.85223,-0.1746 -0.91357,-0.755 -0.04725,-0.5343 -0.6054,-0.8383 -1.19196,-0.6404 -0.27759,0.0841 -0.52221,0.0778 -0.73348,-0.0344 -0.52758,-0.3032 -1.49101,0.2657 -1.30616,0.8037 0.02859,0.0769 -0.13066,0.3164 -0.34988,0.5087 -0.50114,0.4439 -0.51584,1.0071 -0.02485,1.5378 0.65445,0.7177 0.17908,1.345 -0.74439,0.9706 -0.5755,-0.2283 -1.2135,0.1816 -1.2294,0.7904 -0.0079,0.3044 -0.104,0.4695 -0.3196,0.5248 -0.4317,0.1258 -0.9126,-0.2066 -0.9015,-0.6328 0.0159,-0.6089 -0.3749,-0.878 -1.2632,-0.8403 -0.7198,0.0269 -0.7802,-0.0051 -0.8177,-0.326 -0.0254,-0.1987 0.1209,-0.5299 0.3413,-0.7679 0.4416,-0.5063 0.4274,-1.1312 -0.0238,-1.4324 -0.1654,-0.1109 -0.2821,-0.3272 -0.2773,-0.5099 0.0182,-0.7002 -1.0071,-1.2753 -1.4777,-0.8306 -0.1412,0.1334 -0.2329,0.131 -0.367,-0.0096 -0.4765,-0.4999 -1.4999,0.0218 -1.5194,0.7676 -0.0071,0.274 -0.1173,0.393 -0.3792,0.4623 -0.4925,0.109 -0.6426,-0.0016 -0.7667,-0.5227 -0.1773,-0.8271 -0.8252,-1.2096 -1.4157,-0.8595 -0.3262,0.1895 -0.7778,-0.0964 -0.7674,-0.4922 0.0043,-0.1674 0.1805,-0.4675 0.3997,-0.6597 0.5008,-0.4287 0.5123,-0.8701 0.0357,-1.37 -0.2084,-0.2187 -0.3687,-0.5275 -0.3647,-0.6797 0.0111,-0.4262 0.5216,-0.6413 0.99,-0.4159 0.4833,0.2411 1.1197,-0.1078 1.2732,-0.7131 0.0672,-0.2267 0.2433,-0.5267 0.4002,-0.675 0.3917,-0.3553 0.3955,-1.0863 0.0204,-1.3703 -0.165,-0.1261 -0.3405,-0.4354 -0.3796,-0.6953 -0.1201,-0.6734 -0.3906,-0.8632 -1.097,-0.7598 -0.3376,0.0369 -0.7198,0.0269 -0.841,-0.0219 -0.3786,-0.147 -0.269,-0.8296 0.1679,-1.1533 0.4991,-0.3677 0.5135,-0.9157 0.0341,-1.30902 -0.464,-0.39291 -0.4932,-1.0334 -0.0466,-1.1436 0.1694,-0.04127 0.5045,0.01318 0.7621,0.11129 0.3633,0.14658 0.4861,0.13455 0.7523,-0.10221 0.1875,-0.14742 0.3322,-0.41781 0.337,-0.60047 0.0123,-0.47186 0.3864,-0.73627 0.8572,-0.60212 0.243,0.06727 0.3771,0.20786 0.3715,0.42096 -0.0195,0.74585 0.717,1.25249 1.3526,0.93399 0.2015,-0.10136 0.4003,-0.09617 0.6719,0.048 0.5292,0.2423 1.1173,-0.01652 1.2692,-0.56089 0.0672,-0.22673 0.2915,-0.61689 0.4967,-0.85525 0.4098,-0.46148 0.3896,-0.85803 -0.0858,-1.40356 -0.3268,-0.37409 -0.3584,-0.92326 -0.0498,-1.02183 0.1082,-0.04287 0.4904,-0.03289 0.8409,0.02196 0.7162,0.11009 1.0887,-0.09343 1.1026,-0.62618 0.0056,-0.2131 0.1648,-0.45265 0.3982,-0.59887 0.4976,-0.30688 0.5095,-0.76352 0.0262,-1.00461 -0.272,-0.12896 -0.3747,-0.29919 -0.3667,-0.60362 0.0163,-0.62408 -0.6003,-1.0362 -1.2335,-0.80902 -0.9418,0.32574 -1.3669,-0.386025 -0.6304,-1.052224 0.5012,-0.443869 0.5147,-0.961392 0.0405,-1.552576 -0.2077,-0.24914 -0.3671,-0.5884 -0.3627,-0.75583 0.004,-0.15222 -0.1888,-0.38573 -0.4452,-0.5295 -0.3618,-0.20746 -0.4994,-0.21106 -0.7633,-0.06563 -0.2486,0.14582 -0.3709,0.14263 -0.6115,-0.01597 -0.1658,-0.09572 -0.3775,-0.19264 -0.4845,-0.19543 -0.3211,-0.00838 -0.9039,0.63136 -0.913,0.98146 -0.0052,0.19787 -0.1488,0.4226 -0.3346,0.50914 -0.4031,0.20272 -0.8225,-0.14333 -0.9289,-0.75538 -0.1068,-0.59683 -0.6042,-0.88399 -1.1758,-0.67044 -0.8658,0.34296 -1.2121,-0.45813 -0.4905,-1.13995 0.502,-0.47431 0.5092,-0.7483 0.0326,-1.24815 -0.3872,-0.40614 -0.4908,-1.12474 -0.1536,-1.1464 0.0921,-0.01283 0.5206,-0.01687 0.9491,-0.02091 0.719,0.00354 0.7656,-0.02571 0.9305,-0.47836 0.0989,-0.27159 0.3381,-0.64613 0.5268,-0.83922 0.4557,-0.46029 0.4551,-1.02388 -0.0074,-1.47767 -0.2088,-0.20347 -0.3691,-0.51229 -0.3639,-0.71016 0.0131,-0.50235 -0.6646,-0.91605 -1.1594,-0.71575 -0.9128,0.3875 -1.3186,-0.4761 -0.5512,-1.1567 0.2192,-0.1923 0.3946,-0.4619 0.3989,-0.6294 0.004,-0.1522 -0.1566,-0.4458 -0.3655,-0.6492 -0.4326,-0.4226 -0.4573,-0.6517 -0.129,-0.9173 0.1874,-0.1474 0.325,-0.1438 0.688,0.018 0.3782,0.1622 0.5158,0.1657 0.8425,-0.039 0.2023,-0.1318 0.4396,-0.4302 0.4914,-0.6573 0.2375,-0.8925 1.0334,-0.9022 1.1789,-0.0302 0.1205,0.6581 0.5093,1.0034 0.9864,0.894 0.5078,-0.1086 0.7524,-0.1022 1.2538,0.0327 0.3038,0.0841 0.4888,0.028 0.7402,-0.2244 0.1733,-0.1934 0.333,-0.4482 0.3366,-0.5852 0.0039,-0.1522 0.1797,-0.437 0.3997,-0.6598 0.4875,-0.5051 0.4926,-0.703 0.0334,-1.2786 -0.4295,-0.5443 -0.4545,-0.7582 -0.1086,-1.1147 0.2361,-0.2528 0.2972,-0.2512 0.6892,-0.0277 0.3923,0.2082 0.4841,0.2106 0.8264,-0.0089 0.2176,-0.1314 0.3926,-0.3858 0.3977,-0.5837 0.0048,-0.1826 0.1496,-0.453 0.306,-0.586 0.2506,-0.2219 0.3424,-0.2196 0.6132,-0.0449 0.1807,0.1113 0.3123,0.3432 0.3076,0.5259 -0.0044,0.1674 0.1558,0.4762 0.3647,0.6797 0.3131,0.3128 0.41936,0.3461 0.7597,0.2026 0.60343,-0.2584 0.83158,-0.2067 1.01881,0.2399 0.14415,0.3388 0.12648,0.4298 -0.24921,0.755 -0.53215,0.4583 -0.54567,0.9759 -0.07032,1.5214 0.20809,0.2339 0.36832,0.5427 0.36475,0.6797 -0.01272,0.4871 0.44079,0.6969 1.5718,0.7417 1.19216,0.0464 1.62542,-0.1403 1.64132,-0.7492 0.00517,-0.1979 0.14873,-0.4226 0.3193,-0.5095 0.44975,-0.232 0.91855,-0.0217 0.90822,0.374 -0.00517,0.1979 0.0939,0.5051 0.22634,0.7066 0.22139,0.3104 0.32722,0.3589 0.9106,0.2827 0.39871,-0.0353 0.84131,0.0067 1.06786,0.1193 0.42294,0.209 0.67233,0.0328 0.68704,-0.5304 0.00397,-0.1522 0.17971,-0.4371 0.398924,-0.6293 0.219217,-0.1923 0.394949,-0.4772 0.399718,-0.6598 0.004769,-0.1827 -0.15586,-0.4763 -0.364743,-0.6797 -0.208879,-0.2035 -0.369119,-0.5123 -0.364749,-0.6798 0.01113,-0.4262 0.522833,-0.687 0.914789,-0.4635 0.1661949,0.0805 0.408835,0.163 0.531148,0.1662 0.305787,0.008 0.871703,-0.5713 0.880043,-0.8909 0.00358,-0.137 0.17892,-0.4066 0.39813,-0.5989 0.21922,-0.1923 0.39495,-0.4771 0.39892,-0.6293 0.00398,-0.1522 -0.15625,-0.4611 -0.36474,-0.6797 -0.20848,-0.2187 -0.36872,-0.5275 -0.36474,-0.6798 0.01709,-0.6545 -1.008673,-1.2144 -1.463588,-0.7845 -0.235299,0.2223 -0.806352,-0.1734 -0.796422,-0.5539 0.00398,-0.1523 0.17971,-0.4371 0.398927,-0.6294 0.219216,-0.1922 0.395743,-0.5075 0.401307,-0.7206 0.005564,-0.2131 -0.139775,-0.5063 -0.364743,-0.6797 -0.418961,-0.3613 -0.481891,-0.8808 -0.111374,-1.0082 0.139195,-0.0573 0.475559,-0.0485 0.7491748,0.0195 0.6542602,0.139 1.1196882,-0.1078 1.2880882,-0.6975 0.20215,-0.7106 0.60444,-0.8829 0.97475,-0.4162 0.14772,0.2018 0.27777,0.4946 0.2738,0.6469 -0.01073,0.4109 0.71401,0.7802 1.16296,0.5787 0.24741,-0.1002 0.46147,-0.0946 0.73349,0.0343 0.52877,0.2576 1.11612,0.0292 1.25235,-0.5004 0.06711,-0.2267 0.2915,-0.6169 0.49622,-0.84 0.47338,-0.5512 0.47041,-1.0235 0.00797,-1.4773 -0.44755,-0.4381 -0.45767,-0.6364 -0.0663,-0.9765 0.2349,-0.2071 0.35762,-0.2192 0.69001,-0.0582 0.52876,0.2575 1.11651,0.014 1.26882,-0.5456 0.21982,-0.8016 0.62291,-1.0043 1.05437,-0.5361 z"
           fill="#ffffff"
           id="path482" />
        <path
           d="m 9.17682,-29.3675 c 0.13443,0.1254 0.23549,0.3565 0.23231,0.4783 -0.0159,0.6088 0.88997,1.0742 1.31347,0.674 0.251,-0.2372 0.8076,0.1277 0.7976,0.5082 -0.0048,0.1827 -0.1487,0.4226 -0.3205,0.5552 -0.5004,0.4135 -0.5774,1.0207 -0.1596,1.4277 0.2088,0.2034 0.4141,0.5439 0.4693,0.7738 0.1221,0.5972 0.7089,0.9781 1.1429,0.761 0.2479,-0.1154 0.4623,-0.1251 0.8104,0.0211 0.3939,0.1474 0.5472,0.1362 0.8746,-0.099 0.2185,-0.1618 0.4099,-0.4615 0.446,-0.6738 0.0382,-0.2884 0.1797,-0.437 0.4412,-0.4911 0.3847,-0.0814 0.882,0.2058 0.7232,0.4301 -0.1275,0.1947 0.1954,0.721 0.5418,0.9281 0.2262,0.1277 0.425,0.1329 0.7649,0.0047 0.8657,-0.3429 1.212,0.4582 0.4904,1.14 -0.2196,0.2075 -0.3949,0.4771 -0.3981,0.5989 -0.0032,0.1217 0.1571,0.4305 0.3648,0.6797 0.4145,0.5287 0.4779,1.033 0.1226,1.1608 -0.1388,0.0421 -0.5363,0.0317 -0.902,-0.0236 -0.5786,-0.1065 -0.6869,-0.0636 -0.9241,0.2349 -0.1428,0.1942 -0.257,0.4654 -0.261,0.6176 -0.0035,0.137 -0.1,0.3173 -0.2087,0.3754 -0.5744,0.3201 -0.6179,1.4004 -0.0578,1.6283 0.1211,0.0488 0.2085,0.2187 0.2041,0.3861 -0.0043,0.1674 0.1555,0.4915 0.3479,0.7402 0.3409,0.4202 0.3868,0.4214 0.9267,0.2527 0.9571,-0.3254 1.352,0.3704 0.5845,1.051 -0.2192,0.1923 -0.3949,0.4771 -0.3989,0.6293 -0.0111,0.4262 0.2522,0.89 0.5121,0.8968 0.1529,0.004 0.2249,0.1735 0.2158,0.5236 -0.0159,0.6088 0.2103,0.7366 0.7678,0.477 0.2478,-0.1154 0.4623,-0.1251 0.6128,-0.0297 0.6467,0.4281 1.516,-0.0518 1.5367,-0.8434 0.0052,-0.1978 0.1318,-0.3621 0.3169,-0.4182 0.416,-0.111 0.8977,0.191 0.8129,0.5087 -0.0345,0.1514 0.0351,0.4121 0.1531,0.5828 0.1924,0.2487 0.4354,0.316 1.5202,0.3748 1.1306,0.0599 1.3148,0.0343 1.4592,-0.2209 0.0804,-0.1502 0.1636,-0.407 0.168,-0.5744 0.0044,-0.1674 0.1789,-0.4066 0.3965,-0.538 0.2643,-0.1606 0.3926,-0.3858 0.3998,-0.6598 0.0067,-0.2587 -0.1378,-0.5824 -0.3616,-0.8014 -0.4476,-0.4382 -0.4674,-0.85 -0.0486,-1.0675 0.2172,-0.1162 0.385,-0.0966 0.5955,0.046 0.4817,0.302 1.1318,0.0143 1.3464,-0.5894 0.3469,-0.981 0.9726,-0.9189 1.2827,0.0944 0.1837,0.5837 0.5306,0.7755 1.2226,0.6412 0.492,-0.0937 0.8992,0.1301 0.8893,0.5107 -0.0032,0.1218 -0.1793,0.4218 -0.4001,0.675 -0.2204,0.2379 -0.3966,0.538 -0.3993,0.6445 -0.0028,0.1066 0.1574,0.4154 0.3651,0.6645 0.2073,0.2644 0.3679,0.558 0.3648,0.6797 -0.0032,0.1218 0.0825,0.3525 0.2009,0.5079 0.1618,0.2479 0.4201,0.3156 1.4437,0.3728 1.1153,0.0596 1.2537,0.0328 1.4757,-0.2661 0.1271,-0.1795 0.2409,-0.4354 0.2445,-0.5724 0.0036,-0.137 0.1158,-0.3321 0.2408,-0.4354 0.3279,-0.2504 1.0232,0.0724 0.9674,0.4517 -0.0341,0.1362 0.0199,0.4118 0.1221,0.5972 0.1603,0.3089 0.2971,0.3429 1.0929,0.3332 1.1785,-0.0149 1.4626,0.2362 0.852,0.7686 -0.5321,0.4583 -0.5621,1.0211 -0.0695,1.4909 0.716,0.70412 0.3351,1.22729 -0.7464,1.04674 -0.6092,-0.1073 -0.717,-0.07965 -0.9547,0.23401 -0.1428,0.19428 -0.2566,0.45026 -0.2593,0.55681 -0.0032,0.12176 -0.179,0.40658 -0.3998,0.65975 -0.2204,0.23795 -0.3965,0.53799 -0.3997,0.65977 -0.0032,0.12177 0.1579,0.40014 0.3664,0.61883 0.2084,0.21869 0.3691,0.51228 0.3651,0.6645 -0.0151,0.57841 0.3455,0.83153 1.0814,0.77459 0.3834,-0.03568 0.8107,0.00594 0.9463,0.08564 0.3618,0.20746 0.2871,0.72339 -0.1654,1.0619 -0.2494,0.17627 -0.3942,0.44666 -0.4009,0.70543 -0.0064,0.24354 0.1381,0.56718 0.3619,0.78627 0.2089,0.20346 0.3707,0.4514 0.3679,0.55795 -0.0083,0.31964 -0.5176,0.489128 -1.1727,0.380635 -0.6703,-0.108895 -1.0754,0.169933 -1.1846,0.837281 -0.0385,0.303629 -0.1475,0.376942 -0.4992,0.36776 -0.3669,-0.009581 -0.472,-0.088483 -0.5546,-0.440971 -0.1789,-0.76626 -0.3451,-0.846755 -1.6905,-0.881885 -1.3608,-0.03553 -1.6391,0.07905 -1.6538,0.642247 -0.006,0.228319 -0.1661,0.4983084 -0.4002,0.674978 C 29.921,0.601917 29.9027,1.30211 30.4138,1.65055 30.91,1.98337 30.8957,2.53134 30.3852,2.74649 30.153,2.84705 29.9692,2.85748 29.9257,2.76495 29.7792,2.51742 29.059,2.55954 28.7456,2.84077 c -0.1564,0.133 -0.2855,0.38856 -0.2903,0.57122 -0.0051,0.19788 -0.1801,0.45225 -0.3977,0.58366 -0.4662,0.27723 -0.5052,0.59608 -0.1301,0.88004 0.1501,0.11055 0.3264,0.38932 0.3664,0.61884 0.1506,0.67413 0.5108,0.94248 1.1711,0.85309 0.3222,-0.03728 0.6892,-0.0277 0.8103,0.02116 0.3026,0.12975 0.3,0.81512 0.0067,0.91408 -0.1235,0.04247 -0.3133,0.28122 -0.4114,0.52237 -0.1625,0.36132 -0.166,0.49832 0.0397,0.82355 0.132,0.2167 0.3111,0.38892 0.3876,0.39092 0.0917,0.00239 0.1485,0.17142 0.1429,0.38452 -0.0147,0.56319 0.523,1.06468 1.0158,0.94048 0.2306,-0.0397 0.5223,-0.0778 0.6446,-0.0746 0.1223,0.0032 0.4116,0.0564 0.6397,0.1081 0.4857,0.1498 1.0489,-0.323 1.0636,-0.88615 0.0071,-0.27399 0.1173,-0.39296 0.3945,-0.46189 0.4309,-0.09537 0.8973,0.20622 0.767,0.50745 -0.0486,0.10535 0.0517,0.36691 0.2143,0.58439 0.3107,0.4042 0.7819,0.5231 1.1858,0.2899 0.5595,-0.3357 1.0422,0.5146 0.5117,0.912 -0.4534,0.369 -0.5703,0.7467 -0.3988,1.2082 0.1007,0.2463 0.2629,0.479 0.384,0.5279 0.2877,0.1141 0.2546,0.7987 -0.0544,0.9125 -0.1235,0.0424 -0.5057,0.0325 -0.8409,-0.022 -0.6547,-0.1237 -1.0577,0.079 -1.0693,0.5204 -0.0039,0.1523 -0.1805,0.4675 -0.3856,0.7059 -0.5832,0.6549 -0.6217,0.9586 -0.2067,1.472 0.2077,0.2492 0.3683,0.5428 0.3659,0.6341 -0.0087,0.3349 0.601,1.0058 0.9068,1.0137 0.1682,0.0044 0.4301,-0.0649 0.5858,-0.1674 0.2329,-0.131 0.3552,-0.1279 0.5347,0.0292 0.3288,0.2979 0.2907,0.5863 -0.1666,1.1075 -0.504,0.5504 -0.5143,0.9462 -0.0366,1.4004 0.4178,0.4069 0.4803,0.9417 0.1251,1.0695 -0.1388,0.042 -0.5363,0.0317 -0.9021,-0.0236 -0.5786,-0.1065 -0.6868,-0.0636 -0.9241,0.2348 -0.1427,0.1943 -0.2569,0.4655 -0.2605,0.6025 -0.0036,0.137 -0.1158,0.3321 -0.2565,0.4503 -0.3436,0.2652 -0.7038,-0.0032 -0.8407,-0.616 -0.1515,-0.6437 -0.4236,-0.7727 -1.7079,-0.8062 -1.1467,-0.03 -1.6109,0.1712 -1.6256,0.7344 -0.0044,0.1674 -0.1801,0.4522 -0.3993,0.6445 -0.2192,0.1923 -0.3958,0.5075 -0.4009,0.7054 -0.0052,0.1979 0.1546,0.5219 0.3635,0.7254 0.2089,0.2035 0.3695,0.4971 0.366,0.6341 -0.0104,0.3957 -0.5523,0.6405 -0.9136,0.4178 -0.1662,-0.0805 -0.4089,-0.163 -0.5312,-0.1661 -0.3669,-0.0096 -0.8709,0.5408 -0.8816,0.9518 -0.0187,0.7154 -0.9964,0.6594 -1.1149,-0.0748 -0.148,-0.7807 -0.9468,-1.2433 -1.4174,-0.7986 -0.251,0.2371 -0.8075,-0.1277 -0.7972,-0.5235 0.0044,-0.1674 0.1805,-0.4675 0.3997,-0.6598 0.2192,-0.1923 0.395,-0.4771 0.3998,-0.6597 0.0047,-0.1827 -0.1559,-0.4763 -0.3648,-0.6797 -0.2089,-0.2035 -0.3691,-0.5123 -0.3643,-0.695 0.0135,-0.5175 -0.5403,-0.9889 -1.0175,-0.8795 -0.523,0.1082 -0.7676,0.1018 -1.2843,-0.0336 -0.486,-0.1345 -1.0488,0.323 -1.0631,0.8709 -0.0107,0.411 -0.4138,0.6137 -0.8222,0.4355 -0.1364,-0.0492 -0.3268,-0.3741 -0.3949,-0.6957 -0.0834,-0.3221 -0.1982,-0.6145 -0.2594,-0.616 -0.0607,-0.0169 -0.6409,-0.0625 -1.2827,-0.0945 l -1.1917,-0.0615 -0.0127,0.487 c -0.0096,0.3654 -0.1218,0.5604 -0.4018,0.7359 -0.2333,0.1462 -0.3925,0.3858 -0.3981,0.5989 -0.0056,0.2131 0.1531,0.5828 0.3608,0.8319 0.4596,0.5604 0.4529,0.8191 0.0333,1.0671 -0.2333,0.1462 -0.3713,0.1579 -0.4904,0.0329 -0.0894,-0.0937 -0.3473,-0.1766 -0.5766,-0.1826 -0.4434,-0.0116 -0.9144,0.4483 -0.926,0.8897 -0.0035,0.137 -0.1789,0.4066 -0.3981,0.5989 -0.2192,0.1923 -0.3937,0.4314 -0.3965,0.538 -0.0096,0.3653 0.3262,0.9833 0.5402,0.9889 0.1071,0.0028 0.1948,0.1574 0.1897,0.3553 -0.0179,0.685 0.327,0.9529 1.3055,0.9785 0.8103,0.0211 0.886,0.0536 0.9235,0.3744 0.0246,0.2291 -0.1045,0.4847 -0.3551,0.7066 -0.5164,0.4435 -0.5303,0.9763 -0.053,1.4457 0.4475,0.4381 0.469,0.789 0.0494,1.037 -0.2329,0.131 -0.3705,0.1274 -0.5814,10e-5 -0.1654,-0.111 -0.4551,-0.149 -0.6703,-0.1089 -0.3541,0.0821 -0.5125,0.2912 -0.8269,1.1969 -0.0663,0.1963 -0.2208,0.2532 -0.5105,0.2152 -0.3355,-0.0393 -0.4394,-0.1638 -0.5047,-0.592 -0.1205,-0.6581 -0.5101,-0.9729 -1.1095,-0.8667 -0.5991,0.091 -0.6908,0.0886 -1.1922,-0.0464 -0.5014,-0.1349 -1.0315,0.2472 -1.0443,0.7343 -0.0047,0.1827 -0.19614,0.4823 -0.40007,0.675 -0.50118,0.4439 -0.5135,0.9157 -0.03617,1.3852 0.73094,0.7197 0.34885,1.2885 -0.748,1.1076 C 8.29267,36.1365 8.18485,36.1641 7.94717,36.4778 7.8044,36.6721 7.69022,36.9433 7.68664,37.0803 7.68306,37.2173 7.52461,37.4264 7.32227,37.5582 7.01132,37.7481 6.93487,37.7461 6.63465,37.525 6.45436,37.3984 6.30782,37.1509 6.31299,36.953 6.3273,36.405 5.8319,36.0418 5.17168,36.1312 4.09666,36.2859 3.70014,35.651 4.45072,35.0309 4.93542,34.6323 4.96581,34.0543 4.54884,33.6169 4.37014,33.4294 4.18091,33.0589 4.09673,32.7673 3.95894,32.1849 3.44507,31.943 2.873,32.1718 2.65617,32.2728 2.41154,32.2664 2.20028,32.1542 1.61075,31.8799 1.11514,32.1107 0.914573,32.7604 0.814492,33.0777 0.637966,33.3929 0.499169,33.435 c -0.324253,0.1134 -0.821248,-0.189 -0.812902,-0.5087 0.003974,-0.1522 -0.095895,-0.429 -0.228333,-0.6304 -0.220991,-0.3257 -0.327223,-0.3589 -0.941184,-0.2835 -1.07382,0.109 -1.51541,-0.5575 -0.69156,-1.0539 0.52858,-0.3213 0.54686,-1.0214 0.03895,-1.4916 -0.7172,-0.6585 -0.23984,-1.3619 0.68366,-0.9875 0.37826,0.1622 0.516262,0.1506 0.858189,-0.0537 0.218024,-0.1467 0.408253,-0.4006 0.413022,-0.5833 0.004372,-0.1674 0.18050449,-0.4675 0.399719,-0.6598 0.50118,-0.4438 0.516283,-1.0222 0.038949,-1.4917 -0.2088814,-0.2034 -0.369514,-0.497 -0.365143,-0.6645 0.0143082,-0.5479 -0.497578,-0.8659 -1.249536,-0.7789 -0.47595,0.0637 -0.71979,0.0269 -0.83813,-0.1285 -0.1779,-0.2179 -0.05379,-0.8697 0.16026,-0.8641 0.07645,0.002 0.249,-0.161 0.37648,-0.3557 0.222,-0.2988 0.22558,-0.4358 0.08024,-0.729 -0.10186,-0.2007 -0.26408,-0.4334 -0.36912,-0.5123 -0.08935,-0.0937 -0.21861,-0.417 -0.27142,-0.7382 -0.07782,-0.5352 -0.1225,-0.582 -0.41538,-0.4983 -0.30857,0.0986 -0.66062,0.1046 -1.5462,0.0358 -0.39712,-0.0256 -0.86773,0.4191 -0.87846,0.83 -0.00516,0.1979 -0.14873,0.4226 -0.33458,0.5092 -0.40349,0.2179 -0.85223,-0.1746 -0.91357,-0.755 -0.04725,-0.5343 -0.6054,-0.8383 -1.19196,-0.6404 -0.27759,0.0841 -0.52221,0.0778 -0.73348,-0.0344 -0.52758,-0.3032 -1.49101,0.2657 -1.30616,0.8037 0.02859,0.0769 -0.13066,0.3164 -0.34988,0.5087 -0.50114,0.4439 -0.51584,1.0071 -0.02485,1.5378 0.65445,0.7177 0.17908,1.345 -0.74439,0.9706 -0.5755,-0.2283 -1.2135,0.1816 -1.2294,0.7904 -0.0079,0.3044 -0.104,0.4695 -0.3196,0.5248 -0.4317,0.1258 -0.9126,-0.2066 -0.9015,-0.6328 0.0159,-0.6089 -0.3749,-0.878 -1.2632,-0.8403 -0.7198,0.0269 -0.7802,-0.0051 -0.8177,-0.326 -0.0254,-0.1987 0.1209,-0.5299 0.3413,-0.7679 0.4416,-0.5063 0.4274,-1.1312 -0.0238,-1.4324 -0.1654,-0.1109 -0.2821,-0.3272 -0.2773,-0.5099 0.0182,-0.7002 -1.0071,-1.2753 -1.4777,-0.8306 -0.1412,0.1334 -0.2329,0.131 -0.367,-0.0096 -0.4765,-0.4999 -1.4999,0.0218 -1.5194,0.7676 -0.0071,0.274 -0.1173,0.393 -0.3792,0.4623 -0.4925,0.109 -0.6426,-0.0016 -0.7667,-0.5227 -0.1773,-0.8271 -0.8252,-1.2096 -1.4157,-0.8595 -0.3262,0.1895 -0.7778,-0.0964 -0.7674,-0.4922 0.0043,-0.1674 0.1805,-0.4675 0.3997,-0.6597 0.5008,-0.4287 0.5123,-0.8701 0.0357,-1.37 -0.2084,-0.2187 -0.3687,-0.5275 -0.3647,-0.6797 0.0111,-0.4262 0.5216,-0.6413 0.99,-0.4159 0.4833,0.2411 1.1197,-0.1078 1.2732,-0.7131 0.0672,-0.2267 0.2433,-0.5267 0.4002,-0.675 0.3917,-0.3553 0.3955,-1.0863 0.0204,-1.3703 -0.165,-0.1261 -0.3405,-0.4354 -0.3796,-0.6953 -0.1201,-0.6734 -0.3906,-0.8632 -1.097,-0.7598 -0.3376,0.0369 -0.7198,0.0269 -0.841,-0.0219 -0.3786,-0.147 -0.269,-0.8296 0.1679,-1.1533 0.4991,-0.3677 0.5135,-0.9157 0.0341,-1.30902 -0.464,-0.39291 -0.4932,-1.0334 -0.0466,-1.1436 0.1694,-0.04127 0.5045,0.01318 0.7621,0.11129 0.3633,0.14658 0.4861,0.13455 0.7523,-0.10221 0.1875,-0.14742 0.3322,-0.41781 0.337,-0.60047 0.0123,-0.47186 0.3864,-0.73627 0.8572,-0.60212 0.243,0.06727 0.3771,0.20786 0.3715,0.42096 -0.0195,0.74585 0.717,1.25249 1.3526,0.93399 0.2015,-0.10136 0.4003,-0.09617 0.6719,0.048 0.5292,0.2423 1.1173,-0.01652 1.2692,-0.56089 0.0672,-0.22673 0.2915,-0.61689 0.4967,-0.85525 0.4098,-0.46148 0.3896,-0.85803 -0.0858,-1.40356 -0.3268,-0.37409 -0.3584,-0.92326 -0.0498,-1.02183 0.1082,-0.04287 0.4904,-0.03289 0.8409,0.02196 0.7162,0.11009 1.0887,-0.09343 1.1026,-0.62618 0.0056,-0.2131 0.1648,-0.45265 0.3982,-0.59887 0.4976,-0.30688 0.5095,-0.76352 0.0262,-1.00461 -0.272,-0.12896 -0.3747,-0.29919 -0.3667,-0.60362 0.0163,-0.62408 -0.6003,-1.0362 -1.2335,-0.80902 -0.9418,0.32574 -1.3669,-0.386025 -0.6304,-1.052224 0.5012,-0.443869 0.5147,-0.961392 0.0405,-1.552576 -0.2077,-0.24914 -0.3671,-0.5884 -0.3627,-0.75583 0.004,-0.15222 -0.1888,-0.38573 -0.4452,-0.5295 -0.3618,-0.20746 -0.4994,-0.21106 -0.7633,-0.06563 -0.2486,0.14582 -0.3709,0.14263 -0.6115,-0.01597 -0.1658,-0.09572 -0.3775,-0.19264 -0.4845,-0.19543 -0.3211,-0.00838 -0.9039,0.63136 -0.913,0.98146 -0.0052,0.19787 -0.1488,0.4226 -0.3346,0.50914 -0.4031,0.20272 -0.8225,-0.14333 -0.9289,-0.75538 -0.1068,-0.59683 -0.6042,-0.88399 -1.1758,-0.67044 -0.8658,0.34296 -1.2121,-0.45813 -0.4905,-1.13995 0.502,-0.47431 0.5092,-0.7483 0.0326,-1.24815 -0.3872,-0.40614 -0.4908,-1.12474 -0.1536,-1.1464 0.0921,-0.01283 0.5206,-0.01687 0.9491,-0.02091 0.719,0.00354 0.7656,-0.02571 0.9305,-0.47836 0.0989,-0.27159 0.3381,-0.64613 0.5268,-0.83922 0.4557,-0.46029 0.4551,-1.02388 -0.0074,-1.47767 -0.2088,-0.20347 -0.3691,-0.51229 -0.3639,-0.71016 0.0131,-0.50235 -0.6646,-0.91605 -1.1594,-0.71575 -0.9128,0.3875 -1.3186,-0.4761 -0.5512,-1.1567 0.2192,-0.1923 0.3946,-0.4619 0.3989,-0.6294 0.004,-0.1522 -0.1566,-0.4458 -0.3655,-0.6492 -0.4326,-0.4226 -0.4573,-0.6517 -0.129,-0.9173 0.1874,-0.1474 0.325,-0.1438 0.688,0.018 0.3782,0.1622 0.5158,0.1657 0.8425,-0.039 0.2023,-0.1318 0.4396,-0.4302 0.4914,-0.6573 0.2375,-0.8925 1.0334,-0.9022 1.1789,-0.0302 0.1205,0.6581 0.5093,1.0034 0.9864,0.894 0.5078,-0.1086 0.7524,-0.1022 1.2538,0.0327 0.3038,0.0841 0.4888,0.028 0.7402,-0.2244 0.1733,-0.1934 0.333,-0.4482 0.3366,-0.5852 0.0039,-0.1522 0.1797,-0.437 0.3997,-0.6598 0.4875,-0.5051 0.4926,-0.703 0.0334,-1.2786 -0.4295,-0.5443 -0.4545,-0.7582 -0.1086,-1.1147 0.2361,-0.2528 0.2972,-0.2512 0.6892,-0.0277 0.3923,0.2082 0.4841,0.2106 0.8264,-0.0089 0.2176,-0.1314 0.3926,-0.3858 0.3977,-0.5837 0.0048,-0.1826 0.1496,-0.453 0.306,-0.586 0.2506,-0.2219 0.3424,-0.2196 0.6132,-0.0449 0.1807,0.1113 0.3123,0.3432 0.3076,0.5259 -0.0044,0.1674 0.1558,0.4762 0.3647,0.6797 0.3131,0.3128 0.41936,0.3461 0.7597,0.2026 0.60343,-0.2584 0.83158,-0.2067 1.01881,0.2399 0.14415,0.3388 0.12648,0.4298 -0.24921,0.755 -0.53215,0.4583 -0.54567,0.9759 -0.07032,1.5214 0.20809,0.2339 0.36832,0.5427 0.36475,0.6797 -0.01272,0.4871 0.44079,0.6969 1.5718,0.7417 1.19216,0.0464 1.62542,-0.1403 1.64132,-0.7492 0.00517,-0.1979 0.14873,-0.4226 0.3193,-0.5095 0.44975,-0.232 0.91855,-0.0217 0.90822,0.374 -0.00517,0.1979 0.0939,0.5051 0.22634,0.7066 0.22139,0.3104 0.32722,0.3589 0.9106,0.2827 0.39871,-0.0353 0.84131,0.0067 1.06786,0.1193 0.42294,0.209 0.67233,0.0328 0.68704,-0.5304 0.00397,-0.1522 0.17971,-0.4371 0.398924,-0.6293 0.219217,-0.1923 0.394949,-0.4772 0.399718,-0.6598 0.004769,-0.1827 -0.15586,-0.4763 -0.364743,-0.6797 -0.208879,-0.2035 -0.369119,-0.5123 -0.364749,-0.6798 0.01113,-0.4262 0.522833,-0.687 0.914789,-0.4635 0.1661949,0.0805 0.408835,0.163 0.531148,0.1662 0.305787,0.008 0.871703,-0.5713 0.880043,-0.8909 0.00358,-0.137 0.17892,-0.4066 0.39813,-0.5989 0.21922,-0.1923 0.39495,-0.4771 0.39892,-0.6293 0.00398,-0.1522 -0.15625,-0.4611 -0.36474,-0.6797 -0.20848,-0.2187 -0.36872,-0.5275 -0.36474,-0.6798 0.01709,-0.6545 -1.008673,-1.2144 -1.463588,-0.7845 -0.235299,0.2223 -0.806352,-0.1734 -0.796422,-0.5539 0.00398,-0.1523 0.17971,-0.4371 0.398927,-0.6294 0.219216,-0.1922 0.395743,-0.5075 0.401307,-0.7206 0.005564,-0.2131 -0.139775,-0.5063 -0.364743,-0.6797 -0.418961,-0.3613 -0.481891,-0.8808 -0.111374,-1.0082 0.139195,-0.0573 0.475559,-0.0485 0.7491748,0.0195 0.6542602,0.139 1.1196882,-0.1078 1.2880882,-0.6975 0.20215,-0.7106 0.60444,-0.8829 0.97475,-0.4162 0.14772,0.2018 0.27777,0.4946 0.2738,0.6469 -0.01073,0.4109 0.71401,0.7802 1.16296,0.5787 0.24741,-0.1002 0.46147,-0.0946 0.73349,0.0343 0.52877,0.2576 1.11612,0.0292 1.25235,-0.5004 0.06711,-0.2267 0.2915,-0.6169 0.49622,-0.84 0.47338,-0.5512 0.47041,-1.0235 0.00797,-1.4773 -0.44755,-0.4381 -0.45767,-0.6364 -0.0663,-0.9765 0.2349,-0.2071 0.35762,-0.2192 0.69001,-0.0582 0.52876,0.2575 1.11651,0.014 1.26882,-0.5456 0.21982,-0.8016 0.62291,-1.0043 1.05437,-0.5361 z"
           fill="#a4c75c"
           id="path484" />
      </g>
    </g>
  </g>
  <defs
     id="defs798">
    <filter
       id="filter0_f_7_48"
       x="30.5"
       y="3.5"
       width="25"
       height="2"
       filterUnits="userSpaceOnUse"
       color-interpolation-filters="sRGB">
      <feFlood
         flood-opacity="0"
         result="BackgroundImageFix"
         id="feFlood490" />
      <feBlend
         mode="normal"
         in="SourceGraphic"
         in2="BackgroundImageFix"
         result="shape"
         id="feBlend492" />
      <feGaussianBlur
         stdDeviation="0.25"
         result="effect1_foregroundBlur_7_48"
         id="feGaussianBlur494" />
    </filter>
    <filter
       id="filter1_f_7_48"
       x="39.5"
       y="5.5"
       width="15"
       height="2"
       filterUnits="userSpaceOnUse"
       color-interpolation-filters="sRGB">
      <feFlood
         flood-opacity="0"
         result="BackgroundImageFix"
         id="feFlood497" />
      <feBlend
         mode="normal"
         in="SourceGraphic"
         in2="BackgroundImageFix"
         result="shape"
         id="feBlend499" />
      <feGaussianBlur
         stdDeviation="0.25"
         result="effect1_foregroundBlur_7_48"
         id="feGaussianBlur501" />
    </filter>
    <filter
       id="filter2_f_7_48"
       x="-5.5"
       y="39.5"
       width="25"
       height="2"
       filterUnits="userSpaceOnUse"
       color-interpolation-filters="sRGB">
      <feFlood
         flood-opacity="0"
         result="BackgroundImageFix"
         id="feFlood504" />
      <feBlend
         mode="normal"
         in="SourceGraphic"
         in2="BackgroundImageFix"
         result="shape"
         id="feBlend506" />
      <feGaussianBlur
         stdDeviation="0.25"
         result="effect1_foregroundBlur_7_48"
         id="feGaussianBlur508" />
    </filter>
    <filter
       id="filter3_f_7_48"
       x="3.5"
       y="41.5"
       width="15"
       height="2"
       filterUnits="userSpaceOnUse"
       color-interpolation-filters="sRGB">
      <feFlood
         flood-opacity="0"
         result="BackgroundImageFix"
         id="feFlood511" />
      <feBlend
         mode="normal"
         in="SourceGraphic"
         in2="BackgroundImageFix"
         result="shape"
         id="feBlend513" />
      <feGaussianBlur
         stdDeviation="0.25"
         result="effect1_foregroundBlur_7_48"
         id="feGaussianBlur515" />
    </filter>
    <filter
       id="filter4_f_7_48"
       x="8.5"
       y="44.5"
       width="25"
       height="2"
       filterUnits="userSpaceOnUse"
       color-interpolation-filters="sRGB">
      <feFlood
         flood-opacity="0"
         result="BackgroundImageFix"
         id="feFlood518" />
      <feBlend
         mode="normal"
         in="SourceGraphic"
         in2="BackgroundImageFix"
         result="shape"
         id="feBlend520" />
      <feGaussianBlur
         stdDeviation="0.25"
         result="effect1_foregroundBlur_7_48"
         id="feGaussianBlur522" />
    </filter>
    <filter
       id="filter5_f_7_48"
       x="17.5"
       y="46.5"
       width="30"
       height="2"
       filterUnits="userSpaceOnUse"
       color-interpolation-filters="sRGB">
      <feFlood
         flood-opacity="0"
         result="BackgroundImageFix"
         id="feFlood525" />
      <feBlend
         mode="normal"
         in="SourceGraphic"
         in2="BackgroundImageFix"
         result="shape"
         id="feBlend527" />
      <feGaussianBlur
         stdDeviation="0.25"
         result="effect1_foregroundBlur_7_48"
         id="feGaussianBlur529" />
    </filter>
    <filter
       id="filter6_f_7_48"
       x="28.5"
       y="15.5"
       width="25"
       height="2"
       filterUnits="userSpaceOnUse"
       color-interpolation-filters="sRGB">
      <feFlood
         flood-opacity="0"
         result="BackgroundImageFix"
         id="feFlood532" />
      <feBlend
         mode="normal"
         in="SourceGraphic"
         in2="BackgroundImageFix"
         result="shape"
         id="feBlend534" />
      <feGaussianBlur
         stdDeviation="0.25"
         result="effect1_foregroundBlur_7_48"
         id="feGaussianBlur536" />
    </filter>
    <filter
       id="filter7_f_7_48"
       x="37.5"
       y="17.5"
       width="15"
       height="2"
       filterUnits="userSpaceOnUse"
       color-interpolation-filters="sRGB">
      <feFlood
         flood-opacity="0"
         result="BackgroundImageFix"
         id="feFlood539" />
      <feBlend
         mode="normal"
         in="SourceGraphic"
         in2="BackgroundImageFix"
         result="shape"
         id="feBlend541" />
      <feGaussianBlur
         stdDeviation="0.25"
         result="effect1_foregroundBlur_7_48"
         id="feGaussianBlur543" />
    </filter>
    <filter
       id="filter8_f_7_48"
       x="22.5"
       y="8.5"
       width="25"
       height="2"
       filterUnits="userSpaceOnUse"
       color-interpolation-filters="sRGB">
      <feFlood
         flood-opacity="0"
         result="BackgroundImageFix"
         id="feFlood546" />
      <feBlend
         mode="normal"
         in="SourceGraphic"
         in2="BackgroundImageFix"
         result="shape"
         id="feBlend548" />
      <feGaussianBlur
         stdDeviation="0.25"
         result="effect1_foregroundBlur_7_48"
         id="feGaussianBlur550" />
    </filter>
    <filter
       id="filter9_f_7_48"
       x="31.5"
       y="10.5"
       width="15"
       height="2"
       filterUnits="userSpaceOnUse"
       color-interpolation-filters="sRGB">
      <feFlood
         flood-opacity="0"
         result="BackgroundImageFix"
         id="feFlood553" />
      <feBlend
         mode="normal"
         in="SourceGraphic"
         in2="BackgroundImageFix"
         result="shape"
         id="feBlend555" />
      <feGaussianBlur
         stdDeviation="0.25"
         result="effect1_foregroundBlur_7_48"
         id="feGaussianBlur557" />
    </filter>
    <filter
       id="filter10_f_7_48"
       x="19.5"
       y="24.5"
       width="25"
       height="2"
       filterUnits="userSpaceOnUse"
       color-interpolation-filters="sRGB">
      <feFlood
         flood-opacity="0"
         result="BackgroundImageFix"
         id="feFlood560" />
      <feBlend
         mode="normal"
         in="SourceGraphic"
         in2="BackgroundImageFix"
         result="shape"
         id="feBlend562" />
      <feGaussianBlur
         stdDeviation="0.25"
         result="effect1_foregroundBlur_7_48"
         id="feGaussianBlur564" />
    </filter>
    <filter
       id="filter11_f_7_48"
       x="28.5"
       y="26.5"
       width="15"
       height="2"
       filterUnits="userSpaceOnUse"
       color-interpolation-filters="sRGB">
      <feFlood
         flood-opacity="0"
         result="BackgroundImageFix"
         id="feFlood567" />
      <feBlend
         mode="normal"
         in="SourceGraphic"
         in2="BackgroundImageFix"
         result="shape"
         id="feBlend569" />
      <feGaussianBlur
         stdDeviation="0.25"
         result="effect1_foregroundBlur_7_48"
         id="feGaussianBlur571" />
    </filter>
    <filter
       id="filter12_f_7_48"
       x="27.5"
       y="30.5"
       width="25"
       height="2"
       filterUnits="userSpaceOnUse"
       color-interpolation-filters="sRGB">
      <feFlood
         flood-opacity="0"
         result="BackgroundImageFix"
         id="feFlood574" />
      <feBlend
         mode="normal"
         in="SourceGraphic"
         in2="BackgroundImageFix"
         result="shape"
         id="feBlend576" />
      <feGaussianBlur
         stdDeviation="0.25"
         result="effect1_foregroundBlur_7_48"
         id="feGaussianBlur578" />
    </filter>
    <filter
       id="filter13_f_7_48"
       x="36.5"
       y="32.5"
       width="15"
       height="2"
       filterUnits="userSpaceOnUse"
       color-interpolation-filters="sRGB">
      <feFlood
         flood-opacity="0"
         result="BackgroundImageFix"
         id="feFlood581" />
      <feBlend
         mode="normal"
         in="SourceGraphic"
         in2="BackgroundImageFix"
         result="shape"
         id="feBlend583" />
      <feGaussianBlur
         stdDeviation="0.25"
         result="effect1_foregroundBlur_7_48"
         id="feGaussianBlur585" />
    </filter>
    <filter
       id="filter14_f_7_48"
       x="2.5"
       y="28.5"
       width="25"
       height="2"
       filterUnits="userSpaceOnUse"
       color-interpolation-filters="sRGB">
      <feFlood
         flood-opacity="0"
         result="BackgroundImageFix"
         id="feFlood588" />
      <feBlend
         mode="normal"
         in="SourceGraphic"
         in2="BackgroundImageFix"
         result="shape"
         id="feBlend590" />
      <feGaussianBlur
         stdDeviation="0.25"
         result="effect1_foregroundBlur_7_48"
         id="feGaussianBlur592" />
    </filter>
    <filter
       id="filter15_f_7_48"
       x="11.5"
       y="30.5"
       width="15"
       height="2"
       filterUnits="userSpaceOnUse"
       color-interpolation-filters="sRGB">
      <feFlood
         flood-opacity="0"
         result="BackgroundImageFix"
         id="feFlood595" />
      <feBlend
         mode="normal"
         in="SourceGraphic"
         in2="BackgroundImageFix"
         result="shape"
         id="feBlend597" />
      <feGaussianBlur
         stdDeviation="0.25"
         result="effect1_foregroundBlur_7_48"
         id="feGaussianBlur599" />
    </filter>
    <filter
       id="filter16_f_7_48"
       x="9.5"
       y="34.5"
       width="25"
       height="2"
       filterUnits="userSpaceOnUse"
       color-interpolation-filters="sRGB">
      <feFlood
         flood-opacity="0"
         result="BackgroundImageFix"
         id="feFlood602" />
      <feBlend
         mode="normal"
         in="SourceGraphic"
         in2="BackgroundImageFix"
         result="shape"
         id="feBlend604" />
      <feGaussianBlur
         stdDeviation="0.25"
         result="effect1_foregroundBlur_7_48"
         id="feGaussianBlur606" />
    </filter>
    <filter
       id="filter17_f_7_48"
       x="10.5"
       y="36.5"
       width="15"
       height="2"
       filterUnits="userSpaceOnUse"
       color-interpolation-filters="sRGB">
      <feFlood
         flood-opacity="0"
         result="BackgroundImageFix"
         id="feFlood609" />
      <feBlend
         mode="normal"
         in="SourceGraphic"
         in2="BackgroundImageFix"
         result="shape"
         id="feBlend611" />
      <feGaussianBlur
         stdDeviation="0.25"
         result="effect1_foregroundBlur_7_48"
         id="feGaussianBlur613" />
    </filter>
    <filter
       id="filter18_f_7_48"
       x="26.5"
       y="40.5"
       width="25"
       height="2"
       filterUnits="userSpaceOnUse"
       color-interpolation-filters="sRGB">
      <feFlood
         flood-opacity="0"
         result="BackgroundImageFix"
         id="feFlood616" />
      <feBlend
         mode="normal"
         in="SourceGraphic"
         in2="BackgroundImageFix"
         result="shape"
         id="feBlend618" />
      <feGaussianBlur
         stdDeviation="0.25"
         result="effect1_foregroundBlur_7_48"
         id="feGaussianBlur620" />
    </filter>
    <filter
       id="filter19_f_7_48"
       x="35.5"
       y="42.5"
       width="15"
       height="2"
       filterUnits="userSpaceOnUse"
       color-interpolation-filters="sRGB">
      <feFlood
         flood-opacity="0"
         result="BackgroundImageFix"
         id="feFlood623" />
      <feBlend
         mode="normal"
         in="SourceGraphic"
         in2="BackgroundImageFix"
         result="shape"
         id="feBlend625" />
      <feGaussianBlur
         stdDeviation="0.25"
         result="effect1_foregroundBlur_7_48"
         id="feGaussianBlur627" />
    </filter>
    <filter
       id="filter20_f_7_48"
       x="26.5"
       y="35.5"
       width="25"
       height="2"
       filterUnits="userSpaceOnUse"
       color-interpolation-filters="sRGB">
      <feFlood
         flood-opacity="0"
         result="BackgroundImageFix"
         id="feFlood630" />
      <feBlend
         mode="normal"
         in="SourceGraphic"
         in2="BackgroundImageFix"
         result="shape"
         id="feBlend632" />
      <feGaussianBlur
         stdDeviation="0.25"
         result="effect1_foregroundBlur_7_48"
         id="feGaussianBlur634" />
    </filter>
    <filter
       id="filter21_f_7_48"
       x="35.5"
       y="37.5"
       width="15"
       height="2"
       filterUnits="userSpaceOnUse"
       color-interpolation-filters="sRGB">
      <feFlood
         flood-opacity="0"
         result="BackgroundImageFix"
         id="feFlood637" />
      <feBlend
         mode="normal"
         in="SourceGraphic"
         in2="BackgroundImageFix"
         result="shape"
         id="feBlend639" />
      <feGaussianBlur
         stdDeviation="0.25"
         result="effect1_foregroundBlur_7_48"
         id="feGaussianBlur641" />
    </filter>
    <filter
       id="filter22_f_7_48"
       x="-4.5"
       y="48.5"
       width="25"
       height="2"
       filterUnits="userSpaceOnUse"
       color-interpolation-filters="sRGB">
      <feFlood
         flood-opacity="0"
         result="BackgroundImageFix"
         id="feFlood644" />
      <feBlend
         mode="normal"
         in="SourceGraphic"
         in2="BackgroundImageFix"
         result="shape"
         id="feBlend646" />
      <feGaussianBlur
         stdDeviation="0.25"
         result="effect1_foregroundBlur_7_48"
         id="feGaussianBlur648" />
    </filter>
    <filter
       id="filter23_f_7_48"
       x="4.5"
       y="49.5"
       width="15"
       height="2"
       filterUnits="userSpaceOnUse"
       color-interpolation-filters="sRGB">
      <feFlood
         flood-opacity="0"
         result="BackgroundImageFix"
         id="feFlood651" />
      <feBlend
         mode="normal"
         in="SourceGraphic"
         in2="BackgroundImageFix"
         result="shape"
         id="feBlend653" />
      <feGaussianBlur
         stdDeviation="0.25"
         result="effect1_foregroundBlur_7_48"
         id="feGaussianBlur655" />
    </filter>
    <filter
       id="filter24_d_7_48"
       x="-25.327801"
       y="-33.1745"
       width="74.567802"
       height="82.2304"
       filterUnits="userSpaceOnUse"
       color-interpolation-filters="sRGB">
      <feFlood
         flood-opacity="0"
         result="BackgroundImageFix"
         id="feFlood658" />
      <feColorMatrix
         in="SourceAlpha"
         type="matrix"
         values="0 0 0 0 0 0 0 0 0 0 0 0 0 0 0 0 0 0 127 0"
         result="hardAlpha"
         id="feColorMatrix660" />
      <feOffset
         dx="4"
         dy="4"
         id="feOffset662" />
      <feGaussianBlur
         stdDeviation="3.4"
         id="feGaussianBlur664" />
      <feComposite
         in2="hardAlpha"
         operator="out"
         id="feComposite666" />
      <feColorMatrix
         type="matrix"
         values="0 0 0 0 0 0 0 0 0 0 0 0 0 0 0 0 0 0 0.25 0"
         id="feColorMatrix668" />
      <feBlend
         mode="normal"
         in2="BackgroundImageFix"
         result="effect1_dropShadow_7_48"
         id="feBlend670" />
      <feBlend
         mode="normal"
         in="SourceGraphic"
         in2="effect1_dropShadow_7_48"
         result="shape"
         id="feBlend672" />
    </filter>
    <linearGradient
       id="paint0_linear_7_48"
       x1="43"
       y1="4"
       x2="43"
       y2="5"
       gradientUnits="userSpaceOnUse">
      <stop
         stop-color="white"
         id="stop675" />
      <stop
         offset="1"
         stop-color="#1E8B93"
         id="stop677" />
    </linearGradient>
    <linearGradient
       id="paint1_linear_7_48"
       x1="7"
       y1="0"
       x2="7"
       y2="1"
       gradientUnits="userSpaceOnUse">
      <stop
         stop-color="white"
         id="stop680" />
      <stop
         offset="1"
         stop-color="#1E8B93"
         id="stop682" />
    </linearGradient>
    <linearGradient
       id="paint2_linear_7_48"
       x1="7"
       y1="40"
       x2="7"
       y2="41"
       gradientUnits="userSpaceOnUse">
      <stop
         stop-color="white"
         id="stop685" />
      <stop
         offset="1"
         stop-color="#1E8B93"
         id="stop687" />
    </linearGradient>
    <linearGradient
       id="paint3_linear_7_48"
       x1="7"
       y1="0"
       x2="7"
       y2="1"
       gradientUnits="userSpaceOnUse">
      <stop
         stop-color="white"
         id="stop690" />
      <stop
         offset="1"
         stop-color="#1E8B93"
         id="stop692" />
    </linearGradient>
    <linearGradient
       id="paint4_linear_7_48"
       x1="21"
       y1="45"
       x2="21"
       y2="46"
       gradientUnits="userSpaceOnUse">
      <stop
         stop-color="white"
         id="stop695" />
      <stop
         offset="1"
         stop-color="#1E8B93"
         id="stop697" />
    </linearGradient>
    <linearGradient
       id="paint5_linear_7_48"
       x1="14.5"
       y1="0"
       x2="14.5"
       y2="1"
       gradientUnits="userSpaceOnUse">
      <stop
         stop-color="white"
         id="stop700" />
      <stop
         offset="1"
         stop-color="#1E8B93"
         id="stop702" />
    </linearGradient>
    <linearGradient
       id="paint6_linear_7_48"
       x1="41"
       y1="16"
       x2="41"
       y2="17"
       gradientUnits="userSpaceOnUse">
      <stop
         stop-color="white"
         id="stop705" />
      <stop
         offset="1"
         stop-color="#1E8B93"
         id="stop707" />
    </linearGradient>
    <linearGradient
       id="paint7_linear_7_48"
       x1="7"
       y1="0"
       x2="7"
       y2="1"
       gradientUnits="userSpaceOnUse">
      <stop
         stop-color="white"
         id="stop710" />
      <stop
         offset="1"
         stop-color="#1E8B93"
         id="stop712" />
    </linearGradient>
    <linearGradient
       id="paint8_linear_7_48"
       x1="35"
       y1="9"
       x2="35"
       y2="10"
       gradientUnits="userSpaceOnUse">
      <stop
         stop-color="white"
         id="stop715" />
      <stop
         offset="1"
         stop-color="#1E8B93"
         id="stop717" />
    </linearGradient>
    <linearGradient
       id="paint9_linear_7_48"
       x1="7"
       y1="0"
       x2="7"
       y2="1"
       gradientUnits="userSpaceOnUse">
      <stop
         stop-color="white"
         id="stop720" />
      <stop
         offset="1"
         stop-color="#1E8B93"
         id="stop722" />
    </linearGradient>
    <linearGradient
       id="paint10_linear_7_48"
       x1="32"
       y1="25"
       x2="32"
       y2="26"
       gradientUnits="userSpaceOnUse">
      <stop
         stop-color="white"
         id="stop725" />
      <stop
         offset="1"
         stop-color="#1E8B93"
         id="stop727" />
    </linearGradient>
    <linearGradient
       id="paint11_linear_7_48"
       x1="7"
       y1="0"
       x2="7"
       y2="1"
       gradientUnits="userSpaceOnUse">
      <stop
         stop-color="white"
         id="stop730" />
      <stop
         offset="1"
         stop-color="#1E8B93"
         id="stop732" />
    </linearGradient>
    <linearGradient
       id="paint12_linear_7_48"
       x1="40"
       y1="31"
       x2="40"
       y2="32"
       gradientUnits="userSpaceOnUse">
      <stop
         stop-color="white"
         id="stop735" />
      <stop
         offset="1"
         stop-color="#1E8B93"
         id="stop737" />
    </linearGradient>
    <linearGradient
       id="paint13_linear_7_48"
       x1="7"
       y1="0"
       x2="7"
       y2="1"
       gradientUnits="userSpaceOnUse">
      <stop
         stop-color="white"
         id="stop740" />
      <stop
         offset="1"
         stop-color="#1E8B93"
         id="stop742" />
    </linearGradient>
    <linearGradient
       id="paint14_linear_7_48"
       x1="15"
       y1="29"
       x2="15"
       y2="30"
       gradientUnits="userSpaceOnUse">
      <stop
         stop-color="white"
         id="stop745" />
      <stop
         offset="1"
         stop-color="#1E8B93"
         id="stop747" />
    </linearGradient>
    <linearGradient
       id="paint15_linear_7_48"
       x1="7"
       y1="0"
       x2="7"
       y2="1"
       gradientUnits="userSpaceOnUse">
      <stop
         stop-color="white"
         id="stop750" />
      <stop
         offset="1"
         stop-color="#1E8B93"
         id="stop752" />
    </linearGradient>
    <linearGradient
       id="paint16_linear_7_48"
       x1="12"
       y1="0"
       x2="12"
       y2="1"
       gradientUnits="userSpaceOnUse">
      <stop
         stop-color="white"
         id="stop755" />
      <stop
         offset="1"
         stop-color="#1E8B93"
         id="stop757" />
    </linearGradient>
    <linearGradient
       id="paint17_linear_7_48"
       x1="18"
       y1="37"
       x2="18"
       y2="38"
       gradientUnits="userSpaceOnUse">
      <stop
         stop-color="white"
         id="stop760" />
      <stop
         offset="1"
         stop-color="#1E8B93"
         id="stop762" />
    </linearGradient>
    <linearGradient
       id="paint18_linear_7_48"
       x1="39"
       y1="41"
       x2="39"
       y2="42"
       gradientUnits="userSpaceOnUse">
      <stop
         stop-color="white"
         id="stop765" />
      <stop
         offset="1"
         stop-color="#1E8B93"
         id="stop767" />
    </linearGradient>
    <linearGradient
       id="paint19_linear_7_48"
       x1="7"
       y1="0"
       x2="7"
       y2="1"
       gradientUnits="userSpaceOnUse">
      <stop
         stop-color="white"
         id="stop770" />
      <stop
         offset="1"
         stop-color="#1E8B93"
         id="stop772" />
    </linearGradient>
    <linearGradient
       id="paint20_linear_7_48"
       x1="39"
       y1="36"
       x2="39"
       y2="37"
       gradientUnits="userSpaceOnUse">
      <stop
         stop-color="white"
         id="stop775" />
      <stop
         offset="1"
         stop-color="#1E8B93"
         id="stop777" />
    </linearGradient>
    <linearGradient
       id="paint21_linear_7_48"
       x1="7"
       y1="0"
       x2="7"
       y2="1"
       gradientUnits="userSpaceOnUse">
      <stop
         stop-color="white"
         id="stop780" />
      <stop
         offset="1"
         stop-color="#1E8B93"
         id="stop782" />
    </linearGradient>
    <linearGradient
       id="paint22_linear_7_48"
       x1="8"
       y1="49"
       x2="8"
       y2="50"
       gradientUnits="userSpaceOnUse">
      <stop
         stop-color="white"
         id="stop785" />
      <stop
         offset="1"
         stop-color="#1E8B93"
         id="stop787" />
    </linearGradient>
    <linearGradient
       id="paint23_linear_7_48"
       x1="7"
       y1="0"
       x2="7"
       y2="1"
       gradientUnits="userSpaceOnUse">
      <stop
         stop-color="white"
         id="stop790" />
      <stop
         offset="1"
         stop-color="#1E8B93"
         id="stop792" />
    </linearGradient>
    <clipPath
       id="clip0_7_48">
      <rect
         width="52"
         height="52"
         rx="10"
         fill="#ffffff"
         id="rect795"
         x="0"
         y="0" />
    </clipPath>
  </defs>
</svg>
