<svg width="52" height="52" viewBox="0 0 52 52" fill="none" xmlns="http://www.w3.org/2000/svg">
<g id="&#208;&#155;&#208;&#190;&#208;&#179;&#208;&#190;&#209;&#130;&#208;&#184;&#208;&#191;">
<g clip-path="url(#clip0_7_48)">
<rect id="Rectangle 27" width="52" height="52" fill="#1E8B93"/>
<g id="Group 103">
<g id="Ellipse 6" filter="url(#filter0_f_7_48)">
<ellipse cx="43" cy="4.5" rx="12" ry="0.5" fill="url(#paint0_linear_7_48)" fill-opacity="0.1"/>
</g>
<g id="Ellipse 7" filter="url(#filter1_f_7_48)">
<ellipse cx="7" cy="0.5" rx="7" ry="0.5" transform="matrix(1 0 0 -1 40 7)" fill="url(#paint1_linear_7_48)" fill-opacity="0.1"/>
</g>
<g id="Ellipse 24" filter="url(#filter2_f_7_48)">
<ellipse cx="7" cy="40.5" rx="12" ry="0.5" fill="url(#paint2_linear_7_48)" fill-opacity="0.1"/>
</g>
<g id="Ellipse 25" filter="url(#filter3_f_7_48)">
<ellipse cx="7" cy="0.5" rx="7" ry="0.5" transform="matrix(1 0 0 -1 4 43)" fill="url(#paint3_linear_7_48)" fill-opacity="0.1"/>
</g>
<g id="Ellipse 26" filter="url(#filter4_f_7_48)">
<ellipse cx="21" cy="45.5" rx="12" ry="0.5" fill="url(#paint4_linear_7_48)" fill-opacity="0.1"/>
</g>
<g id="Ellipse 27" filter="url(#filter5_f_7_48)">
<ellipse cx="14.5" cy="0.5" rx="14.5" ry="0.5" transform="matrix(1 0 0 -1 18 48)" fill="url(#paint5_linear_7_48)" fill-opacity="0.1"/>
</g>
<g id="Ellipse 10" filter="url(#filter6_f_7_48)">
<ellipse cx="41" cy="16.5" rx="12" ry="0.5" fill="url(#paint6_linear_7_48)" fill-opacity="0.1"/>
</g>
<g id="Ellipse 11" filter="url(#filter7_f_7_48)">
<ellipse cx="7" cy="0.5" rx="7" ry="0.5" transform="matrix(1 0 0 -1 38 19)" fill="url(#paint7_linear_7_48)" fill-opacity="0.1"/>
</g>
<g id="Ellipse 8" filter="url(#filter8_f_7_48)">
<ellipse cx="35" cy="9.5" rx="12" ry="0.5" fill="url(#paint8_linear_7_48)" fill-opacity="0.1"/>
</g>
<g id="Ellipse 9" filter="url(#filter9_f_7_48)">
<ellipse cx="7" cy="0.5" rx="7" ry="0.5" transform="matrix(1 0 0 -1 32 12)" fill="url(#paint9_linear_7_48)" fill-opacity="0.1"/>
</g>
<g id="Ellipse 12" filter="url(#filter10_f_7_48)">
<ellipse cx="32" cy="25.5" rx="12" ry="0.5" fill="url(#paint10_linear_7_48)" fill-opacity="0.1"/>
</g>
<g id="Ellipse 13" filter="url(#filter11_f_7_48)">
<ellipse cx="7" cy="0.5" rx="7" ry="0.5" transform="matrix(1 0 0 -1 29 28)" fill="url(#paint11_linear_7_48)" fill-opacity="0.1"/>
</g>
<g id="Ellipse 14" filter="url(#filter12_f_7_48)">
<ellipse cx="40" cy="31.5" rx="12" ry="0.5" fill="url(#paint12_linear_7_48)" fill-opacity="0.1"/>
</g>
<g id="Ellipse 15" filter="url(#filter13_f_7_48)">
<ellipse cx="7" cy="0.5" rx="7" ry="0.5" transform="matrix(1 0 0 -1 37 34)" fill="url(#paint13_linear_7_48)" fill-opacity="0.1"/>
</g>
<g id="Ellipse 16" filter="url(#filter14_f_7_48)">
<ellipse cx="15" cy="29.5" rx="12" ry="0.5" fill="url(#paint14_linear_7_48)" fill-opacity="0.1"/>
</g>
<g id="Ellipse 17" filter="url(#filter15_f_7_48)">
<ellipse cx="7" cy="0.5" rx="7" ry="0.5" transform="matrix(1 0 0 -1 12 32)" fill="url(#paint15_linear_7_48)" fill-opacity="0.1"/>
</g>
<g id="Ellipse 18" filter="url(#filter16_f_7_48)">
<ellipse cx="12" cy="0.5" rx="12" ry="0.5" transform="matrix(-1 0 0 1 34 35)" fill="url(#paint16_linear_7_48)" fill-opacity="0.1"/>
</g>
<g id="Ellipse 19" filter="url(#filter17_f_7_48)">
<ellipse cx="18" cy="37.5" rx="7" ry="0.5" transform="rotate(180 18 37.5)" fill="url(#paint17_linear_7_48)" fill-opacity="0.1"/>
</g>
<g id="Ellipse 20" filter="url(#filter18_f_7_48)">
<ellipse cx="39" cy="41.5" rx="12" ry="0.5" fill="url(#paint18_linear_7_48)" fill-opacity="0.1"/>
</g>
<g id="Ellipse 21" filter="url(#filter19_f_7_48)">
<ellipse cx="7" cy="0.5" rx="7" ry="0.5" transform="matrix(1 0 0 -1 36 44)" fill="url(#paint19_linear_7_48)" fill-opacity="0.1"/>
</g>
<g id="Ellipse 22" filter="url(#filter20_f_7_48)">
<ellipse cx="39" cy="36.5" rx="12" ry="0.5" fill="url(#paint20_linear_7_48)" fill-opacity="0.1"/>
</g>
<g id="Ellipse 23" filter="url(#filter21_f_7_48)">
<ellipse cx="7" cy="0.5" rx="7" ry="0.5" transform="matrix(1 0 0 -1 36 39)" fill="url(#paint21_linear_7_48)" fill-opacity="0.1"/>
</g>
<g id="Ellipse 28" filter="url(#filter22_f_7_48)">
<ellipse cx="8" cy="49.5" rx="12" ry="0.5" fill="url(#paint22_linear_7_48)" fill-opacity="0.1"/>
</g>
<g id="Ellipse 29" filter="url(#filter23_f_7_48)">
<ellipse cx="7" cy="0.5" rx="7" ry="0.5" transform="matrix(1 0 0 -1 5 51)" fill="url(#paint23_linear_7_48)" fill-opacity="0.1"/>
</g>
</g>
<g id="Vector" filter="url(#filter24_d_7_48)">
<path d="M8.43263 -30.1637C8.36829 -30.0436 8.16675 -29.9422 7.98328 -29.947C7.57047 -29.9578 7.42611 -29.7026 7.61453 -29.3017C7.86094 -28.7773 7.3963 -28.561 6.80956 -28.9419C6.5689 -29.1005 6.41562 -29.0893 5.93449 -28.8276C5.39142 -28.5372 5.34316 -28.4471 5.31118 -27.8082C5.28039 -27.2149 5.32308 -27.092 5.67037 -26.9153C6.13837 -26.6746 6.1743 -26.2929 5.74382 -26.2128C5.32902 -26.1474 5.18506 -25.9075 5.27897 -25.4024C5.37248 -24.8821 4.98508 -24.6942 4.58181 -25.0703C4.2534 -25.3835 4.13108 -25.3867 3.80246 -25.1058C3.36442 -24.7365 3.00384 -24.9896 3.14165 -25.58C3.22963 -26.0195 3.20103 -26.0964 2.80749 -26.259C2.58053 -26.3563 2.26343 -26.5169 2.11332 -26.6274C1.88835 -26.8008 1.81151 -26.7876 1.63776 -26.5789C1.52676 -26.4295 1.32483 -26.3129 1.20251 -26.3161C0.820281 -26.3261 0.613173 -26.0116 0.773007 -25.6876C0.874468 -25.4717 0.870893 -25.3347 0.728916 -25.1709C0.492425 -24.9029 0.186638 -24.9108 0.0718746 -25.2032C-0.0131042 -25.4644 -0.562322 -25.5244 -0.706286 -25.2845C-0.769431 -25.21 -0.971769 -25.0782 -1.17252 -25.0073C-1.46579 -24.9083 -1.51484 -24.7877 -1.51545 -24.1785C-1.51526 -23.5997 -1.45808 -23.4458 -1.14098 -23.2852C-0.658083 -23.0289 -0.666825 -22.6941 -1.17773 -22.4637C-1.54944 -22.2906 -1.59769 -22.2005 -1.58381 -21.5604C-1.586 -20.8902 -1.54173 -20.8282 -1.01416 -20.525C-0.546547 -20.2691 -0.37916 -20.2342 -0.145848 -20.3805C0.428997 -20.7158 0.987943 -20.4422 0.625161 -20.0252C0.388669 -19.7572 0.561011 -19.3262 0.897374 -19.3175C1.05027 -19.3135 1.24664 -19.2169 1.3352 -19.0928C1.51271 -18.8597 1.35505 -18.681 0.814755 -18.4971C0.598718 -18.4266 0.549675 -18.306 0.602086 -17.9695C0.721806 -17.281 0.0379509 -16.8724 -0.144119 -17.5168C-0.256496 -17.9006 -0.546593 -17.9234 -0.908581 -17.5368C-1.05016 -17.3882 -1.22192 -17.2556 -1.28268 -17.2724C-1.64843 -17.3276 -1.72885 -17.1774 -1.74713 -16.4772C-1.76422 -15.8227 -1.70664 -15.6841 -1.41893 -15.57C-1.22215 -15.4887 -1.02697 -15.3465 -0.968196 -15.2536C-0.865543 -15.0834 -1.15228 -14.6491 -1.33495 -14.6844C-1.73128 -14.7404 -1.85638 -14.637 -1.80436 -14.2854C-1.72415 -13.8415 -1.95985 -13.604 -2.08791 -13.9729C-2.20188 -14.2957 -2.58451 -14.2905 -2.94451 -13.98C-3.21039 -13.7585 -3.25626 -13.7597 -3.47963 -13.994C-3.67323 -14.1971 -3.68613 -14.2888 -3.52847 -14.4675C-3.29198 -14.7355 -3.40793 -14.9822 -3.84616 -15.1917C-4.02764 -15.2725 -4.29927 -15.4167 -4.43409 -15.5269C-4.64417 -15.6847 -4.7363 -15.6718 -4.9708 -15.48C-5.12727 -15.347 -5.39077 -15.2168 -5.55974 -15.1907C-5.80557 -15.1514 -5.85422 -15.0461 -5.83556 -14.5886C-5.80599 -13.9634 -6.22674 -13.6697 -6.5218 -14.0887C-6.7279 -14.3987 -7.18658 -14.4107 -7.40858 -14.1118C-7.51918 -13.9776 -7.68895 -13.9211 -7.87043 -14.002C-8.0825 -14.0837 -8.1095 -14.2215 -8.0384 -14.6005C-7.93475 -15.0547 -7.96374 -15.1164 -8.40315 -15.2802C-8.96369 -15.4928 -8.95216 -15.9342 -8.36759 -16.0561C-8.01395 -16.123 -7.98099 -16.2135 -7.96151 -16.9594C-7.94164 -17.7204 -7.97023 -17.7973 -8.29011 -17.8514C-8.48808 -17.887 -8.68366 -18.014 -8.72635 -18.137C-8.82582 -18.429 -9.36135 -18.4277 -9.47592 -18.1413C-9.54026 -18.0211 -9.69593 -17.9186 -9.84882 -17.9226C-10.1699 -17.9309 -10.3724 -18.3779 -10.1528 -18.5855C-9.91751 -18.8078 -10.2259 -19.3033 -10.5928 -19.3128C-10.761 -19.3172 -10.9264 -19.4282 -10.9691 -19.5511C-11.0271 -19.6745 -11.1619 -19.7847 -11.2689 -19.7874C-11.3912 -19.7906 -11.5316 -19.6877 -11.5806 -19.5671C-11.645 -19.4469 -11.8007 -19.3444 -11.9536 -19.3484C-12.3511 -19.3587 -12.6052 -18.9998 -12.4948 -18.54C-12.3856 -18.0345 -12.8036 -17.8474 -13.2065 -18.2387C-13.4902 -18.505 -13.965 -18.487 -13.973 -18.1826C-13.9749 -18.1064 -14.1451 -18.0347 -14.3439 -18.0399C-14.772 -18.0511 -14.9163 -17.7959 -14.7279 -17.395C-14.6409 -17.2099 -14.6606 -17.0429 -14.7869 -16.8939C-15.0234 -16.6259 -14.7432 -16.2225 -14.3151 -16.2114C-13.9329 -16.2014 -13.9327 -15.6226 -14.3032 -15.4952C-14.8431 -15.3265 -14.9702 -15.147 -14.8104 -14.823C-14.6791 -14.5758 -14.7129 -14.4549 -14.9011 -14.277C-15.1207 -14.0695 -15.1819 -14.0711 -15.5248 -14.4151L-15.8979 -14.7752L-16.2579 -14.4647C-16.6967 -14.0649 -17.0589 -14.2572 -16.9368 -14.8328C-16.8343 -15.2414 -17.1575 -15.7525 -17.4218 -15.5918C-17.4995 -15.5481 -17.6045 -15.627 -17.6472 -15.75C-17.7475 -16.0116 -18.4641 -16.1064 -18.4704 -15.8629C-18.4724 -15.7868 -18.5967 -15.7139 -18.7649 -15.7183C-19.1777 -15.729 -19.4319 -15.3701 -19.3215 -14.9103C-19.2127 -14.3896 -19.6303 -14.2177 -20.048 -14.6246C-20.2867 -14.8593 -20.3933 -14.8773 -20.6113 -14.7307C-20.876 -14.5549 -21.0772 -14.4687 -21.4936 -14.3425C-21.6939 -14.2868 -21.7112 -14.2111 -21.5799 -13.964C-21.4781 -13.7633 -21.4833 -13.5654 -21.5798 -13.3852C-21.772 -13.0551 -21.5506 -12.7447 -21.1378 -12.7339C-21.0002 -12.7303 -20.8497 -12.635 -20.8215 -12.5428C-20.7079 -12.2048 -20.8824 -11.9656 -21.2494 -11.9752C-21.6316 -11.9852 -21.8383 -11.6859 -21.6475 -11.3763C-21.5742 -11.2526 -21.5951 -11.0399 -21.6751 -10.9049C-21.8838 -10.5295 -21.7099 -10.1594 -21.2971 -10.1486C-21.0983 -10.1434 -20.9176 -10.0321 -20.8596 -9.90873C-20.7602 -9.61673 -20.485 -9.60955 -20.1407 -9.90519C-19.7183 -10.2597 -19.3718 -10.0527 -19.4332 -9.46023C-19.4894 -9.06567 -19.4165 -8.92669 -19.0692 -8.75007C-18.5256 -8.47693 -18.5641 -8.1733 -19.1507 -7.97537C-19.5823 -7.84956 -19.6149 -7.77425 -19.5339 -7.36088C-19.4263 -6.79449 -19.7988 -6.59097 -20.217 -6.98269C-20.5454 -7.2959 -20.7441 -7.30109 -20.9963 -7.01827C-21.1065 -6.8993 -21.3234 -6.79833 -21.4762 -6.80232C-21.6444 -6.80671 -21.7844 -6.71898 -21.7868 -6.62765C-21.9425 -5.35225 -21.845 -4.98414 -21.3252 -4.97057C-20.9124 -4.95979 -21.0212 -4.30767 -21.4517 -4.22751C-21.8665 -4.16219 -21.9312 -4.02679 -21.9354 -3.28054C-21.9344 -2.73217 -21.8768 -2.59358 -21.5295 -2.41697C-21.303 -2.30443 -21.1235 -2.14743 -21.1259 -2.05609C-21.1318 -1.82777 -20.5794 -1.88951 -20.359 -2.12746C-19.9963 -2.54448 -19.6658 -2.30738 -19.6829 -1.65286C-19.6968 -1.12011 -19.653 -1.04281 -19.3331 -0.988756C-19.1351 -0.953124 -18.8631 -0.824169 -18.744 -0.699202C-18.5657 -0.496534 -18.4892 -0.494538 -18.2704 -0.671604C-18.1296 -0.789784 -17.8504 -0.93481 -17.6654 -0.990904C-17.3419 -1.07385 -17.3093 -1.14916 -17.3892 -1.6082C-17.4799 -2.23507 -17.1376 -2.45461 -16.7045 -2.04727C-16.3608 -1.73366 -16.0856 -1.72648 -15.8479 -2.04014C-15.7369 -2.18956 -15.5518 -2.24565 -15.4005 -2.18078C-15.1889 -2.08386 -15.1615 -1.96129 -15.2475 -1.59797C-15.3499 -1.18939 -15.3209 -1.12771 -14.8972 -0.949094C-14.3065 -0.720424 -14.32 -0.202897 -14.9046 -0.081074C-15.2582 -0.014148 -15.2912 0.0763806 -15.3087 0.746124C-15.3266 1.43109 -15.2827 1.50839 -14.9781 1.56204C-14.7801 1.59767 -14.5845 1.72463 -14.5418 1.8476C-14.4424 2.1396 -14.0597 2.13436 -13.6997 1.82389C-13.3241 1.4986 -13.0407 1.78017 -13.0582 2.44992C-13.0685 2.84567 -12.9949 2.95422 -12.7205 2.99184C-12.2787 3.06431 -12.285 3.30785 -12.73 3.35716C-13.0213 3.38001 -13.0848 3.46975 -13.0501 3.89715C-13.0201 4.5072 -13.3765 4.68067 -13.7947 4.28896C-14.0784 4.02261 -14.1706 4.03544 -14.7917 4.38478C-15.5057 4.7774 -15.4904 4.77779 -15.3306 5.10183C-15.2295 5.33295 -15.2331 5.46994 -15.3751 5.63379C-15.6116 5.90178 -15.3314 6.30512 -14.9033 6.3163C-14.5211 6.32628 -14.5209 6.90509 -14.8914 7.0325C-15.4466 7.20079 -15.5584 7.38065 -15.399 7.71991C-15.2677 7.96705 -15.2858 8.0732 -15.5195 8.23465C-15.7532 8.39609 -15.8445 8.37847 -16.1428 8.08128C-16.4712 7.76807 -16.5014 7.75205 -16.7833 8.00363C-17.3312 8.47675 -17.7368 8.19198 -17.5347 7.48137C-17.5009 7.36039 -17.6338 7.17414 -17.8145 7.0628C-18.0108 6.96629 -18.2511 6.79246 -18.3404 6.69874C-18.534 6.49567 -19.0531 6.45166 -19.0582 6.64954C-19.0602 6.72564 -19.2163 6.84342 -19.4014 6.89952C-19.8789 7.02413 -19.9911 7.21922 -19.8976 7.73954C-19.8303 8.09163 -19.8781 8.16654 -20.138 8.15975C-20.3062 8.15536 -20.5175 8.04322 -20.6213 7.91865C-20.7252 7.79409 -20.9059 7.68275 -21.0282 7.67955C-21.1352 7.67676 -21.2756 7.77972 -21.3246 7.90029C-21.389 8.02046 -21.5447 8.12302 -21.6976 8.11903C-22.0645 8.10945 -22.3332 8.43753 -22.1717 8.70069C-22.1138 8.82406 -22.0915 9.1445 -22.1449 9.43251C-22.2325 9.85672 -22.2039 9.93362 -21.944 9.94041C-21.2713 9.95797 -21.197 10.6301 -21.842 10.7199C-22.0725 10.7596 -22.1529 10.9098 -22.1785 11.3051C-22.2014 11.5939 -22.2399 11.8976 -22.2576 11.9885C-22.3432 12.3366 -22.2562 12.5217 -21.9657 12.5292C-21.7975 12.5336 -21.6168 12.645 -21.5741 12.7679C-21.4598 13.0756 -20.909 13.0747 -20.687 12.7759C-20.3865 12.4029 -19.935 12.6889 -20.0395 13.1736C-20.1592 13.6579 -20.0429 13.8894 -19.632 13.9763C-19.1303 14.096 -19.1873 14.521 -19.7276 14.7049C-20.1745 14.8303 -20.2067 14.8904 -20.1277 15.3799C-20.0072 16.038 -20.2871 16.2135 -20.7347 15.7753C-21.1227 15.3996 -21.3661 15.3475 -21.5418 15.6324C-21.6058 15.7373 -21.8701 15.898 -22.1022 15.9985C-22.4421 16.1267 -22.5217 16.2465 -22.4505 16.4464C-22.3353 16.7236 -22.3377 16.8149 -22.4269 17.3C-22.463 17.5123 -22.374 17.6212 -22.1008 17.7045C-21.6144 17.8238 -21.4786 18.4824 -21.9372 18.4704C-22.3653 18.4592 -22.6501 18.8173 -22.4757 19.1722C-22.3735 19.3577 -22.3787 19.5555 -22.4744 19.7054C-22.6344 19.9753 -22.31 20.4408 -21.9277 20.4508C-21.8054 20.4539 -21.7153 20.5172 -21.7173 20.5933C-21.724 20.8521 -21.2818 20.9093 -21.0469 20.7022C-20.9214 20.5836 -20.674 20.4835 -20.4905 20.4883C-20.2153 20.4955 -20.1715 20.5728 -20.2281 20.9825C-20.2694 21.3927 -20.2114 21.5161 -19.8794 21.6923C-19.6376 21.8052 -19.4581 21.9623 -19.4604 22.0536C-19.4664 22.2819 -18.8528 22.2218 -18.7547 21.9806C-18.6904 21.8604 -18.5347 21.7579 -18.3818 21.7619C-17.969 21.7727 -17.7145 21.3985 -17.8888 21.0436C-18.1505 20.5189 -17.5957 20.3659 -17.1031 20.8357C-16.8491 21.0708 -16.8186 21.0716 -16.5527 20.85C-16.3958 20.7018 -16.1331 20.6021 -15.9802 20.606C-15.7662 20.6116 -15.738 20.7038 -15.8079 21.037C-15.928 21.5365 -15.8117 21.7681 -15.4008 21.8549C-14.9751 21.9574 -14.9005 22.6144 -15.3133 22.6036C-15.8331 22.59 -15.9497 22.9525 -15.8604 24.2191C-15.8631 24.3257 -15.7279 24.4206 -15.5903 24.4242C-15.4527 24.4278 -15.2113 24.5559 -15.062 24.6969C-14.8229 24.9164 -14.7163 24.9344 -14.4829 24.7882C-14.312 24.686 -14.0348 24.6171 -13.8666 24.6215C-13.5914 24.6287 -13.5624 24.6904 -13.6665 25.1598C-13.7544 25.5993 -13.7266 25.7066 -13.4993 25.7887C-13.3323 25.8388 -13.1057 25.9513 -12.9854 26.0306C-12.5041 26.3478 -12.3669 26.3666 -12.1775 26.1431C-12.0673 26.0241 -11.8496 25.8927 -11.6807 25.8666C-11.4501 25.827 -11.3705 25.7072 -11.3618 25.3723C-11.3423 24.6265 -11.1552 24.4943 -10.6434 24.8123C-10.282 25.035 -10.1448 25.0538 -9.92674 24.9071C-9.78636 24.8042 -9.50758 24.6744 -9.33741 24.6027C-9.05902 24.4881 -9.00918 24.3371 -9.01056 23.8039C-9.00558 23.0272 -9.13642 22.7649 -9.54923 22.7541C-9.73271 22.7493 -9.83695 22.64 -9.83178 22.4421C-9.82661 22.2442 -9.71681 22.1404 -9.53334 22.1452C-9.12053 22.156 -8.86636 21.7971 -8.97675 21.3373C-9.08595 20.8318 -8.66797 20.6446 -8.27999 21.0203C-7.95158 21.3336 -7.82926 21.3367 -7.48495 21.0411C-7.07829 20.7014 -6.67025 20.8948 -6.80488 21.3635C-6.93952 21.8322 -6.79656 22.2167 -6.49078 22.2247C-6.36846 22.2279 -6.12662 22.3408 -5.9777 22.497C-5.73903 22.7317 -5.67787 22.7333 -5.44297 22.5262C-5.2865 22.3932 -5.02301 22.263 -4.85403 22.2369C-4.62389 22.2125 -4.54348 22.0623 -4.51865 21.6974C-4.51149 21.4234 -4.42749 21.1362 -4.34906 21.0621C-4.16082 20.8842 -3.67514 21.034 -3.68071 21.2471C-3.68269 21.3232 -3.54668 21.3876 -3.3785 21.392C-3.21032 21.3964 -3.07073 21.3239 -3.06874 21.2478C-3.06635 21.1565 -3.00361 21.0972 -2.92716 21.0992C-2.83543 21.1016 -2.79433 21.2854 -2.81558 21.5134C-2.8545 21.8322 -2.78084 21.9407 -2.47704 22.0248C-2.234 22.0921 -2.09998 22.2327 -2.10475 22.4154C-2.10912 22.5828 -2.28286 22.7915 -2.49969 22.8925C-2.82474 23.0363 -2.88987 23.1869 -2.92066 23.7801C-2.95264 24.419 -2.92405 24.4959 -2.53011 24.6433C-2.28747 24.7258 -2.09229 24.868 -2.09388 24.9289C-2.10023 25.1724 -1.64275 25.2301 -1.40745 25.0077C-0.999594 24.6224 -0.637819 24.8298 -0.653319 25.4234C-0.66405 25.8344 -0.590782 25.9582 -0.362637 26.0098C0.245756 26.1476 0.245148 26.7568 -0.353518 26.8326C-0.614231 26.8563 -0.693857 26.976 -0.703793 27.3566C-0.723268 28.1024 -1.01893 28.2927 -1.48137 27.8389L-1.85446 27.4788L-2.21446 27.7893C-2.41799 27.9668 -2.69717 28.1118 -2.81949 28.1086C-3.01825 28.1034 -3.06809 28.2544 -3.0687 28.8637C-3.05521 29.519 -2.99802 29.6728 -2.68092 29.8334C-2.19803 30.0897 -2.20677 30.4246 -2.71768 30.655C-3.0737 30.8132 -3.12235 30.9186 -3.12375 31.5583C-3.12516 32.198 -3.08167 32.2905 -2.77708 32.3441C-2.57912 32.3798 -2.38353 32.5067 -2.34085 32.6297C-2.24097 32.9065 -1.85874 32.9165 -1.53012 32.6356C-1.10737 32.2659 -0.762077 32.5186 -0.824639 33.1567C-0.866742 33.5973 -0.808764 33.7207 -0.565329 33.7728C-0.398339 33.8228 -0.187866 33.9654 -0.0844181 34.1052C0.0633096 34.307 0.139359 34.3243 0.373069 34.1628C0.653045 33.9873 0.85419 33.9012 1.28587 33.7754C1.47093 33.7193 1.52037 33.5835 1.45426 33.1858C1.36273 32.5893 1.67488 32.3538 2.04757 32.7291C2.30073 32.9946 2.89582 33.0558 2.90178 32.8275C2.90417 32.7362 3.07394 32.6797 3.28799 32.6853C3.62435 32.6941 3.65334 32.7558 3.60965 33.2573C3.56635 33.7435 3.61023 33.8209 3.94421 33.921C4.18725 33.9882 4.32128 34.1288 4.31651 34.3115C4.31174 34.4941 4.17055 34.6275 3.92434 34.682C3.5707 34.749 3.53774 34.8395 3.51826 35.5853C3.49839 36.3464 3.52698 36.4233 3.84686 36.4774C4.04483 36.513 4.24041 36.64 4.2831 36.7629C4.38257 37.0549 4.87222 37.0525 5.00249 36.7512C5.05193 36.6154 5.23739 36.5441 5.43536 36.5798C5.73995 36.6334 5.78383 36.7107 5.72524 37.1966C5.68195 37.6829 5.71014 37.775 5.95477 37.7814C6.12295 37.7858 6.33422 37.8979 6.43807 38.0225C6.67514 38.3181 7.4396 38.338 7.56947 38.052C7.61851 37.9315 7.78948 37.8293 7.95766 37.8337C8.30932 37.8429 8.43839 37.5873 8.34567 37.0365C8.29365 36.6849 8.32582 36.6248 8.60103 36.632C8.7845 36.6367 8.96519 36.7481 9.00788 36.8711C9.12264 37.1635 9.6115 37.1914 9.78723 36.9066C9.85157 36.7865 10.0531 36.6851 10.2225 36.6438C10.4836 36.6049 10.533 36.4692 10.5807 35.8154C10.6151 35.0852 10.5869 34.9931 10.2243 34.8161C9.71123 34.5437 9.70508 34.1932 10.2128 34.0846C10.5359 34.0169 10.5998 33.912 10.6109 33.4858C10.6213 33.09 10.7017 32.9398 10.9165 32.9149C11.0702 32.8885 11.2678 32.9393 11.3571 33.0331C11.5805 33.2674 11.9937 33.2629 12.2298 33.0102C12.5142 32.6672 12.8904 32.9055 12.7868 33.3598C12.6662 33.8745 12.7814 34.1517 13.1178 34.1605C13.2707 34.1645 13.4666 34.2762 13.5705 34.4008C13.8076 34.6964 14.0828 34.7036 14.3349 34.4207C14.4452 34.3018 14.662 34.2008 14.8149 34.2048C15.1207 34.2128 15.154 34.107 15.1264 33.4057C15.1195 33.0856 15.183 32.9959 15.4124 33.0019C15.5806 33.0062 15.7918 33.1184 15.8957 33.243C16.1175 33.5381 16.2703 33.5421 16.5374 33.2749C16.6629 33.1564 16.8954 33.0406 17.0644 33.0145C17.3102 32.9753 17.3601 32.8242 17.4077 32.1705C17.4417 31.4555 17.4139 31.3482 17.096 31.218C16.8992 31.1367 16.7037 31.0097 16.6602 30.9172C16.5426 30.7314 16.9823 30.3011 17.2728 30.3087C17.4256 30.3127 17.4928 30.086 17.5087 29.4771C17.5269 28.7769 17.4847 28.6388 17.2553 28.6328C17.1024 28.6288 16.8912 28.5166 16.7873 28.3921C16.5506 28.0813 16.0763 28.0841 15.8997 28.3994C15.644 28.8192 15.2238 28.5036 15.2997 27.942C15.341 27.5318 15.283 27.4084 14.951 27.2322C14.7092 27.1193 14.5305 26.9318 14.5337 26.8101C14.5368 26.6883 14.7251 26.5104 14.9725 26.4102C15.3132 26.2516 15.3776 26.1314 15.3577 25.7196C15.3222 25.3227 15.3704 25.2326 15.6151 25.2389C15.7832 25.2433 15.9945 25.3555 16.0984 25.48C16.3201 25.7752 16.473 25.7792 16.7401 25.512C16.8656 25.3935 17.0981 25.2777 17.2671 25.2516C17.5129 25.2123 17.5628 25.0613 17.6124 24.3315C17.6625 23.5864 17.6351 23.4639 17.3904 23.4575C17.2376 23.4535 17.0263 23.3414 16.9224 23.2168C16.6854 22.9212 16.9862 22.533 17.4296 22.5446C17.6895 22.5514 17.7374 22.4765 17.6861 22.0944C17.6365 21.6513 17.7785 21.4875 17.954 21.7967C18.0856 22.0286 18.4996 21.9937 18.8126 21.7277C19.2192 21.388 19.4579 21.6227 19.3197 22.2284C19.2321 22.6526 19.2752 22.7603 19.4873 22.842C19.639 22.8917 19.8655 23.0042 19.9859 23.0835C20.4672 23.4007 20.6044 23.4196 20.8859 23.1832C21.0424 23.0502 21.2745 22.9496 21.3968 22.9528C21.7026 22.9608 21.8172 22.6744 21.739 22.1545C21.6866 21.818 21.7191 21.7427 21.979 21.7495C22.1472 21.7539 22.3585 21.866 22.4623 21.9906C22.6994 22.2862 23.0052 22.2942 23.1351 22.0082C23.2493 21.737 23.8005 21.7209 23.8854 21.9821C23.9132 22.0894 23.8928 22.2869 23.8128 22.4219C23.6523 22.7071 23.7984 22.9698 24.1944 23.0411C24.4072 23.0924 24.4954 23.2317 24.4886 23.4905C24.4819 23.7493 24.3866 23.8839 24.1713 23.9239C23.7722 23.9745 23.6126 24.2292 23.7728 24.538C23.8457 24.677 23.8405 24.8749 23.7609 24.9947C23.5699 25.2791 23.7297 25.6031 24.0661 25.6119C24.2342 25.6163 24.4 25.712 24.4427 25.835C24.5857 26.2195 24.9973 26.276 25.266 25.9479C25.6138 25.5153 26.0983 25.7107 25.9774 26.2406C25.8565 26.7706 25.972 27.0326 26.3237 27.0417C26.4919 27.0461 26.6573 27.1571 26.6999 27.28C26.8147 27.5724 27.2734 27.5844 27.5256 27.3016C27.6358 27.1826 27.8526 27.0817 28.0055 27.0856C28.3113 27.0936 28.3446 26.9879 28.3171 26.2865C28.3101 25.9664 28.3737 25.8767 28.6336 25.8835C28.8018 25.8879 28.9824 25.9992 29.0251 26.1222C29.1399 26.4146 29.675 26.4286 29.7896 26.1422C29.8539 26.022 30.0096 25.9194 30.1472 25.923C30.56 25.9338 30.7973 25.6354 30.6226 25.2957C30.5352 25.1259 30.5408 24.9128 30.6212 24.7626C30.8142 24.402 30.6994 24.1096 30.3631 24.1008C30.0267 24.0921 29.6709 23.6563 29.8587 23.4936C29.9372 23.4195 30.1383 23.3334 30.3073 23.3073C30.5221 23.2825 30.6179 23.1327 30.6568 22.8138C30.6635 22.5551 30.7017 22.2666 30.7044 22.1601C30.7265 21.9017 31.1079 21.9422 31.3301 22.2221C31.5668 22.5329 31.9341 22.5273 32.1718 22.2136C32.4726 21.8255 32.9246 22.0962 32.8044 22.5957C32.6835 23.1257 32.7987 23.4029 33.135 23.4116C33.2879 23.4156 33.4839 23.5274 33.5877 23.6519C33.8248 23.9475 34.1 23.9547 34.3522 23.6719C34.4624 23.5529 34.6639 23.4516 34.8168 23.4555C35.1532 23.4643 35.2827 23.1935 35.1892 22.6732C35.1101 22.1837 35.4058 21.9934 35.7491 22.3223C36.0775 22.6355 36.4292 22.6447 36.6814 22.3619C36.7916 22.2429 36.9931 22.1415 37.146 22.1455C37.4518 22.1535 37.6762 21.7633 37.4504 21.6203C37.3755 21.5575 37.3521 21.2827 37.4208 20.9951C37.5088 20.5556 37.4955 20.4791 37.2203 20.472C36.7769 20.4604 36.4967 20.057 36.7489 19.7742C36.8591 19.6552 37.076 19.5543 37.2136 19.5579C37.4582 19.5643 37.4923 19.4281 37.5106 18.7279C37.5148 17.9816 37.487 17.8743 37.1679 17.7898C36.9857 17.7393 36.7905 17.5972 36.7478 17.4742C36.6483 17.1822 36.3727 17.1902 36.0284 17.4859C35.606 17.8404 35.2596 17.6333 35.3209 17.0409C35.3771 16.6463 35.3187 16.5382 34.9997 16.4537C34.4677 16.318 34.4483 15.891 34.9745 15.661C35.3305 15.5027 35.3948 15.3826 35.3746 14.986C35.343 14.4369 35.7787 14.1588 36.0588 14.5622C36.2649 14.8722 36.8149 14.9018 36.9452 14.6005C36.9943 14.48 37.1805 14.3782 37.3487 14.3826C37.6392 14.3902 37.751 14.2103 37.6684 13.8578C37.6402 13.7657 37.6473 13.4917 37.6694 13.2334C37.6954 12.8228 37.6366 12.7299 37.2427 12.5825C37.0004 12.4848 36.79 12.3422 36.7916 12.2813C36.7975 12.053 37.1563 11.7882 37.4468 11.7958C37.6762 11.8017 37.7256 11.666 37.7439 10.9658C37.763 10.2351 37.7352 10.1278 37.46 10.1206C37.3071 10.1166 37.0966 9.97403 37.0092 9.8042C36.82 9.4337 36.4692 9.39408 36.2769 9.72416C36.1969 9.85915 35.9962 9.93007 35.8441 9.89564C35.6312 9.84438 35.5584 9.70539 35.5687 9.30964C35.5802 8.86822 35.5218 8.76007 35.2321 8.72204C35.0342 8.68641 34.8386 8.55945 34.7959 8.43648C34.696 8.1597 34.2373 8.14773 33.9852 8.43054C33.875 8.54952 33.6581 8.65048 33.5205 8.64689C33.1842 8.63811 33.0543 8.92412 33.2282 9.29422C33.3011 9.43321 33.3112 9.63149 33.2634 9.7064C33.1198 9.93113 32.5706 9.87109 32.4856 9.60993C32.3708 9.31753 32.0651 9.30955 31.8129 9.59236C31.7027 9.71134 31.4858 9.8123 31.3177 9.80791C31.0577 9.80113 31.0139 9.72382 31.0995 9.37572C31.2196 8.87621 31.1032 8.6447 30.6924 8.55781C30.2667 8.45531 30.1921 7.79839 30.6049 7.80917C31.033 7.82035 31.193 7.55035 31.1984 6.75844C31.2139 6.16481 31.1704 6.07229 30.8811 6.01904C30.6984 5.9838 30.4723 5.85604 30.3837 5.73188C30.1462 5.4515 29.9475 5.44632 29.6032 5.74196C29.1804 6.11172 28.8037 5.88864 28.9404 5.34386C29.026 4.99576 28.9837 4.85758 28.7285 4.66813L28.413 4.44665L28.7518 4.3641C29.0289 4.29518 29.0772 4.20505 29.0107 3.82252C28.9043 3.21047 29.2643 2.9 29.6523 3.2757C29.9662 3.55806 30.3778 3.61451 30.5218 3.37456C30.5849 3.30005 30.7872 3.16824 30.988 3.09733C31.2813 2.99836 31.3303 2.87779 31.3317 2.23809C31.3323 1.62884 31.2747 1.49025 30.958 1.31443C30.4599 1.05771 30.4827 0.768907 31.0395 0.539736C31.4112 0.366659 31.4594 0.276529 31.3929 -0.106002C31.3002 -0.656766 31.6574 -0.860685 32.0603 -0.469371C32.3887 -0.156161 32.7705 -0.130962 32.9012 -0.447415C32.9503 -0.56799 33.1208 -0.654926 33.2576 -0.620891C33.4556 -0.585259 33.5277 -0.415828 33.5181 -0.050512C33.5074 0.360465 33.5948 0.530295 33.9561 0.752977C34.7232 1.26042 34.8145 1.27804 35.02 1.02446C35.131 0.875043 35.3173 0.773283 35.4549 0.776876C35.776 0.785259 36.0486 0.304961 35.8876 0.0265845C35.741 -0.22095 35.9799 -0.580274 36.2857 -0.57229C36.3927 -0.569496 36.5123 -0.459756 36.5702 -0.336385C36.6697 -0.0443868 37.2044 -0.0151915 37.3802 -0.300004C37.4445 -0.420181 37.646 -0.521541 37.8154 -0.562811C38.0765 -0.60169 38.1256 -0.722262 38.1443 -1.43767C38.1637 -2.18352 38.1355 -2.27564 37.7859 -2.36093C37.2845 -2.49588 37.3089 -2.84557 37.8355 -3.09076C38.2221 -3.24821 38.2551 -3.33874 38.2263 -3.99446C38.2061 -4.39102 38.185 -4.75713 38.1717 -4.83363C38.1733 -4.89452 38.0216 -4.94418 37.8534 -4.94857C37.6853 -4.95296 37.5046 -5.0643 37.4619 -5.18727C37.3479 -5.51011 37.1025 -5.48606 36.695 -5.1159C36.3817 -4.83468 36.3358 -4.83587 36.1124 -5.07018C35.949 -5.25723 35.922 -5.39502 36.0189 -5.5905C36.2107 -5.90536 36.0642 -6.1529 35.6687 -6.23939C35.2124 -6.34269 35.1981 -6.96756 35.6431 -7.01687C35.9344 -7.03973 35.9983 -7.14469 36.0247 -7.57048C36.0406 -8.17934 36.4304 -8.45856 36.7729 -8.09929C37.0406 -7.8029 37.2703 -7.81213 37.8601 -8.13183C38.2792 -8.3646 38.3275 -8.45473 38.3469 -9.20058C38.3664 -9.94642 38.3382 -10.0386 37.9886 -10.1238C37.7757 -10.1751 37.6111 -10.3165 37.6143 -10.4382C37.6175 -10.56 37.7904 -10.7383 38.0072 -10.8392C38.3323 -10.9831 38.3974 -11.1337 38.4278 -11.7117C38.4606 -12.381 38.461 -12.3963 37.9717 -12.409C37.6659 -12.417 37.439 -12.5143 37.3814 -12.6529C37.2823 -12.9602 36.8385 -12.9565 36.6009 -12.6429C36.2844 -12.2399 35.8787 -12.5246 35.9545 -13.0862C35.9955 -13.4812 35.9379 -13.6198 35.5616 -13.8581C34.8095 -14.3499 34.7334 -14.3671 34.4523 -14.146C34.3115 -14.0278 34.0629 -13.882 33.9088 -13.8403C33.708 -13.7694 33.6429 -13.6188 33.6643 -13.2679C33.71 -12.6726 33.2257 -12.2893 32.9926 -12.7371C32.8022 -13.0619 32.4356 -13.0867 32.0603 -12.7766C31.6843 -12.4361 31.2492 -12.7674 31.5054 -13.2024C31.6984 -13.5629 31.5965 -13.7636 31.112 -13.959C30.6127 -14.1701 30.6274 -14.7333 31.1319 -14.7201C31.6059 -14.7077 31.6895 -14.9797 31.5876 -16.3532C31.59 -16.4445 31.4548 -16.5395 31.2866 -16.5439C31.1337 -16.5478 30.9225 -16.66 30.8186 -16.7846C30.5819 -17.0954 30.2146 -17.0897 29.9769 -16.7761C29.8506 -16.627 29.6809 -16.5706 29.5147 -16.6511C29.3179 -16.7323 29.2752 -16.8553 29.3608 -17.2034C29.4476 -17.5972 29.4041 -17.6897 29.1164 -17.8038C28.9196 -17.8851 28.6793 -18.059 28.5759 -18.1987C28.3239 -18.51 27.9727 -18.5344 27.8577 -18.2327C27.7934 -18.1125 27.6377 -18.01 27.4848 -18.014C27.0567 -18.0252 26.786 -17.621 27.0078 -17.3258C27.1712 -17.1387 27.1536 -17.0478 26.9497 -16.8551C26.7139 -16.6176 26.6685 -16.634 26.3401 -16.9472C25.9372 -17.3385 25.6938 -17.3905 25.5788 -17.0889C25.5297 -16.9683 25.3278 -16.8518 25.1282 -16.8265C24.8213 -16.7888 24.773 -16.6987 24.7237 -15.9841C24.6898 -15.2691 24.7176 -15.1617 25.0355 -15.0316C25.2322 -14.9503 25.4274 -14.8081 25.4862 -14.7152C25.6178 -14.4833 25.2715 -14.1115 24.9046 -14.1211C24.6447 -14.1279 24.6121 -14.0526 24.6645 -13.7161C24.7827 -12.9667 24.3917 -12.6418 23.992 -13.1549C23.7553 -13.4657 23.388 -13.46 23.1503 -13.1464C22.8651 -12.773 22.3975 -13.0289 22.5318 -13.4824C22.6668 -13.9663 22.5235 -14.3356 22.1871 -14.3444C22.0342 -14.3484 21.8382 -14.4601 21.7344 -14.5847C21.6305 -14.7092 21.4498 -14.8206 21.3275 -14.8238C21.2205 -14.8266 21.0801 -14.7236 21.0311 -14.603C20.9667 -14.4829 20.7652 -14.3815 20.5664 -14.3867C20.2301 -14.3955 20.1979 -14.3354 20.2162 -13.8627C20.2425 -13.1157 20.0084 -12.939 19.4993 -13.3636C19.1251 -13.678 19.0792 -13.6792 18.8133 -13.4576C18.4376 -13.1323 18.362 -13.1648 18.4495 -13.589C18.5182 -13.8766 18.4442 -13.9699 18.0655 -14.1169C17.808 -14.215 17.5975 -14.3576 17.5991 -14.4185C17.6055 -14.662 17.8408 -14.8843 18.1478 -14.922C18.4093 -14.9761 18.4583 -15.0967 18.477 -15.8121C18.4957 -16.5275 18.453 -16.6505 18.1943 -16.7029C18.0273 -16.753 17.8313 -16.8647 17.7733 -16.9881C17.6127 -17.2817 17.123 -17.2792 16.9932 -16.9932C16.879 -16.722 16.2819 -16.7072 16.2738 -16.9815C16.2761 -17.0729 16.2535 -17.3781 16.2599 -17.6216C16.2384 -17.9725 16.1652 -18.0963 15.9061 -18.1335C15.5101 -18.2048 15.4182 -18.786 15.7851 -18.7764C16.1674 -18.7664 16.4686 -19.1698 16.4029 -19.5828C16.3086 -20.0727 16.7889 -20.3038 17.0542 -19.9161C17.2752 -19.5905 17.7182 -19.5637 17.8331 -19.8653C17.8975 -19.9855 18.099 -20.0869 18.2825 -20.0821C18.6953 -20.0713 18.8397 -20.3265 18.6516 -20.7426C18.5494 -20.9281 18.5686 -21.0799 18.6784 -21.1836C18.898 -21.3912 18.6207 -21.901 18.269 -21.9102C17.9632 -21.9182 17.8018 -22.1814 17.9172 -22.4982C17.9654 -22.5884 18.1054 -22.6761 18.2583 -22.6721C18.6711 -22.6613 18.9084 -22.9598 18.7337 -23.2994C18.6169 -23.5157 18.6362 -23.6675 18.7782 -23.8314C18.9515 -24.0249 18.9382 -24.1014 18.698 -24.2752C18.5482 -24.4009 18.3366 -24.4979 18.2296 -24.5007C18.1378 -24.5031 18.0183 -24.6128 17.9603 -24.7362C17.8612 -25.0434 17.3257 -25.0421 17.1955 -24.7409C17.1464 -24.6203 16.9758 -24.5334 16.839 -24.5674C16.6411 -24.6031 16.569 -24.7725 16.5789 -25.153C16.5897 -25.564 16.5164 -25.6878 16.2882 -25.7394C16.1209 -25.7743 15.8653 -25.9485 15.7325 -26.1347L15.4813 -26.4764L15.1205 -26.1355C14.9017 -25.9584 14.6378 -25.813 14.5002 -25.8166C14.2097 -25.8242 14.0481 -25.4933 14.2091 -25.2149C14.2675 -25.1068 14.2933 -24.9233 14.2442 -24.8027C14.1301 -24.5315 13.6412 -24.5595 13.5264 -24.8519C13.4837 -24.9749 13.3183 -25.0859 13.1502 -25.0902C12.9973 -25.0942 12.8263 -24.9921 12.762 -24.8719C12.6474 -24.5855 12.1119 -24.5842 12.012 -24.861C11.9693 -24.984 12.0047 -25.1658 12.0686 -25.2708C12.2596 -25.5552 11.9814 -26.0347 11.6298 -26.0438C11.431 -26.049 11.3268 -26.1584 11.3319 -26.3563C11.3371 -26.5541 11.4469 -26.6579 11.6304 -26.6531C11.7986 -26.6487 11.984 -26.72 12.0476 -26.8098C12.1594 -26.9896 12.2394 -28.2975 12.134 -28.3611C11.6519 -28.6479 11.0326 -28.9535 10.9103 -28.9567C10.8338 -28.9587 10.6628 -28.8565 10.5374 -28.7379C10.1609 -28.3822 9.84656 -28.6493 9.90872 -29.2722C9.96651 -29.7277 9.92303 -29.8202 9.63372 -29.8734C9.45105 -29.9087 9.22489 -30.0364 9.13633 -30.1606C8.89886 -30.441 8.5472 -30.4502 8.43263 -30.1637ZM9.17682 -29.3675C9.31125 -29.2421 9.41231 -29.011 9.40913 -28.8892C9.39323 -28.2804 10.2991 -27.815 10.7226 -28.2152C10.9736 -28.4524 11.5302 -28.0875 11.5202 -27.707C11.5154 -27.5243 11.3715 -27.2844 11.1997 -27.1518C10.6993 -26.7383 10.6223 -26.1311 11.0401 -25.7241C11.2489 -25.5207 11.4542 -25.1802 11.5094 -24.9503C11.6315 -24.3531 12.2183 -23.9722 12.6523 -24.1893C12.9002 -24.3047 13.1146 -24.3144 13.4627 -24.1682C13.8566 -24.0208 14.0099 -24.032 14.3373 -24.2672C14.5558 -24.429 14.7472 -24.7287 14.7833 -24.941C14.8215 -25.2294 14.963 -25.378 15.2245 -25.4321C15.6092 -25.5135 16.1065 -25.2263 15.9477 -25.002C15.8202 -24.8073 16.1431 -24.281 16.4895 -24.0739C16.7157 -23.9462 16.9145 -23.941 17.2544 -24.0692C18.1201 -24.4121 18.4664 -23.611 17.7448 -22.9292C17.5252 -22.7217 17.3499 -22.4521 17.3467 -22.3303C17.3435 -22.2086 17.5038 -21.8998 17.7115 -21.6506C18.126 -21.1219 18.1894 -20.6176 17.8341 -20.4898C17.6953 -20.4477 17.2978 -20.4581 16.9321 -20.5134C16.3535 -20.6199 16.2452 -20.577 16.008 -20.2785C15.8652 -20.0843 15.751 -19.8131 15.747 -19.6609C15.7435 -19.5239 15.647 -19.3436 15.5383 -19.2855C14.9639 -18.9654 14.9204 -17.8851 15.4805 -17.6572C15.6016 -17.6084 15.689 -17.4385 15.6846 -17.2711C15.6803 -17.1037 15.8401 -16.7796 16.0325 -16.5309C16.3734 -16.1107 16.4193 -16.1095 16.9592 -16.2782C17.9163 -16.6036 18.3112 -15.9078 17.5437 -15.2272C17.3245 -15.0349 17.1488 -14.7501 17.1448 -14.5979C17.1337 -14.1717 17.397 -13.7079 17.6569 -13.7011C17.8098 -13.6971 17.8818 -13.5276 17.8727 -13.1775C17.8568 -12.5687 18.083 -12.4409 18.6405 -12.7005C18.8883 -12.8159 19.1028 -12.8256 19.2533 -12.7302C19.9 -12.3021 20.7693 -12.782 20.79 -13.5736C20.7952 -13.7714 20.9218 -13.9357 21.1069 -13.9918C21.5229 -14.1028 22.0046 -13.8008 21.9198 -13.4831C21.8853 -13.3317 21.9549 -13.071 22.0729 -12.9003C22.2653 -12.6516 22.5083 -12.5843 23.5931 -12.5255C24.7237 -12.4656 24.9079 -12.4912 25.0523 -12.7464C25.1327 -12.8966 25.2159 -13.1534 25.2203 -13.3208C25.2247 -13.4882 25.3992 -13.7274 25.6168 -13.8588C25.8811 -14.0194 26.0094 -14.2446 26.0166 -14.5186C26.0233 -14.7773 25.8788 -15.101 25.655 -15.32C25.2074 -15.7582 25.1876 -16.17 25.6064 -16.3875C25.8236 -16.5037 25.9914 -16.4841 26.2019 -16.3415C26.6836 -16.0395 27.3337 -16.3272 27.5483 -16.9309C27.8952 -17.9119 28.5209 -17.8498 28.831 -16.8365C29.0147 -16.2528 29.3616 -16.061 30.0536 -16.1953C30.5456 -16.289 30.9528 -16.0652 30.9429 -15.6846C30.9397 -15.5628 30.7636 -15.2628 30.5428 -15.0096C30.3224 -14.7717 30.1462 -14.4716 30.1435 -14.3651C30.1407 -14.2585 30.3009 -13.9497 30.5086 -13.7006C30.7159 -13.4362 30.8765 -13.1426 30.8734 -13.0209C30.8702 -12.8991 30.9559 -12.6684 31.0743 -12.513C31.2361 -12.2651 31.4944 -12.1974 32.518 -12.1402C33.6333 -12.0806 33.7717 -12.1074 33.9937 -12.4063C34.1208 -12.5858 34.2346 -12.8417 34.2382 -12.9787C34.2418 -13.1157 34.354 -13.3108 34.479 -13.4141C34.8069 -13.6645 35.5022 -13.3417 35.4464 -12.9624C35.4123 -12.8262 35.4663 -12.5506 35.5685 -12.3652C35.7288 -12.0563 35.8656 -12.0223 36.6614 -12.032C37.8399 -12.0469 38.124 -11.7958 37.5134 -11.2634C36.9813 -10.8051 36.9513 -10.2423 37.4439 -9.7725C38.1599 -9.06838 37.779 -8.54521 36.6975 -8.72576C36.0883 -8.83306 35.9805 -8.80541 35.7428 -8.49175C35.6 -8.29747 35.4862 -8.04149 35.4835 -7.93494C35.4803 -7.81318 35.3045 -7.52836 35.0837 -7.27519C34.8633 -7.03724 34.6872 -6.7372 34.684 -6.61542C34.6808 -6.49365 34.8419 -6.21528 35.0504 -5.99659C35.2588 -5.7779 35.4195 -5.48431 35.4155 -5.33209C35.4004 -4.75368 35.761 -4.50056 36.4969 -4.5575C36.8803 -4.59318 37.3076 -4.55156 37.4432 -4.47186C37.805 -4.2644 37.7303 -3.74847 37.2778 -3.40996C37.0284 -3.23369 36.8836 -2.9633 36.8769 -2.70453C36.8705 -2.46099 37.015 -2.13735 37.2388 -1.91826C37.4477 -1.7148 37.6095 -1.46686 37.6067 -1.36031C37.5984 -1.04067 37.0891 -0.871182 36.434 -0.979675C35.7637 -1.08857 35.3586 -0.809742 35.2494 -0.142394C35.2109 0.161235 35.1019 0.234548 34.7502 0.225366C34.3833 0.215785 34.2782 0.136883 34.1956 -0.215605C34.0167 -0.981865 33.8505 -1.06236 32.5051 -1.09749C31.1443 -1.13302 30.866 -1.01844 30.8513 -0.455243C30.8453 -0.226924 30.6852 0.0430654 30.4511 0.219735C29.921 0.601917 29.9027 1.30211 30.4138 1.65055C30.91 1.98337 30.8957 2.53134 30.3852 2.74649C30.153 2.84705 29.9692 2.85748 29.9257 2.76495C29.7792 2.51742 29.059 2.55954 28.7456 2.84077C28.5892 2.97377 28.4601 3.22933 28.4553 3.41199C28.4502 3.60987 28.2752 3.86424 28.0576 3.99565C27.5914 4.27288 27.5524 4.59173 27.9275 4.87569C28.0776 4.98624 28.2539 5.26501 28.2939 5.49453C28.4445 6.16866 28.8047 6.43701 29.465 6.34762C29.7872 6.31034 30.1542 6.31992 30.2753 6.36878C30.5779 6.49853 30.5753 7.1839 30.282 7.28286C30.1585 7.32533 29.9687 7.56408 29.8706 7.80523C29.7081 8.16655 29.7046 8.30355 29.9103 8.62878C30.0423 8.84548 30.2214 9.0177 30.2979 9.0197C30.3896 9.02209 30.4464 9.19112 30.4408 9.40422C30.4261 9.96741 30.9638 10.4689 31.4566 10.3447C31.6872 10.305 31.9789 10.2669 32.1012 10.2701C32.2235 10.2733 32.5128 10.3265 32.7409 10.3782C33.2266 10.528 33.7898 10.0552 33.8045 9.49205C33.8116 9.21806 33.9218 9.09909 34.199 9.03016C34.6299 8.93479 35.0963 9.23638 34.966 9.53761C34.9174 9.64296 35.0177 9.90452 35.1803 10.122C35.491 10.5262 35.9622 10.6451 36.3661 10.4119C36.9256 10.0762 37.4083 10.9265 36.8778 11.3239C36.4244 11.6929 36.3075 12.0706 36.479 12.5321C36.5797 12.7784 36.7419 13.0111 36.863 13.06C37.1507 13.1741 37.1176 13.8587 36.8086 13.9725C36.6851 14.0149 36.3029 14.005 35.9677 13.9505C35.313 13.8268 34.91 14.0295 34.8984 14.4709C34.8945 14.6232 34.7179 14.9384 34.5128 15.1768C33.9296 15.8317 33.8911 16.1354 34.3061 16.6488C34.5138 16.898 34.6744 17.1916 34.672 17.2829C34.6633 17.6178 35.273 18.2887 35.5788 18.2966C35.747 18.301 36.0089 18.2317 36.1646 18.1292C36.3975 17.9982 36.5198 18.0013 36.6993 18.1584C37.0281 18.4563 36.99 18.7447 36.5327 19.2659C36.0287 19.8163 36.0184 20.2121 36.4961 20.6663C36.9139 21.0732 36.9764 21.608 36.6212 21.7358C36.4824 21.7778 36.0849 21.7675 35.7191 21.7122C35.1405 21.6057 35.0323 21.6486 34.795 21.947C34.6523 22.1413 34.5381 22.4125 34.5345 22.5495C34.5309 22.6865 34.4187 22.8816 34.278 22.9998C33.9344 23.265 33.5742 22.9966 33.4373 22.3838C33.2858 21.7401 33.0137 21.6111 31.7294 21.5776C30.5827 21.5476 30.1185 21.7488 30.1038 22.312C30.0994 22.4794 29.9237 22.7642 29.7045 22.9565C29.4853 23.1488 29.3087 23.464 29.3036 23.6619C29.2984 23.8598 29.4582 24.1838 29.6671 24.3873C29.876 24.5908 30.0366 24.8844 30.0331 25.0214C30.0227 25.4171 29.4808 25.6619 29.1195 25.4392C28.9533 25.3587 28.7106 25.2762 28.5883 25.2731C28.2214 25.2635 27.7174 25.8139 27.7067 26.2249C27.688 26.9403 26.7103 26.8843 26.5918 26.1501C26.4438 25.3694 25.645 24.9068 25.1744 25.3515C24.9234 25.5886 24.3669 25.2238 24.3772 24.828C24.3816 24.6606 24.5577 24.3605 24.7769 24.1682C24.9961 23.9759 25.1719 23.6911 25.1767 23.5085C25.1814 23.3258 25.0208 23.0322 24.8119 22.8288C24.603 22.6253 24.4428 22.3165 24.4476 22.1338C24.4611 21.6163 23.9073 21.1449 23.4301 21.2543C22.9071 21.3625 22.6625 21.3561 22.1458 21.2207C21.6598 21.0862 21.097 21.5437 21.0827 22.0916C21.072 22.5026 20.6689 22.7053 20.2605 22.5271C20.1241 22.4779 19.9337 22.153 19.8656 21.8314C19.7822 21.5093 19.6674 21.2169 19.6062 21.2154C19.5455 21.1985 18.9653 21.1529 18.3235 21.1209L17.1318 21.0594L17.1191 21.5464C17.1095 21.9118 16.9973 22.1068 16.7173 22.2823C16.484 22.4285 16.3248 22.6681 16.3192 22.8812C16.3136 23.0943 16.4723 23.464 16.68 23.7131C17.1396 24.2735 17.1329 24.5322 16.7133 24.7802C16.48 24.9264 16.342 24.9381 16.2229 24.8131C16.1335 24.7194 15.8756 24.6365 15.6463 24.6305C15.2029 24.6189 14.7319 25.0788 14.7203 25.5202C14.7168 25.6572 14.5414 25.9268 14.3222 26.1191C14.103 26.3114 13.9285 26.5505 13.9257 26.6571C13.9161 27.0224 14.2519 27.6404 14.4659 27.646C14.573 27.6488 14.6607 27.8034 14.6556 28.0013C14.6377 28.6863 14.9826 28.9542 15.9611 28.9798C16.7714 29.0009 16.8471 29.0334 16.8846 29.3542C16.9092 29.5833 16.7801 29.8389 16.5295 30.0608C16.0131 30.5043 15.9992 31.0371 16.4765 31.5065C16.924 31.9446 16.9455 32.2955 16.5259 32.5435C16.293 32.6745 16.1554 32.6709 15.9445 32.5436C15.7791 32.4326 15.4894 32.3946 15.2742 32.4347C14.9201 32.5168 14.7617 32.7259 14.4473 33.6316C14.381 33.8279 14.2265 33.8848 13.9368 33.8468C13.6013 33.8075 13.4974 33.683 13.4321 33.2548C13.3116 32.5967 12.922 32.2819 12.3226 32.3881C11.7235 32.4791 11.6318 32.4767 11.1304 32.3417C10.629 32.2068 10.0989 32.5889 10.0861 33.076C10.0814 33.2587 9.88996 33.5583 9.68603 33.751C9.18485 34.1949 9.17253 34.6667 9.64986 35.1362C10.3808 35.8559 9.99871 36.4247 8.90186 36.2438C8.29267 36.1365 8.18485 36.1641 7.94717 36.4778C7.8044 36.6721 7.69022 36.9433 7.68664 37.0803C7.68306 37.2173 7.52461 37.4264 7.32227 37.5582C7.01132 37.7481 6.93487 37.7461 6.63465 37.525C6.45436 37.3984 6.30782 37.1509 6.31299 36.953C6.3273 36.405 5.8319 36.0418 5.17168 36.1312C4.09666 36.2859 3.70014 35.651 4.45072 35.0309C4.93542 34.6323 4.96581 34.0543 4.54884 33.6169C4.37014 33.4294 4.18091 33.0589 4.09673 32.7673C3.95894 32.1849 3.44507 31.943 2.873 32.1718C2.65617 32.2728 2.41154 32.2664 2.20028 32.1542C1.61075 31.8799 1.11514 32.1107 0.914573 32.7604C0.814492 33.0777 0.637966 33.3929 0.499169 33.435C0.174916 33.5484 -0.322079 33.246 -0.313733 32.9263C-0.309759 32.7741 -0.409628 32.4973 -0.542066 32.2959C-0.763057 31.9702 -0.869289 31.937 -1.48325 32.0124C-2.55707 32.1214 -2.99866 31.4549 -2.17481 30.9585C-1.64623 30.6372 -1.62795 29.9371 -2.13586 29.4669C-2.85306 28.8084 -2.3757 28.105 -1.4522 28.4794C-1.07394 28.6416 -0.935938 28.63 -0.594011 28.4257C-0.375987 28.279 -0.185758 28.0251 -0.180989 27.8424C-0.176617 27.675 -0.00048451 27.3749 0.21873 27.1826C0.71991 26.7388 0.735013 26.1604 0.257679 25.6909C0.0487976 25.4875 -0.111835 25.1939 -0.107464 25.0264C-0.0931558 24.4785 -0.605042 24.1605 -1.357 24.2475C-1.83295 24.3112 -2.07679 24.2744 -2.19513 24.119C-2.37303 23.9011 -2.24892 23.2493 -2.03487 23.2549C-1.95842 23.2569 -1.78587 23.0939 -1.65839 22.8992C-1.43639 22.6004 -1.43281 22.4634 -1.57815 22.1702C-1.68001 21.9695 -1.84223 21.7368 -1.94727 21.6579C-2.03662 21.5642 -2.16588 21.2409 -2.21869 20.9197C-2.29651 20.3845 -2.34119 20.3377 -2.63407 20.4214C-2.94264 20.52 -3.29469 20.526 -4.18027 20.4572C-4.57739 20.4316 -5.048 20.8763 -5.05873 21.2872C-5.06389 21.4851 -5.20746 21.7098 -5.39331 21.7964C-5.7968 22.0143 -6.24554 21.6218 -6.30688 21.0414C-6.35413 20.5071 -6.91228 20.2031 -7.49884 20.401C-7.77643 20.4851 -8.02105 20.4788 -8.23232 20.3666C-8.7599 20.0634 -9.72333 20.6323 -9.53848 21.1703C-9.50989 21.2472 -9.66914 21.4867 -9.88836 21.679C-10.3895 22.1229 -10.4042 22.6861 -9.91321 23.2168C-9.25876 23.9345 -9.73413 24.5618 -10.6576 24.1874C-11.2331 23.9591 -11.8711 24.369 -11.887 24.9778C-11.8949 25.2822 -11.991 25.4473 -12.2066 25.5026C-12.6383 25.6284 -13.1192 25.296 -13.1081 24.8698C-13.0922 24.2609 -13.483 23.9918 -14.3713 24.0295C-15.0911 24.0564 -15.1515 24.0244 -15.189 23.7035C-15.2144 23.5048 -15.0681 23.1736 -14.8477 22.9356C-14.4061 22.4293 -14.4203 21.8044 -14.8715 21.5032C-15.0369 21.3923 -15.1536 21.176 -15.1488 20.9933C-15.1306 20.2931 -16.1559 19.718 -16.6265 20.1627C-16.7677 20.2961 -16.8594 20.2937 -16.9935 20.1531C-17.47 19.6532 -18.4934 20.1749 -18.5129 20.9207C-18.52 21.1947 -18.6302 21.3137 -18.8921 21.383C-19.3846 21.492 -19.5347 21.3814 -19.6588 20.8603C-19.8361 20.0332 -20.484 19.6507 -21.0745 20.0008C-21.4007 20.1903 -21.8523 19.9044 -21.8419 19.5086C-21.8376 19.3412 -21.6614 19.0411 -21.4422 18.8489C-20.9414 18.4202 -20.9299 17.9788 -21.4065 17.4789C-21.6149 17.2602 -21.7752 16.9514 -21.7712 16.7992C-21.7601 16.373 -21.2496 16.1579 -20.7812 16.3833C-20.2979 16.6244 -19.6615 16.2755 -19.508 15.6702C-19.4408 15.4435 -19.2647 15.1435 -19.1078 14.9952C-18.7161 14.6399 -18.7123 13.9089 -19.0874 13.6249C-19.2524 13.4988 -19.4279 13.1895 -19.467 12.9296C-19.5871 12.2562 -19.8576 12.0664 -20.564 12.1698C-20.9016 12.2067 -21.2838 12.1967 -21.405 12.1479C-21.7836 12.0009 -21.674 11.3183 -21.2371 10.9946C-20.738 10.6269 -20.7236 10.0789 -21.203 9.68558C-21.667 9.29267 -21.6962 8.65218 -21.2496 8.54198C-21.0802 8.50071 -20.7451 8.55516 -20.4875 8.65327C-20.1242 8.79985 -20.0014 8.78782 -19.7352 8.55106C-19.5477 8.40364 -19.403 8.13325 -19.3982 7.95059C-19.3859 7.47873 -19.0118 7.21432 -18.541 7.34847C-18.298 7.41574 -18.1639 7.55633 -18.1695 7.76943C-18.189 8.51528 -17.4525 9.02192 -16.8169 8.70342C-16.6154 8.60206 -16.4166 8.60725 -16.145 8.75142C-15.6158 8.99372 -15.0277 8.7349 -14.8758 8.19053C-14.8086 7.9638 -14.5843 7.57364 -14.3791 7.33528C-13.9693 6.8738 -13.9895 6.47725 -14.4649 5.93172C-14.7917 5.55763 -14.8233 5.00846 -14.5147 4.90989C-14.4065 4.86702 -14.0243 4.877 -13.6738 4.93185C-12.9576 5.04194 -12.5851 4.83842 -12.5712 4.30567C-12.5656 4.09257 -12.4064 3.85302 -12.173 3.7068C-11.6754 3.39992 -11.6635 2.94328 -12.1468 2.70219C-12.4188 2.57323 -12.5215 2.403 -12.5135 2.09857C-12.4972 1.47449 -13.1138 1.06237 -13.747 1.28955C-14.6888 1.61529 -15.1139 0.903525 -14.3774 0.237326C-13.8762 -0.206543 -13.8627 -0.724066 -14.3369 -1.31525C-14.5446 -1.56439 -14.704 -1.90365 -14.6996 -2.07108C-14.6956 -2.2233 -14.8884 -2.45681 -15.1448 -2.60058C-15.5066 -2.80804 -15.6442 -2.81164 -15.9081 -2.66621C-16.1567 -2.52039 -16.279 -2.52358 -16.5196 -2.68218C-16.6854 -2.7779 -16.8971 -2.87482 -17.0041 -2.87761C-17.3252 -2.88599 -17.908 -2.24625 -17.9171 -1.89615C-17.9223 -1.69828 -18.0659 -1.47355 -18.2517 -1.38701C-18.6548 -1.18429 -19.0742 -1.53034 -19.1806 -2.14239C-19.2874 -2.73922 -19.7848 -3.02638 -20.3564 -2.81283C-21.2222 -2.46987 -21.5685 -3.27096 -20.8469 -3.95278C-20.3449 -4.42709 -20.3377 -4.70108 -20.8143 -5.20093C-21.2015 -5.60707 -21.3051 -6.32567 -20.9679 -6.34733C-20.8758 -6.36016 -20.4473 -6.3642 -20.0188 -6.36824C-19.2998 -6.3647 -19.2532 -6.39395 -19.0883 -6.8466C-18.9894 -7.11819 -18.7502 -7.49273 -18.5615 -7.68582C-18.1058 -8.14611 -18.1064 -8.7097 -18.5689 -9.16349C-18.7777 -9.36696 -18.938 -9.67578 -18.9328 -9.87365C-18.9197 -10.376 -19.5974 -10.7897 -20.0922 -10.5894C-21.005 -10.2019 -21.4108 -11.0655 -20.6434 -11.7461C-20.4242 -11.9384 -20.2488 -12.208 -20.2445 -12.3755C-20.2405 -12.5277 -20.4011 -12.8213 -20.61 -13.0247C-21.0426 -13.4473 -21.0673 -13.6764 -20.739 -13.942C-20.5516 -14.0894 -20.414 -14.0858 -20.051 -13.924C-19.6728 -13.7618 -19.5352 -13.7583 -19.2085 -13.963C-19.0062 -14.0948 -18.7689 -14.3932 -18.7171 -14.6203C-18.4796 -15.5128 -17.6837 -15.5225 -17.5382 -14.6505C-17.4177 -13.9924 -17.0289 -13.6471 -16.5518 -13.7565C-16.044 -13.8651 -15.7994 -13.8587 -15.298 -13.7238C-14.9942 -13.6397 -14.8092 -13.6958 -14.5578 -13.9482C-14.3845 -14.1416 -14.2248 -14.3964 -14.2212 -14.5334C-14.2173 -14.6856 -14.0415 -14.9704 -13.8215 -15.1932C-13.334 -15.6983 -13.3289 -15.8962 -13.7881 -16.4718C-14.2176 -17.0161 -14.2426 -17.23 -13.8967 -17.5865C-13.6606 -17.8393 -13.5995 -17.8377 -13.2075 -17.6142C-12.8152 -17.406 -12.7234 -17.4036 -12.3811 -17.6231C-12.1635 -17.7545 -11.9885 -18.0089 -11.9834 -18.2068C-11.9786 -18.3894 -11.8338 -18.6598 -11.6774 -18.7928C-11.4268 -19.0147 -11.335 -19.0124 -11.0642 -18.8377C-10.8835 -18.7264 -10.7519 -18.4945 -10.7566 -18.3118C-10.761 -18.1444 -10.6008 -17.8356 -10.3919 -17.6321C-10.0788 -17.3193 -9.97254 -17.286 -9.6322 -17.4295C-9.02877 -17.6879 -8.80062 -17.6362 -8.61339 -17.1896C-8.46924 -16.8508 -8.48691 -16.7598 -8.8626 -16.4346C-9.39475 -15.9763 -9.40827 -15.4587 -8.93292 -14.9132C-8.72483 -14.6793 -8.5646 -14.3705 -8.56817 -14.2335C-8.58089 -13.7464 -8.12738 -13.5366 -6.99637 -13.4918C-5.80421 -13.4454 -5.37095 -13.6321 -5.35505 -14.241C-5.34988 -14.4389 -5.20632 -14.6636 -5.03575 -14.7505C-4.586 -14.9825 -4.1172 -14.7722 -4.12753 -14.3765C-4.1327 -14.1786 -4.03363 -13.8714 -3.90119 -13.6699C-3.6798 -13.3595 -3.57397 -13.311 -2.99059 -13.3872C-2.59188 -13.4225 -2.14928 -13.3805 -1.92273 -13.2679C-1.49979 -13.0589 -1.2504 -13.2351 -1.23569 -13.7983C-1.23172 -13.9505 -1.05598 -14.2354 -0.836766 -14.4276C-0.617549 -14.6199 -0.441817 -14.9048 -0.437048 -15.0874C-0.432279 -15.2701 -0.592908 -15.5637 -0.801791 -15.7671C-1.01067 -15.9706 -1.17091 -16.2794 -1.16654 -16.4469C-1.15541 -16.8731 -0.643707 -17.1339 -0.251751 -16.9104C-0.0855561 -16.8299 0.157084 -16.7474 0.279397 -16.7442C0.585184 -16.7362 1.1511 -17.3155 1.15944 -17.6351C1.16302 -17.7721 1.33836 -18.0417 1.55757 -18.234C1.77679 -18.4263 1.95252 -18.7111 1.95649 -18.8633C1.96047 -19.0155 1.80024 -19.3244 1.59175 -19.543C1.38327 -19.7617 1.22303 -20.0705 1.22701 -20.2228C1.2441 -20.8773 0.218337 -21.4372 -0.236578 -21.0073C-0.471877 -20.785 -1.04293 -21.1807 -1.033 -21.5612C-1.02902 -21.7135 -0.85329 -21.9983 -0.634073 -22.1906C-0.414857 -22.3828 -0.23833 -22.6981 -0.232766 -22.9112C-0.227202 -23.1243 -0.372541 -23.4175 -0.597509 -23.5909C-1.01647 -23.9522 -1.0794 -24.4717 -0.708883 -24.5991C-0.569688 -24.6564 -0.233324 -24.6476 0.0402918 -24.5796C0.694552 -24.4406 1.15998 -24.6874 1.32838 -25.2771C1.53053 -25.9877 1.93282 -26.16 2.30313 -25.6933C2.45085 -25.4915 2.5809 -25.1987 2.57693 -25.0464C2.5662 -24.6355 3.29094 -24.2662 3.73989 -24.4677C3.9873 -24.5679 4.20136 -24.5623 4.47338 -24.4334C5.00215 -24.1758 5.5895 -24.4042 5.72573 -24.9338C5.79284 -25.1605 6.01723 -25.5507 6.22195 -25.7738C6.69533 -26.325 6.69236 -26.7973 6.22992 -27.2511C5.78237 -27.6892 5.77225 -27.8875 6.16362 -28.2276C6.39852 -28.4347 6.52124 -28.4468 6.85363 -28.2858C7.38239 -28.0283 7.97014 -28.2718 8.12245 -28.8314C8.34227 -29.633 8.74536 -29.8357 9.17682 -29.3675Z" fill="white"/>
<path d="M9.17682 -29.3675C9.31125 -29.2421 9.41231 -29.011 9.40913 -28.8892C9.39323 -28.2804 10.2991 -27.815 10.7226 -28.2152C10.9736 -28.4524 11.5302 -28.0875 11.5202 -27.707C11.5154 -27.5243 11.3715 -27.2844 11.1997 -27.1518C10.6993 -26.7383 10.6223 -26.1311 11.0401 -25.7241C11.2489 -25.5207 11.4542 -25.1802 11.5094 -24.9503C11.6315 -24.3531 12.2183 -23.9722 12.6523 -24.1893C12.9002 -24.3047 13.1146 -24.3144 13.4627 -24.1682C13.8566 -24.0208 14.0099 -24.032 14.3373 -24.2672C14.5558 -24.429 14.7472 -24.7287 14.7833 -24.941C14.8215 -25.2294 14.963 -25.378 15.2245 -25.4321C15.6092 -25.5135 16.1065 -25.2263 15.9477 -25.002C15.8202 -24.8073 16.1431 -24.281 16.4895 -24.0739C16.7157 -23.9462 16.9145 -23.941 17.2544 -24.0692C18.1201 -24.4121 18.4664 -23.611 17.7448 -22.9292C17.5252 -22.7217 17.3499 -22.4521 17.3467 -22.3303C17.3435 -22.2086 17.5038 -21.8998 17.7115 -21.6506C18.126 -21.1219 18.1894 -20.6176 17.8341 -20.4898C17.6953 -20.4477 17.2978 -20.4581 16.9321 -20.5134C16.3535 -20.6199 16.2452 -20.577 16.008 -20.2785C15.8652 -20.0843 15.751 -19.8131 15.747 -19.6609C15.7435 -19.5239 15.647 -19.3436 15.5383 -19.2855C14.9639 -18.9654 14.9204 -17.8851 15.4805 -17.6572C15.6016 -17.6084 15.689 -17.4385 15.6846 -17.2711C15.6803 -17.1037 15.8401 -16.7796 16.0325 -16.5309C16.3734 -16.1107 16.4193 -16.1095 16.9592 -16.2782C17.9163 -16.6036 18.3112 -15.9078 17.5437 -15.2272C17.3245 -15.0349 17.1488 -14.7501 17.1448 -14.5979C17.1337 -14.1717 17.397 -13.7079 17.6569 -13.7011C17.8098 -13.6971 17.8818 -13.5276 17.8727 -13.1775C17.8568 -12.5687 18.083 -12.4409 18.6405 -12.7005C18.8883 -12.8159 19.1028 -12.8256 19.2533 -12.7302C19.9 -12.3021 20.7693 -12.782 20.79 -13.5736C20.7952 -13.7714 20.9218 -13.9357 21.1069 -13.9918C21.5229 -14.1028 22.0046 -13.8008 21.9198 -13.4831C21.8853 -13.3317 21.9549 -13.071 22.0729 -12.9003C22.2653 -12.6516 22.5083 -12.5843 23.5931 -12.5255C24.7237 -12.4656 24.9079 -12.4912 25.0523 -12.7464C25.1327 -12.8966 25.2159 -13.1534 25.2203 -13.3208C25.2247 -13.4882 25.3992 -13.7274 25.6168 -13.8588C25.8811 -14.0194 26.0094 -14.2446 26.0166 -14.5186C26.0233 -14.7773 25.8788 -15.101 25.655 -15.32C25.2074 -15.7582 25.1876 -16.17 25.6064 -16.3875C25.8236 -16.5037 25.9914 -16.4841 26.2019 -16.3415C26.6836 -16.0395 27.3337 -16.3272 27.5483 -16.9309C27.8952 -17.9119 28.5209 -17.8498 28.831 -16.8365C29.0147 -16.2528 29.3616 -16.061 30.0536 -16.1953C30.5456 -16.289 30.9528 -16.0652 30.9429 -15.6846C30.9397 -15.5628 30.7636 -15.2628 30.5428 -15.0096C30.3224 -14.7717 30.1462 -14.4716 30.1435 -14.3651C30.1407 -14.2585 30.3009 -13.9497 30.5086 -13.7006C30.7159 -13.4362 30.8765 -13.1426 30.8734 -13.0209C30.8702 -12.8991 30.9559 -12.6684 31.0743 -12.513C31.2361 -12.2651 31.4944 -12.1974 32.518 -12.1402C33.6333 -12.0806 33.7717 -12.1074 33.9937 -12.4063C34.1208 -12.5858 34.2346 -12.8417 34.2382 -12.9787C34.2418 -13.1157 34.354 -13.3108 34.479 -13.4141C34.8069 -13.6645 35.5022 -13.3417 35.4464 -12.9624C35.4123 -12.8262 35.4663 -12.5506 35.5685 -12.3652C35.7288 -12.0563 35.8656 -12.0223 36.6614 -12.032C37.8399 -12.0469 38.124 -11.7958 37.5134 -11.2634C36.9813 -10.8051 36.9513 -10.2423 37.4439 -9.7725C38.1599 -9.06838 37.779 -8.54521 36.6975 -8.72576C36.0883 -8.83306 35.9805 -8.80541 35.7428 -8.49175C35.6 -8.29747 35.4862 -8.04149 35.4835 -7.93494C35.4803 -7.81318 35.3045 -7.52836 35.0837 -7.27519C34.8633 -7.03724 34.6872 -6.7372 34.684 -6.61542C34.6808 -6.49365 34.8419 -6.21528 35.0504 -5.99659C35.2588 -5.7779 35.4195 -5.48431 35.4155 -5.33209C35.4004 -4.75368 35.761 -4.50056 36.4969 -4.5575C36.8803 -4.59318 37.3076 -4.55156 37.4432 -4.47186C37.805 -4.2644 37.7303 -3.74847 37.2778 -3.40996C37.0284 -3.23369 36.8836 -2.9633 36.8769 -2.70453C36.8705 -2.46099 37.015 -2.13735 37.2388 -1.91826C37.4477 -1.7148 37.6095 -1.46686 37.6067 -1.36031C37.5984 -1.04067 37.0891 -0.871182 36.434 -0.979675C35.7637 -1.08857 35.3586 -0.809742 35.2494 -0.142394C35.2109 0.161235 35.1019 0.234548 34.7502 0.225366C34.3833 0.215785 34.2782 0.136883 34.1956 -0.215605C34.0167 -0.981865 33.8505 -1.06236 32.5051 -1.09749C31.1443 -1.13302 30.866 -1.01844 30.8513 -0.455243C30.8453 -0.226924 30.6852 0.0430654 30.4511 0.219735C29.921 0.601917 29.9027 1.30211 30.4138 1.65055C30.91 1.98337 30.8957 2.53134 30.3852 2.74649C30.153 2.84705 29.9692 2.85748 29.9257 2.76495C29.7792 2.51742 29.059 2.55954 28.7456 2.84077C28.5892 2.97377 28.4601 3.22933 28.4553 3.41199C28.4502 3.60987 28.2752 3.86424 28.0576 3.99565C27.5914 4.27288 27.5524 4.59173 27.9275 4.87569C28.0776 4.98624 28.2539 5.26501 28.2939 5.49453C28.4445 6.16866 28.8047 6.43701 29.465 6.34762C29.7872 6.31034 30.1542 6.31992 30.2753 6.36878C30.5779 6.49853 30.5753 7.1839 30.282 7.28286C30.1585 7.32533 29.9687 7.56408 29.8706 7.80523C29.7081 8.16655 29.7046 8.30355 29.9103 8.62878C30.0423 8.84548 30.2214 9.0177 30.2979 9.0197C30.3896 9.02209 30.4464 9.19112 30.4408 9.40422C30.4261 9.96741 30.9638 10.4689 31.4566 10.3447C31.6872 10.305 31.9789 10.2669 32.1012 10.2701C32.2235 10.2733 32.5128 10.3265 32.7409 10.3782C33.2266 10.528 33.7898 10.0552 33.8045 9.49205C33.8116 9.21806 33.9218 9.09909 34.199 9.03016C34.6299 8.93479 35.0963 9.23638 34.966 9.53761C34.9174 9.64296 35.0177 9.90452 35.1803 10.122C35.491 10.5262 35.9622 10.6451 36.3661 10.4119C36.9256 10.0762 37.4083 10.9265 36.8778 11.3239C36.4244 11.6929 36.3075 12.0706 36.479 12.5321C36.5797 12.7784 36.7419 13.0111 36.863 13.06C37.1507 13.1741 37.1176 13.8587 36.8086 13.9725C36.6851 14.0149 36.3029 14.005 35.9677 13.9505C35.313 13.8268 34.91 14.0295 34.8984 14.4709C34.8945 14.6232 34.7179 14.9384 34.5128 15.1768C33.9296 15.8317 33.8911 16.1354 34.3061 16.6488C34.5138 16.898 34.6744 17.1916 34.672 17.2829C34.6633 17.6178 35.273 18.2887 35.5788 18.2966C35.747 18.301 36.0089 18.2317 36.1646 18.1292C36.3975 17.9982 36.5198 18.0013 36.6993 18.1584C37.0281 18.4563 36.99 18.7447 36.5327 19.2659C36.0287 19.8163 36.0184 20.2121 36.4961 20.6663C36.9139 21.0732 36.9764 21.608 36.6212 21.7358C36.4824 21.7778 36.0849 21.7675 35.7191 21.7122C35.1405 21.6057 35.0323 21.6486 34.795 21.947C34.6523 22.1413 34.5381 22.4125 34.5345 22.5495C34.5309 22.6865 34.4187 22.8816 34.278 22.9998C33.9344 23.265 33.5742 22.9966 33.4373 22.3838C33.2858 21.7401 33.0137 21.6111 31.7294 21.5776C30.5827 21.5476 30.1185 21.7488 30.1038 22.312C30.0994 22.4794 29.9237 22.7642 29.7045 22.9565C29.4853 23.1488 29.3087 23.464 29.3036 23.6619C29.2984 23.8598 29.4582 24.1838 29.6671 24.3873C29.876 24.5908 30.0366 24.8844 30.0331 25.0214C30.0227 25.4171 29.4808 25.6619 29.1195 25.4392C28.9533 25.3587 28.7106 25.2762 28.5883 25.2731C28.2214 25.2635 27.7174 25.8139 27.7067 26.2249C27.688 26.9403 26.7103 26.8843 26.5918 26.1501C26.4438 25.3694 25.645 24.9068 25.1744 25.3515C24.9234 25.5886 24.3669 25.2238 24.3772 24.828C24.3816 24.6606 24.5577 24.3605 24.7769 24.1682C24.9961 23.9759 25.1719 23.6911 25.1767 23.5085C25.1814 23.3258 25.0208 23.0322 24.8119 22.8288C24.603 22.6253 24.4428 22.3165 24.4476 22.1338C24.4611 21.6163 23.9073 21.1449 23.4301 21.2543C22.9071 21.3625 22.6625 21.3561 22.1458 21.2207C21.6598 21.0862 21.097 21.5437 21.0827 22.0916C21.072 22.5026 20.6689 22.7053 20.2605 22.5271C20.1241 22.4779 19.9337 22.153 19.8656 21.8314C19.7822 21.5093 19.6674 21.2169 19.6062 21.2154C19.5455 21.1985 18.9653 21.1529 18.3235 21.1209L17.1318 21.0594L17.1191 21.5464C17.1095 21.9118 16.9973 22.1068 16.7173 22.2823C16.484 22.4285 16.3248 22.6681 16.3192 22.8812C16.3136 23.0943 16.4723 23.464 16.68 23.7131C17.1396 24.2735 17.1329 24.5322 16.7133 24.7802C16.48 24.9264 16.342 24.9381 16.2229 24.8131C16.1335 24.7194 15.8756 24.6365 15.6463 24.6305C15.2029 24.6189 14.7319 25.0788 14.7203 25.5202C14.7168 25.6572 14.5414 25.9268 14.3222 26.1191C14.103 26.3114 13.9285 26.5505 13.9257 26.6571C13.9161 27.0224 14.2519 27.6404 14.4659 27.646C14.573 27.6488 14.6607 27.8034 14.6556 28.0013C14.6377 28.6863 14.9826 28.9542 15.9611 28.9798C16.7714 29.0009 16.8471 29.0334 16.8846 29.3542C16.9092 29.5833 16.7801 29.8389 16.5295 30.0608C16.0131 30.5043 15.9992 31.0371 16.4765 31.5065C16.924 31.9446 16.9455 32.2955 16.5259 32.5435C16.293 32.6745 16.1554 32.6709 15.9445 32.5436C15.7791 32.4326 15.4894 32.3946 15.2742 32.4347C14.9201 32.5168 14.7617 32.7259 14.4473 33.6316C14.381 33.8279 14.2265 33.8848 13.9368 33.8468C13.6013 33.8075 13.4974 33.683 13.4321 33.2548C13.3116 32.5967 12.922 32.2819 12.3226 32.3881C11.7235 32.4791 11.6318 32.4767 11.1304 32.3417C10.629 32.2068 10.0989 32.5889 10.0861 33.076C10.0814 33.2587 9.88996 33.5583 9.68603 33.751C9.18485 34.1949 9.17253 34.6667 9.64986 35.1362C10.3808 35.8559 9.99871 36.4247 8.90186 36.2438C8.29267 36.1365 8.18485 36.1641 7.94717 36.4778C7.8044 36.6721 7.69022 36.9433 7.68664 37.0803C7.68306 37.2173 7.52461 37.4264 7.32227 37.5582C7.01132 37.7481 6.93487 37.7461 6.63465 37.525C6.45436 37.3984 6.30782 37.1509 6.31299 36.953C6.3273 36.405 5.8319 36.0418 5.17168 36.1312C4.09666 36.2859 3.70014 35.651 4.45072 35.0309C4.93542 34.6323 4.96581 34.0543 4.54884 33.6169C4.37014 33.4294 4.18091 33.0589 4.09673 32.7673C3.95894 32.1849 3.44507 31.943 2.873 32.1718C2.65617 32.2728 2.41154 32.2664 2.20028 32.1542C1.61075 31.8799 1.11514 32.1107 0.914573 32.7604C0.814492 33.0777 0.637966 33.3929 0.499169 33.435C0.174916 33.5484 -0.322079 33.246 -0.313733 32.9263C-0.309759 32.7741 -0.409628 32.4973 -0.542066 32.2959C-0.763057 31.9702 -0.869289 31.937 -1.48325 32.0124C-2.55707 32.1214 -2.99866 31.4549 -2.17481 30.9585C-1.64623 30.6372 -1.62795 29.9371 -2.13586 29.4669C-2.85306 28.8084 -2.3757 28.105 -1.4522 28.4794C-1.07394 28.6416 -0.935938 28.63 -0.594011 28.4257C-0.375987 28.279 -0.185758 28.0251 -0.180989 27.8424C-0.176617 27.675 -0.00048451 27.3749 0.21873 27.1826C0.71991 26.7388 0.735013 26.1604 0.257679 25.6909C0.0487976 25.4875 -0.111835 25.1939 -0.107464 25.0264C-0.0931558 24.4785 -0.605042 24.1605 -1.357 24.2475C-1.83295 24.3112 -2.07679 24.2744 -2.19513 24.119C-2.37303 23.9011 -2.24892 23.2493 -2.03487 23.2549C-1.95842 23.2569 -1.78587 23.0939 -1.65839 22.8992C-1.43639 22.6004 -1.43281 22.4634 -1.57815 22.1702C-1.68001 21.9695 -1.84223 21.7368 -1.94727 21.6579C-2.03662 21.5642 -2.16588 21.2409 -2.21869 20.9197C-2.29651 20.3845 -2.34119 20.3377 -2.63407 20.4214C-2.94264 20.52 -3.29469 20.526 -4.18027 20.4572C-4.57739 20.4316 -5.048 20.8763 -5.05873 21.2872C-5.06389 21.4851 -5.20746 21.7098 -5.39331 21.7964C-5.7968 22.0143 -6.24554 21.6218 -6.30688 21.0414C-6.35413 20.5071 -6.91228 20.2031 -7.49884 20.401C-7.77643 20.4851 -8.02105 20.4788 -8.23232 20.3666C-8.7599 20.0634 -9.72333 20.6323 -9.53848 21.1703C-9.50989 21.2472 -9.66914 21.4867 -9.88836 21.679C-10.3895 22.1229 -10.4042 22.6861 -9.91321 23.2168C-9.25876 23.9345 -9.73413 24.5618 -10.6576 24.1874C-11.2331 23.9591 -11.8711 24.369 -11.887 24.9778C-11.8949 25.2822 -11.991 25.4473 -12.2066 25.5026C-12.6383 25.6284 -13.1192 25.296 -13.1081 24.8698C-13.0922 24.2609 -13.483 23.9918 -14.3713 24.0295C-15.0911 24.0564 -15.1515 24.0244 -15.189 23.7035C-15.2144 23.5048 -15.0681 23.1736 -14.8477 22.9356C-14.4061 22.4293 -14.4203 21.8044 -14.8715 21.5032C-15.0369 21.3923 -15.1536 21.176 -15.1488 20.9933C-15.1306 20.2931 -16.1559 19.718 -16.6265 20.1627C-16.7677 20.2961 -16.8594 20.2937 -16.9935 20.1531C-17.47 19.6532 -18.4934 20.1749 -18.5129 20.9207C-18.52 21.1947 -18.6302 21.3137 -18.8921 21.383C-19.3846 21.492 -19.5347 21.3814 -19.6588 20.8603C-19.8361 20.0332 -20.484 19.6507 -21.0745 20.0008C-21.4007 20.1903 -21.8523 19.9044 -21.8419 19.5086C-21.8376 19.3412 -21.6614 19.0411 -21.4422 18.8489C-20.9414 18.4202 -20.9299 17.9788 -21.4065 17.4789C-21.6149 17.2602 -21.7752 16.9514 -21.7712 16.7992C-21.7601 16.373 -21.2496 16.1579 -20.7812 16.3833C-20.2979 16.6244 -19.6615 16.2755 -19.508 15.6702C-19.4408 15.4435 -19.2647 15.1435 -19.1078 14.9952C-18.7161 14.6399 -18.7123 13.9089 -19.0874 13.6249C-19.2524 13.4988 -19.4279 13.1895 -19.467 12.9296C-19.5871 12.2562 -19.8576 12.0664 -20.564 12.1698C-20.9016 12.2067 -21.2838 12.1967 -21.405 12.1479C-21.7836 12.0009 -21.674 11.3183 -21.2371 10.9946C-20.738 10.6269 -20.7236 10.0789 -21.203 9.68558C-21.667 9.29267 -21.6962 8.65218 -21.2496 8.54198C-21.0802 8.50071 -20.7451 8.55516 -20.4875 8.65327C-20.1242 8.79985 -20.0014 8.78782 -19.7352 8.55106C-19.5477 8.40364 -19.403 8.13325 -19.3982 7.95059C-19.3859 7.47873 -19.0118 7.21432 -18.541 7.34847C-18.298 7.41574 -18.1639 7.55633 -18.1695 7.76943C-18.189 8.51528 -17.4525 9.02192 -16.8169 8.70342C-16.6154 8.60206 -16.4166 8.60725 -16.145 8.75142C-15.6158 8.99372 -15.0277 8.7349 -14.8758 8.19053C-14.8086 7.9638 -14.5843 7.57364 -14.3791 7.33528C-13.9693 6.8738 -13.9895 6.47725 -14.4649 5.93172C-14.7917 5.55763 -14.8233 5.00846 -14.5147 4.90989C-14.4065 4.86702 -14.0243 4.877 -13.6738 4.93185C-12.9576 5.04194 -12.5851 4.83842 -12.5712 4.30567C-12.5656 4.09257 -12.4064 3.85302 -12.173 3.7068C-11.6754 3.39992 -11.6635 2.94328 -12.1468 2.70219C-12.4188 2.57323 -12.5215 2.403 -12.5135 2.09857C-12.4972 1.47449 -13.1138 1.06237 -13.747 1.28955C-14.6888 1.61529 -15.1139 0.903525 -14.3774 0.237326C-13.8762 -0.206543 -13.8627 -0.724066 -14.3369 -1.31525C-14.5446 -1.56439 -14.704 -1.90365 -14.6996 -2.07108C-14.6956 -2.2233 -14.8884 -2.45681 -15.1448 -2.60058C-15.5066 -2.80804 -15.6442 -2.81164 -15.9081 -2.66621C-16.1567 -2.52039 -16.279 -2.52358 -16.5196 -2.68218C-16.6854 -2.7779 -16.8971 -2.87482 -17.0041 -2.87761C-17.3252 -2.88599 -17.908 -2.24625 -17.9171 -1.89615C-17.9223 -1.69828 -18.0659 -1.47355 -18.2517 -1.38701C-18.6548 -1.18429 -19.0742 -1.53034 -19.1806 -2.14239C-19.2874 -2.73922 -19.7848 -3.02638 -20.3564 -2.81283C-21.2222 -2.46987 -21.5685 -3.27096 -20.8469 -3.95278C-20.3449 -4.42709 -20.3377 -4.70108 -20.8143 -5.20093C-21.2015 -5.60707 -21.3051 -6.32567 -20.9679 -6.34733C-20.8758 -6.36016 -20.4473 -6.3642 -20.0188 -6.36824C-19.2998 -6.3647 -19.2532 -6.39395 -19.0883 -6.8466C-18.9894 -7.11819 -18.7502 -7.49273 -18.5615 -7.68582C-18.1058 -8.14611 -18.1064 -8.7097 -18.5689 -9.16349C-18.7777 -9.36696 -18.938 -9.67578 -18.9328 -9.87365C-18.9197 -10.376 -19.5974 -10.7897 -20.0922 -10.5894C-21.005 -10.2019 -21.4108 -11.0655 -20.6434 -11.7461C-20.4242 -11.9384 -20.2488 -12.208 -20.2445 -12.3755C-20.2405 -12.5277 -20.4011 -12.8213 -20.61 -13.0247C-21.0426 -13.4473 -21.0673 -13.6764 -20.739 -13.942C-20.5516 -14.0894 -20.414 -14.0858 -20.051 -13.924C-19.6728 -13.7618 -19.5352 -13.7583 -19.2085 -13.963C-19.0062 -14.0948 -18.7689 -14.3932 -18.7171 -14.6203C-18.4796 -15.5128 -17.6837 -15.5225 -17.5382 -14.6505C-17.4177 -13.9924 -17.0289 -13.6471 -16.5518 -13.7565C-16.044 -13.8651 -15.7994 -13.8587 -15.298 -13.7238C-14.9942 -13.6397 -14.8092 -13.6958 -14.5578 -13.9482C-14.3845 -14.1416 -14.2248 -14.3964 -14.2212 -14.5334C-14.2173 -14.6856 -14.0415 -14.9704 -13.8215 -15.1932C-13.334 -15.6983 -13.3289 -15.8962 -13.7881 -16.4718C-14.2176 -17.0161 -14.2426 -17.23 -13.8967 -17.5865C-13.6606 -17.8393 -13.5995 -17.8377 -13.2075 -17.6142C-12.8152 -17.406 -12.7234 -17.4036 -12.3811 -17.6231C-12.1635 -17.7545 -11.9885 -18.0089 -11.9834 -18.2068C-11.9786 -18.3894 -11.8338 -18.6598 -11.6774 -18.7928C-11.4268 -19.0147 -11.335 -19.0124 -11.0642 -18.8377C-10.8835 -18.7264 -10.7519 -18.4945 -10.7566 -18.3118C-10.761 -18.1444 -10.6008 -17.8356 -10.3919 -17.6321C-10.0788 -17.3193 -9.97254 -17.286 -9.6322 -17.4295C-9.02877 -17.6879 -8.80062 -17.6362 -8.61339 -17.1896C-8.46924 -16.8508 -8.48691 -16.7598 -8.8626 -16.4346C-9.39475 -15.9763 -9.40827 -15.4587 -8.93292 -14.9132C-8.72483 -14.6793 -8.5646 -14.3705 -8.56817 -14.2335C-8.58089 -13.7464 -8.12738 -13.5366 -6.99637 -13.4918C-5.80421 -13.4454 -5.37095 -13.6321 -5.35505 -14.241C-5.34988 -14.4389 -5.20632 -14.6636 -5.03575 -14.7505C-4.586 -14.9825 -4.1172 -14.7722 -4.12753 -14.3765C-4.1327 -14.1786 -4.03363 -13.8714 -3.90119 -13.6699C-3.6798 -13.3595 -3.57397 -13.311 -2.99059 -13.3872C-2.59188 -13.4225 -2.14928 -13.3805 -1.92273 -13.2679C-1.49979 -13.0589 -1.2504 -13.2351 -1.23569 -13.7983C-1.23172 -13.9505 -1.05598 -14.2354 -0.836766 -14.4276C-0.617549 -14.6199 -0.441817 -14.9048 -0.437048 -15.0874C-0.432279 -15.2701 -0.592908 -15.5637 -0.801791 -15.7671C-1.01067 -15.9706 -1.17091 -16.2794 -1.16654 -16.4469C-1.15541 -16.8731 -0.643707 -17.1339 -0.251751 -16.9104C-0.0855561 -16.8299 0.157084 -16.7474 0.279397 -16.7442C0.585184 -16.7362 1.1511 -17.3155 1.15944 -17.6351C1.16302 -17.7721 1.33836 -18.0417 1.55757 -18.234C1.77679 -18.4263 1.95252 -18.7111 1.95649 -18.8633C1.96047 -19.0155 1.80024 -19.3244 1.59175 -19.543C1.38327 -19.7617 1.22303 -20.0705 1.22701 -20.2228C1.2441 -20.8773 0.218337 -21.4372 -0.236578 -21.0073C-0.471877 -20.785 -1.04293 -21.1807 -1.033 -21.5612C-1.02902 -21.7135 -0.85329 -21.9983 -0.634073 -22.1906C-0.414857 -22.3828 -0.23833 -22.6981 -0.232766 -22.9112C-0.227202 -23.1243 -0.372541 -23.4175 -0.597509 -23.5909C-1.01647 -23.9522 -1.0794 -24.4717 -0.708883 -24.5991C-0.569688 -24.6564 -0.233324 -24.6476 0.0402918 -24.5796C0.694552 -24.4406 1.15998 -24.6874 1.32838 -25.2771C1.53053 -25.9877 1.93282 -26.16 2.30313 -25.6933C2.45085 -25.4915 2.5809 -25.1987 2.57693 -25.0464C2.5662 -24.6355 3.29094 -24.2662 3.73989 -24.4677C3.9873 -24.5679 4.20136 -24.5623 4.47338 -24.4334C5.00215 -24.1758 5.5895 -24.4042 5.72573 -24.9338C5.79284 -25.1605 6.01723 -25.5507 6.22195 -25.7738C6.69533 -26.325 6.69236 -26.7973 6.22992 -27.2511C5.78237 -27.6892 5.77225 -27.8875 6.16362 -28.2276C6.39852 -28.4347 6.52124 -28.4468 6.85363 -28.2858C7.38239 -28.0283 7.97014 -28.2718 8.12245 -28.8314C8.34227 -29.633 8.74536 -29.8357 9.17682 -29.3675Z" fill="#A4C75C"/>
</g>
</g>
</g>
<defs>
<filter id="filter0_f_7_48" x="30.5" y="3.5" width="25" height="2" filterUnits="userSpaceOnUse" color-interpolation-filters="sRGB">
<feFlood flood-opacity="0" result="BackgroundImageFix"/>
<feBlend mode="normal" in="SourceGraphic" in2="BackgroundImageFix" result="shape"/>
<feGaussianBlur stdDeviation="0.25" result="effect1_foregroundBlur_7_48"/>
</filter>
<filter id="filter1_f_7_48" x="39.5" y="5.5" width="15" height="2" filterUnits="userSpaceOnUse" color-interpolation-filters="sRGB">
<feFlood flood-opacity="0" result="BackgroundImageFix"/>
<feBlend mode="normal" in="SourceGraphic" in2="BackgroundImageFix" result="shape"/>
<feGaussianBlur stdDeviation="0.25" result="effect1_foregroundBlur_7_48"/>
</filter>
<filter id="filter2_f_7_48" x="-5.5" y="39.5" width="25" height="2" filterUnits="userSpaceOnUse" color-interpolation-filters="sRGB">
<feFlood flood-opacity="0" result="BackgroundImageFix"/>
<feBlend mode="normal" in="SourceGraphic" in2="BackgroundImageFix" result="shape"/>
<feGaussianBlur stdDeviation="0.25" result="effect1_foregroundBlur_7_48"/>
</filter>
<filter id="filter3_f_7_48" x="3.5" y="41.5" width="15" height="2" filterUnits="userSpaceOnUse" color-interpolation-filters="sRGB">
<feFlood flood-opacity="0" result="BackgroundImageFix"/>
<feBlend mode="normal" in="SourceGraphic" in2="BackgroundImageFix" result="shape"/>
<feGaussianBlur stdDeviation="0.25" result="effect1_foregroundBlur_7_48"/>
</filter>
<filter id="filter4_f_7_48" x="8.5" y="44.5" width="25" height="2" filterUnits="userSpaceOnUse" color-interpolation-filters="sRGB">
<feFlood flood-opacity="0" result="BackgroundImageFix"/>
<feBlend mode="normal" in="SourceGraphic" in2="BackgroundImageFix" result="shape"/>
<feGaussianBlur stdDeviation="0.25" result="effect1_foregroundBlur_7_48"/>
</filter>
<filter id="filter5_f_7_48" x="17.5" y="46.5" width="30" height="2" filterUnits="userSpaceOnUse" color-interpolation-filters="sRGB">
<feFlood flood-opacity="0" result="BackgroundImageFix"/>
<feBlend mode="normal" in="SourceGraphic" in2="BackgroundImageFix" result="shape"/>
<feGaussianBlur stdDeviation="0.25" result="effect1_foregroundBlur_7_48"/>
</filter>
<filter id="filter6_f_7_48" x="28.5" y="15.5" width="25" height="2" filterUnits="userSpaceOnUse" color-interpolation-filters="sRGB">
<feFlood flood-opacity="0" result="BackgroundImageFix"/>
<feBlend mode="normal" in="SourceGraphic" in2="BackgroundImageFix" result="shape"/>
<feGaussianBlur stdDeviation="0.25" result="effect1_foregroundBlur_7_48"/>
</filter>
<filter id="filter7_f_7_48" x="37.5" y="17.5" width="15" height="2" filterUnits="userSpaceOnUse" color-interpolation-filters="sRGB">
<feFlood flood-opacity="0" result="BackgroundImageFix"/>
<feBlend mode="normal" in="SourceGraphic" in2="BackgroundImageFix" result="shape"/>
<feGaussianBlur stdDeviation="0.25" result="effect1_foregroundBlur_7_48"/>
</filter>
<filter id="filter8_f_7_48" x="22.5" y="8.5" width="25" height="2" filterUnits="userSpaceOnUse" color-interpolation-filters="sRGB">
<feFlood flood-opacity="0" result="BackgroundImageFix"/>
<feBlend mode="normal" in="SourceGraphic" in2="BackgroundImageFix" result="shape"/>
<feGaussianBlur stdDeviation="0.25" result="effect1_foregroundBlur_7_48"/>
</filter>
<filter id="filter9_f_7_48" x="31.5" y="10.5" width="15" height="2" filterUnits="userSpaceOnUse" color-interpolation-filters="sRGB">
<feFlood flood-opacity="0" result="BackgroundImageFix"/>
<feBlend mode="normal" in="SourceGraphic" in2="BackgroundImageFix" result="shape"/>
<feGaussianBlur stdDeviation="0.25" result="effect1_foregroundBlur_7_48"/>
</filter>
<filter id="filter10_f_7_48" x="19.5" y="24.5" width="25" height="2" filterUnits="userSpaceOnUse" color-interpolation-filters="sRGB">
<feFlood flood-opacity="0" result="BackgroundImageFix"/>
<feBlend mode="normal" in="SourceGraphic" in2="BackgroundImageFix" result="shape"/>
<feGaussianBlur stdDeviation="0.25" result="effect1_foregroundBlur_7_48"/>
</filter>
<filter id="filter11_f_7_48" x="28.5" y="26.5" width="15" height="2" filterUnits="userSpaceOnUse" color-interpolation-filters="sRGB">
<feFlood flood-opacity="0" result="BackgroundImageFix"/>
<feBlend mode="normal" in="SourceGraphic" in2="BackgroundImageFix" result="shape"/>
<feGaussianBlur stdDeviation="0.25" result="effect1_foregroundBlur_7_48"/>
</filter>
<filter id="filter12_f_7_48" x="27.5" y="30.5" width="25" height="2" filterUnits="userSpaceOnUse" color-interpolation-filters="sRGB">
<feFlood flood-opacity="0" result="BackgroundImageFix"/>
<feBlend mode="normal" in="SourceGraphic" in2="BackgroundImageFix" result="shape"/>
<feGaussianBlur stdDeviation="0.25" result="effect1_foregroundBlur_7_48"/>
</filter>
<filter id="filter13_f_7_48" x="36.5" y="32.5" width="15" height="2" filterUnits="userSpaceOnUse" color-interpolation-filters="sRGB">
<feFlood flood-opacity="0" result="BackgroundImageFix"/>
<feBlend mode="normal" in="SourceGraphic" in2="BackgroundImageFix" result="shape"/>
<feGaussianBlur stdDeviation="0.25" result="effect1_foregroundBlur_7_48"/>
</filter>
<filter id="filter14_f_7_48" x="2.5" y="28.5" width="25" height="2" filterUnits="userSpaceOnUse" color-interpolation-filters="sRGB">
<feFlood flood-opacity="0" result="BackgroundImageFix"/>
<feBlend mode="normal" in="SourceGraphic" in2="BackgroundImageFix" result="shape"/>
<feGaussianBlur stdDeviation="0.25" result="effect1_foregroundBlur_7_48"/>
</filter>
<filter id="filter15_f_7_48" x="11.5" y="30.5" width="15" height="2" filterUnits="userSpaceOnUse" color-interpolation-filters="sRGB">
<feFlood flood-opacity="0" result="BackgroundImageFix"/>
<feBlend mode="normal" in="SourceGraphic" in2="BackgroundImageFix" result="shape"/>
<feGaussianBlur stdDeviation="0.25" result="effect1_foregroundBlur_7_48"/>
</filter>
<filter id="filter16_f_7_48" x="9.5" y="34.5" width="25" height="2" filterUnits="userSpaceOnUse" color-interpolation-filters="sRGB">
<feFlood flood-opacity="0" result="BackgroundImageFix"/>
<feBlend mode="normal" in="SourceGraphic" in2="BackgroundImageFix" result="shape"/>
<feGaussianBlur stdDeviation="0.25" result="effect1_foregroundBlur_7_48"/>
</filter>
<filter id="filter17_f_7_48" x="10.5" y="36.5" width="15" height="2" filterUnits="userSpaceOnUse" color-interpolation-filters="sRGB">
<feFlood flood-opacity="0" result="BackgroundImageFix"/>
<feBlend mode="normal" in="SourceGraphic" in2="BackgroundImageFix" result="shape"/>
<feGaussianBlur stdDeviation="0.25" result="effect1_foregroundBlur_7_48"/>
</filter>
<filter id="filter18_f_7_48" x="26.5" y="40.5" width="25" height="2" filterUnits="userSpaceOnUse" color-interpolation-filters="sRGB">
<feFlood flood-opacity="0" result="BackgroundImageFix"/>
<feBlend mode="normal" in="SourceGraphic" in2="BackgroundImageFix" result="shape"/>
<feGaussianBlur stdDeviation="0.25" result="effect1_foregroundBlur_7_48"/>
</filter>
<filter id="filter19_f_7_48" x="35.5" y="42.5" width="15" height="2" filterUnits="userSpaceOnUse" color-interpolation-filters="sRGB">
<feFlood flood-opacity="0" result="BackgroundImageFix"/>
<feBlend mode="normal" in="SourceGraphic" in2="BackgroundImageFix" result="shape"/>
<feGaussianBlur stdDeviation="0.25" result="effect1_foregroundBlur_7_48"/>
</filter>
<filter id="filter20_f_7_48" x="26.5" y="35.5" width="25" height="2" filterUnits="userSpaceOnUse" color-interpolation-filters="sRGB">
<feFlood flood-opacity="0" result="BackgroundImageFix"/>
<feBlend mode="normal" in="SourceGraphic" in2="BackgroundImageFix" result="shape"/>
<feGaussianBlur stdDeviation="0.25" result="effect1_foregroundBlur_7_48"/>
</filter>
<filter id="filter21_f_7_48" x="35.5" y="37.5" width="15" height="2" filterUnits="userSpaceOnUse" color-interpolation-filters="sRGB">
<feFlood flood-opacity="0" result="BackgroundImageFix"/>
<feBlend mode="normal" in="SourceGraphic" in2="BackgroundImageFix" result="shape"/>
<feGaussianBlur stdDeviation="0.25" result="effect1_foregroundBlur_7_48"/>
</filter>
<filter id="filter22_f_7_48" x="-4.5" y="48.5" width="25" height="2" filterUnits="userSpaceOnUse" color-interpolation-filters="sRGB">
<feFlood flood-opacity="0" result="BackgroundImageFix"/>
<feBlend mode="normal" in="SourceGraphic" in2="BackgroundImageFix" result="shape"/>
<feGaussianBlur stdDeviation="0.25" result="effect1_foregroundBlur_7_48"/>
</filter>
<filter id="filter23_f_7_48" x="4.5" y="49.5" width="15" height="2" filterUnits="userSpaceOnUse" color-interpolation-filters="sRGB">
<feFlood flood-opacity="0" result="BackgroundImageFix"/>
<feBlend mode="normal" in="SourceGraphic" in2="BackgroundImageFix" result="shape"/>
<feGaussianBlur stdDeviation="0.25" result="effect1_foregroundBlur_7_48"/>
</filter>
<filter id="filter24_d_7_48" x="-25.3278" y="-33.1745" width="74.5678" height="82.2304" filterUnits="userSpaceOnUse" color-interpolation-filters="sRGB">
<feFlood flood-opacity="0" result="BackgroundImageFix"/>
<feColorMatrix in="SourceAlpha" type="matrix" values="0 0 0 0 0 0 0 0 0 0 0 0 0 0 0 0 0 0 127 0" result="hardAlpha"/>
<feOffset dx="4" dy="4"/>
<feGaussianBlur stdDeviation="3.4"/>
<feComposite in2="hardAlpha" operator="out"/>
<feColorMatrix type="matrix" values="0 0 0 0 0 0 0 0 0 0 0 0 0 0 0 0 0 0 0.25 0"/>
<feBlend mode="normal" in2="BackgroundImageFix" result="effect1_dropShadow_7_48"/>
<feBlend mode="normal" in="SourceGraphic" in2="effect1_dropShadow_7_48" result="shape"/>
</filter>
<linearGradient id="paint0_linear_7_48" x1="43" y1="4" x2="43" y2="5" gradientUnits="userSpaceOnUse">
<stop stop-color="white"/>
<stop offset="1" stop-color="#1E8B93"/>
</linearGradient>
<linearGradient id="paint1_linear_7_48" x1="7" y1="0" x2="7" y2="1" gradientUnits="userSpaceOnUse">
<stop stop-color="white"/>
<stop offset="1" stop-color="#1E8B93"/>
</linearGradient>
<linearGradient id="paint2_linear_7_48" x1="7" y1="40" x2="7" y2="41" gradientUnits="userSpaceOnUse">
<stop stop-color="white"/>
<stop offset="1" stop-color="#1E8B93"/>
</linearGradient>
<linearGradient id="paint3_linear_7_48" x1="7" y1="0" x2="7" y2="1" gradientUnits="userSpaceOnUse">
<stop stop-color="white"/>
<stop offset="1" stop-color="#1E8B93"/>
</linearGradient>
<linearGradient id="paint4_linear_7_48" x1="21" y1="45" x2="21" y2="46" gradientUnits="userSpaceOnUse">
<stop stop-color="white"/>
<stop offset="1" stop-color="#1E8B93"/>
</linearGradient>
<linearGradient id="paint5_linear_7_48" x1="14.5" y1="0" x2="14.5" y2="1" gradientUnits="userSpaceOnUse">
<stop stop-color="white"/>
<stop offset="1" stop-color="#1E8B93"/>
</linearGradient>
<linearGradient id="paint6_linear_7_48" x1="41" y1="16" x2="41" y2="17" gradientUnits="userSpaceOnUse">
<stop stop-color="white"/>
<stop offset="1" stop-color="#1E8B93"/>
</linearGradient>
<linearGradient id="paint7_linear_7_48" x1="7" y1="0" x2="7" y2="1" gradientUnits="userSpaceOnUse">
<stop stop-color="white"/>
<stop offset="1" stop-color="#1E8B93"/>
</linearGradient>
<linearGradient id="paint8_linear_7_48" x1="35" y1="9" x2="35" y2="10" gradientUnits="userSpaceOnUse">
<stop stop-color="white"/>
<stop offset="1" stop-color="#1E8B93"/>
</linearGradient>
<linearGradient id="paint9_linear_7_48" x1="7" y1="0" x2="7" y2="1" gradientUnits="userSpaceOnUse">
<stop stop-color="white"/>
<stop offset="1" stop-color="#1E8B93"/>
</linearGradient>
<linearGradient id="paint10_linear_7_48" x1="32" y1="25" x2="32" y2="26" gradientUnits="userSpaceOnUse">
<stop stop-color="white"/>
<stop offset="1" stop-color="#1E8B93"/>
</linearGradient>
<linearGradient id="paint11_linear_7_48" x1="7" y1="0" x2="7" y2="1" gradientUnits="userSpaceOnUse">
<stop stop-color="white"/>
<stop offset="1" stop-color="#1E8B93"/>
</linearGradient>
<linearGradient id="paint12_linear_7_48" x1="40" y1="31" x2="40" y2="32" gradientUnits="userSpaceOnUse">
<stop stop-color="white"/>
<stop offset="1" stop-color="#1E8B93"/>
</linearGradient>
<linearGradient id="paint13_linear_7_48" x1="7" y1="0" x2="7" y2="1" gradientUnits="userSpaceOnUse">
<stop stop-color="white"/>
<stop offset="1" stop-color="#1E8B93"/>
</linearGradient>
<linearGradient id="paint14_linear_7_48" x1="15" y1="29" x2="15" y2="30" gradientUnits="userSpaceOnUse">
<stop stop-color="white"/>
<stop offset="1" stop-color="#1E8B93"/>
</linearGradient>
<linearGradient id="paint15_linear_7_48" x1="7" y1="0" x2="7" y2="1" gradientUnits="userSpaceOnUse">
<stop stop-color="white"/>
<stop offset="1" stop-color="#1E8B93"/>
</linearGradient>
<linearGradient id="paint16_linear_7_48" x1="12" y1="0" x2="12" y2="1" gradientUnits="userSpaceOnUse">
<stop stop-color="white"/>
<stop offset="1" stop-color="#1E8B93"/>
</linearGradient>
<linearGradient id="paint17_linear_7_48" x1="18" y1="37" x2="18" y2="38" gradientUnits="userSpaceOnUse">
<stop stop-color="white"/>
<stop offset="1" stop-color="#1E8B93"/>
</linearGradient>
<linearGradient id="paint18_linear_7_48" x1="39" y1="41" x2="39" y2="42" gradientUnits="userSpaceOnUse">
<stop stop-color="white"/>
<stop offset="1" stop-color="#1E8B93"/>
</linearGradient>
<linearGradient id="paint19_linear_7_48" x1="7" y1="0" x2="7" y2="1" gradientUnits="userSpaceOnUse">
<stop stop-color="white"/>
<stop offset="1" stop-color="#1E8B93"/>
</linearGradient>
<linearGradient id="paint20_linear_7_48" x1="39" y1="36" x2="39" y2="37" gradientUnits="userSpaceOnUse">
<stop stop-color="white"/>
<stop offset="1" stop-color="#1E8B93"/>
</linearGradient>
<linearGradient id="paint21_linear_7_48" x1="7" y1="0" x2="7" y2="1" gradientUnits="userSpaceOnUse">
<stop stop-color="white"/>
<stop offset="1" stop-color="#1E8B93"/>
</linearGradient>
<linearGradient id="paint22_linear_7_48" x1="8" y1="49" x2="8" y2="50" gradientUnits="userSpaceOnUse">
<stop stop-color="white"/>
<stop offset="1" stop-color="#1E8B93"/>
</linearGradient>
<linearGradient id="paint23_linear_7_48" x1="7" y1="0" x2="7" y2="1" gradientUnits="userSpaceOnUse">
<stop stop-color="white"/>
<stop offset="1" stop-color="#1E8B93"/>
</linearGradient>
<clipPath id="clip0_7_48">
<rect width="52" height="52" rx="10" fill="white"/>
</clipPath>
</defs>
</svg>
