<svg width="36" height="25" viewBox="0 0 36 25" fill="none" xmlns="http://www.w3.org/2000/svg">
<path id="Vector" d="M14.4285 17.8571L23.6964 12.5L14.4285 7.14286V17.8571ZM35.0714 3.875C35.3035 4.71429 35.4643 5.83928 35.5714 7.26786C35.6964 8.69643 35.75 9.92857 35.75 11L35.8571 12.5C35.8571 16.4107 35.5714 19.2857 35.0714 21.125C34.625 22.7321 33.5893 23.7679 31.9821 24.2143C31.1428 24.4464 29.6071 24.6071 27.25 24.7143C24.9285 24.8393 22.8035 24.8929 20.8393 24.8929L18 25C10.5178 25 5.85711 24.7143 4.01782 24.2143C2.41068 23.7679 1.37497 22.7321 0.928537 21.125C0.696394 20.2857 0.53568 19.1607 0.428537 17.7321C0.303537 16.3036 0.249965 15.0714 0.249965 14L0.142822 12.5C0.142822 8.58929 0.428537 5.71429 0.928537 3.875C1.37497 2.26786 2.41068 1.23214 4.01782 0.785714C4.85711 0.553572 6.39282 0.392857 8.74997 0.285714C11.0714 0.160714 13.1964 0.107143 15.1607 0.107143L18 0C25.4821 0 30.1428 0.285714 31.9821 0.785714C33.5893 1.23214 34.625 2.26786 35.0714 3.875Z" fill="white"/>
</svg>
