<svg width="100" height="100" viewBox="0 0 100 100" fill="none" xmlns="http://www.w3.org/2000/svg">
<path id="Vector" d="M93.75 0H6.25C3.125 0 0 3.125 0 6.25V76.5633C0 79.6883 3.125 82.8133 6.25 82.8133H37.5V89.0633C37.5 93.4033 31.87 95.3133 25 95.3133V100H75V95.3117C68.1283 95.3117 62.5 93.4017 62.5 89.0617V82.8117H93.75C96.875 82.8117 100 79.6867 100 76.5617V6.25C100 3.125 96.875 0 93.75 0ZM96.6667 76.5633C96.6667 77.845 95.03 79.48 93.75 79.48H6.25C4.96833 79.48 3.33333 77.845 3.33333 76.5633V70.3133H96.6667V76.5633Z" fill="#1E8B93"/>
</svg>
