<svg width="30" height="25" viewBox="0 0 30 25" fill="none" xmlns="http://www.w3.org/2000/svg">
<path id="Vector" fill-rule="evenodd" clip-rule="evenodd" d="M26.6008 0.171033C26.9606 0.0195924 27.3545 -0.0326384 27.7413 0.0197762C28.1281 0.0721908 28.4939 0.227335 28.8004 0.469061C29.107 0.710786 29.3431 1.03026 29.4843 1.39422C29.6255 1.75818 29.6665 2.15333 29.6031 2.53854L26.3009 22.5691C25.9805 24.5013 23.8606 25.6093 22.0886 24.6469C20.6063 23.8417 18.4048 22.6012 16.4246 21.3068C15.4345 20.6588 12.4016 18.584 12.7743 17.1076C13.0947 15.8452 18.1908 11.1015 21.1028 8.28112C22.2458 7.17308 21.7246 6.53389 20.3748 7.55311C17.023 10.0837 11.6416 13.932 9.86229 15.0153C8.29269 15.9704 7.4744 16.1335 6.49594 15.9704C4.71085 15.6734 3.05534 15.2133 1.70415 14.6527C-0.121714 13.8956 -0.0328957 11.3854 1.70269 10.6545L26.6008 0.171033Z" fill="white"/>
</svg>
