<svg width="44" height="25" viewBox="0 0 44 25" fill="none" xmlns="http://www.w3.org/2000/svg">
<path id="Vector" d="M41.3499 24.998H36.7422C34.9997 24.998 34.4747 23.5866 31.3511 20.4609C28.6212 17.8299 27.4682 17.5028 26.7777 17.5028C25.8226 17.5028 25.5621 17.7653 25.5621 19.0798V23.2231C25.5621 24.3438 25.1987 25 22.2709 25C19.4306 24.8092 16.6762 23.9463 14.2346 22.4824C11.7931 21.0185 9.73424 18.9955 8.2277 16.5801C4.65054 12.1279 2.16157 6.90239 0.95874 1.31923C0.95874 0.62868 1.22123 0.00273961 2.53772 0.00273961H7.14139C8.32462 0.00273961 8.75066 0.529742 9.21507 1.7473C11.4503 8.32574 15.2645 14.048 16.8131 14.048C17.4068 14.048 17.6652 13.7856 17.6652 12.3055V5.52919C17.4694 2.43785 15.8278 2.17738 15.8278 1.05876C15.8486 0.763644 15.9836 0.488245 16.2041 0.291063C16.4247 0.0938802 16.7134 -0.00955065 17.009 0.00273961H24.2457C25.235 0.00273961 25.5621 0.495416 25.5621 1.67865V10.8255C25.5621 11.8128 25.9862 12.1399 26.285 12.1399C26.8786 12.1399 27.335 11.8128 28.4233 10.7265C30.7561 7.88149 32.662 4.71177 34.081 1.31722C34.2262 0.909654 34.5008 0.560785 34.8628 0.323821C35.2248 0.0868575 35.6544 -0.025194 36.086 0.00475863H40.6917C42.0728 0.00475863 42.3656 0.695314 42.0728 1.68067C40.3976 5.43311 38.3249 8.9951 35.8901 12.3055C35.3934 13.0627 35.1955 13.4564 35.8901 14.3449C36.3465 15.0354 37.9618 16.3842 39.0461 17.6664C40.625 19.2413 41.9355 21.0626 42.9269 23.0576C43.3226 24.3418 42.6644 24.998 41.3499 24.998Z" fill="white"/>
</svg>
