<svg width="40.000000" height="40.000000" viewBox="0 0 40 40" fill="none" xmlns="http://www.w3.org/2000/svg" xmlns:xlink="http://www.w3.org/1999/xlink">
	<desc>
			Created with Pixso.
	</desc>
	<defs/>
	<path id="Vector" d="M18.16 6.6C18.48 6.18 19.06 5.58 20 5.58C20.93 5.58 21.51 6.18 21.83 6.6C22.14 7 22.44 7.55 22.76 8.12L22.98 8.53L23.09 8.71L23.28 8.75L23.72 8.86C24.33 8.99 24.93 9.13 25.4 9.31C25.91 9.52 26.61 9.91 26.88 10.77C27.14 11.62 26.81 12.34 26.52 12.8C26.25 13.23 25.84 13.71 25.42 14.19L25.12 14.54L24.97 14.72C24.97 14.79 24.98 14.87 24.99 14.98L25.04 15.44C25.1 16.09 25.16 16.73 25.14 17.23C25.12 17.76 24.99 18.57 24.27 19.11C23.52 19.68 22.71 19.56 22.18 19.41C21.7 19.27 21.14 19.01 20.57 18.75L20.15 18.55L20 18.48L19.84 18.56L19.42 18.75C18.85 19.01 18.29 19.27 17.81 19.41C17.28 19.55 16.47 19.68 15.72 19.11C15 18.57 14.87 17.76 14.85 17.23C14.83 16.73 14.89 16.09 14.95 15.44L15 14.97L15.02 14.72C14.97 14.66 14.92 14.6 14.87 14.54L14.57 14.19C14.15 13.71 13.74 13.23 13.47 12.8C13.18 12.34 12.85 11.62 13.11 10.77C13.38 9.91 14.08 9.52 14.59 9.31C15.06 9.13 15.66 8.99 16.27 8.86L16.71 8.75L16.9 8.71L17.01 8.53L17.23 8.12C17.55 7.55 17.85 7 18.16 6.6ZM20 8.9C19.89 9.09 19.77 9.3 19.62 9.56L19.44 9.88L19.4 9.96C19.25 10.23 19.01 10.67 18.61 10.98C18.2 11.29 17.71 11.4 17.42 11.46L17.41 11.46L17.33 11.48L16.98 11.56C16.65 11.63 16.38 11.69 16.16 11.75C16.31 11.93 16.5 12.16 16.75 12.45L16.99 12.73L17.04 12.79L17.05 12.8C17.25 13.03 17.57 13.4 17.72 13.88C17.87 14.35 17.82 14.84 17.79 15.15L17.78 15.16L17.78 15.25L17.74 15.62C17.71 15.91 17.68 16.19 17.66 16.48C17.86 16.39 18.08 16.29 18.34 16.17L18.67 16.02L18.74 15.98C18.75 15.98 18.75 15.98 18.76 15.98C19.03 15.85 19.48 15.64 20 15.64C20.51 15.64 20.97 15.86 21.24 15.98L21.25 15.98L21.32 16.02L21.65 16.17C21.91 16.29 22.14 16.4 22.33 16.48C22.31 16.19 22.28 15.91 22.25 15.62L22.21 15.25L22.21 15.16L22.2 15.15C22.17 14.84 22.12 14.35 22.27 13.88C22.42 13.41 22.74 13.04 22.94 12.8C22.94 12.8 22.94 12.8 22.95 12.79L23 12.73L23.24 12.45C23.49 12.16 23.68 11.93 23.83 11.75C23.61 11.69 23.34 11.63 23.01 11.56L22.66 11.48L22.58 11.46C22.29 11.4 21.79 11.29 21.38 10.97C20.98 10.67 20.74 10.23 20.59 9.96L20.55 9.88L20.37 9.56C20.22 9.3 20.1 9.09 20 8.9Z" fill="#000000" fill-opacity="1.000000" fill-rule="evenodd"/>
	<path id="Vector" d="M11.62 0.66C14.39 0.21 17.19 -0.02 20 0C23.4 0 26.21 0.29 28.37 0.66L28.62 0.7C30.5 1.02 32.06 1.28 33.28 2.78C34.07 3.75 34.32 4.79 34.38 5.95L35.29 6.26C36.15 6.55 36.91 6.8 37.51 7.08C38.16 7.38 38.75 7.77 39.2 8.4C39.66 9.03 39.84 9.71 39.92 10.42C40 11.08 40 11.87 40 12.78L40 13.05C40 13.8 40 14.46 39.94 15.01C39.88 15.61 39.75 16.19 39.42 16.75C39.09 17.32 38.64 17.72 38.15 18.06C37.69 18.37 37.12 18.7 36.46 19.06L31.55 21.79C30.54 23.76 29.17 25.52 27.27 26.79C25.64 27.89 23.69 28.58 21.39 28.77L21.39 32.55L24.05 32.55C24.8 32.55 25.53 32.81 26.12 33.29C26.7 33.77 27.1 34.43 27.24 35.17L27.65 37.2L31.16 37.2C31.53 37.2 31.88 37.35 32.14 37.61C32.41 37.87 32.55 38.23 32.55 38.6C32.55 38.97 32.41 39.33 32.14 39.59C31.88 39.85 31.53 40 31.16 40L8.83 40C8.46 40 8.11 39.85 7.85 39.59C7.58 39.33 7.44 38.97 7.44 38.6C7.44 38.23 7.58 37.87 7.85 37.61C8.11 37.35 8.46 37.2 8.83 37.2L12.34 37.2L12.75 35.17C12.89 34.43 13.29 33.77 13.87 33.29C14.46 32.81 15.19 32.55 15.94 32.55L18.6 32.55L18.6 28.77C16.3 28.58 14.35 27.89 12.72 26.79C10.82 25.52 9.45 23.76 8.44 21.79L3.53 19.06C2.95 18.75 2.39 18.42 1.84 18.06C1.33 17.72 0.89 17.28 0.57 16.76C0.27 16.22 0.09 15.63 0.05 15.01C0 14.46 0 13.8 0 13.05L0 12.78C0 11.87 0 11.08 0.07 10.42C0.15 9.71 0.33 9.03 0.79 8.4C1.24 7.77 1.83 7.38 2.48 7.08C3.08 6.8 3.84 6.55 4.7 6.26L5.61 5.95C5.67 4.79 5.92 3.75 6.71 2.78C7.93 1.28 9.49 1.01 11.37 0.7L11.62 0.66ZM15.19 37.2L24.8 37.2L24.51 35.72C24.49 35.61 24.43 35.52 24.35 35.45C24.26 35.38 24.16 35.34 24.05 35.34L15.94 35.34C15.83 35.34 15.73 35.38 15.64 35.45C15.56 35.52 15.5 35.61 15.48 35.72L15.19 37.2ZM5.67 8.87L5.65 8.88C4.7 9.2 4.1 9.41 3.66 9.61C3.25 9.79 3.12 9.93 3.05 10.03C2.98 10.13 2.89 10.29 2.84 10.74C2.79 11.22 2.79 11.85 2.79 12.85L2.79 12.99C2.79 13.82 2.79 14.34 2.83 14.74C2.86 15.1 2.92 15.25 2.98 15.34C3.03 15.43 3.13 15.56 3.43 15.77C3.76 15.99 4.21 16.25 4.94 16.65L6.92 17.75C6.13 14.83 5.81 11.71 5.67 8.88L5.67 8.87ZM33.07 17.75C33.87 14.83 34.19 11.71 34.32 8.88L34.34 8.89C35.29 9.2 35.9 9.41 36.34 9.61C36.74 9.8 36.87 9.93 36.94 10.03C37.02 10.13 37.1 10.3 37.15 10.74C37.2 11.22 37.21 11.86 37.21 12.86L37.21 12.99C37.21 13.82 37.21 14.34 37.17 14.74C37.13 15.1 37.07 15.25 37.01 15.34C36.96 15.44 36.86 15.56 36.56 15.77C36.23 16 35.78 16.25 35.05 16.65L33.07 17.75ZM20 2.79C16.76 2.79 14.1 3.07 12.08 3.41C9.84 3.79 9.37 3.93 8.87 4.54C8.39 5.14 8.34 5.71 8.44 8.23C8.61 12.43 9.16 16.97 10.87 20.42C11.72 22.12 12.83 23.51 14.28 24.48C15.71 25.44 17.56 26.04 20 26.04C22.43 26.04 24.28 25.44 25.72 24.48C27.16 23.51 28.27 22.12 29.11 20.42C30.83 16.97 31.38 12.43 31.55 8.23C31.65 5.71 31.61 5.14 31.12 4.54C30.62 3.93 30.15 3.79 27.91 3.41C25.29 2.98 22.64 2.77 20 2.79Z" fill="#000000" fill-opacity="1.000000" fill-rule="evenodd"/>
</svg>
