<svg width="162" height="150" viewBox="0 0 162 150" fill="none" xmlns="http://www.w3.org/2000/svg">
<path d="M90.7231 65.7405L58.4767 8.50932C58.4767 8.50932 51.2943 0.610495 41.8488 16.7309C32.4033 32.8513 7.38974 76.4157 7.38974 76.4157C7.38974 76.4157 4.29542 88.936 15.6886 87.7651L77.9044 88.0424L129.141 117.624L142.003 95.3469L90.7658 65.7651" fill="#B1E0DA"/>
<path d="M18.0462 88.4837L64.794 88.4821L42.356 15.8532L46.9939 7.82021L5.83663 79.1067L12.1749 88.7066L18.0462 88.4837Z" fill="#5EBAE7"/>
<path d="M14.0878 90.5903L77.1722 90.5899L105.578 106.99L101.719 113.673L106.175 116.246L110.033 109.562L125.627 118.565L123.055 123.021L127.51 125.593L148.089 89.9501L143.633 87.3778L141.061 91.8332L125.467 82.8302L129.326 76.147L124.87 73.5747L121.012 80.2578L92.6057 63.8575L61.0639 9.22473C59.2008 5.99783 55.8641 4.07135 52.1378 4.07162C48.4117 4.0716 45.0749 5.99801 43.2119 9.22489L5.16169 75.1297C3.29864 78.3566 3.2987 82.2095 5.16177 85.4364C7.02468 88.6636 10.3611 90.59 14.0878 90.5903ZM138.489 96.2886L128.199 114.11L112.606 105.107L122.895 87.2856L138.489 96.2886ZM88.8394 67.6236L118.44 84.7132L108.15 102.535L78.5505 85.4452L64.5523 85.4451L81.8405 55.5011L88.8394 67.6236ZM9.61707 82.8643C8.68373 81.2483 8.68392 79.3184 9.61695 77.7024L47.6673 11.7972C48.6005 10.1809 50.2715 9.21611 52.1377 9.21638C54.0038 9.2162 55.6751 10.1811 56.6083 11.7974L78.8702 50.3565L58.6115 85.4455L14.0874 85.4457C12.2212 85.4454 10.5502 84.4806 9.61707 82.8643Z" fill="#505050"/>
</svg>
