<?xml version="1.0" encoding="UTF-8" standalone="no"?>
<svg
   width="97.130615"
   height="131.57497"
   viewBox="0 0 97.130615 131.57496"
   fill="none"
   version="1.1"
   id="svg3"
   sodipodi:docname="empty_vessel.svg"
   inkscape:version="1.3.2 (091e20e, 2023-11-25, custom)"
   xmlns:inkscape="http://www.inkscape.org/namespaces/inkscape"
   xmlns:sodipodi="http://sodipodi.sourceforge.net/DTD/sodipodi-0.dtd"
   xmlns="http://www.w3.org/2000/svg"
   xmlns:svg="http://www.w3.org/2000/svg">
  <defs
     id="defs3" />
  <sodipodi:namedview
     id="namedview3"
     pagecolor="#ffffff"
     bordercolor="#000000"
     borderopacity="0.25"
     inkscape:showpageshadow="2"
     inkscape:pageopacity="0.0"
     inkscape:pagecheckerboard="0"
     inkscape:deskcolor="#d1d1d1"
     inkscape:zoom="4.2158563"
     inkscape:cx="14.350584"
     inkscape:cy="71.51572"
     inkscape:window-width="1920"
     inkscape:window-height="1001"
     inkscape:window-x="-9"
     inkscape:window-y="-9"
     inkscape:window-maximized="1"
     inkscape:current-layer="svg3" />
  <path
     d="M 35.292136,61.415001 1.8517166,117.9566 c 0,0 -3.24941,10.17 15.4340194,10.289 18.6835,0.12 68.9181,0 68.9181,0 0,0 12.3901,-3.58 5.6794,-12.861 L 61.015536,61.365301 V 2.2021312 h -25.7234 V 61.365601"
     fill="#B1E0DA"
     id="path1"
     style="fill:none" />
  <path
     d="M 91.326836,112.9836 H 5.0733966 l -3.22173,7.545 5.14468,7.717 H 89.310836 l 5.1447,-10.289 z"
     fill="#5EBAE7"
     id="path2"
     style="fill:none" />
  <path
     d="M 96.39906,116.03757 64.663224,61.586808 V 28.895479 h 7.764401 v -5.304481 l -7.764401,0.117906 -0.05966,-17.8283897 h 5.176233 V 0.62712262 l -41.307775,0.02491 -0.04193,5.28743378 h 5.176234 l -0.178991,17.5336276 -7.644973,0.05895 0.05966,5.363432 h 7.764301 v 32.69173 L 1.8705299,116.03856 c -1.87446128,3.2163 -1.87446128,7.0565 3.32e-4,10.2718 1.8744693,3.21628 5.2316109,5.13689 8.9805391,5.13689 h 76.566847 c 3.748839,0 7.10599,-1.92061 8.98051,-5.13689 1.874821,-3.2153 1.874821,-7.0555 3.02e-4,-10.27279 z M 38.782558,5.8215621 H 59.487091 V 23.767856 H 38.782558 Z m 0,57.1396679 V 28.895479 H 59.487091 V 62.960931 L 66.52899,75.043492 H 31.740659 Z m 53.133692,60.78566 c -0.938618,1.61065 -2.620162,2.57243 -4.4977,2.57243 H 10.851401 c -1.8778496,0 -3.5591219,-0.96178 -4.4977098,-2.57243 -0.9389099,-1.61063 -0.9389099,-3.53423 0,-5.14486 L 28.752354,80.171116 H 69.518 l 22.398552,38.430914 c 0.938618,1.61063 0.938618,3.53423 -3.02e-4,5.14486 z"
     fill="#505050"
     id="path3"
     style="stroke-width:1.0014"
     sodipodi:nodetypes="cccccccccccccccccccsscccccccccccccccsscccccc" />
  <path
     style="fill:#ff5555;fill-opacity:0;stroke-width:0.2372"
     d="m 32.140564,74.733707 c 0,-0.05655 1.494358,-2.663732 3.320796,-5.793746 l 3.320797,-5.690934 v -17.09603 -17.09603 h 10.318188 10.318188 v 17.026155 17.026154 l 3.420814,5.86362 3.420812,5.86362 H 49.200362 c -9.382889,0 -17.059798,-0.04627 -17.059798,-0.102809 z"
     id="path4" />
  <path
     style="fill:#ff5555;fill-opacity:0;stroke-width:0.2372"
     d="M 9.5471439,125.97546 C 7.9129535,125.53323 6.8054074,124.50467 6.1433847,122.81444 5.2800399,120.61022 4.9173114,121.34803 17.370466,99.977949 L 28.773038,80.41071 h 20.358224 20.358222 l 10.389984,17.78998 c 13.656658,23.38326 12.585395,21.38494 12.46635,23.25453 -0.123377,1.93758 -0.976877,3.25252 -2.680089,4.12908 l -1.177431,0.60596 -38.907154,0.0451 c -31.069513,0.036 -39.134153,-0.0164 -40.0340001,-0.25986 z"
     id="path5" />
  <path
     style="fill:#ff5555;fill-opacity:0;stroke-width:0.2372"
     d="M 38.782157,14.824983 V 6.0485932 h 10.318188 10.318188 v 8.7763898 8.776391 H 49.100345 38.782157 Z"
     id="path6" />
</svg>
