<svg width="150" height="150" viewBox="0 0 150 150" fill="none" xmlns="http://www.w3.org/2000/svg">
<g clip-path="url(#clip0_18_1702)">
<path d="M91.9354 101.596V120.951C91.9354 123.622 89.7677 125.79 87.0967 125.79H62.9032C60.2322 125.79 58.0645 123.622 58.0645 120.951V101.596H91.9354Z" fill="#AAB2BD"/>
<path d="M55.6454 79.8221L7.2583 113.693L12.097 118.532C12.097 118.519 16.931 116.088 16.931 116.076L55.6454 96.7576V79.8221Z" fill="#AAB2BD"/>
<path d="M89.5161 94.3383L133.069 116.076C133.069 116.088 137.903 118.519 137.903 118.532L142.742 113.693L94.3548 79.8221L89.5161 94.3383Z" fill="#AAB2BD"/>
<path d="M94.3545 53.2093L133.069 33.8899C133.069 33.878 137.903 31.4469 137.903 31.4351L142.742 36.2738L94.3545 70.1447V53.2093Z" fill="#AAB2BD"/>
<path d="M11.2641 35.5189L4.83887 58.048L14.5163 62.8867V35.5189H11.2641Z" fill="#E6E9ED"/>
<path d="M55.6454 53.2093L16.931 33.8899C16.931 33.878 12.097 31.4469 12.097 31.4351L7.2583 36.2738L55.6454 69.5399V53.2093Z" fill="#AAB2BD"/>
<path d="M82.2578 118.532C82.2578 122.54 79.008 125.79 74.9998 125.79C70.9915 125.79 67.7417 122.54 67.7417 118.532C67.7417 114.522 70.9915 111.274 74.9998 111.274C79.008 111.274 82.2578 114.522 82.2578 118.532Z" fill="#656D78"/>
<path d="M106.452 47.1727L94.355 53.2093V70.1448L106.452 61.677V47.1727Z" fill="#969FAA"/>
<path d="M43.5483 61.1053L55.6451 69.5399V53.2093L43.5483 47.1727V61.1053Z" fill="#969FAA"/>
<path d="M43.5483 95.1876C43.5483 96.7505 43.8 98.291 44.2938 99.7795L45.0486 102.046L55.6451 96.7576V79.8221L43.5483 88.2899V95.1876Z" fill="#969FAA"/>
<path d="M94.3548 79.8221L89.5161 94.3383L104.951 102.044L105.706 99.7747C106.2 98.291 106.452 96.747 106.452 95.1876V88.2899L94.3548 79.8221Z" fill="#969FAA"/>
<path d="M48.8834 98.2473L51.0192 104.654C52.3376 108.608 56.0351 111.274 60.2005 111.274H89.7998C93.9651 111.274 97.6627 108.608 98.981 104.656L101.117 98.2497C101.446 97.2609 101.613 96.2272 101.613 95.1877V38.6931C101.613 30.6755 95.1122 24.177 87.0969 24.177H62.9033C54.888 24.177 48.3872 30.6755 48.3872 38.6931V95.1877C48.3872 96.2272 48.5538 97.2609 48.8834 98.2473Z" fill="#FCD770"/>
<path d="M141.835 31.435L135.484 9.66085L145.161 4.82214V31.435H141.835Z" fill="#E6E9ED"/>
<path d="M138.81 35.5189L145.161 58.048L135.484 62.8867V35.5189H138.81Z" fill="#E6E9ED"/>
<path d="M147.581 33.8544C147.581 37.8626 144.331 41.1124 140.323 41.1124C136.314 41.1124 133.064 37.8626 133.064 33.8544C133.064 29.845 136.314 26.5963 140.323 26.5963C144.331 26.5963 147.581 29.845 147.581 33.8544Z" fill="#CCD1D9"/>
<path d="M8.54232 31.1326L14.5163 9.66085L4.83887 4.82214V31.1326H8.54232Z" fill="#E6E9ED"/>
<path d="M16.9356 33.8544C16.9356 37.8626 13.6857 41.1124 9.6775 41.1124C5.66926 41.1124 2.41943 37.8626 2.41943 33.8544C2.41943 29.845 5.66926 26.5963 9.6775 26.5963C13.6857 26.5963 16.9356 29.845 16.9356 33.8544Z" fill="#FCD770"/>
<path d="M10.7372 112.633L4.83887 91.9189L14.5163 87.0802V112.633H10.7372Z" fill="#E6E9ED"/>
<path d="M8.01309 117.247L14.5163 140.306L4.83887 145.145V117.247H8.01309Z" fill="#E6E9ED"/>
<path d="M16.9356 116.113C16.9356 120.121 13.6857 123.371 9.6775 123.371C5.66926 123.371 2.41943 120.121 2.41943 116.113C2.41943 112.103 5.66926 108.854 9.6775 108.854C13.6857 108.854 16.9356 112.103 16.9356 116.113Z" fill="#FCD770"/>
<path d="M138.81 114.298L145.161 91.9189L135.484 87.0802V114.298H138.81Z" fill="#E6E9ED"/>
<path d="M141.532 118.987L135.484 140.306L145.161 145.145V118.987H141.532Z" fill="#E6E9ED"/>
<path d="M147.581 116.113C147.581 120.121 144.331 123.371 140.323 123.371C136.314 123.371 133.064 120.121 133.064 116.113C133.064 112.103 136.314 108.854 140.323 108.854C144.331 108.854 147.581 112.103 147.581 116.113Z" fill="#FCD770"/>
<path d="M84.6774 87.0803H65.3225C61.3131 87.0803 58.0645 83.8305 58.0645 79.8222V41.1126C58.0645 37.1031 61.3131 33.8545 65.3225 33.8545H84.6774C88.6868 33.8545 91.9354 37.1031 91.9354 41.1126V79.8222C91.9354 83.8305 88.6868 87.0803 84.6774 87.0803Z" fill="#E6E9ED"/>
<path d="M84.6774 33.8545H65.3225C61.3131 33.8545 58.0645 37.1031 58.0645 41.1126V45.9513H91.9354V41.1126C91.9354 37.1031 88.6868 33.8545 84.6774 33.8545Z" fill="#FCD770"/>
<path d="M87.0966 128.209H62.9031C58.9019 128.209 55.645 124.952 55.645 120.951V111.274H60.4837V120.951C60.4837 122.284 61.5705 123.371 62.9031 123.371H87.0966C88.4292 123.371 89.516 122.284 89.516 120.951V111.274H94.3547V120.951C94.3547 124.952 91.0978 128.209 87.0966 128.209Z" fill="black"/>
<path d="M75.0002 128.209C69.6629 128.209 65.3228 123.869 65.3228 118.532C65.3228 113.195 69.6629 108.854 75.0002 108.854C80.3374 108.854 84.6776 113.195 84.6776 118.532C84.6776 123.869 80.3374 128.209 75.0002 128.209ZM75.0002 113.693C72.3316 113.693 70.1615 115.863 70.1615 118.532C70.1615 121.201 72.3316 123.371 75.0002 123.371C77.6688 123.371 79.8389 121.201 79.8389 118.532C79.8389 115.863 77.6688 113.693 75.0002 113.693Z" fill="black"/>
<path d="M89.7997 113.693H60.2004C54.9872 113.693 50.3729 110.369 48.7238 105.422L46.5868 99.0117C46.1757 97.7736 45.9678 96.4883 45.9678 95.1877V38.6932C45.9678 29.3536 53.5649 21.7577 62.9033 21.7577H87.0968C96.4352 21.7577 104.032 29.3536 104.032 38.6932V95.1877C104.032 96.4883 103.824 97.776 103.413 99.0117L101.276 105.422C99.6271 110.369 95.0129 113.693 89.7997 113.693ZM51.1786 97.4854L53.3156 103.889C54.3044 106.858 57.0722 108.854 60.2004 108.854H89.7997C92.9278 108.854 95.6957 106.858 96.6844 103.889L98.8215 97.483C99.0684 96.74 99.1936 95.9686 99.1936 95.1877V38.6932C99.1936 32.0222 93.7666 26.5964 87.0968 26.5964H62.9033C56.2335 26.5964 50.8065 32.0222 50.8065 38.6932V95.1877C50.8065 95.9686 50.9317 96.74 51.1786 97.4854Z" fill="black"/>
<path d="M147.581 33.8544C147.581 37.8626 144.331 41.1124 140.323 41.1124C136.314 41.1124 133.064 37.8626 133.064 33.8544C133.064 29.845 136.314 26.5963 140.323 26.5963C144.331 26.5963 147.581 29.845 147.581 33.8544Z" fill="#FCD770"/>
<path d="M140.322 43.5318C134.985 43.5318 130.645 39.1917 130.645 33.8544C130.645 28.5172 134.985 24.177 140.322 24.177C145.66 24.177 150 28.5172 150 33.8544C150 39.1917 145.66 43.5318 140.322 43.5318ZM140.322 29.0157C137.654 29.0157 135.484 31.1858 135.484 33.8544C135.484 36.523 137.654 38.6931 140.322 38.6931C142.991 38.6931 145.161 36.523 145.161 33.8544C145.161 31.1858 142.991 29.0157 140.322 29.0157Z" fill="black"/>
<path d="M133.064 66.8004V39.2295H137.903V58.9718L142.285 56.7828L137.998 41.7776L142.647 40.4463L148.038 59.3132L133.064 66.8004Z" fill="black"/>
<path d="M147.581 28.4782H142.742V8.73587L138.36 10.926L142.648 25.9301L137.998 27.2614L132.607 8.39565L147.581 0.907227V28.4782Z" fill="black"/>
<path d="M9.67742 43.5318C4.34019 43.5318 0 39.1917 0 33.8544C0 28.5172 4.34019 24.177 9.67742 24.177C15.0146 24.177 19.3548 28.5172 19.3548 33.8544C19.3548 39.1917 15.0146 43.5318 9.67742 43.5318ZM9.67742 29.0157C7.0088 29.0157 4.83871 31.1858 4.83871 33.8544C4.83871 36.523 7.0088 38.6931 9.67742 38.6931C12.346 38.6931 14.5161 36.523 14.5161 33.8544C14.5161 31.1858 12.346 29.0157 9.67742 29.0157Z" fill="black"/>
<path d="M16.9357 66.8004L1.9624 59.3132L7.35279 40.4463L12.0025 41.7776L7.71546 56.7828L12.097 58.9718V39.2295H16.9357V66.8004Z" fill="black"/>
<path d="M7.25814 28.4782H2.41943V0.907227L17.3927 8.39565L12.0023 27.2614L7.35265 25.9301L11.6397 10.926L7.25814 8.73587V28.4782Z" fill="black"/>
<path d="M9.67742 125.79C4.34019 125.79 0 121.45 0 116.112C0 110.775 4.34019 106.435 9.67742 106.435C15.0146 106.435 19.3548 110.775 19.3548 116.112C19.3548 121.45 15.0146 125.79 9.67742 125.79ZM9.67742 111.274C7.0088 111.274 4.83871 113.444 4.83871 116.112C4.83871 118.781 7.0088 120.951 9.67742 120.951C12.346 120.951 14.5161 118.781 14.5161 116.112C14.5161 113.444 12.346 111.274 9.67742 111.274Z" fill="black"/>
<path d="M16.9357 110.736H12.097V90.9939L7.71546 93.1841L12.0025 108.188L7.35279 109.519L1.9624 90.6537L16.9357 83.1653V110.736Z" fill="black"/>
<path d="M2.41943 149.059V121.488H7.25814V141.23L11.6397 139.041L7.35265 124.036L12.0023 122.704L17.3927 141.571L2.41943 149.059Z" fill="black"/>
<path d="M140.322 125.79C134.985 125.79 130.645 121.45 130.645 116.112C130.645 110.775 134.985 106.435 140.322 106.435C145.66 106.435 150 110.775 150 116.112C150 121.45 145.66 125.79 140.322 125.79ZM140.322 111.274C137.654 111.274 135.484 113.444 135.484 116.112C135.484 118.781 137.654 120.951 140.322 120.951C142.991 120.951 145.161 118.781 145.161 116.112C145.161 113.444 142.991 111.274 140.322 111.274Z" fill="black"/>
<path d="M137.903 110.736H133.064V83.1653L148.038 90.6537L142.647 109.519L137.998 108.188L142.285 93.1841L137.903 90.9939V110.736Z" fill="black"/>
<path d="M147.581 149.059L132.607 141.571L137.998 122.704L142.648 124.036L138.36 139.041L142.742 141.23V121.488H147.581V149.059Z" fill="black"/>
<path d="M100.227 62.974L135.617 38.282L138.386 42.2501L102.995 66.9421L100.227 62.974Z" fill="black"/>
<path d="M100.227 86.9775L102.995 83.0094L138.39 107.698L135.622 111.666L100.227 86.9775Z" fill="black"/>
<path d="M131.973 118.234L98.8721 101.433L101.061 97.1179L135.488 114.593L135.438 116.57L133.053 116.112L131.973 118.234Z" fill="black"/>
<path d="M18.0269 118.234L16.9471 116.112H14.516H16.9353L14.562 116.57L14.5112 116.076V114.593L48.9386 97.1179L51.1276 101.433L18.0269 118.234Z" fill="black"/>
<path d="M11.6138 107.701L47.0051 83.0082L49.7729 86.9763L14.3828 111.669L11.6138 107.701Z" fill="black"/>
<path d="M11.6089 42.2583L14.3767 38.2891L49.7716 62.9776L47.0038 66.9457L11.6089 42.2583Z" fill="black"/>
<path d="M47.2906 52.0114L14.5112 35.3736L14.562 33.3973L16.9471 33.8544L18.0269 31.7328L49.4832 47.6972L47.2906 52.0114Z" fill="black"/>
<path d="M102.709 52.0114L100.517 47.6972L131.973 31.7328L133.053 33.8544H135.484H133.064L135.438 33.3973L135.489 33.8899V35.3736L102.709 52.0114Z" fill="black"/>
<path d="M84.6773 89.4996H65.3224C59.9852 89.4996 55.645 85.1594 55.645 79.8222V41.1125C55.645 35.7752 59.9852 31.4351 65.3224 31.4351H84.6773C90.0145 31.4351 94.3547 35.7752 94.3547 41.1125V79.8222C94.3547 85.1594 90.0145 89.4996 84.6773 89.4996ZM65.3224 36.2738C62.6538 36.2738 60.4837 38.4439 60.4837 41.1125V79.8222C60.4837 82.4908 62.6538 84.6609 65.3224 84.6609H84.6773C87.3459 84.6609 89.516 82.4908 89.516 79.8222V41.1125C89.516 38.4439 87.3459 36.2738 84.6773 36.2738H65.3224Z" fill="black"/>
<path d="M58.0645 41.1125H91.9354V45.9513H58.0645V41.1125Z" fill="black"/>
<path d="M84.6772 50.7899H91.9353V55.6286H84.6772V50.7899Z" fill="black"/>
<path d="M58.0645 50.7899H65.3225V55.6286H58.0645V50.7899Z" fill="black"/>
<path d="M70.1611 50.7899H79.8386V55.6286H70.1611V50.7899Z" fill="black"/>
</g>
<defs>
<clipPath id="clip0_18_1702">
<rect width="150" height="150" fill="white"/>
</clipPath>
</defs>
</svg>
