<svg width="136" height="100" viewBox="0 0 136 100" fill="none" xmlns="http://www.w3.org/2000/svg">
<path d="M10.1499 53.6935C9.01077 52.632 7.50407 52.0542 5.94725 52.0816C4.39042 52.1091 2.90504 52.7398 1.80403 53.8408C0.703023 54.9418 0.0723498 56.4272 0.0448815 57.984C0.0174133 59.5408 0.595294 61.0475 1.65678 62.1867L37.7126 98.2426C38.8394 99.3679 40.3667 100 41.9592 100C43.5517 100 45.079 99.3679 46.2058 98.2426L134.342 10.106C135.404 8.96683 135.982 7.46012 135.954 5.9033C135.927 4.34648 135.296 2.8611 134.195 1.76009C133.094 0.659076 131.609 0.0284045 130.052 0.000936229C128.495 -0.0265321 126.988 0.551347 125.849 1.61283L41.9592 85.5028L10.1499 53.6935Z" fill="#17CB97"/>
</svg>
