<svg width="30" height="30" viewBox="0 0 30 30" fill="none" xmlns="http://www.w3.org/2000/svg">
<path d="M15 1.76471C7.67647 1.76471 1.76471 7.67647 1.76471 15C1.76471 22.3235 7.67647 28.2353 15 28.2353C22.3235 28.2353 28.2353 22.3235 28.2353 15C28.2353 7.67647 22.3235 1.76471 15 1.76471Z" fill="#12B0BB"/>
<path fill-rule="evenodd" clip-rule="evenodd" d="M15 30C6.70588 30 0 23.2941 0 15C0 6.70588 6.70588 0 15 0C23.2941 0 30 6.70588 30 15C30 23.2941 23.2941 30 15 30ZM1.76471 15C1.76471 7.67647 7.67647 1.76471 15 1.76471C22.3235 1.76471 28.2353 7.67647 28.2353 15C28.2353 22.3235 22.3235 28.2353 15 28.2353C7.67647 28.2353 1.76471 22.3235 1.76471 15Z" fill="white"/>
<path d="M7.05884 14.1172H22.9412V15.8819H7.05884V14.1172Z" fill="white"/>
<path d="M14.1177 7.05859H15.8824V22.9409H14.1177V7.05859Z" fill="white"/>
</svg>
