<svg width="6" height="25" viewBox="0 0 6 25" fill="none" xmlns="http://www.w3.org/2000/svg">
<path d="M0.247525 0H5.48091L4.59689 16.5488H1.09618L0.247525 0ZM2.86421 25C2.03913 25 1.35549 24.7407 0.813296 24.2221C0.271099 23.6799 0 23.0198 0 22.2419C0 21.4639 0.271099 20.8157 0.813296 20.297C1.35549 19.7784 2.03913 19.5191 2.86421 19.5191C3.66572 19.5191 4.32579 19.7784 4.84441 20.297C5.38661 20.8157 5.65771 21.4639 5.65771 22.2419C5.65771 23.0198 5.38661 23.6799 4.84441 24.2221C4.32579 24.7407 3.66572 25 2.86421 25Z" fill="black"/>
</svg>
