<svg width="22" height="23" viewBox="0 0 22 23" fill="none" xmlns="http://www.w3.org/2000/svg">
<path d="M3.68727 6.23063L4.50974 5.40816C6.06744 3.85012 8.12737 2.89522 10.323 2.71338C12.5187 2.53153 14.7076 3.13453 16.5004 4.41508C18.2932 5.69563 19.5736 7.57068 20.1137 9.70661C20.6538 11.8425 20.4187 14.1008 19.4501 16.0797C18.4815 18.0585 16.8422 19.6295 14.8241 20.5132C12.8059 21.3969 10.5397 21.536 8.4286 20.9057C6.31753 20.2753 4.49853 18.9165 3.29525 17.071C2.09198 15.2254 1.58247 13.0128 1.85738 10.8269M3.68727 6.23063L8.62322 6.23179M3.68727 6.23063V1.29468" stroke="white" stroke-width="2" stroke-linecap="round" stroke-linejoin="round"/>
</svg>
