<svg width="28" height="21" viewBox="0 0 28 21" fill="none" xmlns="http://www.w3.org/2000/svg">
<path d="M2.62355 11.0334C2.39572 10.8211 2.09438 10.7055 1.78302 10.711C1.47165 10.7165 1.17458 10.8426 0.954373 11.0628C0.734171 11.283 0.608037 11.5801 0.602543 11.8915C0.59705 12.2028 0.712626 12.5042 0.924923 12.732L8.13609 19.9432C8.36144 20.1683 8.66692 20.2947 8.98541 20.2947C9.3039 20.2947 9.60938 20.1683 9.83473 19.9432L27.462 2.31588C27.6743 2.08804 27.7899 1.7867 27.7844 1.47534C27.7789 1.16397 27.6528 0.866897 27.4326 0.646695C27.2124 0.426493 26.9153 0.300359 26.6039 0.294865C26.2926 0.289371 25.9912 0.404947 25.7634 0.617244L8.98541 17.3952L2.62355 11.0334Z" fill="white"/>
</svg>
