<?xml version="1.0" encoding="UTF-8" standalone="no"?>
<!-- icon666.com - MILLIONS vector ICONS FREE -->

<svg
   id="Icons"
   viewBox="0 0 60 60"
   version="1.1"
   sodipodi:docname="coin.svg"
   inkscape:version="1.3.2 (091e20e, 2023-11-25, custom)"
   xmlns:inkscape="http://www.inkscape.org/namespaces/inkscape"
   xmlns:sodipodi="http://sodipodi.sourceforge.net/DTD/sodipodi-0.dtd"
   xmlns="http://www.w3.org/2000/svg"
   xmlns:svg="http://www.w3.org/2000/svg">
  <defs
     id="defs4" />
  <sodipodi:namedview
     id="namedview4"
     pagecolor="#ffffff"
     bordercolor="#000000"
     borderopacity="0.25"
     inkscape:showpageshadow="2"
     inkscape:pageopacity="0.0"
     inkscape:pagecheckerboard="0"
     inkscape:deskcolor="#d1d1d1"
     inkscape:zoom="13.116667"
     inkscape:cx="30"
     inkscape:cy="30"
     inkscape:window-width="1920"
     inkscape:window-height="1001"
     inkscape:window-x="-9"
     inkscape:window-y="-9"
     inkscape:window-maximized="1"
     inkscape:current-layer="Icons" />
  <circle
     cx="30"
     cy="30"
     fill="#c99541"
     r="29"
     id="circle1" />
  <circle
     cx="30"
     cy="30"
     fill="#e2ac4d"
     r="25"
     id="circle2" />
  <g
     fill="#f4ca8c"
     id="g4">
    <path
       d="m9.6 26a.985.985 0 0 1 -.24-.029 1 1 0 0 1 -.733-1.209 21.953 21.953 0 0 1 21.373-16.762 1 1 0 0 1 0 2 19.956 19.956 0 0 0 -19.427 15.238 1 1 0 0 1 -.973.762z"
       id="path3" />
    <path
       d="m9 31a1 1 0 0 1 -1-1q0-.526.024-1.047a1 1 0 0 1 2 .094c-.014.316-.022.634-.022.953a1 1 0 0 1 -1.002 1z"
       id="path4" />
  </g>
</svg>
