<svg xmlns:xlink="http://www.w3.org/1999/xlink" xmlns="http://www.w3.org/2000/svg" version="1.1" viewBox="29.815307234042557 78.638172 848.5276595744681 470.64" style="max-height: 500px" width="848.5276595744681" height="470.64"><defs><clipPath id="bterdfXRkZUe"><path d="M 0 0 L 1044 0 L 1044 740 L 0 740 L 0 0 Z" stroke="none" fill="none"/></clipPath></defs><g clip-path="url(#bterdfXRkZUe)" transform="scale(1,1)"><g><rect fill-opacity="1" height="741" width="1045" y="0" x="0" stroke="none" fill="rgb(255,255,255)"/><path fill-opacity="0.10980392156862745" d="M 132.33307318941422 475.8378365195749 C 130.6123754818534 468.6910945950066 127.59303104266667 461.9213887131267 123.42545809353226 455.8659732483686 L 73.99999999999943 489.8824999999996 Z" paint-order="stroke fill markers" stroke="none" fill="rgb(0,0,255)"/><path stroke-width="2" stroke-miterlimit="10" stroke-linejoin="round" stroke-linecap="round" stroke-opacity="1" d="M 132.33307318941422 475.8378365195749 C 130.6123754818534 468.6910945950066 127.59303104266667 461.9213887131267 123.42545809353226 455.8659732483686 L 73.99999999999943 489.8824999999996 Z" paint-order="fill stroke markers" stroke="rgb(0,0,255)" fill="none"/><path stroke-width="2" stroke-miterlimit="10" stroke-linejoin="round" stroke-linecap="round" stroke-opacity="1" d="M 126.49976587047274 477.24230286761735 C 124.95113793366806 470.8102351355059 122.23372793839985 464.71749984181395 118.48291228417884 459.2676259235317" paint-order="fill stroke markers" stroke="rgb(0,0,255)" fill="none"/><path stroke-width="2" stroke-miterlimit="10" stroke-linejoin="round" stroke-linecap="round" stroke-opacity="1" d="M 586.677381008795 169.52956850430996 C 597.7022255597108 172.1688170615746 609.3291768537144 170.0060663723316 618.6675816815607 163.57901218007987 L 595.9898971804732 130.6287067843914 Z" paint-order="fill stroke markers" stroke="rgb(0,0,255)" fill="none"/><path stroke-width="2" stroke-miterlimit="10" stroke-linejoin="round" stroke-linecap="round" stroke-opacity="1" d="M 595.9898971804733 130.6287067843914 L 578.5153588898802 142.65536515363655 L 590.542017259125 160.12990344423167 L 608.0165555497185 148.10324507498453 L 595.9898971804733 130.6287067843914" paint-order="fill stroke markers" stroke="rgb(255,0,0)" fill="none"/><path stroke-width="2" stroke-miterlimit="10" stroke-linejoin="round" stroke-linecap="round" stroke-opacity="1" d="M 733.8945078459955 331.00185496380993 L 716.4199695554023 343.0285133330551 L 728.4466279246471 360.5030516236502 L 745.9211662152406 348.47639325440304 L 733.8945078459955 331.00185496380993" paint-order="fill stroke markers" stroke="rgb(255,0,0)" fill="none"/><path stroke-width="2.5" stroke-miterlimit="10" stroke-linejoin="round" stroke-linecap="round" stroke-opacity="0.8" d="M 73.99999999999943 489.8824999999996 L 595.9898971804733 130.6287067843914" paint-order="fill stroke markers" stroke="rgb(0,0,255)" fill="none"/><path stroke-width="2.5" stroke-miterlimit="10" stroke-linejoin="round" stroke-linecap="round" stroke-opacity="0.8" d="M 595.9898971804733 130.6287067843914 L 836.3776056715533 479.90812319796044" paint-order="fill stroke markers" stroke="rgb(0,0,255)" fill="none"/><path stroke-width="2.5" stroke-miterlimit="10" stroke-linejoin="round" stroke-linecap="round" stroke-opacity="0.8" d="M 836.3776056715533 479.90812319796044 L 73.99999999999943 489.8824999999996" paint-order="fill stroke markers" stroke="rgb(0,0,255)" fill="none"/><path stroke-width="2.5" stroke-miterlimit="10" stroke-linejoin="round" stroke-linecap="round" stroke-opacity="0.8" d="M 73.99999999999943 489.8824999999996 L 733.8945078459955 331.00185496380993" paint-order="fill stroke markers" stroke="rgb(255,0,0)" fill="none"/><path stroke-width="2.5" stroke-miterlimit="10" stroke-linejoin="round" stroke-linecap="round" stroke-opacity="0.8" d="M 733.8945078459955 331.00185496380993 L 511.3575818422089 484.1604414215867" paint-order="fill stroke markers" stroke="rgb(255,0,0)" fill="none"/><path stroke-width="2.5" stroke-miterlimit="10" stroke-linejoin="round" stroke-linecap="round" stroke-opacity="0.8" d="M 595.9898971804733 130.6287067843914 L 511.3575818422089 484.1604414215867" paint-order="fill stroke markers" stroke="rgb(255,0,0)" fill="none"/><path fill-opacity="1" d="M 600.9898971804733 130.6287067843914 C 600.9898971804733 133.39013053354537 598.7513209296274 135.6287067843914 595.9898971804733 135.6287067843914 C 593.2284734313193 135.6287067843914 590.9898971804733 133.39013053354537 590.9898971804733 130.6287067843914 C 590.9898971804733 127.86728303523743 593.2284734313193 125.6287067843914 595.9898971804733 125.6287067843914 C 598.7513209296274 125.6287067843914 600.9898971804733 127.86728303523743 600.9898971804733 130.6287067843914 Z" paint-order="stroke fill markers" stroke="none" fill="rgb(255,0,0)"/><path stroke-miterlimit="10" stroke-linejoin="round" stroke-linecap="round" stroke-opacity="1" d="M 600.9898971804733 130.6287067843914 C 600.9898971804733 133.39013053354537 598.7513209296274 135.6287067843914 595.9898971804733 135.6287067843914 C 593.2284734313193 135.6287067843914 590.9898971804733 133.39013053354537 590.9898971804733 130.6287067843914 C 590.9898971804733 127.86728303523743 593.2284734313193 125.6287067843914 595.9898971804733 125.6287067843914 C 598.7513209296274 125.6287067843914 600.9898971804733 127.86728303523743 600.9898971804733 130.6287067843914 Z" paint-order="fill stroke markers" stroke="rgb(0,0,0)" fill="none"/><path fill-opacity="1" d="M 78.99999999999943 489.8824999999996 C 78.99999999999943 492.64392374915354 76.7614237491534 494.8824999999996 73.99999999999943 494.8824999999996 C 71.23857625084547 494.8824999999996 68.99999999999943 492.64392374915354 68.99999999999943 489.8824999999996 C 68.99999999999943 487.12107625084565 71.23857625084547 484.8824999999996 73.99999999999943 484.8824999999996 C 76.7614237491534 484.8824999999996 78.99999999999943 487.12107625084565 78.99999999999943 489.8824999999996 Z" paint-order="stroke fill markers" stroke="none" fill="rgb(255,0,0)"/><path stroke-miterlimit="10" stroke-linejoin="round" stroke-linecap="round" stroke-opacity="1" d="M 78.99999999999943 489.8824999999996 C 78.99999999999943 492.64392374915354 76.7614237491534 494.8824999999996 73.99999999999943 494.8824999999996 C 71.23857625084547 494.8824999999996 68.99999999999943 492.64392374915354 68.99999999999943 489.8824999999996 C 68.99999999999943 487.12107625084565 71.23857625084547 484.8824999999996 73.99999999999943 484.8824999999996 C 76.7614237491534 484.8824999999996 78.99999999999943 487.12107625084565 78.99999999999943 489.8824999999996 Z" paint-order="fill stroke markers" stroke="rgb(0,0,0)" fill="none"/><path fill-opacity="1" d="M 738.8945078459955 331.00185496380993 C 738.8945078459955 333.7632787129639 736.6559315951495 336.00185496380993 733.8945078459955 336.00185496380993 C 731.1330840968415 336.00185496380993 728.8945078459955 333.7632787129639 728.8945078459955 331.00185496380993 C 728.8945078459955 328.240431214656 731.1330840968415 326.00185496380993 733.8945078459955 326.00185496380993 C 736.6559315951495 326.00185496380993 738.8945078459955 328.240431214656 738.8945078459955 331.00185496380993 Z" paint-order="stroke fill markers" stroke="none" fill="rgb(255,0,0)"/><path stroke-miterlimit="10" stroke-linejoin="round" stroke-linecap="round" stroke-opacity="1" d="M 738.8945078459955 331.00185496380993 C 738.8945078459955 333.7632787129639 736.6559315951495 336.00185496380993 733.8945078459955 336.00185496380993 C 731.1330840968415 336.00185496380993 728.8945078459955 333.7632787129639 728.8945078459955 331.00185496380993 C 728.8945078459955 328.240431214656 731.1330840968415 326.00185496380993 733.8945078459955 326.00185496380993 C 736.6559315951495 326.00185496380993 738.8945078459955 328.240431214656 738.8945078459955 331.00185496380993 Z" paint-order="fill stroke markers" stroke="rgb(0,0,0)" fill="none"/><path fill-opacity="1" d="M 516.3575818422089 484.1604414215867 C 516.3575818422089 486.92186517074066 514.1190055913629 489.1604414215867 511.3575818422089 489.1604414215867 C 508.59615809305495 489.1604414215867 506.3575818422089 486.92186517074066 506.3575818422089 484.1604414215867 C 506.3575818422089 481.39901767243276 508.59615809305495 479.1604414215867 511.3575818422089 479.1604414215867 C 514.1190055913629 479.1604414215867 516.3575818422089 481.39901767243276 516.3575818422089 484.1604414215867 Z" paint-order="stroke fill markers" stroke="none" fill="rgb(255,0,0)"/><path stroke-miterlimit="10" stroke-linejoin="round" stroke-linecap="round" stroke-opacity="1" d="M 516.3575818422089 484.1604414215867 C 516.3575818422089 486.92186517074066 514.1190055913629 489.1604414215867 511.3575818422089 489.1604414215867 C 508.59615809305495 489.1604414215867 506.3575818422089 486.92186517074066 506.3575818422089 484.1604414215867 C 506.3575818422089 481.39901767243276 508.59615809305495 479.1604414215867 511.3575818422089 479.1604414215867 C 514.1190055913629 479.1604414215867 516.3575818422089 481.39901767243276 516.3575818422089 484.1604414215867 Z" paint-order="fill stroke markers" stroke="rgb(0,0,0)" fill="none"/><path fill-opacity="1" d="M 841.3776056715533 479.90812319796044 C 841.3776056715533 482.6695469471144 839.1390294207073 484.90812319796044 836.3776056715533 484.90812319796044 C 833.6161819223993 484.90812319796044 831.3776056715533 482.6695469471144 831.3776056715533 479.90812319796044 C 831.3776056715533 477.1466994488065 833.6161819223993 474.90812319796044 836.3776056715533 474.90812319796044 C 839.1390294207073 474.90812319796044 841.3776056715533 477.1466994488065 841.3776056715533 479.90812319796044 Z" paint-order="stroke fill markers" stroke="none" fill="rgb(255,0,0)"/><path stroke-miterlimit="10" stroke-linejoin="round" stroke-linecap="round" stroke-opacity="1" d="M 841.3776056715533 479.90812319796044 C 841.3776056715533 482.6695469471144 839.1390294207073 484.90812319796044 836.3776056715533 484.90812319796044 C 833.6161819223993 484.90812319796044 831.3776056715533 482.6695469471144 831.3776056715533 479.90812319796044 C 831.3776056715533 477.1466994488065 833.6161819223993 474.90812319796044 836.3776056715533 474.90812319796044 C 839.1390294207073 474.90812319796044 841.3776056715533 477.1466994488065 841.3776056715533 479.90812319796044 Z" paint-order="fill stroke markers" stroke="rgb(0,0,0)" fill="none"/><g transform="scale(35,35)"><g transform="translate(1.4,15.054428571428572)"><path d="M 0.179 -0.115 L 0.527 -0.6990000000000001 Q 0.537 -0.715 0.553 -0.716 Q 0.5680000000000001 -0.716 0.5700000000000001 -0.706 Q 0.5710000000000001 -0.7030000000000001 0.5720000000000001 -0.6920000000000001 L 0.633 -0.067 Q 0.636 -0.042 0.645 -0.037 L 0.646 -0.037 L 0.646 -0.037 L 0.646 -0.037 L 0.646 -0.037 L 0.646 -0.036000000000000004 Q 0.658 -0.031 0.6980000000000001 -0.031 Q 0.72 -0.031 0.721 -0.02 Q 0.721 0 0.7030000000000001 0 L 0.591 -0.003 L 0.59 -0.003 L 0.466 0 L 0.465 0 Q 0.451 0 0.451 -0.011 Q 0.459 -0.03 0.47500000000000003 -0.031 Q 0.547 -0.031 0.547 -0.064 Q 0.547 -0.063 0.531 -0.231 L 0.28 -0.231 L 0.20400000000000001 -0.10300000000000001 Q 0.19 -0.078 0.19 -0.066 Q 0.19 -0.035 0.23700000000000002 -0.031 Q 0.253 -0.031 0.253 -0.019 Q 0.253 0 0.234 0 L 0.138 -0.003 L 0.134 -0.003 L 0.05 0 L 0.048 0 Q 0.035 0 0.035 -0.011 Q 0.035 -0.029 0.05 -0.03 L 0.05 -0.031 L 0.056 -0.031 Q 0.11900000000000001 -0.035 0.159 -0.085 Q 0.169 -0.098 0.179 -0.115 M 0.299 -0.262 L 0.528 -0.262 L 0.496 -0.592 L 0.299 -0.262 Z" paint-order="stroke fill markers" stroke="none" fill="rgb(0,0,0)"/></g></g><g transform="scale(35,35)"><g transform="translate(14.028571428571428,14.85442857142857)"><path d="M 0.159 -0.078 L 0.159 -0.078 L 0.293 -0.615 Q 0.297 -0.631 0.297 -0.634 Q 0.297 -0.646 0.281 -0.649 L 0.28 -0.649 L 0.28 -0.649 Q 0.278 -0.65 0.275 -0.65 Q 0.251 -0.652 0.232 -0.652 Q 0.20600000000000002 -0.652 0.20400000000000001 -0.66 Q 0.203 -0.662 0.203 -0.664 Q 0.203 -0.681 0.22 -0.683 L 0.22 -0.683 L 0.233 -0.683 L 0.5690000000000001 -0.683 Q 0.6990000000000001 -0.683 0.763 -0.582 Q 0.804 -0.518 0.804 -0.43 Q 0.804 -0.28500000000000003 0.7030000000000001 -0.159 Q 0.607 -0.042 0.47700000000000004 -0.01 Q 0.438 0 0.399 0 L 0.068 0 Q 0.043000000000000003 0 0.041 -0.008 Q 0.04 -0.009000000000000001 0.04 -0.012 Q 0.04 -0.029 0.056 -0.031 L 0.068 -0.031 Q 0.133 -0.031 0.146 -0.045 Q 0.152 -0.052000000000000005 0.158 -0.073 Q 0.158 -0.074 0.159 -0.078 M 0.375 -0.614 L 0.23800000000000002 -0.065 Q 0.233 -0.047 0.233 -0.042 Q 0.233 -0.034 0.242 -0.032 L 0.242 -0.032 L 0.242 -0.032 L 0.246 -0.032 Q 0.252 -0.031 0.268 -0.031 L 0.381 -0.031 Q 0.505 -0.031 0.595 -0.124 Q 0.604 -0.134 0.612 -0.14400000000000002 Q 0.6920000000000001 -0.248 0.713 -0.41600000000000004 Q 0.717 -0.447 0.717 -0.467 Q 0.717 -0.601 0.612 -0.639 Q 0.578 -0.652 0.536 -0.652 L 0.429 -0.652 Q 0.393 -0.652 0.385 -0.642 L 0.385 -0.642 L 0.385 -0.641 L 0.384 -0.641 L 0.384 -0.64 Q 0.38 -0.634 0.375 -0.614 Z" paint-order="stroke fill markers" stroke="none" fill="rgb(0,0,0)"/></g></g><g transform="scale(35,35)"><g transform="translate(23.8,14.711571428571428)"><path d="M 0.16 -0.078 L 0.294 -0.615 Q 0.298 -0.631 0.298 -0.634 Q 0.298 -0.646 0.28200000000000003 -0.649 L 0.281 -0.649 L 0.28 -0.649 Q 0.277 -0.649 0.271 -0.65 Q 0.254 -0.652 0.233 -0.652 Q 0.20700000000000002 -0.652 0.20500000000000002 -0.663 Q 0.20500000000000002 -0.681 0.22 -0.683 L 0.221 -0.683 L 0.222 -0.683 L 0.234 -0.683 L 0.5700000000000001 -0.683 Q 0.685 -0.683 0.734 -0.615 Q 0.756 -0.583 0.756 -0.545 Q 0.756 -0.464 0.666 -0.404 Q 0.665 -0.404 0.664 -0.403 Q 0.611 -0.369 0.547 -0.357 Q 0.649 -0.34500000000000003 0.687 -0.277 Q 0.7020000000000001 -0.249 0.7020000000000001 -0.216 Q 0.7020000000000001 -0.14300000000000002 0.632 -0.079 L 0.631 -0.078 Q 0.545 0 0.426 0 L 0.069 0 Q 0.044 0 0.042 -0.011 Q 0.042 -0.029 0.057 -0.031 L 0.069 -0.031 Q 0.134 -0.031 0.147 -0.045 Q 0.153 -0.052000000000000005 0.159 -0.073 Q 0.159 -0.074 0.16 -0.078 M 0.311 -0.366 L 0.457 -0.366 Q 0.556 -0.366 0.62 -0.438 Q 0.665 -0.489 0.665 -0.549 Q 0.665 -0.622 0.605 -0.644 Q 0.584 -0.652 0.556 -0.652 L 0.427 -0.652 Q 0.391 -0.652 0.383 -0.642 L 0.383 -0.642 L 0.383 -0.641 L 0.382 -0.641 L 0.382 -0.64 Q 0.378 -0.634 0.373 -0.614 L 0.311 -0.366 M 0.266 -0.031 L 0.402 -0.031 Q 0.498 -0.031 0.561 -0.10300000000000001 Q 0.609 -0.159 0.609 -0.227 Q 0.609 -0.3 0.557 -0.33 Q 0.531 -0.34400000000000003 0.494 -0.34400000000000003 L 0.305 -0.34400000000000003 L 0.23600000000000002 -0.065 Q 0.231 -0.047 0.231 -0.042 Q 0.231 -0.034 0.24 -0.032 L 0.24 -0.032 L 0.24 -0.032 L 0.244 -0.032 Q 0.25 -0.031 0.266 -0.031 Z" paint-order="stroke fill markers" stroke="none" fill="rgb(0,0,0)"/></g></g><g transform="scale(35,35)"><g transform="translate(17.2,3.511571428571429)"><path d="M 0.76 -0.6950000000000001 L 0.6970000000000001 -0.44 Q 0.6920000000000001 -0.422 0.687 -0.421 L 0.686 -0.42 L 0.679 -0.42 Q 0.664 -0.42 0.664 -0.43 L 0.667 -0.47900000000000004 L 0.667 -0.481 Q 0.667 -0.605 0.589 -0.652 L 0.588 -0.653 Q 0.553 -0.674 0.506 -0.674 Q 0.4 -0.674 0.305 -0.595 Q 0.281 -0.5760000000000001 0.262 -0.553 Q 0.167 -0.442 0.145 -0.271 Q 0.14100000000000001 -0.24 0.14100000000000001 -0.217 Q 0.14100000000000001 -0.077 0.247 -0.028 Q 0.28800000000000003 -0.009000000000000001 0.337 -0.009000000000000001 Q 0.431 -0.009000000000000001 0.521 -0.082 Q 0.591 -0.14100000000000001 0.622 -0.24 Q 0.624 -0.25 0.635 -0.25 Q 0.647 -0.25 0.647 -0.24 Q 0.647 -0.222 0.624 -0.176 Q 0.593 -0.113 0.537 -0.064 Q 0.438 0.022 0.321 0.022 Q 0.193 0.022 0.116 -0.066 Q 0.05 -0.14100000000000001 0.05 -0.252 Q 0.05 -0.401 0.159 -0.531 Q 0.26 -0.652 0.398 -0.6910000000000001 Q 0.449 -0.705 0.498 -0.705 Q 0.607 -0.705 0.664 -0.616 L 0.734 -0.6930000000000001 Q 0.746 -0.705 0.749 -0.705 Q 0.76 -0.705 0.76 -0.6950000000000001 Z" paint-order="stroke fill markers" stroke="none" fill="rgb(0,0,0)"/></g></g><g transform="scale(35,35)"><g transform="translate(21.17142857142857,9.311571428571428)"><path d="M 0.708 -0.233 L 0.708 -0.233 L 0.616 -0.017 Q 0.61 -0.003 0.602 -0.001 L 0.602 -0.001 L 0.601 -0.001 Q 0.597 0 0.585 0 L 0.066 0 Q 0.041 0 0.039 -0.008 Q 0.038 -0.009000000000000001 0.038 -0.012 Q 0.038 -0.029 0.054 -0.031 L 0.066 -0.031 Q 0.131 -0.031 0.14400000000000002 -0.045 Q 0.15 -0.052000000000000005 0.156 -0.073 Q 0.156 -0.074 0.157 -0.078 L 0.289 -0.607 Q 0.294 -0.625 0.294 -0.631 Q 0.294 -0.648 0.248 -0.649 L 0.247 -0.649 L 0.229 -0.649 Q 0.203 -0.649 0.201 -0.66 Q 0.201 -0.678 0.217 -0.68 L 0.231 -0.68 L 0.736 -0.68 Q 0.76 -0.68 0.762 -0.673 L 0.763 -0.673 Q 0.765 -0.667 0.763 -0.653 L 0.743 -0.48 Q 0.736 -0.457 0.729 -0.455 Q 0.717 -0.455 0.717 -0.467 L 0.718 -0.484 L 0.718 -0.485 Q 0.722 -0.512 0.722 -0.538 Q 0.722 -0.608 0.683 -0.63 Q 0.65 -0.649 0.5700000000000001 -0.649 L 0.429 -0.649 Q 0.392 -0.649 0.385 -0.638 L 0.384 -0.638 L 0.384 -0.637 Q 0.381 -0.633 0.379 -0.625 L 0.379 -0.624 L 0.378 -0.623 Q 0.377 -0.619 0.375 -0.61 L 0.315 -0.369 L 0.40900000000000003 -0.369 Q 0.485 -0.369 0.51 -0.399 Q 0.526 -0.418 0.54 -0.468 Q 0.544 -0.485 0.554 -0.486 Q 0.5660000000000001 -0.486 0.5660000000000001 -0.47500000000000003 L 0.509 -0.241 Q 0.504 -0.222 0.494 -0.221 Q 0.481 -0.221 0.481 -0.232 Q 0.481 -0.23600000000000002 0.484 -0.243 Q 0.491 -0.273 0.491 -0.292 Q 0.491 -0.319 0.47600000000000003 -0.327 Q 0.457 -0.338 0.406 -0.338 L 0.307 -0.338 L 0.23900000000000002 -0.065 Q 0.234 -0.047 0.234 -0.042 Q 0.234 -0.034 0.243 -0.032 L 0.243 -0.032 L 0.243 -0.032 L 0.247 -0.032 Q 0.253 -0.031 0.269 -0.031 L 0.41500000000000004 -0.031 Q 0.537 -0.031 0.595 -0.08700000000000001 Q 0.633 -0.123 0.678 -0.222 Q 0.682 -0.233 0.6880000000000001 -0.246 Q 0.6920000000000001 -0.258 0.7010000000000001 -0.258 Q 0.713 -0.258 0.713 -0.247 Q 0.713 -0.246 0.708 -0.233 Z" paint-order="stroke fill markers" stroke="none" fill="rgb(0,0,0)"/></g></g><g transform="scale(25,25)"><g transform="translate(23.88,8.014)"><path d="M 0.23500000000000001 -0.249 L 0.23500000000000001 -0.214 Q 0.23500000000000001 -0.19 0.227 -0.188 Q 0.225 -0.187 0.222 -0.187 Q 0.211 -0.187 0.21 -0.198 L 0.21 -0.211 L 0.21 -0.256 Q 0.21 -0.359 0.271 -0.447 Q 0.28300000000000003 -0.465 0.298 -0.481 Q 0.325 -0.508 0.33 -0.545 Q 0.332 -0.559 0.332 -0.5760000000000001 Q 0.332 -0.637 0.304 -0.66 L 0.304 -0.661 Q 0.277 -0.683 0.223 -0.683 Q 0.14 -0.683 0.099 -0.625 L 0.098 -0.625 L 0.092 -0.615 Q 0.148 -0.615 0.148 -0.5700000000000001 Q 0.148 -0.536 0.117 -0.526 Q 0.11 -0.524 0.10200000000000001 -0.524 Q 0.066 -0.524 0.058 -0.557 L 0.058 -0.558 Q 0.056 -0.5640000000000001 0.056 -0.5720000000000001 Q 0.056 -0.632 0.112 -0.672 Q 0.159 -0.705 0.226 -0.705 Q 0.369 -0.705 0.406 -0.617 Q 0.41500000000000004 -0.595 0.41500000000000004 -0.5700000000000001 Q 0.41500000000000004 -0.51 0.37 -0.47500000000000003 Q 0.369 -0.47300000000000003 0.367 -0.47200000000000003 Q 0.272 -0.402 0.246 -0.32 Q 0.23500000000000001 -0.28600000000000003 0.23500000000000001 -0.249 M 0.275 -0.053 L 0.275 -0.053 Q 0.275 -0.02 0.245 -0.005 Q 0.234 0 0.222 0 Q 0.189 0 0.17400000000000002 -0.03 Q 0.169 -0.041 0.169 -0.053 Q 0.169 -0.08600000000000001 0.199 -0.101 Q 0.21 -0.106 0.222 -0.106 Q 0.255 -0.106 0.27 -0.076 Q 0.275 -0.065 0.275 -0.053 Z" paint-order="stroke fill markers" stroke="none" fill="rgb(0,0,0)"/></g></g></g></g></svg>