<?xml version="1.0" encoding="UTF-8" standalone="no"?>
<svg
   xmlns:dc="http://purl.org/dc/elements/1.1/"
   xmlns:cc="http://creativecommons.org/ns#"
   xmlns:rdf="http://www.w3.org/1999/02/22-rdf-syntax-ns#"
   xmlns:svg="http://www.w3.org/2000/svg"
   xmlns="http://www.w3.org/2000/svg"
   xmlns:sodipodi="http://sodipodi.sourceforge.net/DTD/sodipodi-0.dtd"
   xmlns:inkscape="http://www.inkscape.org/namespaces/inkscape"
   version="1.1"
   width="1161.2474"
   height="567.96216"
   id="svg1025"
   sodipodi:docname="geoma3_4.svg"
   inkscape:version="1.0.2-2 (e86c870879, 2021-01-15)">
  <metadata
     id="metadata1029">
    <rdf:RDF>
      <cc:Work
         rdf:about="">
        <dc:format>image/svg+xml</dc:format>
        <dc:type
           rdf:resource="http://purl.org/dc/dcmitype/StillImage" />
        <dc:title></dc:title>
      </cc:Work>
    </rdf:RDF>
  </metadata>
  <sodipodi:namedview
     pagecolor="#ffffff"
     bordercolor="#666666"
     borderopacity="1"
     objecttolerance="10"
     gridtolerance="10"
     guidetolerance="10"
     inkscape:pageopacity="0"
     inkscape:pageshadow="2"
     inkscape:window-width="1920"
     inkscape:window-height="1001"
     id="namedview1027"
     showgrid="false"
     fit-margin-top="0"
     fit-margin-left="0"
     fit-margin-right="0"
     fit-margin-bottom="0"
     inkscape:zoom="0.27642688"
     inkscape:cx="1263.2861"
     inkscape:cy="519.14227"
     inkscape:window-x="-9"
     inkscape:window-y="-9"
     inkscape:window-maximized="1"
     inkscape:current-layer="svg1025" />
  <defs
     id="defs937">
    <clipPath
       clipPathUnits="userSpaceOnUse"
       id="clipPath1610">
      <rect
         style="opacity:0.998808;fill:#4d4d4d;stroke:#000000;stroke-width:5.802;stroke-linecap:round;stroke-linejoin:round;paint-order:stroke markers fill"
         id="rect1612"
         width="1175.7178"
         height="658.40198"
         x="68.734268"
         y="112.14539" />
    </clipPath>
    <clipPath
       clipPathUnits="userSpaceOnUse"
       id="clipPath1614">
      <rect
         style="opacity:0.998808;fill:#4d4d4d;stroke:#000000;stroke-width:5.802;stroke-linecap:round;stroke-linejoin:round;paint-order:stroke markers fill"
         id="rect1616"
         width="1175.7178"
         height="658.40198"
         x="68.734268"
         y="101.29261" />
    </clipPath>
    <clipPath
       clipPathUnits="userSpaceOnUse"
       id="clipPath1620">
      <rect
         style="opacity:0.998808;fill:#4d4d4d;stroke:#000000;stroke-width:5.802;stroke-linecap:round;stroke-linejoin:round;paint-order:stroke markers fill"
         id="rect1622"
         width="1161.2474"
         height="567.96216"
         x="68.734268"
         y="112.14539" />
    </clipPath>
    <clipPath
       clipPathUnits="userSpaceOnUse"
       id="clipPath1624">
      <rect
         style="opacity:0.998808;fill:#4d4d4d;stroke:#000000;stroke-width:5.802;stroke-linecap:round;stroke-linejoin:round;paint-order:stroke markers fill"
         id="rect1626"
         width="1161.2474"
         height="567.96216"
         x="68.734268"
         y="101.29261" />
    </clipPath>
  </defs>
  <g
     transform="translate(-68.734268,-101.29261)"
     clip-path="url(#clipPath1624)"
     id="g1023">
    <g
       id="g1021">
      <rect
         fill="#ffffff"
         stroke="none"
         x="0"
         y="0"
         width="1555"
         height="944"
         fill-opacity="1"
         id="rect939" />
      <path
         fill="#ff0000"
         stroke="none"
         paint-order="stroke fill markers"
         fill-rule="evenodd"
         d="m 1058.6965,400.55091 -27.6013,15.83249 15.8325,27.60131 27.6013,-15.83249 -15.8325,-27.60131"
         fill-opacity="0.0980392"
         id="path941" />
      <path
         fill="none"
         stroke="#ff0000"
         paint-order="fill stroke markers"
         d="m 1058.6965,400.55091 -27.6013,15.83249 15.8325,27.60131 27.6013,-15.83249 -15.8325,-27.60131"
         stroke-opacity="0.6"
         stroke-linecap="round"
         stroke-linejoin="round"
         stroke-miterlimit="10"
         stroke-width="3"
         id="path943" />
      <path
         fill="#ff0000"
         stroke="none"
         paint-order="stroke fill markers"
         fill-rule="evenodd"
         d="m 921,160.5 -27.60131,15.83249 15.83249,27.60131 27.60131,-15.83249 L 921,160.5"
         fill-opacity="0.0980392"
         id="path945" />
      <path
         fill="none"
         stroke="#ff0000"
         paint-order="fill stroke markers"
         d="m 921,160.5 -27.60131,15.83249 15.83249,27.60131 27.60131,-15.83249 L 921,160.5"
         stroke-opacity="0.6"
         stroke-linecap="round"
         stroke-linejoin="round"
         stroke-miterlimit="10"
         stroke-width="2.5"
         id="path947" />
      <path
         fill="#0000ff"
         stroke="none"
         paint-order="stroke fill markers"
         d="m 234.00508,588.3018 c -2.20126,-9.66899 -5.82846,-18.95678 -10.76254,-27.55852 L 136.5,610.5 Z"
         fill-opacity="0.0784314"
         id="path949" />
      <path
         fill="none"
         stroke="#0000ff"
         paint-order="fill stroke markers"
         d="m 234.00508,588.3018 c -2.20126,-9.66899 -5.82846,-18.95678 -10.76254,-27.55852 L 136.5,610.5 Z"
         stroke-opacity="0.6"
         stroke-linecap="round"
         stroke-linejoin="round"
         stroke-miterlimit="10"
         stroke-width="2.5"
         id="path951" />
      <path
         fill="none"
         stroke="#0000ff"
         paint-order="fill stroke markers"
         d="m 227.66725,589.74468 c -2.05818,-9.0405 -5.44961,-17.72459 -10.06297,-25.76721"
         stroke-opacity="0.6"
         stroke-linecap="round"
         stroke-linejoin="round"
         stroke-miterlimit="10"
         stroke-width="2.5"
         id="path953" />
      <path
         fill="none"
         stroke="#0000ff"
         paint-order="fill stroke markers"
         d="M 136.5,610.5 921,160.5"
         stroke-opacity="0.8"
         stroke-linecap="round"
         stroke-linejoin="round"
         stroke-miterlimit="10"
         stroke-width="3.5"
         id="path955" />
      <path
         fill="none"
         stroke="#0000ff"
         paint-order="fill stroke markers"
         d="M 136.5,610.5 1172.8152,599.49789"
         stroke-opacity="0.8"
         stroke-linecap="round"
         stroke-linejoin="round"
         stroke-miterlimit="10"
         stroke-width="3.5"
         id="path957" />
      <path
         fill="none"
         stroke="#0000ff"
         paint-order="fill stroke markers"
         d="M 1172.8152,599.49789 921,160.5"
         stroke-opacity="0.8"
         stroke-linecap="round"
         stroke-linejoin="round"
         stroke-miterlimit="10"
         stroke-width="3.5"
         id="path959" />
      <path
         fill="none"
         stroke="#ff0000"
         paint-order="fill stroke markers"
         d="M 703.17336,604.48388 1058.6965,400.55091"
         stroke-opacity="0.8"
         stroke-linecap="round"
         stroke-linejoin="round"
         stroke-miterlimit="10"
         stroke-width="3.5"
         id="path961" />
      <path
         fill="none"
         stroke="#ff0000"
         paint-order="fill stroke markers"
         d="M 136.5,610.5 1058.6965,400.55091"
         stroke-opacity="0.8"
         stroke-linecap="round"
         stroke-linejoin="round"
         stroke-miterlimit="10"
         stroke-width="3.5"
         id="path963" />
      <path
         fill="#ff0000"
         stroke="none"
         paint-order="stroke fill markers"
         d="m 141.5,610.5 c 0,2.76142 -2.23858,5 -5,5 -2.76142,0 -5,-2.23858 -5,-5 0,-2.76142 2.23858,-5 5,-5 2.76142,0 5,2.23858 5,5 z"
         fill-opacity="1"
         id="path965" />
      <path
         fill="none"
         stroke="#000000"
         paint-order="fill stroke markers"
         d="m 141.5,610.5 c 0,2.76142 -2.23858,5 -5,5 -2.76142,0 -5,-2.23858 -5,-5 0,-2.76142 2.23858,-5 5,-5 2.76142,0 5,2.23858 5,5 z"
         stroke-opacity="1"
         stroke-linecap="round"
         stroke-linejoin="round"
         stroke-miterlimit="10"
         id="path967" />
      <path
         fill="#ff0000"
         stroke="none"
         paint-order="stroke fill markers"
         d="m 926,160.5 c 0,2.76142 -2.23858,5 -5,5 -2.76142,0 -5,-2.23858 -5,-5 0,-2.76142 2.23858,-5 5,-5 2.76142,0 5,2.23858 5,5 z"
         fill-opacity="1"
         id="path969" />
      <path
         fill="none"
         stroke="#000000"
         paint-order="fill stroke markers"
         d="m 926,160.5 c 0,2.76142 -2.23858,5 -5,5 -2.76142,0 -5,-2.23858 -5,-5 0,-2.76142 2.23858,-5 5,-5 2.76142,0 5,2.23858 5,5 z"
         stroke-opacity="1"
         stroke-linecap="round"
         stroke-linejoin="round"
         stroke-miterlimit="10"
         id="path971" />
      <path
         fill="#ff0000"
         stroke="none"
         paint-order="stroke fill markers"
         d="m 1063.6965,400.55091 c 0,2.76142 -2.2386,5 -5,5 -2.7614,0 -5,-2.23858 -5,-5 0,-2.76143 2.2386,-5 5,-5 2.7614,0 5,2.23857 5,5 z"
         fill-opacity="1"
         id="path973" />
      <path
         fill="none"
         stroke="#000000"
         paint-order="fill stroke markers"
         d="m 1063.6965,400.55091 c 0,2.76142 -2.2386,5 -5,5 -2.7614,0 -5,-2.23858 -5,-5 0,-2.76143 2.2386,-5 5,-5 2.7614,0 5,2.23857 5,5 z"
         stroke-opacity="1"
         stroke-linecap="round"
         stroke-linejoin="round"
         stroke-miterlimit="10"
         id="path975" />
      <path
         fill="#ff0000"
         stroke="none"
         paint-order="stroke fill markers"
         d="m 708.17336,604.48388 c 0,2.76142 -2.23857,5 -5,5 -2.76142,0 -5,-2.23858 -5,-5 0,-2.76143 2.23858,-5 5,-5 2.76143,0 5,2.23857 5,5 z"
         fill-opacity="1"
         id="path977" />
      <path
         fill="none"
         stroke="#000000"
         paint-order="fill stroke markers"
         d="m 708.17336,604.48388 c 0,2.76142 -2.23857,5 -5,5 -2.76142,0 -5,-2.23858 -5,-5 0,-2.76143 2.23858,-5 5,-5 2.76143,0 5,2.23857 5,5 z"
         stroke-opacity="1"
         stroke-linecap="round"
         stroke-linejoin="round"
         stroke-miterlimit="10"
         id="path979" />
      <path
         fill="#ff0000"
         stroke="none"
         paint-order="stroke fill markers"
         d="m 1177.8152,599.49789 c 0,2.76143 -2.2385,5 -5,5 -2.7614,0 -5,-2.23857 -5,-5 0,-2.76142 2.2386,-5 5,-5 2.7615,0 5,2.23858 5,5 z"
         fill-opacity="1"
         id="path981" />
      <path
         fill="none"
         stroke="#000000"
         paint-order="fill stroke markers"
         d="m 1177.8152,599.49789 c 0,2.76143 -2.2385,5 -5,5 -2.7614,0 -5,-2.23857 -5,-5 0,-2.76142 2.2386,-5 5,-5 2.7615,0 5,2.23858 5,5 z"
         stroke-opacity="1"
         stroke-linecap="round"
         stroke-linejoin="round"
         stroke-miterlimit="10"
         id="path983" />
      <g
         transform="scale(35)"
         id="g989">
        <g
           transform="translate(3.2857143,18.511571)"
           id="g987">
          <path
             fill="#000000"
             stroke="none"
             paint-order="stroke fill markers"
             d="m 0.179,-0.115 0.348,-0.584 q 0.01,-0.016 0.026,-0.017 0.015,0 0.017,0.01 0.001,0.003 0.002,0.014 l 0.061,0.625 q 0.003,0.025 0.012,0.03 h 0.001 v 0 0 0 0.001 q 0.012,0.005 0.052,0.005 0.022,0 0.023,0.011 Q 0.721,0 0.703,0 L 0.591,-0.003 H 0.59 L 0.466,0 H 0.465 q -0.014,0 -0.014,-0.011 0.008,-0.019 0.024,-0.02 0.072,0 0.072,-0.033 0,0.001 -0.016,-0.167 H 0.28 l -0.076,0.128 q -0.014,0.025 -0.014,0.037 0,0.031 0.047,0.035 0.016,0 0.016,0.012 Q 0.253,0 0.234,0 L 0.138,-0.003 H 0.134 L 0.05,0 H 0.048 q -0.013,0 -0.013,-0.011 0,-0.018 0.015,-0.019 v -0.001 h 0.006 q 0.063,-0.004 0.103,-0.054 0.01,-0.013 0.02,-0.03 m 0.12,-0.147 h 0.229 l -0.032,-0.33 z"
             id="path985" />
        </g>
      </g>
      <g
         transform="scale(35)"
         id="g995">
        <g
           transform="translate(19.571429,18.454429)"
           id="g993">
          <path
             fill="#000000"
             stroke="none"
             paint-order="stroke fill markers"
             d="m 0.159,-0.078 v 0 l 0.134,-0.537 q 0.004,-0.016 0.004,-0.019 0,-0.012 -0.016,-0.015 H 0.28 v 0 Q 0.278,-0.65 0.275,-0.65 0.251,-0.652 0.232,-0.652 q -0.026,0 -0.028,-0.008 -10e-4,-0.002 -10e-4,-0.004 0,-0.017 0.017,-0.019 v 0 h 0.013 0.336 q 0.13,0 0.194,0.101 0.041,0.064 0.041,0.152 0,0.145 -0.101,0.271 Q 0.607,-0.042 0.477,-0.01 0.438,0 0.399,0 H 0.068 Q 0.043,0 0.041,-0.008 0.04,-0.009 0.04,-0.012 q 0,-0.017 0.016,-0.019 h 0.012 q 0.065,0 0.078,-0.014 0.006,-0.007 0.012,-0.028 0,-0.001 0.001,-0.005 m 0.216,-0.536 -0.137,0.549 q -0.005,0.018 -0.005,0.023 0,0.008 0.009,0.01 v 0 0 h 0.004 q 0.006,0.001 0.022,0.001 h 0.113 q 0.124,0 0.214,-0.093 0.009,-0.01 0.017,-0.02 0.08,-0.104 0.101,-0.272 0.004,-0.031 0.004,-0.051 0,-0.134 -0.105,-0.172 Q 0.578,-0.652 0.536,-0.652 H 0.429 q -0.036,0 -0.044,0.01 v 0 0.001 H 0.384 V -0.64 Q 0.38,-0.634 0.375,-0.614 Z"
             id="path991" />
        </g>
      </g>
      <g
         transform="scale(35)"
         id="g1001">
        <g
           transform="translate(33.371429,18.054429)"
           id="g999">
          <path
             fill="#000000"
             stroke="none"
             paint-order="stroke fill markers"
             d="m 0.16,-0.078 0.134,-0.537 q 0.004,-0.016 0.004,-0.019 0,-0.012 -0.016,-0.015 H 0.281 0.28 q -0.003,0 -0.009,-0.001 -0.017,-0.002 -0.038,-0.002 -0.026,0 -0.028,-0.011 0,-0.018 0.015,-0.02 H 0.221 0.222 0.234 0.57 q 0.115,0 0.164,0.068 0.022,0.032 0.022,0.07 0,0.081 -0.09,0.141 -0.001,0 -0.002,0.001 -0.053,0.034 -0.117,0.046 0.102,0.012 0.14,0.08 0.015,0.028 0.015,0.061 0,0.073 -0.07,0.137 L 0.631,-0.078 Q 0.545,0 0.426,0 H 0.069 q -0.025,0 -0.027,-0.011 0,-0.018 0.015,-0.02 h 0.012 q 0.065,0 0.078,-0.014 0.006,-0.007 0.012,-0.028 0,-0.001 0.001,-0.005 m 0.151,-0.288 h 0.146 q 0.099,0 0.163,-0.072 0.045,-0.051 0.045,-0.111 0,-0.073 -0.06,-0.095 Q 0.584,-0.652 0.556,-0.652 H 0.427 q -0.036,0 -0.044,0.01 v 0 0.001 H 0.382 v 0.001 q -0.004,0.006 -0.009,0.026 l -0.062,0.248 m -0.045,0.335 h 0.136 q 0.096,0 0.159,-0.072 Q 0.609,-0.159 0.609,-0.227 0.609,-0.3 0.557,-0.33 0.531,-0.344 0.494,-0.344 H 0.305 l -0.069,0.279 q -0.005,0.018 -0.005,0.023 0,0.008 0.009,0.01 v 0 0 h 0.004 q 0.006,0.001 0.022,0.001 z"
             id="path997" />
        </g>
      </g>
      <g
         transform="scale(35)"
         id="g1007">
        <g
           transform="translate(25.628571,4.2544286)"
           id="g1005">
          <path
             fill="#000000"
             stroke="none"
             paint-order="stroke fill markers"
             d="M 0.76,-0.695 0.697,-0.44 q -0.005,0.018 -0.01,0.019 L 0.686,-0.42 H 0.679 q -0.015,0 -0.015,-0.01 l 0.003,-0.049 v -0.002 q 0,-0.124 -0.078,-0.171 L 0.588,-0.653 q -0.035,-0.021 -0.082,-0.021 -0.106,0 -0.201,0.079 -0.024,0.019 -0.043,0.042 -0.095,0.111 -0.117,0.282 -0.004,0.031 -0.004,0.054 0,0.14 0.106,0.189 0.041,0.019 0.09,0.019 0.094,0 0.184,-0.073 0.07,-0.059 0.101,-0.158 0.002,-0.01 0.013,-0.01 0.012,0 0.012,0.01 0,0.018 -0.023,0.064 -0.031,0.063 -0.087,0.112 -0.099,0.086 -0.216,0.086 -0.128,0 -0.205,-0.088 -0.066,-0.075 -0.066,-0.186 0,-0.149 0.109,-0.279 0.101,-0.121 0.239,-0.16 0.051,-0.014 0.1,-0.014 0.109,0 0.166,0.089 l 0.07,-0.077 q 0.012,-0.012 0.015,-0.012 0.011,0 0.011,0.01 z"
             id="path1003" />
        </g>
      </g>
      <g
         transform="scale(35)"
         id="g1013">
        <g
           transform="translate(30.6,11.340143)"
           id="g1011">
          <path
             fill="#000000"
             stroke="none"
             paint-order="stroke fill markers"
             d="m 0.708,-0.233 v 0 L 0.616,-0.017 Q 0.61,-0.003 0.602,-0.001 v 0 H 0.601 Q 0.597,0 0.585,0 H 0.066 Q 0.041,0 0.039,-0.008 0.038,-0.009 0.038,-0.012 q 0,-0.017 0.016,-0.019 h 0.012 q 0.065,0 0.078,-0.014 0.006,-0.007 0.012,-0.028 0,-0.001 0.001,-0.005 l 0.132,-0.529 q 0.005,-0.018 0.005,-0.024 0,-0.017 -0.046,-0.018 H 0.247 0.229 q -0.026,0 -0.028,-0.011 0,-0.018 0.016,-0.02 h 0.014 0.505 q 0.024,0 0.026,0.007 h 0.001 q 0.002,0.006 0,0.02 l -0.02,0.173 q -0.007,0.023 -0.014,0.025 -0.012,0 -0.012,-0.012 l 0.001,-0.017 v -0.001 q 0.004,-0.027 0.004,-0.053 0,-0.07 -0.039,-0.092 Q 0.65,-0.649 0.57,-0.649 H 0.429 q -0.037,0 -0.044,0.011 H 0.384 v 0.001 q -0.003,0.004 -0.005,0.012 v 0.001 L 0.378,-0.623 Q 0.377,-0.619 0.375,-0.61 l -0.06,0.241 h 0.094 q 0.076,0 0.101,-0.03 0.016,-0.019 0.03,-0.069 0.004,-0.017 0.014,-0.018 0.012,0 0.012,0.011 l -0.057,0.234 q -0.005,0.019 -0.015,0.02 -0.013,0 -0.013,-0.011 0,-0.004 0.003,-0.011 0.007,-0.03 0.007,-0.049 0,-0.027 -0.015,-0.035 -0.019,-0.011 -0.07,-0.011 H 0.307 l -0.068,0.273 q -0.005,0.018 -0.005,0.023 0,0.008 0.009,0.01 v 0 0 h 0.004 q 0.006,0.001 0.022,0.001 h 0.146 q 0.122,0 0.18,-0.056 0.038,-0.036 0.083,-0.135 0.004,-0.011 0.01,-0.024 0.004,-0.012 0.013,-0.012 0.012,0 0.012,0.011 0,0.001 -0.005,0.014 z"
             id="path1009" />
        </g>
      </g>
      <g
         transform="scale(35)"
         id="g1019">
        <g
           transform="translate(7.0857143,16.288143)"
           id="g1017">
          <path
             fill="#000000"
             stroke="none"
             paint-order="stroke fill markers"
             d="M 0.334,-0.302 0.3,-0.165 q -0.017,0.068 -0.017,0.088 0,0.052 0.037,0.063 0.008,0.003 0.018,0.003 0.05,0 0.091,-0.05 0.027,-0.032 0.042,-0.081 0.003,-0.011 0.013,-0.011 0.012,0 0.012,0.01 0,0.025 -0.031,0.072 Q 0.411,0.011 0.336,0.011 0.268,0.011 0.237,-0.046 0.231,-0.055 0.228,-0.065 0.204,-0.017 0.162,0.002 0.143,0.011 0.123,0.011 q -0.06,0 -0.084,-0.035 -0.01,-0.013 -0.01,-0.031 0,-0.037 0.032,-0.052 0.011,-0.006 0.023,-0.006 0.03,0 0.036,0.025 0.001,0.005 0.001,0.01 0,0.034 -0.034,0.05 -0.006,0.003 -0.013,0.004 0.021,0.013 0.05,0.013 0.053,0 0.084,-0.071 0.006,-0.015 0.011,-0.033 0.054,-0.204 0.054,-0.238 -0.006,-0.062 -0.054,-0.067 -0.052,0 -0.095,0.053 v 0.001 q 0,0.001 -0.001,0.001 -0.015,0.02 -0.027,0.046 -0.005,0.012 -0.009,0.024 l -0.002,0.006 q -0.002,0.011 -0.013,0.011 -0.012,0 -0.012,-0.01 0,-0.025 0.032,-0.072 0.054,-0.082 0.129,-0.082 0.077,0 0.108,0.076 0.032,-0.062 0.085,-0.074 0.01,-0.002 0.02,-0.002 0.059,0 0.083,0.033 0.01,0.014 0.01,0.033 0,0.041 -0.037,0.055 -0.009,0.003 -0.017,0.003 -0.031,0 -0.037,-0.027 -0.001,-0.004 -0.001,-0.008 0,-0.03 0.029,-0.047 0.009,-0.005 0.019,-0.007 -0.021,-0.013 -0.05,-0.013 -0.068,0 -0.096,0.106 -0.002,0.006 -0.003,0.012 z"
             id="path1015" />
        </g>
      </g>
    </g>
  </g>
  <path
     fill="none"
     stroke="none"
     d="m 0,10.85278 h 1554 v 944 H 0 Z"
     id="path934"
     clip-path="url(#clipPath1620)"
     transform="translate(-68.734268,-112.14539)" />
</svg>
