<svg width="600" height="400" viewBox="0 0 600 400" fill="none" xmlns="http://www.w3.org/2000/svg">
<g clip-path="url(#clip0_6_361)">
<rect width="600" height="400" fill="white"/>
<mask id="mask0_6_361" style="mask-type:luminance" maskUnits="userSpaceOnUse" x="48" y="-44" width="668" height="513">
<path d="M48 -44H716V468.676H48V-44Z" fill="white"/>
</mask>
<g mask="url(#mask0_6_361)">
<path d="M716.543 -44H48V468.676H716.543V-44Z" fill="white"/>
<path d="M151.4 316.443C154.023 308.757 150.585 300.312 143.338 296.644L135.98 311.181L151.4 316.443Z" stroke="#FF0000" stroke-width="2" stroke-miterlimit="10" stroke-linecap="round" stroke-linejoin="round"/>
<path d="M148.316 315.391C150.415 309.242 147.664 302.485 141.867 299.551" stroke="#FF0000" stroke-width="2" stroke-miterlimit="10" stroke-linecap="round" stroke-linejoin="round"/>
<path d="M249.99 85.9264C260.001 90.9932 272.176 88.5926 279.514 80.1049L261.026 64.1212L249.99 85.9264Z" stroke="#0000FF" stroke-width="2" stroke-miterlimit="10" stroke-linecap="round" stroke-linejoin="round"/>
<path d="M251.462 83.019C260.138 87.4103 270.689 85.3297 277.049 77.9738" stroke="#0000FF" stroke-width="2" stroke-miterlimit="10" stroke-linecap="round" stroke-linejoin="round"/>
<path d="M252.933 80.1117C260.274 83.8274 269.203 82.0669 274.584 75.8427" stroke="#0000FF" stroke-width="2" stroke-miterlimit="10" stroke-linecap="round" stroke-linejoin="round"/>
<path d="M194.983 187.391L200.798 190.334" stroke="#0000FF" stroke-width="2.5" stroke-miterlimit="10" stroke-linecap="round" stroke-linejoin="round"/>
<path d="M196.209 184.968L202.024 187.911" stroke="#0000FF" stroke-width="2.5" stroke-miterlimit="10" stroke-linecap="round" stroke-linejoin="round"/>
<path d="M135.98 311.18L261.026 64.1212" stroke="#0000FF" stroke-width="2.5" stroke-miterlimit="10" stroke-linecap="round" stroke-linejoin="round"/>
<path d="M366.865 151.318L362.603 156.248" stroke="#0000FF" stroke-width="2.5" stroke-miterlimit="10" stroke-linecap="round" stroke-linejoin="round"/>
<path d="M368.919 153.094L364.657 158.024" stroke="#0000FF" stroke-width="2.5" stroke-miterlimit="10" stroke-linecap="round" stroke-linejoin="round"/>
<path d="M261.026 64.1212L470.496 245.222" stroke="#0000FF" stroke-width="2.5" stroke-miterlimit="10" stroke-linecap="round" stroke-linejoin="round"/>
<path d="M337.358 288.017L339.496 294.173" stroke="#0000FF" stroke-width="2.5" stroke-miterlimit="10" stroke-linecap="round" stroke-linejoin="round"/>
<path d="M339.923 287.126L342.061 293.282" stroke="#0000FF" stroke-width="2.5" stroke-miterlimit="10" stroke-linecap="round" stroke-linejoin="round"/>
<path d="M208.923 336.077L470.496 245.222" stroke="#0000FF" stroke-width="2.5" stroke-miterlimit="10" stroke-linecap="round" stroke-linejoin="round"/>
<path d="M135.98 311.181L208.923 336.077" stroke="#0000FF" stroke-width="2.5" stroke-miterlimit="10" stroke-linecap="round" stroke-linejoin="round"/>
<path d="M138.696 311.181C138.696 312.68 137.48 313.896 135.98 313.896C134.481 313.896 133.265 312.68 133.265 311.181C133.265 309.681 134.481 308.465 135.98 308.465C137.48 308.465 138.696 309.681 138.696 311.181Z" fill="#FF0000"/>
<path d="M138.696 311.181C138.696 312.68 137.48 313.896 135.98 313.896C134.481 313.896 133.265 312.68 133.265 311.181C133.265 309.681 134.481 308.465 135.98 308.465C137.48 308.465 138.696 309.681 138.696 311.181Z" stroke="black" stroke-miterlimit="10" stroke-linecap="round" stroke-linejoin="round"/>
<path d="M263.742 64.1212C263.742 65.6209 262.526 66.8367 261.026 66.8367C259.527 66.8367 258.311 65.6209 258.311 64.1212C258.311 62.6215 259.527 61.4058 261.026 61.4058C262.526 61.4058 263.742 62.6215 263.742 64.1212Z" fill="#FF0000"/>
<path d="M263.742 64.1212C263.742 65.6209 262.526 66.8367 261.026 66.8367C259.527 66.8367 258.311 65.6209 258.311 64.1212C258.311 62.6215 259.527 61.4058 261.026 61.4058C262.526 61.4058 263.742 62.6215 263.742 64.1212Z" stroke="black" stroke-miterlimit="10" stroke-linecap="round" stroke-linejoin="round"/>
<path d="M473.211 245.222C473.211 246.721 471.995 247.937 470.496 247.937C468.996 247.937 467.78 246.721 467.78 245.222C467.78 243.722 468.996 242.506 470.496 242.506C471.995 242.506 473.211 243.722 473.211 245.222Z" fill="#FF0000"/>
<path d="M473.211 245.222C473.211 246.721 471.995 247.937 470.496 247.937C468.996 247.937 467.78 246.721 467.78 245.222C467.78 243.722 468.996 242.506 470.496 242.506C471.995 242.506 473.211 243.722 473.211 245.222Z" stroke="black" stroke-miterlimit="10" stroke-linecap="round" stroke-linejoin="round"/>
<path d="M211.639 336.077C211.639 337.577 210.423 338.793 208.923 338.793C207.424 338.793 206.208 337.577 206.208 336.077C206.208 334.578 207.424 333.362 208.923 333.362C210.423 333.362 211.639 334.578 211.639 336.077Z" fill="#FF0000"/>
<path d="M211.639 336.077C211.639 337.577 210.423 338.793 208.923 338.793C207.424 338.793 206.208 337.577 206.208 336.077C206.208 334.578 207.424 333.362 208.923 333.362C210.423 333.362 211.639 334.578 211.639 336.077Z" stroke="black" stroke-miterlimit="10" stroke-linecap="round" stroke-linejoin="round"/>
<path d="M118.202 319.262L124.817 308.161C124.944 307.958 125.109 307.85 125.311 307.838C125.502 307.838 125.609 307.901 125.635 308.028C125.647 308.066 125.66 308.155 125.673 308.294L126.832 320.174C126.87 320.491 126.946 320.681 127.06 320.744H127.079C127.231 320.808 127.561 320.858 128.068 320.858C128.346 320.858 128.492 320.928 128.505 321.067C128.505 321.321 128.391 321.448 128.163 321.448L126.034 321.391H126.015L123.658 321.448C123.48 321.448 123.373 321.378 123.373 321.239C123.474 320.998 123.626 320.871 123.829 320.858C124.741 320.858 125.197 320.649 125.197 320.231C125.197 320.244 125.096 319.186 124.893 317.057H120.122L118.678 319.49C118.5 319.807 118.412 320.041 118.412 320.193C118.412 320.586 118.709 320.808 119.305 320.858C119.508 320.858 119.609 320.934 119.609 321.086C119.609 321.327 119.489 321.448 119.248 321.448L117.423 321.391H117.347L115.75 321.448H115.712C115.548 321.448 115.465 321.378 115.465 321.239C115.465 321.01 115.56 320.89 115.75 320.877V320.858H115.864C116.663 320.808 117.315 320.466 117.822 319.832C117.949 319.667 118.076 319.477 118.202 319.262ZM120.483 316.467H124.836L124.228 310.195L120.483 316.467Z" fill="black"/>
<path d="M241.666 63.6268L244.213 53.4194C244.263 53.2166 244.289 53.0962 244.289 53.0582C244.289 52.9062 244.187 52.8111 243.985 52.7731H243.966C243.928 52.7731 243.852 52.7668 243.776 52.7541C243.56 52.7288 243.319 52.7161 243.053 52.7161C242.724 52.7161 242.546 52.6464 242.521 52.507C242.521 52.2789 242.616 52.1522 242.806 52.1268H242.825H242.844H243.072H249.459C250.916 52.1268 251.955 52.5577 252.576 53.4194C252.855 53.8249 252.995 54.2684 252.995 54.75C252.995 55.7764 252.424 56.6698 251.284 57.4301C251.271 57.4301 251.258 57.4364 251.246 57.4491C250.574 57.88 249.833 58.1714 249.022 58.3235C250.314 58.4755 251.201 58.9824 251.683 59.8441C251.873 60.199 251.968 60.5854 251.968 61.0036C251.968 61.9287 251.525 62.7967 250.638 63.6077L250.619 63.6268C249.529 64.6152 248.23 65.1094 246.722 65.1094H239.936C239.619 65.1094 239.448 65.0397 239.423 64.9003C239.423 64.6722 239.518 64.5455 239.708 64.5201H239.936C240.76 64.5201 241.254 64.4314 241.419 64.254C241.495 64.1653 241.571 63.9879 241.647 63.7218C241.647 63.7091 241.653 63.6774 241.666 63.6268ZM244.536 58.1524H247.311C248.566 58.1524 249.598 57.6962 250.409 56.7838C250.98 56.1375 251.265 55.4342 251.265 54.6739C251.265 53.7489 250.885 53.1469 250.124 52.8681C249.858 52.7668 249.548 52.7161 249.193 52.7161H246.741C246.285 52.7161 246.006 52.7794 245.904 52.9062V52.9252L245.885 52.9442C245.835 53.0202 245.778 53.185 245.714 53.4384L244.536 58.1524ZM243.681 64.5201H246.266C247.482 64.5201 248.49 64.0639 249.288 63.1515C249.896 62.4419 250.2 61.6562 250.2 60.7945C250.2 59.8695 249.871 59.2169 249.212 58.8367C248.882 58.6593 248.483 58.5706 248.014 58.5706H244.422L243.11 63.8739C243.047 64.102 243.015 64.2477 243.015 64.311C243.015 64.4124 243.072 64.4758 243.186 64.5011H243.262C243.338 64.5138 243.478 64.5201 243.681 64.5201Z" fill="black"/>
<path d="M489.314 241.437L488.117 246.284C488.054 246.512 487.99 246.632 487.927 246.645L487.908 246.664H487.775C487.585 246.664 487.49 246.601 487.49 246.474L487.547 245.543V245.505C487.547 243.933 487.052 242.85 486.064 242.254L486.045 242.235C485.602 241.969 485.082 241.836 484.486 241.836C483.143 241.836 481.87 242.337 480.666 243.338C480.362 243.578 480.089 243.845 479.848 244.136C478.645 245.543 477.903 247.329 477.624 249.496C477.574 249.889 477.548 250.231 477.548 250.523C477.548 252.297 478.22 253.494 479.563 254.115C480.083 254.356 480.653 254.476 481.274 254.476C482.465 254.476 483.631 254.014 484.772 253.089C485.659 252.341 486.299 251.34 486.691 250.086C486.717 249.959 486.799 249.896 486.938 249.896C487.091 249.896 487.167 249.959 487.167 250.086C487.167 250.314 487.021 250.719 486.729 251.302C486.337 252.1 485.785 252.81 485.076 253.431C483.821 254.521 482.453 255.066 480.97 255.066C479.348 255.066 478.049 254.508 477.073 253.393C476.237 252.443 475.819 251.264 475.819 249.858C475.819 247.969 476.509 246.202 477.891 244.554C479.17 243.021 480.685 242.007 482.434 241.513C483.08 241.336 483.713 241.247 484.334 241.247C485.716 241.247 486.767 241.811 487.49 242.939L488.82 241.475C488.972 241.323 489.067 241.247 489.105 241.247C489.245 241.247 489.314 241.31 489.314 241.437Z" fill="black"/>
<path d="M212.863 349.292L215.41 339.084C215.461 338.882 215.486 338.761 215.486 338.723C215.486 338.571 215.385 338.476 215.182 338.438C215.157 338.425 215.106 338.419 215.068 338.419C214.764 338.394 214.491 338.381 214.25 338.381C213.921 338.381 213.744 338.33 213.718 338.229C213.706 338.204 213.699 338.178 213.699 338.153C213.699 337.938 213.807 337.817 214.022 337.792H214.269H220.656C222.304 337.792 223.533 338.432 224.344 339.712C224.863 340.523 225.123 341.486 225.123 342.601C225.123 344.438 224.483 346.155 223.203 347.752C221.987 349.235 220.555 350.179 218.907 350.584C218.413 350.711 217.919 350.774 217.425 350.774H211.133C210.816 350.774 210.645 350.724 210.62 350.622C210.607 350.61 210.601 350.584 210.601 350.546C210.601 350.331 210.702 350.211 210.905 350.185H211.133C211.957 350.185 212.451 350.096 212.616 349.919C212.692 349.83 212.768 349.653 212.844 349.387C212.844 349.374 212.85 349.342 212.863 349.292ZM216.969 339.103L214.365 349.539C214.301 349.767 214.269 349.913 214.269 349.976C214.269 350.077 214.327 350.141 214.441 350.166H214.517C214.593 350.179 214.732 350.185 214.935 350.185H217.083C218.654 350.185 220.01 349.596 221.15 348.417C221.264 348.291 221.372 348.164 221.474 348.037C222.487 346.719 223.127 344.996 223.393 342.867C223.444 342.474 223.469 342.151 223.469 341.898C223.469 340.2 222.804 339.11 221.474 338.628C221.043 338.463 220.561 338.381 220.029 338.381H217.995C217.539 338.381 217.26 338.444 217.159 338.571V338.59L217.14 338.609C217.089 338.685 217.032 338.85 216.969 339.103Z" fill="black"/>
</g>
</g>
<defs>
<clipPath id="clip0_6_361">
<rect width="600" height="400" fill="white"/>
</clipPath>
</defs>
</svg>
