<?xml version="1.0" encoding="UTF-8" standalone="no"?>
<svg
   xmlns:dc="http://purl.org/dc/elements/1.1/"
   xmlns:cc="http://creativecommons.org/ns#"
   xmlns:rdf="http://www.w3.org/1999/02/22-rdf-syntax-ns#"
   xmlns:svg="http://www.w3.org/2000/svg"
   xmlns="http://www.w3.org/2000/svg"
   xmlns:sodipodi="http://sodipodi.sourceforge.net/DTD/sodipodi-0.dtd"
   xmlns:inkscape="http://www.inkscape.org/namespaces/inkscape"
   width="183"
   height="237"
   viewBox="0 0 183 237"
   fill="none"
   version="1.1"
   id="svg2065"
   sodipodi:docname="pot_form.svg"
   inkscape:version="1.0.2-2 (e86c870879, 2021-01-15)">
  <metadata
     id="metadata2071">
    <rdf:RDF>
      <cc:Work
         rdf:about="">
        <dc:format>image/svg+xml</dc:format>
        <dc:type
           rdf:resource="http://purl.org/dc/dcmitype/StillImage" />
        <dc:title></dc:title>
      </cc:Work>
    </rdf:RDF>
  </metadata>
  <defs
     id="defs2069" />
  <sodipodi:namedview
     pagecolor="#ffffff"
     bordercolor="#666666"
     borderopacity="1"
     objecttolerance="10"
     gridtolerance="10"
     guidetolerance="10"
     inkscape:pageopacity="0"
     inkscape:pageshadow="2"
     inkscape:window-width="1920"
     inkscape:window-height="1001"
     id="namedview2067"
     showgrid="false"
     inkscape:zoom="2.4763655"
     inkscape:cx="77.316699"
     inkscape:cy="139.35615"
     inkscape:window-x="-9"
     inkscape:window-y="-9"
     inkscape:window-maximized="1"
     inkscape:current-layer="svg2065" />
  <path
     id="rect2634"
     style="opacity:0.998808;fill:#ffffff;stroke:#000000;stroke-width:0;stroke-linecap:round;stroke-linejoin:round;stroke-opacity:0;paint-order:stroke markers fill"
     d="M -8.8847656 -5.6542969 L -8.8847656 243.50195 L 191.8125 243.50195 L 191.8125 -5.6542969 L -8.8847656 -5.6542969 z M 55.076172 3 L 125.69922 3 C 125.69922 3 122.72391 12.694106 121.50391 19.128906 C 118.05991 37.284506 121.50391 51.25 121.50391 51.25 C 121.50391 51.25 181.98706 78.037803 179.53906 150.4082 C 177.09206 222.7792 125.69922 233.29883 125.69922 233.29883 L 55.076172 233.29883 C 55.076172 233.29883 4.03203 226.8472 2.75 150.4082 C 1.46797 73.970403 60.087891 51.25 60.087891 51.25 C 60.087891 51.25 64.119591 37.108306 60.087891 19.128906 C 58.631991 12.636406 55.076172 3 55.076172 3 z " />
</svg>
