<?xml version="1.0" encoding="UTF-8" standalone="no"?>
<svg
   xmlns:dc="http://purl.org/dc/elements/1.1/"
   xmlns:cc="http://creativecommons.org/ns#"
   xmlns:rdf="http://www.w3.org/1999/02/22-rdf-syntax-ns#"
   xmlns:svg="http://www.w3.org/2000/svg"
   xmlns="http://www.w3.org/2000/svg"
   xmlns:sodipodi="http://sodipodi.sourceforge.net/DTD/sodipodi-0.dtd"
   xmlns:inkscape="http://www.inkscape.org/namespaces/inkscape"
   viewBox="-13 0 512 512"
   version="1.1"
   id="svg885"
   sodipodi:docname="weight.svg"
   inkscape:version="1.0.2-2 (e86c870879, 2021-01-15)">
  <metadata
     id="metadata891">
    <rdf:RDF>
      <cc:Work
         rdf:about="">
        <dc:format>image/svg+xml</dc:format>
        <dc:type
           rdf:resource="http://purl.org/dc/dcmitype/StillImage" />
        <dc:title></dc:title>
      </cc:Work>
    </rdf:RDF>
  </metadata>
  <defs
     id="defs889" />
  <sodipodi:namedview
     pagecolor="#ffffff"
     bordercolor="#666666"
     borderopacity="1"
     objecttolerance="10"
     gridtolerance="10"
     guidetolerance="10"
     inkscape:pageopacity="0"
     inkscape:pageshadow="2"
     inkscape:window-width="1920"
     inkscape:window-height="1001"
     id="namedview887"
     showgrid="false"
     inkscape:zoom="0.7265625"
     inkscape:cx="81.165075"
     inkscape:cy="371.78277"
     inkscape:window-x="-9"
     inkscape:window-y="-9"
     inkscape:window-maximized="1"
     inkscape:current-layer="svg885"
     inkscape:document-rotation="0" />
  <path
     d="m259.195312 7.515625h-32.0625c-35.359374 0-64.125 28.765625-64.125 64.125v72.140625c0 8.851562 7.179688 16.03125 16.03125 16.03125 8.851563 0 16.03125-7.179688 16.03125-16.03125v-72.140625c0-17.679687 14.382813-32.0625 32.0625-32.0625h32.0625c17.679688 0 32.0625 14.382813 32.0625 32.0625v72.140625c0 8.851562 7.179688 16.03125 16.03125 16.03125 8.855469 0 16.03125-7.179688 16.03125-16.03125v-72.140625c0-35.359375-28.765624-64.125-64.125-64.125zm0 0"
     fill="#c7c9d3"
     id="path863" />
  <path
     d="m163.007812 143.78125c0 8.851562 7.179688 16.03125 16.03125 16.03125 8.851563 0 16.03125-7.179688 16.03125-16.03125v-32.0625h-32.0625zm0 0"
     fill="#b4b7c5"
     id="path865" />
  <path
     d="m291.257812 111.71875v32.0625c0 8.851562 7.179688 16.03125 16.03125 16.03125 8.855469 0 16.03125-7.179688 16.03125-16.03125v-32.0625zm0 0"
     fill="#b4b7c5"
     id="path867" />
  <path
     d="m430.699219 504.484375h-375.070313c-31.085937 0-54.003906-29.046875-46.773437-59.277344l65.167969-272.535156c5.175781-21.640625 24.523437-36.90625 46.777343-36.90625h244.726563c22.253906 0 41.601562 15.265625 46.777344 36.90625l65.167968 272.535156c7.230469 30.230469-15.6875 59.277344-46.773437 59.277344zm0 0"
     fill="#7b8199"
     id="path869" />
  <path
     d="m465.957031 480.4375h-395.386719c-20.722656 0-36-19.363281-31.183593-39.519531l69.898437-292.289063c1.054688-4.425781 2.714844-8.582031 4.863282-12.394531-19.367188 2.691406-35.472657 16.988281-40.125 36.441406l-65.171876 272.53125c-7.226562 30.230469 15.691407 59.277344 46.777344 59.277344h375.070313c18.300781 0 33.757812-10.070313 41.914062-24.515625-2.171875.296875-4.386719.46875-6.65625.46875zm0 0"
     fill="#696f8b"
     id="path871" />
  <g
     fill="#231f20"
     id="g883">
    <path
       d="m484.78125 443.457031-65.167969-272.53125c-6.011719-25.125-28.25-42.675781-54.085937-42.675781h-34.691406v-56.609375c0-39.503906-32.136719-71.640625-71.640626-71.640625h-32.0625c-39.503906 0-71.640624 32.136719-71.640624 71.640625v56.609375h-34.691407c-25.835937 0-48.074219 17.550781-54.085937 42.675781l-65.167969 272.53125c-3.984375 16.664063-.183594 33.929688 10.425781 47.378907 10.613282 13.449218 26.523438 21.164062 43.65625 21.164062h287.398438c4.148437 0 7.511718-3.363281 7.511718-7.515625 0-4.148437-3.363281-7.515625-7.511718-7.515625h-287.398438c-12.5 0-24.109375-5.628906-31.855468-15.441406-7.742188-9.8125-10.515626-22.414063-7.609376-34.574219l65.171876-272.53125c4.382812-18.335937 20.613281-31.144531 39.464843-31.144531h244.726563c18.855468 0 35.082031 12.808594 39.46875 31.144531l65.167968 272.53125c2.90625 12.160156.132813 24.761719-7.609374 34.574219-7.742188 9.8125-19.355469 15.441406-31.855469 15.441406h-50.933594c-4.152344 0-7.515625 3.367188-7.515625 7.515625 0 4.152344 3.363281 7.515625 7.515625 7.515625h50.933594c17.128906 0 33.042969-7.714844 43.65625-21.164062 10.609375-13.445313 14.410156-30.714844 10.425781-47.378907zm-314.257812-371.816406c0-31.214844 25.394531-56.609375 56.609374-56.609375h32.0625c31.214844 0 56.609376 25.394531 56.609376 56.609375v56.609375h-17.03125v-56.609375c0-21.824219-17.753907-39.578125-39.578126-39.578125h-32.0625c-21.824218 0-39.578124 17.753906-39.578124 39.578125v56.609375h-17.03125zm113.21875 56.609375h-81.15625v-56.609375c0-13.535156 11.011718-24.546875 24.546874-24.546875h32.0625c13.535157 0 24.546876 11.011719 24.546876 24.546875zm0 0"
       id="path877" />
  </g>
</svg>
