<svg width="107" height="50" viewBox="0 0 107 50" fill="none" xmlns="http://www.w3.org/2000/svg">
<path d="M14.5 0H32.5L30.5 12H11L14.5 0Z" fill="#9A9950"/>
<path d="M34.5 0H52.5V12H33L34.5 0Z" fill="#9A9950"/>
<path d="M32.5 13.5H52V28.5H30.5L32.5 13.5Z" fill="#9A9950"/>
<path d="M30 30H52V49.5H27L30 30Z" fill="#9A9950"/>
<path d="M72.5 0H54.5V12H74L72.5 0Z" fill="#9A9950"/>
<path d="M74.5 13.5H55V28.5H76.5L74.5 13.5Z" fill="#9A9950"/>
<path d="M77 30H55V49.5H80L77 30Z" fill="#9A9950"/>
<path d="M11 13.5H30.5L28.5 28.5H6.5L11 13.5Z" fill="#9A9950"/>
<path d="M6 30H28L25.5 49.5H0L6 30Z" fill="#9A9950"/>
<path d="M92.5 0H74.5L76.5 12H96L92.5 0Z" fill="#9A9950"/>
<path d="M96 13.5H76.5L78.5 28.5H100.5L96 13.5Z" fill="#9A9950"/>
<path d="M101 30H79L81.5 49.5H107L101 30Z" fill="#9A9950"/>
</svg>
