<?xml version="1.0" encoding="UTF-8" standalone="no"?>
<!-- Uploaded to: SVG Repo, www.svgrepo.com, Generator: SVG Repo Mixer Tools -->

<svg
   width="800px"
   height="800px"
   viewBox="0 0 64 64"
   aria-hidden="true"
   role="img"
   class="iconify iconify--emojione"
   preserveAspectRatio="xMidYMid meet"
   version="1.1"
   id="svg15"
   sodipodi:docname="boy-2.svg"
   inkscape:version="1.3.2 (091e20e, 2023-11-25, custom)"
   xmlns:inkscape="http://www.inkscape.org/namespaces/inkscape"
   xmlns:sodipodi="http://sodipodi.sourceforge.net/DTD/sodipodi-0.dtd"
   xmlns="http://www.w3.org/2000/svg"
   xmlns:svg="http://www.w3.org/2000/svg">
  <defs
     id="defs15" />
  <sodipodi:namedview
     id="namedview15"
     pagecolor="#ffffff"
     bordercolor="#000000"
     borderopacity="0.25"
     inkscape:showpageshadow="2"
     inkscape:pageopacity="0.0"
     inkscape:pagecheckerboard="0"
     inkscape:deskcolor="#d1d1d1"
     inkscape:zoom="0.98375"
     inkscape:cx="400.50826"
     inkscape:cy="400.50826"
     inkscape:window-width="1536"
     inkscape:window-height="802"
     inkscape:window-x="2297"
     inkscape:window-y="282"
     inkscape:window-maximized="1"
     inkscape:current-layer="svg15" />
  <path
     fill="#ffdd67"
     d="M30.1 15.8l2.5-2l1.7 9.4l-6.1 1.1z"
     id="path1" />
  <path
     d="M26.8 20.9c2 .8 1.4 3.4 1.4 3.4c2.5-.5 3.3-5.6 2.8-8.6l-4.2 5.2"
     fill="#eba352"
     id="path2" />
  <path
     d="M29.7 3.3L19.6 9c-.9 2.8.3 3.9.4 5c.1.5-.7 1.5-1.2 2.1c-1 1.2 1.1 1.7 1.8 1.4c.7 1-.6 1.9 2.5.7c0 0-3 2-.6 2.2c0 1.3.2 3.9 6.5.1c1.9-1.1 2-4.8 2-4.8l3.3-1.2l-4.6-11.2"
     fill="#ffdd67"
     id="path3" />
  <path
     d="M21.9 3.7c6.7-3.7 11.2-.7 12.2.8c2.6 4 1.9 9.2-.7 13.4c0 0-1.7-.4-2.3-2.3c0 0 1.9.5 2-3.4c.1-3.3-3.6-4.3-4.5.3l-.5.1c-1.3-2-.1-5-2.8-5.4c-2.3-.3-5.9 2.3-5.9 2.3c-.9-1.1-.2-4.3 2.5-5.8"
     fill="#ffb300"
     id="path4" />
  <path
     d="M22.7 13.5c.1.7-.2 1.3-.6 1.4c-.5.1-.7-.4-.8-1.1s-.1-1.3.4-1.3c.4-.1.9.3 1 1"
     fill="#937237"
     id="path5" />
  <path
     d="M29.7 13.2c-.2-1.3.7-2.7 1.8-2.9c0 0-1.6 1.9-.7 3.9c-.1 0-1-.1-1.1-1"
     fill="#eba352"
     id="path6" />
  <path
     d="M24.2 17.7s-1.1 1.2-1.6 1.5c-.9.7-1.1.4-.6-.1c.4-.4 1.1-.9 1.1-.9l1.1-.5"
     fill="#937237"
     id="path7" />
  <g
     fill="#d3976e"
     id="g9">
    <path
       d="M51.4 53.5c-.4 2 .9 3.9 2.9 4.3l1.7-8.5c.2-1-.5-1.9-1.5-2.1l-1.8-.3l-1.3 6.6"
       id="path8" />
    <path
       d="M16.1 57.5c-2-.4-3.9.9-4.3 2.9l8.6 1.6c1 .2 2-.5 2.2-1.4l.4-1.8l-6.9-1.3"
       id="path9" />
  </g>
  <path
     d="M49 28.8L45.7 22c-.4-.8-1.3-1.2-2.2-1.1l-7.5.3c-1.1 0-2 .9-1.9 2c0 1.1 1 1.9 2.1 1.9l6.6-.2l2.8 5.7l3.4-1.8"
     fill="#3b946f"
     id="path10"
     style="fill:#00009a;fill-opacity:1" />
  <path
     d="M47.1 29.2l-1.8.7c-.6.2-1 .9-.7 1.6l.3.9c.2.5.6.8 1.1.8c.5 1.1 1.5 2.5 3.7 1.7c.4-.1 2.4-.8 1.5-3.2c-1.4-3.5-1.4-3.5-4.1-2.5"
     fill="#ffdd67"
     id="path11" />
  <path
     d="M46.4 33.1c1.5-.6.7-2.2.3-3.3c-.1-.2-.3-.1-.3.1c.3.9 1.2 2.4-.1 3c-.1 0 0 .2.1.2"
     fill="#eba352"
     id="path12" />
  <path
     fill="#3e4347"
     d="M43.2 45l-3.6-5.5H27l-8.5 5.8l-2.4 12.1l6.8 1.4l1.9-9.4l8.6-4.2l5.6 5.9l12.4 2.4l1.3-6.7z"
     id="path13" />
  <path
     d="M39.6 39.5l-3.9-18.3l-9.8 1.8c-.4.1-.8.3-1.1.6l-4.5 4.7l-6-2.1l-1.3 3.7l7.3 2.5c.9.3 1.8 0 2.3-.8l3.6-3.8l.8 11.7h12.6"
     fill="#47b892"
     id="path14"
     style="fill:#0000ff" />
  <path
     d="M14.1 28.3l.8-1.7c.3-.6 0-1.4-.6-1.6l-.9-.4c-.5-.2-1-.1-1.3.2c-1.1-.5-2.8-.8-3.8 1.3c-.2.3-1.1 2.2 1.2 3.3c3.4 1.5 3.4 1.5 4.6-1.1"
     fill="#ffdd67"
     id="path15" />
  <text
     xml:space="preserve"
     style="font-size:11.0026px;fill:#000000;stroke-width:0.916884;-inkscape-font-specification:'sans-serif, Normal';font-family:sans-serif;font-weight:normal;font-style:normal;font-stretch:normal;font-variant:normal;font-variant-ligatures:normal;font-variant-caps:normal;font-variant-numeric:normal;font-variant-east-asian:normal"
     x="28.03356"
     y="36.305454"
     id="text2"
     transform="scale(1.0080487,0.99201557)"><tspan
       sodipodi:role="line"
       id="tspan1">Б</tspan></text>
</svg>
