<svg width="26" height="25" viewBox="0 0 26 25" fill="none" xmlns="http://www.w3.org/2000/svg">
<path id="Vector" d="M23.0506 17.0483L19.5157 16.6447C19.1001 16.5959 18.6787 16.6419 18.2834 16.7793C17.8881 16.9167 17.5291 17.1419 17.2333 17.438L14.6726 19.9987C10.7218 17.9894 7.51061 14.7782 5.50131 10.8274L8.07595 8.25277C8.67438 7.65434 8.96663 6.81932 8.86921 5.97038L8.46562 2.46331C8.38672 1.7844 8.06091 1.15822 7.55021 0.703988C7.03952 0.249754 6.37962 -0.000810323 5.69614 1.96882e-06H3.28851C1.71589 1.96882e-06 0.407694 1.3082 0.505112 2.88082C1.24271 14.7659 10.748 24.2573 22.6192 24.9949C24.1918 25.0923 25.5 23.7841 25.5 22.2115V19.8039C25.5139 18.3982 24.4562 17.2153 23.0506 17.0483Z" fill="white"/>
</svg>
