<?xml version="1.0" encoding="UTF-8" standalone="no"?>
<svg
   width="30"
   height="10"
   viewBox="0 0 30 10"
   fill="none"
   version="1.1"
   id="svg1"
   sodipodi:docname="custom_select_arrow.svg"
   inkscape:version="1.3.2 (091e20e, 2023-11-25, custom)"
   xmlns:inkscape="http://www.inkscape.org/namespaces/inkscape"
   xmlns:sodipodi="http://sodipodi.sourceforge.net/DTD/sodipodi-0.dtd"
   xmlns="http://www.w3.org/2000/svg"
   xmlns:svg="http://www.w3.org/2000/svg">
  <defs
     id="defs1" />
  <sodipodi:namedview
     id="namedview1"
     pagecolor="#ffffff"
     bordercolor="#000000"
     borderopacity="0.25"
     inkscape:showpageshadow="2"
     inkscape:pageopacity="0.0"
     inkscape:pagecheckerboard="0"
     inkscape:deskcolor="#d1d1d1"
     inkscape:zoom="19.675"
     inkscape:cx="-0.8386277"
     inkscape:cy="-1.8551461"
     inkscape:window-width="1920"
     inkscape:window-height="1001"
     inkscape:window-x="-9"
     inkscape:window-y="-9"
     inkscape:window-maximized="1"
     inkscape:current-layer="svg1" />
  <path
     d="M 3.6730758,0.94046108 C 3.5560278,1.0565541 3.4631248,1.1946741 3.3997256,1.3468441 c -0.0634,0.15218 -0.096041,0.3154 -0.096041,0.48026 0,0.16486 0.032641,0.32808 0.096041,0.48026 0.063399,0.15217 0.1563022,0.29029 0.2733502,0.40638 l 6.2439693,6.24397 c 0.1160899,0.11705 0.2542099,0.20995 0.4063799,0.27335 0.15218,0.0634 0.3154,0.09604 0.48026,0.09604 0.16486,0 0.32808,-0.03264 0.48026,-0.09604 0.15217,-0.0634 0.29029,-0.1563 0.40638,-0.27335 l 6.24396,-6.24397 c 0.1171,-0.11609 0.21,-0.25421 0.2734,-0.40638 0.0634,-0.15218 0.096,-0.31541 0.096,-0.48026 0,-0.16486 -0.0326,-0.32808 -0.096,-0.48026 -0.0634,-0.15217 -0.1563,-0.29029 -0.2734,-0.40638302 -0.1161,-0.117049 -0.2542,-0.209951 -0.4064,-0.27335 -0.1522,-0.0634 -0.3154,-0.096042 -0.4802,-0.096042 -0.1649,0 -0.3281,0.032642 -0.4803,0.096042 -0.1522,0.063399 -0.2903,0.156301 -0.4064,0.27335 L 10.803685,6.3102741 5.4463648,0.94046108 c -0.11609,-0.117048 -0.25421,-0.20995 -0.40639,-0.27335 -0.15218,-0.0634 -0.3154,-0.096041 -0.48026,-0.096041 -0.16485,0 -0.328076,0.032641 -0.480253,0.096041 -0.152177,0.0634 -0.290295,0.156302 -0.406386,0.27335 z"
     fill="#1e8b93"
     id="path1" />
</svg>
