<svg width="100" height="100" viewBox="0 0 100 100" fill="none" xmlns="http://www.w3.org/2000/svg">
<path d="M50 40C55.3043 40 60.3914 37.8929 64.1421 34.1421C67.8929 30.3914 70 25.3043 70 20C70 14.6957 67.8929 9.60859 64.1421 5.85786C60.3914 2.10714 55.3043 0 50 0C44.6957 0 39.6086 2.10714 35.8579 5.85786C32.1071 9.60859 30 14.6957 30 20C30 25.3043 32.1071 30.3914 35.8579 34.1421C39.6086 37.8929 44.6957 40 50 40ZM17.5 55C20.8152 55 23.9946 53.683 26.3388 51.3388C28.683 48.9946 30 45.8152 30 42.5C30 39.1848 28.683 36.0054 26.3388 33.6612C23.9946 31.317 20.8152 30 17.5 30C14.1848 30 11.0054 31.317 8.66117 33.6612C6.31696 36.0054 5 39.1848 5 42.5C5 45.8152 6.31696 48.9946 8.66117 51.3388C11.0054 53.683 14.1848 55 17.5 55ZM95 42.5C95 45.8152 93.683 48.9946 91.3388 51.3388C88.9946 53.683 85.8152 55 82.5 55C79.1848 55 76.0054 53.683 73.6612 51.3388C71.317 48.9946 70 45.8152 70 42.5C70 39.1848 71.317 36.0054 73.6612 33.6612C76.0054 31.317 79.1848 30 82.5 30C85.8152 30 88.9946 31.317 91.3388 33.6612C93.683 36.0054 95 39.1848 95 42.5ZM50 45C56.6304 45 62.9893 47.6339 67.6777 52.3223C72.3661 57.0107 75 63.3696 75 70V100H25V70C25 63.3696 27.6339 57.0107 32.3223 52.3223C37.0107 47.6339 43.3696 45 50 45ZM15 70C15 66.535 15.5 63.19 16.44 60.03L15.59 60.1C11.3044 60.5706 7.34332 62.6065 4.46631 65.8176C1.58931 69.0286 -0.00111879 73.1886 5.90488e-07 77.5V100H15V70ZM100 100V77.5C100.001 73.0418 98.2996 68.7515 95.2444 65.5049C92.1891 62.2582 88.01 60.3 83.56 60.03C84.495 63.19 85 66.535 85 70V100H100Z" fill="#1E8B93"/>
</svg>
