<?xml version="1.0" encoding="UTF-8" standalone="no"?>
<svg
   xmlns:dc="http://purl.org/dc/elements/1.1/"
   xmlns:cc="http://creativecommons.org/ns#"
   xmlns:rdf="http://www.w3.org/1999/02/22-rdf-syntax-ns#"
   xmlns:svg="http://www.w3.org/2000/svg"
   xmlns="http://www.w3.org/2000/svg"
   xmlns:sodipodi="http://sodipodi.sourceforge.net/DTD/sodipodi-0.dtd"
   xmlns:inkscape="http://www.inkscape.org/namespaces/inkscape"
   viewBox="-13 0 512 512"
   version="1.1"
   id="svg885"
   sodipodi:docname="weight.svg"
   inkscape:version="1.0.2-2 (e86c870879, 2021-01-15)">
  <metadata
     id="metadata891">
    <rdf:RDF>
      <cc:Work
         rdf:about="">
        <dc:format>image/svg+xml</dc:format>
        <dc:type
           rdf:resource="http://purl.org/dc/dcmitype/StillImage" />
      </cc:Work>
    </rdf:RDF>
  </metadata>
  <defs
     id="defs889" />
  <sodipodi:namedview
     pagecolor="#ffffff"
     bordercolor="#666666"
     borderopacity="1"
     objecttolerance="10"
     gridtolerance="10"
     guidetolerance="10"
     inkscape:pageopacity="0"
     inkscape:pageshadow="2"
     inkscape:window-width="1920"
     inkscape:window-height="1001"
     id="namedview887"
     showgrid="false"
     inkscape:zoom="1.453125"
     inkscape:cx="256"
     inkscape:cy="254.62366"
     inkscape:window-x="-9"
     inkscape:window-y="-9"
     inkscape:window-maximized="1"
     inkscape:current-layer="svg885" />
  <path
     d="m259.195312 7.515625h-32.0625c-35.359374 0-64.125 28.765625-64.125 64.125v72.140625c0 8.851562 7.179688 16.03125 16.03125 16.03125 8.851563 0 16.03125-7.179688 16.03125-16.03125v-72.140625c0-17.679687 14.382813-32.0625 32.0625-32.0625h32.0625c17.679688 0 32.0625 14.382813 32.0625 32.0625v72.140625c0 8.851562 7.179688 16.03125 16.03125 16.03125 8.855469 0 16.03125-7.179688 16.03125-16.03125v-72.140625c0-35.359375-28.765624-64.125-64.125-64.125zm0 0"
     fill="#c7c9d3"
     id="path863" />
  <path
     d="m163.007812 143.78125c0 8.851562 7.179688 16.03125 16.03125 16.03125 8.851563 0 16.03125-7.179688 16.03125-16.03125v-32.0625h-32.0625zm0 0"
     fill="#b4b7c5"
     id="path865" />
  <path
     d="m291.257812 111.71875v32.0625c0 8.851562 7.179688 16.03125 16.03125 16.03125 8.855469 0 16.03125-7.179688 16.03125-16.03125v-32.0625zm0 0"
     fill="#b4b7c5"
     id="path867" />
  <path
     d="m430.699219 504.484375h-375.070313c-31.085937 0-54.003906-29.046875-46.773437-59.277344l65.167969-272.535156c5.175781-21.640625 24.523437-36.90625 46.777343-36.90625h244.726563c22.253906 0 41.601562 15.265625 46.777344 36.90625l65.167968 272.535156c7.230469 30.230469-15.6875 59.277344-46.773437 59.277344zm0 0"
     fill="#7b8199"
     id="path869" />
  <path
     d="m465.957031 480.4375h-395.386719c-20.722656 0-36-19.363281-31.183593-39.519531l69.898437-292.289063c1.054688-4.425781 2.714844-8.582031 4.863282-12.394531-19.367188 2.691406-35.472657 16.988281-40.125 36.441406l-65.171876 272.53125c-7.226562 30.230469 15.691407 59.277344 46.777344 59.277344h375.070313c18.300781 0 33.757812-10.070313 41.914062-24.515625-2.171875.296875-4.386719.46875-6.65625.46875zm0 0"
     fill="#696f8b"
     id="path871" />
  <path
     d="m224.726562 252.792969c-3.984374-5.3125-11.519531-6.390625-16.832031-2.40625l-76.949219 57.714843v-48.09375c0-6.640624-5.386718-12.023437-12.023437-12.023437-6.640625 0-12.023437 5.382813-12.023437 12.023437v144.28125c0 6.640626 5.382812 12.023438 12.023437 12.023438 6.636719 0 12.023437-5.382812 12.023437-12.023438v-48.09375l76.949219 57.710938c2.164063 1.625 4.695313 2.40625 7.203125 2.40625 3.65625 0 7.269532-1.660156 9.628906-4.808594 3.984376-5.3125 2.910157-12.851562-2.402343-16.835937l-83.363281-62.519531 83.363281-62.523438c5.3125-3.984375 6.386719-11.519531 2.402343-16.832031zm0 0"
     fill="#77dce9"
     id="path873" />
  <path
     d="m375.421875 328.140625h-56.109375c-6.640625 0-12.023438 5.382813-12.023438 12.023437v16.03125c0 6.640626 5.382813 12.023438 12.023438 12.023438s12.023438-5.382812 12.023438-12.023438v-4.007812h32.0625v20.039062c0 11.050782-8.988282 20.039063-20.039063 20.039063h-40.078125c-11.050781 0-20.039062-8.988281-20.039062-20.039063v-80.15625c0-11.050781 8.988281-20.039062 20.039062-20.039062h40.078125c11.050781 0 20.039063 8.988281 20.039063 20.039062 0 6.640626 5.382812 12.023438 12.023437 12.023438s12.023437-5.382812 12.023437-12.023438c0-24.308593-19.777343-44.085937-44.085937-44.085937h-40.078125c-24.308594 0-44.085938 19.777344-44.085938 44.085937v80.15625c0 24.308594 19.777344 44.085938 44.085938 44.085938h40.078125c24.308594 0 44.085937-19.777344 44.085937-44.085938v-32.0625c0-6.640624-5.382812-12.023437-12.023437-12.023437zm0 0"
     fill="#77dce9"
     id="path875" />
  <g
     fill="#231f20"
     id="g883">
    <path
       d="m484.78125 443.457031-65.167969-272.53125c-6.011719-25.125-28.25-42.675781-54.085937-42.675781h-34.691406v-56.609375c0-39.503906-32.136719-71.640625-71.640626-71.640625h-32.0625c-39.503906 0-71.640624 32.136719-71.640624 71.640625v56.609375h-34.691407c-25.835937 0-48.074219 17.550781-54.085937 42.675781l-65.167969 272.53125c-3.984375 16.664063-.183594 33.929688 10.425781 47.378907 10.613282 13.449218 26.523438 21.164062 43.65625 21.164062h287.398438c4.148437 0 7.511718-3.363281 7.511718-7.515625 0-4.148437-3.363281-7.515625-7.511718-7.515625h-287.398438c-12.5 0-24.109375-5.628906-31.855468-15.441406-7.742188-9.8125-10.515626-22.414063-7.609376-34.574219l65.171876-272.53125c4.382812-18.335937 20.613281-31.144531 39.464843-31.144531h244.726563c18.855468 0 35.082031 12.808594 39.46875 31.144531l65.167968 272.53125c2.90625 12.160156.132813 24.761719-7.609374 34.574219-7.742188 9.8125-19.355469 15.441406-31.855469 15.441406h-50.933594c-4.152344 0-7.515625 3.367188-7.515625 7.515625 0 4.152344 3.363281 7.515625 7.515625 7.515625h50.933594c17.128906 0 33.042969-7.714844 43.65625-21.164062 10.609375-13.445313 14.410156-30.714844 10.425781-47.378907zm-314.257812-371.816406c0-31.214844 25.394531-56.609375 56.609374-56.609375h32.0625c31.214844 0 56.609376 25.394531 56.609376 56.609375v56.609375h-17.03125v-56.609375c0-21.824219-17.753907-39.578125-39.578126-39.578125h-32.0625c-21.824218 0-39.578124 17.753906-39.578124 39.578125v56.609375h-17.03125zm113.21875 56.609375h-81.15625v-56.609375c0-13.535156 11.011718-24.546875 24.546874-24.546875h32.0625c13.535157 0 24.546876 11.011719 24.546876 24.546875zm0 0"
       id="path877" />
    <path
       d="m230.738281 248.285156v-.003906c-6.464843-8.613281-18.738281-10.367188-27.351562-3.902344l-64.929688 48.695313v-33.066407c0-10.773437-8.761719-19.539062-19.535156-19.539062s-19.539063 8.765625-19.539063 19.539062v144.28125c0 10.773438 8.765626 19.539063 19.539063 19.539063s19.535156-8.765625 19.535156-19.539063v-33.0625l64.929688 48.695313c8.507812 6.378906 20.964843 4.605469 27.351562-3.910156 6.464844-8.617188 4.710938-20.886719-3.90625-27.351563l-75.347656-56.511718 75.347656-56.507813c8.617188-6.46875 10.371094-18.738281 3.90625-27.355469zm-12.925781 15.328125-83.363281 62.523438c-3.941407 2.957031-3.941407 9.066406 0 12.023437l83.363281 62.523438c1.875 1.40625 2.351562 4.117187 1.066406 6.078125-1.410156 2.148437-4.421875 2.675781-6.476562 1.136719l-76.949219-57.714844c-4.867187-3.648438-12.023437-.042969-12.023437 6.011718v48.09375c0 2.488282-2.023438 4.511719-4.511719 4.511719-2.484375 0-4.507813-2.023437-4.507813-4.511719v-144.28125c0-2.484374 2.023438-4.507812 4.507813-4.507812 2.488281 0 4.511719 2.023438 4.511719 4.507812v48.09375c0 6.066407 7.160156 9.660157 12.023437 6.011719l76.949219-57.710937c1.988281-1.492188 4.820312-1.085938 6.3125.902344 1.492187 1.984374 1.085937 4.816406-.902344 6.308593zm0 0"
       id="path879" />
    <path
       d="m303.28125 279.546875h40.078125c6.90625 0 12.523437 5.617187 12.523437 12.523437 0 10.773438 8.765626 19.539063 19.539063 19.539063s19.539063-8.765625 19.539063-19.539063c0-28.453124-23.148438-51.601562-51.601563-51.601562h-40.078125c-28.453125 0-51.601562 23.148438-51.601562 51.601562v80.15625c0 28.453126 23.148437 51.601563 51.601562 51.601563h40.078125c28.453125 0 51.601563-23.148437 51.601563-51.601563v-32.0625c0-10.773437-8.765626-19.539062-19.539063-19.539062h-56.109375c-10.773438 0-19.539062 8.765625-19.539062 19.539062v16.03125c0 10.773438 8.765624 19.539063 19.539062 19.539063 9.574219 0 17.566406-6.925781 19.222656-16.03125h17.347656v12.523437c0 6.90625-5.617187 12.523438-12.523437 12.523438h-40.078125c-6.90625 0-12.523438-5.617188-12.523438-12.523438v-80.15625c0-6.90625 5.617188-12.523437 12.523438-12.523437zm0 120.234375h40.078125c15.195313 0 27.554687-12.363281 27.554687-27.554688v-20.039062c0-4.148438-3.363281-7.515625-7.515624-7.515625h-32.0625c-4.148438 0-7.515626 3.367187-7.515626 7.515625v4.007812c0 2.484376-2.023437 4.507813-4.507812 4.507813s-4.507812-2.023437-4.507812-4.507813v-16.03125c0-2.484374 2.023437-4.507812 4.507812-4.507812h56.109375c2.488281 0 4.507813 2.023438 4.507813 4.507812v32.0625c0 20.164063-16.40625 36.570313-36.570313 36.570313h-40.078125c-20.164062 0-36.570312-16.40625-36.570312-36.570313v-80.15625c0-20.167968 16.40625-36.574218 36.570312-36.574218h40.078125c20.164063 0 36.570313 16.40625 36.570313 36.574218 0 2.484376-2.019532 4.507813-4.507813 4.507813-2.484375 0-4.507813-2.023437-4.507813-4.507813 0-15.195312-12.359374-27.554687-27.554687-27.554687h-40.078125c-15.191406 0-27.554688 12.359375-27.554688 27.554687v80.15625c0 15.191407 12.363282 27.554688 27.554688 27.554688zm0 0"
       id="path881" />
  </g>
</svg>
