<?xml version="1.0" encoding="UTF-8" standalone="no"?>
<svg
   xmlns:dc="http://purl.org/dc/elements/1.1/"
   xmlns:cc="http://creativecommons.org/ns#"
   xmlns:rdf="http://www.w3.org/1999/02/22-rdf-syntax-ns#"
   xmlns:svg="http://www.w3.org/2000/svg"
   xmlns="http://www.w3.org/2000/svg"
   xmlns:sodipodi="http://sodipodi.sourceforge.net/DTD/sodipodi-0.dtd"
   xmlns:inkscape="http://www.inkscape.org/namespaces/inkscape"
   width="162.55768mm"
   height="164.85959mm"
   viewBox="0 0 162.55768 164.85959"
   version="1.1"
   id="svg8"
   inkscape:version="1.0.2-2 (e86c870879, 2021-01-15)"
   sodipodi:docname="sums_on_cube_13_17_21.svg">
  <defs
     id="defs2">
    <inkscape:path-effect
       effect="envelope"
       id="path-effect399"
       is_visible="true"
       lpeversion="1"
       yy="true"
       xx="false"
       bendpath1="M 72.707582,5.2870248 142.63318,20.784048"
       bendpath2="m 99.831036,10.704952 v 7.75144"
       bendpath3="M 20.052623,26.218846 91.606391,42.895654"
       bendpath4="m 89.733493,10.704952 v 7.75144"
       bendpath1-nodetypes="cc"
       bendpath3-nodetypes="cc" />
    <inkscape:path-effect
       effect="envelope"
       id="path-effect388"
       is_visible="true"
       lpeversion="1"
       yy="true"
       xx="false"
       bendpath1="M 103.13466,59.526608 155.48437,32.50131"
       bendpath2="m 131.86303,80.252572 v 7.751442"
       bendpath3="m 102.18973,148.54 47.43601,-33.26191"
       bendpath4="m 120.43224,80.252572 v 7.751442"
       bendpath1-nodetypes="cc"
       bendpath3-nodetypes="cc" />
    <inkscape:path-effect
       effect="envelope"
       id="path-effect377"
       is_visible="true"
       lpeversion="1"
       yy="true"
       xx="false"
       bendpath1="M 10.5305,40.627797 86.125738,59.904584"
       bendpath2="m 54.600121,75.338876 v 7.751443"
       bendpath3="m 13.554309,122.27065 71.815474,27.21429"
       bendpath4="m 42.947122,75.338876 v 7.751443"
       bendpath1-nodetypes="cc"
       bendpath3-nodetypes="cc" />
    <inkscape:path-effect
       effect="envelope"
       id="path-effect292"
       is_visible="true"
       lpeversion="1"
       yy="true"
       xx="false"
       bendpath1="M 72.707582,5.2870248 142.63318,20.784048"
       bendpath2="m 88.175061,16.742236 v 7.75144"
       bendpath3="M 20.052623,26.218846 91.606391,42.895654"
       bendpath4="m 82.800729,16.742236 v 7.75144"
       bendpath1-nodetypes="cc"
       bendpath3-nodetypes="cc" />
    <inkscape:path-effect
       effect="envelope"
       id="path-effect283"
       is_visible="true"
       lpeversion="1"
       yy="true"
       xx="false"
       bendpath1="M 103.13466,59.526608 155.48437,32.50131"
       bendpath2="m 145.92566,83.654362 v 7.622249"
       bendpath3="m 102.18973,148.54 47.43601,-33.26191"
       bendpath4="m 134.33467,83.654362 v 7.622249"
       bendpath1-nodetypes="cc"
       bendpath3-nodetypes="cc" />
    <inkscape:path-effect
       effect="envelope"
       id="path-effect272"
       is_visible="true"
       lpeversion="1"
       yy="true"
       xx="false"
       bendpath1="M 10.5305,40.627797 86.125738,59.904584"
       bendpath2="m 41.982214,63.243646 v 7.75144"
       bendpath3="m 13.554309,122.27065 71.815474,27.21429"
       bendpath4="m 30.473909,63.243646 v 7.75144"
       bendpath1-nodetypes="cc"
       bendpath3-nodetypes="cc" />
    <inkscape:path-effect
       effect="envelope"
       id="path-effect132"
       is_visible="true"
       lpeversion="1"
       yy="true"
       xx="true"
       bendpath1="M 15.354861,44.722804 80.302503,63.243638"
       bendpath2="M 79.924527,63.243638 79.546551,140.16472"
       bendpath3="m 18.378671,120.13199 61.16788,19.65476"
       bendpath4="m 15.354861,44.722804 1.511905,74.275256"
       bendpath1-nodetypes="cc"
       bendpath2-nodetypes="cc"
       bendpath3-nodetypes="cc"
       bendpath4-nodetypes="cc" />
    <inkscape:path-effect
       effect="envelope"
       id="path-effect1206"
       is_visible="true"
       lpeversion="1"
       yy="true"
       xx="true"
       bendpath1="M 73.232886,6.6145831 139.3625,20.899397"
       bendpath2="M 139.3625,20.899397 91.714578,42.466967"
       bendpath3="M 25.591674,25.969651 91.714578,42.466967"
       bendpath4="M 73.232886,6.6145831 25.591674,25.969651"
       bendpath1-nodetypes="cc"
       bendpath2-nodetypes="cc"
       bendpath3-nodetypes="cc"
       bendpath4-nodetypes="cc" />
    <inkscape:path-effect
       effect="envelope"
       id="path-effect1197"
       is_visible="true"
       lpeversion="1"
       yy="true"
       xx="true"
       bendpath1="M 106.96726,64.255952 151.81001,40.409875"
       bendpath2="m 151.81001,40.409875 -4.44122,72.973475"
       bendpath3="m 106.21131,140.04017 41.15748,-26.65682"
       bendpath4="m 106.96726,64.255952 -0.75595,75.784218"
       bendpath1-nodetypes="cc"
       bendpath2-nodetypes="cc"
       bendpath3-nodetypes="cc"
       bendpath4-nodetypes="cc" />
    <inkscape:path-effect
       effect="envelope"
       id="path-effect1186"
       is_visible="true"
       lpeversion="1"
       yy="true"
       xx="true"
       bendpath1="M 12.095238,44.60119 83.15476,63.122023"
       bendpath2="M 83.15476,63.122023 83.06027,146.74926"
       bendpath3="m 15.686012,121.70834 67.374254,25.04092"
       bendpath4="m 12.095238,44.60119 3.590774,77.10715"
       bendpath1-nodetypes="cc"
       bendpath2-nodetypes="cc"
       bendpath3-nodetypes="cc"
       bendpath4-nodetypes="cc" />
    <inkscape:path-effect
       effect="dashed_stroke"
       id="path-effect246"
       is_visible="true"
       lpeversion="1"
       numberdashes="17"
       holefactor="0.99999"
       splitsegments="false"
       halfextreme="false"
       unifysegment="false"
       message="Add &lt;b&gt;&quot;Fill Between Many LPE&quot;&lt;/b&gt; to add fill." />
    <inkscape:path-effect
       effect="envelope"
       id="path-effect156"
       is_visible="true"
       lpeversion="1"
       yy="true"
       xx="true"
       bendpath1="M 87.406074,33.948002 104.29095,21.089444"
       bendpath2="m 104.29095,21.089444 -4.02636,48.96645"
       bendpath3="M 84.288834,92.525779 100.26459,70.055894"
       bendpath4="m 87.406074,33.948002 -3.11724,58.577777"
       bendpath1-nodetypes="cc"
       bendpath2-nodetypes="cc"
       bendpath3-nodetypes="cc"
       bendpath4-nodetypes="cc" />
    <inkscape:path-effect
       effect="envelope"
       id="path-effect145"
       is_visible="true"
       lpeversion="1"
       yy="true"
       xx="true"
       bendpath1="m 8.3563621,25.379013 65.8805439,8.1793"
       bendpath2="m 74.236906,33.558313 -3.56914,67.070237"
       bendpath3="M 11.033223,86.946843 70.667766,100.62855"
       bendpath4="m 8.3563621,25.379013 2.6768609,61.56783"
       bendpath1-nodetypes="cc"
       bendpath2-nodetypes="cc"
       bendpath3-nodetypes="cc"
       bendpath4-nodetypes="cc" />
  </defs>
  <sodipodi:namedview
     id="base"
     pagecolor="#ffffff"
     bordercolor="#666666"
     borderopacity="1.0"
     inkscape:pageopacity="0.0"
     inkscape:pageshadow="2"
     inkscape:zoom="0.7"
     inkscape:cx="183.61616"
     inkscape:cy="259.27224"
     inkscape:document-units="mm"
     inkscape:current-layer="layer1"
     inkscape:document-rotation="0"
     showgrid="false"
     fit-margin-top="0"
     fit-margin-left="0"
     fit-margin-right="0"
     fit-margin-bottom="0"
     inkscape:window-width="1431"
     inkscape:window-height="1030"
     inkscape:window-x="128"
     inkscape:window-y="0"
     inkscape:window-maximized="0" />
  <metadata
     id="metadata5">
    <rdf:RDF>
      <cc:Work
         rdf:about="">
        <dc:format>image/svg+xml</dc:format>
        <dc:type
           rdf:resource="http://purl.org/dc/dcmitype/StillImage" />
        <dc:title></dc:title>
      </cc:Work>
    </rdf:RDF>
  </metadata>
  <g
     inkscape:label="Layer 1"
     inkscape:groupmode="layer"
     id="layer1"
     transform="translate(0.43080961,0.19363)">
    <text
       xml:space="preserve"
       style="font-style:normal;font-weight:normal;font-size:10.5833px;line-height:1.25;font-family:sans-serif;fill:#000000;fill-opacity:1;stroke:none;stroke-width:0.264583"
       x="22.300594"
       y="46.491074"
       id="text127"><tspan
         sodipodi:role="line"
         id="tspan125"
         x="22.300594"
         y="46.491074"
         style="stroke-width:0.264583" /></text>
    <path
       style="fill:none;stroke:#696969;stroke-width:0.529167;stroke-linecap:butt;stroke-linejoin:miter;stroke-miterlimit:4;stroke-dasharray:none;stroke-opacity:1"
       d="M 0.43080844,27.321486 96.113298,51.910281 95.04422,164.16349 4.1725816,132.09115 Z"
       id="path223" />
    <path
       style="fill:none;stroke:#696969;stroke-width:0.529167;stroke-linecap:butt;stroke-linejoin:miter;stroke-miterlimit:4;stroke-dasharray:none;stroke-opacity:1"
       d="M 0.43080844,27.321486 70.054521,0.19362949 161.32706,19.837939 96.113296,51.910281 Z"
       id="path225" />
    <path
       style="fill:none;stroke:#696969;stroke-width:0.529167;stroke-linecap:butt;stroke-linejoin:miter;stroke-miterlimit:4;stroke-dasharray:none;stroke-opacity:1"
       d="M 96.113296,51.910281 161.32706,19.837939 155.71441,123.00398 95.044218,164.16349 Z"
       id="path227" />
    <path
       style="fill:none;stroke:#696969;stroke-width:0.529167;stroke-linecap:butt;stroke-linejoin:miter;stroke-miterlimit:4;stroke-dasharray:4.23333, 4.23333;stroke-dashoffset:0;stroke-opacity:1"
       d="M 4.1725816,132.09115 69.920885,96.009753 155.71441,123.00398 95.044218,164.16349 Z"
       id="path229" />
    <path
       style="fill:none;stroke:#696969;stroke-width:0.529167;stroke-linecap:butt;stroke-linejoin:miter;stroke-miterlimit:4;stroke-dasharray:4.23333, 4.23333;stroke-dashoffset:0;stroke-opacity:1"
       d="M 4.1725816,132.09115 69.920885,96.009753 70.054521,0.19362949 0.43080844,27.321486 Z"
       id="path231" />
    <path
       style="fill:none;stroke:#696969;stroke-width:0.529167;stroke-linecap:butt;stroke-linejoin:miter;stroke-miterlimit:4;stroke-dasharray:4.23333, 4.23333;stroke-dashoffset:0;stroke-opacity:1"
       d="M 70.054521,0.19362949 161.32706,19.837939 155.71441,123.00398 69.920885,96.009753 Z"
       id="path233" />
    <g
       aria-label="17"
       id="text370"
       style="font-size:10.5833px;line-height:1.25;font-family:'Arial Rounded MT Bold';-inkscape-font-specification:'Arial Rounded MT Bold, Normal';stroke-width:0.264583"
       inkscape:path-effect="#path-effect377">
      <path
         d="m 27.406387,117.8228 c -0.333553,-16.78307 -0.76911,-33.598369 -1.306672,-50.445883 -5.357247,5.597295 -8.981217,7.997362 -10.90096,7.41424 -0.919541,-0.27931 -1.76288,-1.130246 -2.532768,-2.547402 -0.749402,-1.446954 -1.157576,-2.967082 -1.222446,-4.564557 -0.0752,-1.851799 0.220075,-3.11082 0.889676,-3.780486 0.669826,-0.669889 1.868519,-1.439498 3.602859,-2.321658 2.59005,-1.326159 4.643384,-2.937546 6.154715,-4.823769 1.533345,-1.879959 2.873208,-4.103417 4.017444,-6.669764 1.145228,-2.56857 1.896042,-4.144989 2.253047,-4.719502 0.356207,-0.573252 1.059987,-0.727244 2.110895,-0.460465 1.185316,0.3009 2.161228,1.307778 2.924882,3.027886 0.76361,1.720016 1.185098,3.932118 1.265316,6.632544 0.637666,21.466275 1.113842,42.88154 1.428528,64.245796 0.110675,7.51374 -1.312111,10.69399 -4.214505,9.59782 -1.295459,-0.48927 -2.348388,-1.64219 -3.161723,-3.45005 -0.813382,-1.80795 -1.249662,-4.18493 -1.308288,-7.13478 0,10e-6 0,2e-5 0,3e-5 z"
         style="stroke-width:0.264583"
         id="path372"
         inkscape:original-d="m 45.267387,82.253163 v -4.70254 q -1.312577,1.007687 -1.767329,1.007687 -0.21704,0 -0.387572,-0.170531 -0.165364,-0.1757 -0.165364,-0.403075 0,-0.263549 0.165364,-0.387572 0.165364,-0.124023 0.583942,-0.320393 0.625283,-0.294555 0.997352,-0.620115 0.377237,-0.325561 0.666624,-0.728636 0.289387,-0.403075 0.377237,-0.496092 0.08785,-0.09302 0.330728,-0.09302 0.273884,0 0.439248,0.211872 0.165364,0.211873 0.165364,0.583942 v 5.916933 q 0,1.038693 -0.707965,1.038693 -0.315225,0 -0.506427,-0.211873 -0.191202,-0.211872 -0.191202,-0.625283 z" />
      <path
         d="m 57.427754,53.071918 22.320311,5.70644 c 2.145697,0.548571 3.699231,1.540263 4.661152,2.984068 0.961577,1.443288 1.441059,3.543311 1.439129,6.297133 -0.0012,1.675523 -0.571094,3.739411 -1.704744,6.175517 -1.111061,2.441267 -2.386556,5.125317 -3.822503,8.039669 -1.41439,2.882172 -2.878991,6.540529 -4.394699,10.962422 -1.494133,4.429535 -2.861761,9.943553 -4.113986,16.540113 -0.527443,2.91875 -0.902266,5.35294 -1.124894,7.30969 -0.222855,1.9586 -0.469184,4.50727 -0.742172,7.65432 -0.272635,3.14287 -0.511921,5.53945 -0.714164,7.18057 -0.472308,3.80801 -1.131515,6.33192 -1.970812,7.57327 -0.818259,1.21122 -1.906049,1.55644 -3.265558,1.04298 -1.29548,-0.48928 -2.332872,-1.69382 -3.115384,-3.60477 -0.782452,-1.94956 -1.17324,-4.51797 -1.172005,-7.70941 9.53e-4,-2.46151 0.28859,-5.70357 0.86333,-9.73932 0.574821,-4.03633 1.512369,-8.78482 2.817906,-14.2753 1.305585,-5.529881 2.938487,-11.122303 4.908622,-16.80181 1.99196,-5.712066 4.366148,-11.323989 7.134786,-16.860285 L 57.642579,66.668182 C 55.78115,66.157657 54.37485,65.1965 53.42353,63.793005 c -0.930045,-1.4362 -1.419592,-3.397408 -1.467547,-5.886742 -0.05092,-2.642961 0.404178,-4.220916 1.372174,-4.736373 0.967053,-0.51496 2.334762,-0.549172 4.099597,-0.09797 z"
         style="stroke-width:0.264583"
         id="path374"
         inkscape:original-d="m 50.217973,75.457734 h 3.44164 q 0.496092,0 0.7183,0.155029 0.222208,0.155029 0.222208,0.511595 0,0.21704 -0.263549,0.573607 -0.258381,0.356566 -0.594277,0.790646 -0.330728,0.428914 -0.687295,1.069699 -0.351398,0.640786 -0.645953,1.565791 -0.124023,0.408243 -0.175699,0.676959 -0.05168,0.268717 -0.113688,0.69763 -0.06201,0.428913 -0.10852,0.656288 -0.10852,0.527098 -0.310058,0.733803 -0.19637,0.201538 -0.527098,0.201538 -0.315225,0 -0.506427,-0.21704 -0.191202,-0.222208 -0.191202,-0.651121 0,-0.330729 0.139526,-0.899167 0.139526,-0.568439 0.454751,-1.359086 0.315225,-0.795815 0.785479,-1.627803 0.475422,-0.837155 1.126543,-1.663976 h -2.764681 q -0.43408,0 -0.651121,-0.155028 -0.211872,-0.160197 -0.211872,-0.496093 0,-0.356566 0.227375,-0.459918 0.227376,-0.103353 0.635618,-0.103353 z" />
    </g>
    <g
       aria-label="13"
       id="text381"
       style="font-size:10.5833px;line-height:1.25;font-family:'Arial Rounded MT Bold';-inkscape-font-specification:'Arial Rounded MT Bold, Normal';stroke-width:0.264583"
       inkscape:path-effect="#path-effect388">
      <path
         d="m 111.44914,131.80231 c 0.24424,-17.67425 0.59823,-35.414888 1.06194,-53.221904 -4.11096,9.851292 -6.71486,15.212441 -8.06917,16.007151 -0.63737,0.374007 -1.19733,0.05626 -1.68211,-0.958332 -0.46893,-1.062753 -0.69375,-2.469154 -0.67037,-4.21463 0.0271,-2.023997 0.29317,-3.651062 0.79939,-4.880781 0.50528,-1.227492 1.39499,-2.948899 2.6717,-5.145862 1.90839,-3.292965 3.45754,-6.479225 4.63933,-9.564484 1.19734,-3.093694 2.28206,-6.402195 3.25379,-9.923201 0.96796,-3.507254 1.6171,-5.711943 1.90433,-6.541322 0.29231,-0.843677 0.80973,-1.455385 1.55206,-1.837321 0.83723,-0.430763 1.47898,0.02505 1.92306,1.360408 0.44444,1.336546 0.61133,3.401114 0.50813,6.20131 -0.82035,22.260695 -1.46698,44.416298 -1.93987,66.466798 -0.16575,7.72842 -1.21775,12.29134 -3.17406,13.65897 -0.87285,0.61019 -1.5629,0.3087 -2.07322,-0.91252 -0.5097,-1.21977 -0.74787,-3.38744 -0.70493,-6.49432 0,1e-5 0,2e-5 0,4e-5 z"
         style="stroke-width:0.264583"
         id="path383"
         inkscape:original-d="m 122.75251,87.16686 v -4.702541 q -1.31258,1.007688 -1.76733,1.007688 -0.21704,0 -0.38757,-0.170532 -0.16537,-0.175699 -0.16537,-0.403075 0,-0.263549 0.16537,-0.387572 0.16536,-0.124023 0.58394,-0.320393 0.62528,-0.294555 0.99735,-0.620115 0.37724,-0.325561 0.66662,-0.728636 0.28939,-0.403074 0.37724,-0.496092 0.0879,-0.09302 0.33073,-0.09302 0.27388,0 0.43925,0.211873 0.16536,0.211872 0.16536,0.583942 v 5.916932 q 0,1.038693 -0.70796,1.038693 -0.31523,0 -0.50643,-0.211873 -0.1912,-0.211872 -0.1912,-0.625282 z" />
      <path
         d="m 139.65244,72.127372 c 1.39881,-0.815261 2.65882,-2.530324 3.79018,-5.129671 1.14618,-2.607139 1.84693,-5.794887 2.09428,-9.565872 0.18875,-2.877509 -0.0553,-5.117217 -0.74375,-6.731825 -0.68543,-1.650639 -1.73345,-2.107088 -3.13808,-1.353793 -0.95199,0.51055 -1.75939,1.253183 -2.42119,2.231455 -0.64617,0.96981 -1.17819,2.08149 -1.59626,3.335909 -0.41802,1.254168 -0.83616,2.804245 -1.25262,4.650542 -0.40084,1.837114 -0.77095,3.570281 -1.11046,5.194882 -0.19594,0.882344 -0.50534,1.664072 -0.92784,2.344949 -0.42255,0.680913 -0.89427,1.169883 -1.4159,1.465508 -0.61368,0.347792 -1.15156,0.0614 -1.6159,-0.864109 -0.44692,-0.971804 -0.62331,-2.491163 -0.52396,-4.552981 0.0957,-1.985404 0.43702,-4.200456 1.02952,-6.637332 0.61012,-2.484016 1.43765,-4.966562 2.48645,-7.444499 1.06468,-2.486703 2.34165,-4.683578 3.83085,-6.595446 1.49139,-1.949702 3.11708,-3.369496 4.87032,-4.271952 1.53164,-0.788385 2.89557,-0.998999 4.08501,-0.640409 1.19242,0.321227 2.18336,1.172113 2.97179,2.548268 0.78864,1.37652 1.32277,3.16182 1.60722,5.359791 0.2845,2.198273 0.31967,4.700447 0.11262,7.515596 -0.27228,3.701906 -0.84083,7.076624 -1.69854,10.128948 -0.84013,3.007547 -1.95793,6.133611 -3.3459,9.385984 1.07947,0.860598 1.94968,2.04717 2.61293,3.560782 0.67838,1.504793 1.13439,3.344991 1.37287,5.525266 0.24099,2.143829 0.26549,4.607567 0.08,7.399727 -0.22202,3.342307 -0.7057,6.747445 -1.44223,10.225175 -0.72173,3.467155 -1.66902,6.781985 -2.83698,9.944935 -1.16576,3.126 -2.48654,5.88362 -3.96439,8.26418 -1.46176,2.33388 -3.03232,4.0989 -4.72061,5.27915 -1.71741,1.20062 -3.22079,1.47488 -4.52077,0.80654 -1.29986,-0.66825 -2.35504,-1.90601 -3.16313,-3.71406 -0.79217,-1.8554 -1.37763,-3.94027 -1.75061,-6.24784 -0.35854,-2.31806 -0.50841,-4.33487 -0.44578,-6.04516 0.0807,-2.20453 0.41938,-4.14619 1.01876,-5.82341 0.6156,-1.724396 1.34082,-2.845276 2.17165,-3.368727 0.41531,-0.26166 0.8022,-0.192038 1.15963,0.207001 0.35907,0.361234 0.57832,0.937873 0.65867,1.730656 0.53935,4.75491 1.18499,8.11812 1.93216,10.09814 0.76455,1.93579 1.92587,2.36584 3.49194,1.31235 0.89936,-0.60499 1.78918,-1.74516 2.675,-3.41414 0.90199,-1.71538 1.6841,-3.86489 2.34817,-6.44412 0.67869,-2.588808 1.1062,-5.34499 1.27703,-8.272707 0.25317,-4.338749 -0.0152,-7.432067 -0.82749,-9.301146 -0.80865,-1.902985 -2.07329,-2.346032 -3.78502,-1.306067 -0.30002,0.182277 -0.76988,0.540111 -1.40792,1.07331 -0.63847,0.533554 -1.04682,0.854942 -1.22711,0.964659 -0.82503,0.50206 -1.43684,0.38239 -1.83738,-0.363275 -0.39837,-0.782792 -0.55365,-2.1016 -0.46156,-3.952504 0.0903,-1.813934 0.43582,-3.429553 1.03924,-4.845405 0.60544,-1.453814 1.44923,-2.492395 2.52966,-3.12209 0.3118,-0.181721 0.62361,-0.363442 0.93542,-0.545163 z"
         style="stroke-width:0.264583"
         id="path385"
         inkscape:original-d="m 128.95366,83.301475 q 0.47542,0 0.81648,-0.279052 0.34623,-0.279052 0.34623,-0.800982 0,-0.397907 -0.27388,-0.682127 -0.27388,-0.289387 -0.73897,-0.289387 -0.31523,0 -0.52193,0.08785 -0.20154,0.08785 -0.32039,0.232543 -0.11886,0.144693 -0.22738,0.372069 -0.10335,0.227376 -0.1912,0.428913 -0.0517,0.10852 -0.18604,0.170532 -0.13435,0.06201 -0.31005,0.06201 -0.20671,0 -0.38241,-0.165364 -0.17053,-0.170532 -0.17053,-0.449583 0,-0.268717 0.1602,-0.563272 0.16536,-0.299722 0.47542,-0.568439 0.31522,-0.268716 0.78031,-0.428913 0.46509,-0.165364 1.03869,-0.165364 0.50126,0 0.91467,0.139526 0.41341,0.134359 0.7183,0.39274 0.30489,0.258381 0.45992,0.599445 0.15503,0.341063 0.15503,0.733803 0,0.516762 -0.22738,0.888831 -0.2222,0.366902 -0.64078,0.7183 0.40307,0.217041 0.67696,0.496093 0.27905,0.279051 0.41858,0.620115 0.13952,0.335896 0.13952,0.728635 0,0.470254 -0.1912,0.909503 -0.18603,0.439248 -0.55294,0.785479 -0.3669,0.341063 -0.87333,0.537433 -0.50126,0.191202 -1.11104,0.191202 -0.62011,0 -1.11103,-0.222208 -0.49093,-0.222208 -0.81132,-0.552936 -0.31523,-0.335896 -0.48059,-0.692462 -0.1602,-0.356566 -0.1602,-0.589109 0,-0.299723 0.1912,-0.48059 0.19637,-0.186034 0.48576,-0.186034 0.14469,0 0.27905,0.08785 0.13436,0.08268 0.1757,0.201537 0.26872,0.7183 0.57361,1.069699 0.31006,0.346231 0.86816,0.346231 0.32039,0 0.61495,-0.155029 0.29972,-0.160197 0.49092,-0.470254 0.19637,-0.310058 0.19637,-0.7183 0,-0.604613 -0.33073,-0.945676 -0.33072,-0.346231 -0.91983,-0.346231 -0.10336,0 -0.3204,0.02067 -0.21704,0.02067 -0.27905,0.02067 -0.28422,0 -0.43925,-0.139526 -0.15503,-0.144693 -0.15503,-0.397907 0,-0.248046 0.18604,-0.397907 0.18603,-0.155029 0.55294,-0.155029 z" />
    </g>
    <g
       aria-label="21"
       id="text392"
       style="font-size:10.5833px;line-height:1.25;font-family:'Arial Rounded MT Bold';-inkscape-font-specification:'Arial Rounded MT Bold, Normal';stroke-width:0.264583"
       inkscape:path-effect="#path-effect399">
      <path
         d="m 41.212556,25.303662 19.038898,4.399839 c 1.896509,0.438278 2.973774,0.925148 3.233007,1.461771 0.259157,0.536476 -0.24455,1.068498 -1.5127,1.59466 -1.129965,0.468829 -2.488747,0.772463 -4.078305,0.910199 -1.565182,0.143412 -3.153205,0.02719 -4.76405,-0.347924 l -26.940604,-6.27352 c -1.830333,-0.42622 -2.778105,-0.949823 -2.841893,-1.56935 -0.04038,-0.628952 0.596653,-1.202769 1.909181,-1.723136 0.844007,-0.334616 2.285472,-0.69953 4.324261,-1.096572 2.061807,-0.406265 3.878759,-0.678539 5.451137,-0.816287 6.462825,-0.542085 12.113355,-0.979346 16.989954,-1.307478 4.901209,-0.337615 8.245947,-0.5291 10.083466,-0.568637 3.327448,-0.09605 6.313166,-0.271629 8.958959,-0.525442 2.693113,-0.257818 5.081312,-0.60065 7.166526,-1.0273 2.13233,-0.43069 3.879726,-0.926954 5.243971,-1.487268 1.479816,-0.60778 2.425644,-1.232906 2.838956,-1.873812 0.460457,-0.645082 0.380326,-1.241974 -0.240181,-1.790538 -0.596625,-0.543272 -1.636023,-0.979883 -3.119775,-1.311035 -3.133733,-0.699404 -6.93567,-0.707841 -11.410026,-0.03196 -0.589768,0.08712 -1.950118,0.380168 -4.08779,0.878808 -2.113028,0.503873 -3.950015,0.842631 -5.510959,1.016826 -1.5369,0.179616 -2.991152,0.114226 -4.362571,-0.195412 -1.202861,-0.271581 -1.815677,-0.650911 -1.837486,-1.137093 -0.02181,-0.486288 0.634532,-0.993962 1.967881,-1.524272 1.61405,-0.641954 3.669956,-1.2280776 6.165654,-1.7604306 2.495354,-0.5322778 5.185154,-0.9204626 8.06642,-1.16542 2.905088,-0.2396258 5.910742,-0.2842202 9.015098,-0.1334723 3.151601,0.1466671 6.241142,0.5543601 9.27049,1.2256801 3.650043,0.8088691 6.207301,1.7256958 7.677368,2.7546158 0.932298,0.675348 1.386269,1.421036 1.362566,2.237617 -0.0237,0.816517 -0.539646,1.656836 -1.548782,2.519942 -0.962161,0.858904 -2.351463,1.667364 -4.170114,2.423424 -2.855129,1.18695 -6.200911,2.100442 -10.047041,2.736302 -3.798473,0.631684 -7.142268,1.046364 -10.028547,1.24617 -2.837752,0.188599 -7.567144,0.455339 -14.051901,0.779075 -6.493251,0.330927 -11.203661,0.651912 -14.153576,0.978055 -1.211679,0.119336 -2.563999,0.287206 -4.057492,0.503371 z"
         style="stroke-width:0.264583"
         id="path394"
         inkscape:original-d="m 91.511157,17.107644 h 2.697501 q 0.403075,0 0.614948,0.165364 0.211872,0.165364 0.211872,0.449583 0,0.253214 -0.170531,0.428913 -0.165364,0.1757 -0.506428,0.1757 h -3.803373 q -0.387572,0 -0.604612,-0.211873 -0.217041,-0.21704 -0.217041,-0.506427 0,-0.186035 0.139526,-0.490925 0.139526,-0.310058 0.30489,-0.485757 0.687294,-0.713132 1.240231,-1.21956 0.552936,-0.511595 0.790646,-0.671791 0.423746,-0.299723 0.702798,-0.599445 0.284219,-0.30489 0.428913,-0.620115 0.149861,-0.320393 0.149861,-0.625283 0,-0.330728 -0.160197,-0.589109 -0.155028,-0.263549 -0.428913,-0.408243 -0.268716,-0.144694 -0.589109,-0.144694 -0.676959,0 -1.064531,0.594278 -0.05168,0.07751 -0.175699,0.423745 -0.118856,0.346231 -0.273885,0.532266 -0.149861,0.186034 -0.444416,0.186034 -0.258381,0 -0.428913,-0.170532 -0.170531,-0.170531 -0.170531,-0.465086 0,-0.356566 0.160196,-0.744138 0.160197,-0.387572 0.475422,-0.702798 0.320393,-0.315225 0.80615,-0.506427 0.490924,-0.19637 1.147213,-0.19637 0.790647,0 1.34875,0.248046 0.361734,0.165364 0.635618,0.454751 0.273885,0.289388 0.423746,0.671792 0.155029,0.377237 0.155029,0.785479 0,0.640786 -0.320393,1.167884 -0.315225,0.52193 -0.645954,0.821653 -0.330728,0.294554 -1.111039,0.930172 -0.775144,0.635618 -1.064531,0.987017 -0.124024,0.139526 -0.253214,0.335896 z" />
      <path
         d="m 86.625851,38.028364 c 10.380504,-4.433173 20.750919,-8.86864 31.111239,-13.306401 -10.53455,0.529624 -16.90729,0.532665 -19.018335,0.05467 -1.011694,-0.229071 -1.536913,-0.592937 -1.574621,-1.090718 0.0093,-0.502023 0.519234,-0.964427 1.528641,-1.388245 1.169795,-0.491159 2.414915,-0.76579 3.733455,-0.824244 1.31943,-0.05849 3.38531,-0.05236 6.19908,0.01648 4.20782,0.100554 7.89042,0.03633 11.05166,-0.190822 3.18523,-0.221793 6.33352,-0.564524 9.44642,-1.028196 3.117,-0.464283 5.06925,-0.739718 5.88838,-0.826325 0.81451,-0.08612 1.78244,-0.0051 2.90357,0.243393 1.26429,0.280174 1.8133,0.705858 1.64803,1.278126 -0.16522,0.572104 -1.06277,1.212817 -2.69386,1.920472 -12.97047,5.627301 -25.95692,11.250971 -38.959347,16.871008 -4.56693,1.973964 -8.517076,2.57065 -11.865707,1.790247 -1.489233,-0.347068 -2.218282,-0.826165 -2.185902,-1.43604 0.0324,-0.610083 0.962016,-1.303895 2.78731,-2.083418 -4e-6,2e-6 -9e-6,4e-6 -1.3e-5,6e-6 z"
         style="stroke-width:0.264583"
         id="path396"
         inkscape:original-d="m 98.425442,17.619239 v -4.70254 q -1.312578,1.007687 -1.767329,1.007687 -0.21704,0 -0.387572,-0.170532 -0.165364,-0.175699 -0.165364,-0.403075 0,-0.263549 0.165364,-0.387572 0.165364,-0.124023 0.583942,-0.320393 0.625283,-0.294554 0.997352,-0.620115 0.377237,-0.32556 0.666624,-0.728635 0.289387,-0.403075 0.377237,-0.496092 0.08785,-0.09302 0.330728,-0.09302 0.273884,0 0.439248,0.211873 0.165364,0.211873 0.165364,0.583942 v 5.916932 q 0,1.038693 -0.707965,1.038693 -0.315225,0 -0.506427,-0.211872 -0.191202,-0.211873 -0.191202,-0.625283 z" />
    </g>
  </g>
</svg>
