<?xml version="1.0" encoding="UTF-8" standalone="no"?>
<svg
   xmlns:dc="http://purl.org/dc/elements/1.1/"
   xmlns:cc="http://creativecommons.org/ns#"
   xmlns:rdf="http://www.w3.org/1999/02/22-rdf-syntax-ns#"
   xmlns:svg="http://www.w3.org/2000/svg"
   xmlns="http://www.w3.org/2000/svg"
   xmlns:sodipodi="http://sodipodi.sourceforge.net/DTD/sodipodi-0.dtd"
   xmlns:inkscape="http://www.inkscape.org/namespaces/inkscape"
   width="162.55768mm"
   height="164.85959mm"
   viewBox="0 0 162.55768 164.85959"
   version="1.1"
   id="svg8"
   inkscape:version="1.0.2-2 (e86c870879, 2021-01-15)"
   sodipodi:docname="sums_on_cube_9_11_19.svg">
  <defs
     id="defs2">
    <inkscape:path-effect
       effect="envelope"
       id="path-effect610"
       is_visible="true"
       lpeversion="1"
       yy="true"
       xx="false"
       bendpath1="M 72.707582,5.2870248 142.63318,20.784048"
       bendpath2="m 76.23852,18.642452 v 7.75144"
       bendpath3="M 20.052623,26.218846 91.606391,42.895654"
       bendpath4="m 64.869741,18.642452 v 7.75144"
       bendpath1-nodetypes="cc"
       bendpath3-nodetypes="cc" />
    <inkscape:path-effect
       effect="envelope"
       id="path-effect599"
       is_visible="true"
       lpeversion="1"
       yy="true"
       xx="false"
       bendpath1="M 10.5305,40.627797 86.125738,59.904584"
       bendpath2="m 28.015557,64.377572 v 7.75144"
       bendpath3="m 13.554309,122.27065 71.815474,27.21429"
       bendpath4="m 18.000696,64.377572 v 7.75144"
       bendpath1-nodetypes="cc"
       bendpath3-nodetypes="cc" />
    <inkscape:path-effect
       effect="envelope"
       id="path-effect588"
       is_visible="true"
       lpeversion="1"
       yy="true"
       xx="false"
       bendpath1="M 103.13466,59.526608 155.48437,32.50131"
       bendpath2="m 130.04773,56.062096 v 7.741105"
       bendpath3="m 102.18973,148.54 47.43601,-33.26191"
       bendpath4="m 124.64239,56.062096 v 7.741105"
       bendpath1-nodetypes="cc"
       bendpath3-nodetypes="cc" />
    <inkscape:path-effect
       effect="envelope"
       id="path-effect505"
       is_visible="true"
       lpeversion="1"
       yy="true"
       xx="false"
       bendpath1="M 72.707582,5.2870248 142.63318,20.784048"
       bendpath2="M 95.934624,9.1827133 V 16.934153"
       bendpath3="M 20.052623,26.218846 91.606391,42.895654"
       bendpath4="M 84.441821,9.1827133 V 16.934153"
       bendpath1-nodetypes="cc"
       bendpath3-nodetypes="cc" />
    <inkscape:path-effect
       effect="envelope"
       id="path-effect494"
       is_visible="true"
       lpeversion="1"
       yy="true"
       xx="false"
       bendpath1="M 103.13466,59.526608 155.48437,32.50131"
       bendpath2="m 141.77827,90.835901 v 7.751442"
       bendpath3="m 102.18973,148.54 47.43601,-33.26191"
       bendpath4="m 130.25963,90.835901 v 7.751442"
       bendpath1-nodetypes="cc"
       bendpath3-nodetypes="cc" />
    <inkscape:path-effect
       effect="envelope"
       id="path-effect483"
       is_visible="true"
       lpeversion="1"
       yy="true"
       xx="false"
       bendpath1="M 10.5305,40.627797 86.125738,59.904584"
       bendpath2="m 41.751166,81.764477 v 7.75144"
       bendpath3="m 13.554309,122.27065 71.815474,27.21429"
       bendpath4="m 36.340661,81.764477 v 7.75144"
       bendpath1-nodetypes="cc"
       bendpath3-nodetypes="cc" />
    <inkscape:path-effect
       effect="envelope"
       id="path-effect399"
       is_visible="true"
       lpeversion="1"
       yy="true"
       xx="false"
       bendpath1="M 72.707582,5.2870248 142.63318,20.784048"
       bendpath2="m 99.831036,10.704952 v 7.75144"
       bendpath3="M 20.052623,26.218846 91.606391,42.895654"
       bendpath4="m 89.733493,10.704952 v 7.75144"
       bendpath1-nodetypes="cc"
       bendpath3-nodetypes="cc" />
    <inkscape:path-effect
       effect="envelope"
       id="path-effect388"
       is_visible="true"
       lpeversion="1"
       yy="true"
       xx="false"
       bendpath1="M 103.13466,59.526608 155.48437,32.50131"
       bendpath2="m 131.86303,80.252572 v 7.751442"
       bendpath3="m 102.18973,148.54 47.43601,-33.26191"
       bendpath4="m 120.43224,80.252572 v 7.751442"
       bendpath1-nodetypes="cc"
       bendpath3-nodetypes="cc" />
    <inkscape:path-effect
       effect="envelope"
       id="path-effect377"
       is_visible="true"
       lpeversion="1"
       yy="true"
       xx="false"
       bendpath1="M 10.5305,40.627797 86.125738,59.904584"
       bendpath2="m 54.600121,75.338876 v 7.751443"
       bendpath3="m 13.554309,122.27065 71.815474,27.21429"
       bendpath4="m 42.947122,75.338876 v 7.751443"
       bendpath1-nodetypes="cc"
       bendpath3-nodetypes="cc" />
    <inkscape:path-effect
       effect="envelope"
       id="path-effect292"
       is_visible="true"
       lpeversion="1"
       yy="true"
       xx="false"
       bendpath1="M 72.707582,5.2870248 142.63318,20.784048"
       bendpath2="m 88.175061,16.742236 v 7.75144"
       bendpath3="M 20.052623,26.218846 91.606391,42.895654"
       bendpath4="m 82.800729,16.742236 v 7.75144"
       bendpath1-nodetypes="cc"
       bendpath3-nodetypes="cc" />
    <inkscape:path-effect
       effect="envelope"
       id="path-effect283"
       is_visible="true"
       lpeversion="1"
       yy="true"
       xx="false"
       bendpath1="M 103.13466,59.526608 155.48437,32.50131"
       bendpath2="m 145.92566,83.654362 v 7.622249"
       bendpath3="m 102.18973,148.54 47.43601,-33.26191"
       bendpath4="m 134.33467,83.654362 v 7.622249"
       bendpath1-nodetypes="cc"
       bendpath3-nodetypes="cc" />
    <inkscape:path-effect
       effect="envelope"
       id="path-effect272"
       is_visible="true"
       lpeversion="1"
       yy="true"
       xx="false"
       bendpath1="M 10.5305,40.627797 86.125738,59.904584"
       bendpath2="m 41.982214,63.243646 v 7.75144"
       bendpath3="m 13.554309,122.27065 71.815474,27.21429"
       bendpath4="m 30.473909,63.243646 v 7.75144"
       bendpath1-nodetypes="cc"
       bendpath3-nodetypes="cc" />
    <inkscape:path-effect
       effect="envelope"
       id="path-effect132"
       is_visible="true"
       lpeversion="1"
       yy="true"
       xx="true"
       bendpath1="M 15.354861,44.722804 80.302503,63.243638"
       bendpath2="M 79.924527,63.243638 79.546551,140.16472"
       bendpath3="m 18.378671,120.13199 61.16788,19.65476"
       bendpath4="m 15.354861,44.722804 1.511905,74.275256"
       bendpath1-nodetypes="cc"
       bendpath2-nodetypes="cc"
       bendpath3-nodetypes="cc"
       bendpath4-nodetypes="cc" />
    <inkscape:path-effect
       effect="envelope"
       id="path-effect1206"
       is_visible="true"
       lpeversion="1"
       yy="true"
       xx="true"
       bendpath1="M 73.232886,6.6145831 139.3625,20.899397"
       bendpath2="M 139.3625,20.899397 91.714578,42.466967"
       bendpath3="M 25.591674,25.969651 91.714578,42.466967"
       bendpath4="M 73.232886,6.6145831 25.591674,25.969651"
       bendpath1-nodetypes="cc"
       bendpath2-nodetypes="cc"
       bendpath3-nodetypes="cc"
       bendpath4-nodetypes="cc" />
    <inkscape:path-effect
       effect="envelope"
       id="path-effect1197"
       is_visible="true"
       lpeversion="1"
       yy="true"
       xx="true"
       bendpath1="M 106.96726,64.255952 151.81001,40.409875"
       bendpath2="m 151.81001,40.409875 -4.44122,72.973475"
       bendpath3="m 106.21131,140.04017 41.15748,-26.65682"
       bendpath4="m 106.96726,64.255952 -0.75595,75.784218"
       bendpath1-nodetypes="cc"
       bendpath2-nodetypes="cc"
       bendpath3-nodetypes="cc"
       bendpath4-nodetypes="cc" />
    <inkscape:path-effect
       effect="envelope"
       id="path-effect1186"
       is_visible="true"
       lpeversion="1"
       yy="true"
       xx="true"
       bendpath1="M 12.095238,44.60119 83.15476,63.122023"
       bendpath2="M 83.15476,63.122023 83.06027,146.74926"
       bendpath3="m 15.686012,121.70834 67.374254,25.04092"
       bendpath4="m 12.095238,44.60119 3.590774,77.10715"
       bendpath1-nodetypes="cc"
       bendpath2-nodetypes="cc"
       bendpath3-nodetypes="cc"
       bendpath4-nodetypes="cc" />
    <inkscape:path-effect
       effect="dashed_stroke"
       id="path-effect246"
       is_visible="true"
       lpeversion="1"
       numberdashes="17"
       holefactor="0.99999"
       splitsegments="false"
       halfextreme="false"
       unifysegment="false"
       message="Add &lt;b&gt;&quot;Fill Between Many LPE&quot;&lt;/b&gt; to add fill." />
    <inkscape:path-effect
       effect="envelope"
       id="path-effect156"
       is_visible="true"
       lpeversion="1"
       yy="true"
       xx="true"
       bendpath1="M 87.406074,33.948002 104.29095,21.089444"
       bendpath2="m 104.29095,21.089444 -4.02636,48.96645"
       bendpath3="M 84.288834,92.525779 100.26459,70.055894"
       bendpath4="m 87.406074,33.948002 -3.11724,58.577777"
       bendpath1-nodetypes="cc"
       bendpath2-nodetypes="cc"
       bendpath3-nodetypes="cc"
       bendpath4-nodetypes="cc" />
    <inkscape:path-effect
       effect="envelope"
       id="path-effect145"
       is_visible="true"
       lpeversion="1"
       yy="true"
       xx="true"
       bendpath1="m 8.3563621,25.379013 65.8805439,8.1793"
       bendpath2="m 74.236906,33.558313 -3.56914,67.070237"
       bendpath3="M 11.033223,86.946843 70.667766,100.62855"
       bendpath4="m 8.3563621,25.379013 2.6768609,61.56783"
       bendpath1-nodetypes="cc"
       bendpath2-nodetypes="cc"
       bendpath3-nodetypes="cc"
       bendpath4-nodetypes="cc" />
  </defs>
  <sodipodi:namedview
     id="base"
     pagecolor="#ffffff"
     bordercolor="#666666"
     borderopacity="1.0"
     inkscape:pageopacity="0.0"
     inkscape:pageshadow="2"
     inkscape:zoom="0.7"
     inkscape:cx="290.28283"
     inkscape:cy="259.27224"
     inkscape:document-units="mm"
     inkscape:current-layer="layer1"
     inkscape:document-rotation="0"
     showgrid="false"
     fit-margin-top="0"
     fit-margin-left="0"
     fit-margin-right="0"
     fit-margin-bottom="0"
     inkscape:window-width="1431"
     inkscape:window-height="1030"
     inkscape:window-x="128"
     inkscape:window-y="0"
     inkscape:window-maximized="0" />
  <metadata
     id="metadata5">
    <rdf:RDF>
      <cc:Work
         rdf:about="">
        <dc:format>image/svg+xml</dc:format>
        <dc:type
           rdf:resource="http://purl.org/dc/dcmitype/StillImage" />
        <dc:title></dc:title>
      </cc:Work>
    </rdf:RDF>
  </metadata>
  <g
     inkscape:label="Layer 1"
     inkscape:groupmode="layer"
     id="layer1"
     transform="translate(0.43080961,0.19363)">
    <text
       xml:space="preserve"
       style="font-style:normal;font-weight:normal;font-size:10.5833px;line-height:1.25;font-family:sans-serif;fill:#000000;fill-opacity:1;stroke:none;stroke-width:0.264583"
       x="22.300594"
       y="46.491074"
       id="text127"><tspan
         sodipodi:role="line"
         id="tspan125"
         x="22.300594"
         y="46.491074"
         style="stroke-width:0.264583" /></text>
    <path
       style="fill:none;stroke:#696969;stroke-width:0.529167;stroke-linecap:butt;stroke-linejoin:miter;stroke-miterlimit:4;stroke-dasharray:none;stroke-opacity:1"
       d="M 0.43080844,27.321486 96.113298,51.910281 95.04422,164.16349 4.1725816,132.09115 Z"
       id="path223" />
    <path
       style="fill:none;stroke:#696969;stroke-width:0.529167;stroke-linecap:butt;stroke-linejoin:miter;stroke-miterlimit:4;stroke-dasharray:none;stroke-opacity:1"
       d="M 0.43080844,27.321486 70.054521,0.19362949 161.32706,19.837939 96.113296,51.910281 Z"
       id="path225" />
    <path
       style="fill:none;stroke:#696969;stroke-width:0.529167;stroke-linecap:butt;stroke-linejoin:miter;stroke-miterlimit:4;stroke-dasharray:none;stroke-opacity:1"
       d="M 96.113296,51.910281 161.32706,19.837939 155.71441,123.00398 95.044218,164.16349 Z"
       id="path227" />
    <path
       style="fill:none;stroke:#696969;stroke-width:0.529167;stroke-linecap:butt;stroke-linejoin:miter;stroke-miterlimit:4;stroke-dasharray:4.23333, 4.23333;stroke-dashoffset:0;stroke-opacity:1"
       d="M 4.1725816,132.09115 69.920885,96.009753 155.71441,123.00398 95.044218,164.16349 Z"
       id="path229" />
    <path
       style="fill:none;stroke:#696969;stroke-width:0.529167;stroke-linecap:butt;stroke-linejoin:miter;stroke-miterlimit:4;stroke-dasharray:4.23333, 4.23333;stroke-dashoffset:0;stroke-opacity:1"
       d="M 4.1725816,132.09115 69.920885,96.009753 70.054521,0.19362949 0.43080844,27.321486 Z"
       id="path231" />
    <path
       style="fill:none;stroke:#696969;stroke-width:0.529167;stroke-linecap:butt;stroke-linejoin:miter;stroke-miterlimit:4;stroke-dasharray:4.23333, 4.23333;stroke-dashoffset:0;stroke-opacity:1"
       d="M 70.054521,0.19362949 161.32706,19.837939 155.71441,123.00398 69.920885,96.009753 Z"
       id="path233" />
    <g
       aria-label="9"
       id="text583"
       style="font-size:10.5833px;line-height:1.25;font-family:'Arial Rounded MT Bold';-inkscape-font-specification:'Arial Rounded MT Bold, Normal';stroke-width:0.264583"
       inkscape:path-effect="#path-effect588">
      <path
         d="m 137.75003,86.013712 c -2.24135,4.210696 -4.67736,7.893251 -7.31636,11.024536 -2.60599,3.073642 -5.45368,5.605112 -8.5557,7.562632 -2.94733,1.8599 -5.68426,2.908 -8.23206,3.12128 -2.51492,0.15464 -4.70014,-0.45905 -6.56078,-1.85066 -1.82766,-1.44978 -3.23717,-3.59772 -4.21832,-6.436282 -0.98055,-2.877601 -1.45605,-6.236644 -1.40729,-10.053542 0.0523,-4.096458 0.68986,-8.30778 1.93229,-12.61177 1.24349,-4.345184 3.00305,-8.450602 5.28801,-12.316507 2.28524,-3.866311 4.98738,-7.330276 8.10558,-10.409621 3.15143,-3.096554 6.60457,-5.591021 10.3457,-7.517827 4.30551,-2.217478 8.10431,-3.290478 11.35703,-3.255647 3.25503,0.03486 5.90804,1.135453 7.95455,3.287285 2.04908,2.11437 3.4865,5.355217 4.32765,9.726279 0.84177,4.374266 1.01985,9.711688 0.57599,16.063709 -0.49487,7.081924 -1.53445,13.713218 -3.09005,19.914287 -1.55297,6.163126 -3.58243,11.879216 -6.07515,17.136906 -2.46006,5.19991 -5.30139,9.83169 -8.52908,13.85714 -3.22648,3.98823 -6.82694,7.40581 -10.81759,10.19813 -3.93486,2.7533 -7.32763,4.20718 -10.21858,4.32671 -2.88773,0.0806 -5.09101,-0.79639 -6.60036,-2.62321 -1.50907,-1.86603 -2.26588,-4.15327 -2.24792,-6.83184 0.0111,-1.65489 0.50123,-3.44672 1.47671,-5.36929 0.97569,-1.92308 2.21324,-3.36038 3.70854,-4.32325 1.36995,-0.88216 2.59304,-1.18523 3.66322,-0.91651 1.07134,0.22991 1.86558,1.11227 2.38427,2.64533 0.63414,1.87863 1.72138,3.00744 3.25595,3.38389 1.53624,0.33811 3.27908,-0.16174 5.24124,-1.48437 1.74703,-1.17762 3.41894,-2.84776 5.02403,-4.9974 1.60471,-2.14914 3.00382,-4.59381 4.19823,-7.32564 2.3863,-5.49218 4.06143,-13.47682 5.03025,-23.924748 z m -0.18495,-16.650847 c 0.14004,-2.569359 -0.036,-4.755517 -0.53632,-6.568296 -0.46533,-1.868605 -1.21097,-3.295328 -2.24062,-4.282458 -0.99672,-1.005173 -2.24639,-1.550491 -3.74836,-1.633328 -1.46869,-0.100605 -3.11379,0.331882 -4.92728,1.306302 -3.13511,1.684549 -5.85365,4.690691 -8.12855,9.071665 -2.27381,4.342333 -3.46713,9.14336 -3.61031,14.38299 -0.14195,5.194701 0.81792,8.713934 2.83781,10.521704 2.01982,1.807815 4.61907,1.715892 7.82547,-0.231257 1.96794,-1.195072 3.86407,-2.946281 5.69859,-5.238166 1.86727,-2.348247 3.42036,-5.030559 4.65831,-8.037303 1.27019,-3.026239 1.99829,-6.119865 2.17117,-9.291799 z"
         style="stroke-width:0.264583"
         id="path585"
         inkscape:original-d="m 128.61113,60.289214 q -0.34106,0.403075 -0.76481,0.60978 -0.41858,0.201538 -0.93017,0.201538 -0.48576,0 -0.9095,-0.186035 -0.41858,-0.191202 -0.72864,-0.527098 -0.30489,-0.341063 -0.47025,-0.790647 -0.16537,-0.454751 -0.16537,-0.950843 0,-0.532265 0.18604,-1.007687 0.18603,-0.480589 0.53226,-0.831988 0.34624,-0.351399 0.82166,-0.547768 0.48059,-0.19637 1.05936,-0.19637 0.66662,0 1.18855,0.242878 0.52193,0.242879 0.8785,0.707965 0.35657,0.459919 0.54777,1.162716 0.1912,0.702797 0.1912,1.591629 0,0.992184 -0.20154,1.751826 -0.20153,0.754473 -0.58911,1.271236 -0.3824,0.511595 -0.91983,0.764809 -0.53744,0.248046 -1.21956,0.248046 -0.67179,0 -1.16789,-0.253214 -0.49609,-0.258381 -0.75447,-0.635618 -0.25838,-0.382405 -0.25838,-0.733803 0,-0.21704 0.1602,-0.387572 0.16019,-0.170532 0.40824,-0.170532 0.22737,0 0.40824,0.129191 0.18087,0.124023 0.27388,0.377237 0.11369,0.310057 0.37724,0.501259 0.26355,0.186035 0.59428,0.186035 0.29455,0 0.5581,-0.149861 0.26355,-0.149861 0.44959,-0.423746 0.37206,-0.552936 0.44441,-1.953363 z m -0.11885,-1.581293 q 0,-0.351399 -0.0982,-0.645954 -0.093,-0.299722 -0.26872,-0.516762 -0.17053,-0.217041 -0.41341,-0.341064 -0.23771,-0.124023 -0.52193,-0.124023 -0.49092,0 -0.83198,0.423746 -0.34107,0.418577 -0.34107,1.111039 0,0.687295 0.34107,1.095537 0.34106,0.408243 0.86299,0.408243 0.32039,0 0.60978,-0.165364 0.29455,-0.170532 0.47542,-0.490925 0.18604,-0.320393 0.18604,-0.754473 z" />
    </g>
    <g
       aria-label="11"
       id="text592"
       style="font-size:10.5833px;line-height:1.25;font-family:'Arial Rounded MT Bold';-inkscape-font-specification:'Arial Rounded MT Bold, Normal';stroke-width:0.264583"
       inkscape:path-effect="#path-effect599">
      <path
         d="m 29.898418,118.84611 c -0.306741,-16.83824 -0.715485,-33.708701 -1.226234,-50.611384 -6.280169,5.355114 -10.522654,7.56798 -12.754551,6.889655 -1.069848,-0.325152 -2.047226,-1.217593 -2.935078,-2.670954 -0.863793,-1.482101 -1.329286,-3.019561 -1.393969,-4.617296 -0.07498,-1.852052 0.277962,-3.094496 1.063062,-3.731081 0.78549,-0.636903 2.187741,-1.348164 4.215487,-2.148717 3.028138,-1.204226 5.432736,-2.722516 7.207945,-4.542794 1.800815,-1.813016 3.378745,-3.980984 4.731712,-6.503351 1.354341,-2.524921 2.241177,-4.073602 2.661885,-4.635033 0.419575,-0.559926 1.241003,-0.685462 2.463727,-0.374863 1.379151,0.350335 2.508625,1.400149 3.385545,3.158001 0.876844,1.757692 1.351348,3.995884 1.424936,6.710147 0.584954,21.57553 1.008418,43.10005 1.270392,64.57356 0.09216,7.55418 -1.578589,10.66106 -4.955923,9.38488 -1.507186,-0.56951 -2.728991,-1.79013 -3.668321,-3.65155 -0.939418,-1.86156 -1.436704,-4.26981 -1.490615,-7.22922 z"
         style="stroke-width:0.264583"
         id="path594"
         inkscape:original-d="m 20.32096,71.29186 v -4.702541 q -1.312577,1.007688 -1.767328,1.007688 -0.21704,0 -0.387572,-0.170532 -0.165364,-0.175699 -0.165364,-0.403075 0,-0.263549 0.165364,-0.387572 0.165364,-0.124023 0.583942,-0.320393 0.625283,-0.294555 0.997352,-0.620115 0.377237,-0.325561 0.666624,-0.728636 0.289387,-0.403074 0.377236,-0.496092 0.08785,-0.09302 0.330729,-0.09302 0.273884,0 0.439248,0.211873 0.165364,0.211872 0.165364,0.583942 v 5.916932 q 0,1.038693 -0.707965,1.038693 -0.315225,0 -0.506427,-0.211873 Q 20.32096,71.70527 20.32096,71.29186 Z" />
      <path
         d="m 75.272221,135.35607 c 0.173248,-17.84622 0.244491,-35.724655 0.21373,-53.635312 -6.486359,5.786956 -10.830736,8.21611 -13.063114,7.537638 -1.06986,-0.325155 -2.029808,-1.254142 -2.88286,-2.780612 -0.827933,-1.557426 -1.252268,-3.181277 -1.270544,-4.876491 -0.02118,-1.965038 0.371329,-3.290546 1.181741,-3.980305 0.810787,-0.690077 2.245783,-1.469999 4.313595,-2.354743 3.088263,-1.330501 5.556166,-2.981708 7.39783,-4.941552 1.867273,-1.95258 3.519578,-4.276734 4.954827,-6.971893 1.436661,-2.697804 2.374061,-4.352647 2.813794,-4.954041 0.438564,-0.599803 1.269484,-0.745279 2.492203,-0.434681 1.379128,0.35033 2.487034,1.445572 3.320675,3.294246 0.833569,1.848507 1.248516,4.211892 1.246127,7.085645 -0.01899,22.843806 -0.199464,45.636601 -0.541431,68.378391 -0.120285,7.99931 -1.896241,11.32913 -5.273981,10.0528 -1.507222,-0.56952 -2.70733,-1.83553 -3.603443,-3.7878 -0.8962,-1.95243 -1.329598,-4.49467 -1.299148,-7.63132 -10e-7,1e-5 -10e-7,2e-5 -10e-7,3e-5 z"
         style="stroke-width:0.264583"
         id="path596"
         inkscape:original-d="m 26.609962,71.29186 v -4.702541 q -1.312577,1.007688 -1.767328,1.007688 -0.21704,0 -0.387572,-0.170532 -0.165364,-0.175699 -0.165364,-0.403075 0,-0.263549 0.165364,-0.387572 0.165364,-0.124023 0.583942,-0.320393 0.625283,-0.294555 0.997352,-0.620115 0.377237,-0.325561 0.666624,-0.728636 0.289387,-0.403074 0.377236,-0.496092 0.08785,-0.09302 0.330728,-0.09302 0.273885,0 0.439249,0.211873 0.165364,0.211872 0.165364,0.583942 v 5.916932 q 0,1.038693 -0.707965,1.038693 -0.315225,0 -0.506427,-0.211873 -0.191203,-0.211872 -0.191203,-0.625282 z" />
    </g>
    <g
       aria-label="19"
       id="text603"
       style="font-size:10.5833px;line-height:1.25;font-family:'Arial Rounded MT Bold';-inkscape-font-specification:'Arial Rounded MT Bold, Normal';stroke-width:0.264583"
       inkscape:path-effect="#path-effect610">
      <path
         d="m 40.03359,27.192299 c 10.595645,-4.277263 21.181198,-8.55682 31.75666,-12.838671 -9.945352,0.6163 -15.899553,0.692035 -17.774671,0.267486 -0.89855,-0.203442 -1.315183,-0.538942 -1.249007,-1.005726 0.110954,-0.471302 0.681632,-0.911154 1.711029,-1.320488 1.192963,-0.474375 2.412092,-0.746357 3.655623,-0.816233 1.244345,-0.06992 3.17275,-0.08767 5.786576,-0.05498 3.909312,0.04663 7.361176,-0.05533 10.359026,-0.304245 3.019174,-0.244157 6.028118,-0.60133 9.028265,-1.071549 3.004053,-0.4708305 4.882233,-0.7512613 5.664344,-0.8417347 0.777722,-0.08997 1.664554,-0.024717 2.660298,0.1959334 1.122887,0.2488243 1.548663,0.6422403 1.278162,1.1811913 -0.270425,0.538797 -1.238139,1.150163 -2.904067,1.832556 -13.247621,5.426456 -26.511219,10.849281 -39.790793,16.268473 -4.664087,1.903344 -8.476445,2.508379 -11.450605,1.815281 -1.322688,-0.308239 -1.908165,-0.749048 -1.755388,-1.321328 0.152832,-0.572476 1.161422,-1.233853 3.024562,-1.985967 -5e-6,2e-6 -9e-6,3e-6 -1.4e-5,5e-6 z"
         style="stroke-width:0.264583"
         id="path605"
         inkscape:original-d="m 67.190006,25.556739 v -4.70254 q -1.312578,1.007687 -1.767329,1.007687 -0.21704,0 -0.387572,-0.170532 -0.165364,-0.175699 -0.165364,-0.403075 0,-0.263549 0.165364,-0.387572 0.165364,-0.124023 0.583942,-0.320393 0.625283,-0.294554 0.997352,-0.620115 0.377237,-0.32556 0.666624,-0.728635 0.289387,-0.403075 0.377237,-0.496092 0.08785,-0.09302 0.330728,-0.09302 0.273884,0 0.439248,0.211873 0.165364,0.211873 0.165364,0.583942 v 5.916932 q 0,1.038693 -0.707965,1.038693 -0.315225,0 -0.506427,-0.211872 -0.191202,-0.211873 -0.191202,-0.625283 z" />
      <path
         d="m 105.5979,30.662431 c -3.19306,0.438361 -6.128017,0.649555 -8.804261,0.635086 -2.631758,-0.01927 -5.013582,-0.273922 -7.143163,-0.761795 -2.021863,-0.463195 -3.502524,-1.070984 -4.43911,-1.821212 -0.892219,-0.755014 -1.235316,-1.591701 -1.028759,-2.509616 0.251028,-0.922706 1.035543,-1.878059 2.352508,-2.867341 1.339975,-0.998865 3.115891,-1.956895 5.325367,-2.876412 2.3703,-0.986447 4.998375,-1.833929 7.879912,-2.544387 2.904366,-0.720002 5.849756,-1.248267 8.832796,-1.585155 2.98318,-0.336906 5.88518,-0.472839 8.70526,-0.406909 2.8415,0.07064 5.44743,0.367666 7.82033,0.893484 2.73326,0.605674 4.63375,1.373749 5.70611,2.307779 1.07217,0.933853 1.31941,2.00482 0.74241,3.213496 -0.55417,1.198629 -1.97841,2.555378 -4.27342,4.067975 -2.29469,1.51238 -5.39128,3.116276 -9.2917,4.805837 -4.35578,1.886816 -8.61779,3.455807 -12.79728,4.705559 -4.1564,1.239824 -8.180607,2.161172 -12.078751,2.764083 -3.853345,0.598072 -7.465855,0.872596 -10.838107,0.825496 -3.34907,-0.05683 -6.45638,-0.420416 -9.318637,-1.087393 -2.818611,-0.656807 -4.707113,-1.464763 -5.660969,-2.420326 -0.931048,-0.965359 -1.096196,-1.922934 -0.496988,-2.873894 0.622184,-0.960499 1.718143,-1.765363 3.284066,-2.417048 0.967153,-0.402497 2.165216,-0.684832 3.592781,-0.847617 1.427577,-0.162786 2.658041,-0.125701 3.691966,0.111954 0.947845,0.21787 1.511483,0.533624 1.69169,0.947896 0.203142,0.404593 -0.06331,0.887961 -0.799446,1.449941 -0.902326,0.687976 -1.227063,1.337769 -0.973502,1.950084 0.276456,0.602572 1.107305,1.064741 2.490912,1.38518 1.232281,0.285392 2.731541,0.415295 4.496457,0.388664 1.76505,-0.02663 3.640784,-0.208026 5.627533,-0.544595 3.999471,-0.683407 9.228147,-2.311903 15.703995,-4.888814 z m 9.71454,-4.645627 c 1.54827,-0.663324 2.76845,-1.31891 3.66126,-1.965702 0.93694,-0.651776 1.52186,-1.263439 1.75509,-1.834473 0.25452,-0.566312 0.15588,-1.077659 -0.29604,-1.53413 -0.43069,-0.451755 -1.22997,-0.807637 -2.39888,-1.068454 -2.01864,-0.450412 -4.66685,-0.434827 -7.94841,0.04294 -3.25779,0.46798 -6.4276,1.346742 -9.49888,2.638314 -3.049702,1.282494 -4.774972,2.462939 -5.171665,3.547064 -0.396505,1.083609 0.490279,1.873869 2.656687,2.36705 1.329731,0.302713 2.960818,0.435641 4.891628,0.397514 1.9753,-0.04298 4.04363,-0.281479 6.20592,-0.715898 2.1838,-0.429587 4.23033,-1.054673 6.14326,-1.87423 1e-5,2e-6 2e-5,5e-6 3e-5,7e-6 z"
         style="stroke-width:0.264583"
         id="path607"
         inkscape:original-d="m 74.80192,22.869573 q -0.341063,0.403075 -0.764809,0.60978 -0.418577,0.201537 -0.930173,0.201537 -0.485756,0 -0.909502,-0.186034 -0.418578,-0.191202 -0.728635,-0.527098 -0.30489,-0.341063 -0.470254,-0.790647 -0.165364,-0.454751 -0.165364,-0.950843 0,-0.532266 0.186034,-1.007688 0.186035,-0.480589 0.532266,-0.831987 0.346231,-0.351399 0.821652,-0.547769 0.48059,-0.19637 1.059364,-0.19637 0.666624,0 1.188554,0.242879 0.52193,0.242878 0.878497,0.707965 0.356566,0.459918 0.547768,1.162716 0.191202,0.702797 0.191202,1.591629 0,0.992184 -0.201537,1.751825 -0.201538,0.754474 -0.58911,1.271236 -0.382404,0.511595 -0.919837,0.764809 -0.537433,0.248046 -1.21956,0.248046 -0.671792,0 -1.167884,-0.253214 -0.496092,-0.258381 -0.754473,-0.635618 -0.258382,-0.382404 -0.258382,-0.733803 0,-0.21704 0.160197,-0.387572 0.160196,-0.170531 0.408242,-0.170531 0.227376,0 0.408243,0.12919 0.180867,0.124023 0.273884,0.377237 0.113688,0.310058 0.377237,0.50126 0.263549,0.186034 0.594277,0.186034 0.294555,0 0.558104,-0.149861 Q 74.17147,25.09682 74.357504,24.822936 74.729573,24.27 74.80192,22.869573 Z m -0.118855,-1.581294 q 0,-0.351398 -0.09819,-0.645953 -0.09302,-0.299723 -0.268717,-0.516763 -0.170532,-0.21704 -0.41341,-0.341063 -0.237711,-0.124023 -0.52193,-0.124023 -0.490925,0 -0.831988,0.423745 -0.341064,0.418578 -0.341064,1.11104 0,0.687294 0.341064,1.095537 0.341063,0.408242 0.862993,0.408242 0.320393,0 0.60978,-0.165364 0.294555,-0.170531 0.475422,-0.490924 0.186035,-0.320393 0.186035,-0.754474 z" />
    </g>
  </g>
</svg>
