<?xml version="1.0" encoding="UTF-8" standalone="no"?>
<svg
   xmlns:dc="http://purl.org/dc/elements/1.1/"
   xmlns:cc="http://creativecommons.org/ns#"
   xmlns:rdf="http://www.w3.org/1999/02/22-rdf-syntax-ns#"
   xmlns:svg="http://www.w3.org/2000/svg"
   xmlns="http://www.w3.org/2000/svg"
   xmlns:sodipodi="http://sodipodi.sourceforge.net/DTD/sodipodi-0.dtd"
   xmlns:inkscape="http://www.inkscape.org/namespaces/inkscape"
   width="162.55768mm"
   height="164.85959mm"
   viewBox="0 0 162.55768 164.85959"
   version="1.1"
   id="svg8"
   inkscape:version="1.0.2-2 (e86c870879, 2021-01-15)"
   sodipodi:docname="sums_on_cube_6_16_20.svg">
  <defs
     id="defs2">
    <inkscape:path-effect
       effect="envelope"
       id="path-effect505"
       is_visible="true"
       lpeversion="1"
       yy="true"
       xx="false"
       bendpath1="M 72.707582,5.2870248 142.63318,20.784048"
       bendpath2="M 95.934624,9.1827133 V 16.934153"
       bendpath3="M 20.052623,26.218846 91.606391,42.895654"
       bendpath4="M 84.441821,9.1827133 V 16.934153"
       bendpath1-nodetypes="cc"
       bendpath3-nodetypes="cc" />
    <inkscape:path-effect
       effect="envelope"
       id="path-effect494"
       is_visible="true"
       lpeversion="1"
       yy="true"
       xx="false"
       bendpath1="M 103.13466,59.526608 155.48437,32.50131"
       bendpath2="m 141.77827,90.835901 v 7.751442"
       bendpath3="m 102.18973,148.54 47.43601,-33.26191"
       bendpath4="m 130.25963,90.835901 v 7.751442"
       bendpath1-nodetypes="cc"
       bendpath3-nodetypes="cc" />
    <inkscape:path-effect
       effect="envelope"
       id="path-effect483"
       is_visible="true"
       lpeversion="1"
       yy="true"
       xx="false"
       bendpath1="M 10.5305,40.627797 86.125738,59.904584"
       bendpath2="m 41.751166,81.764477 v 7.75144"
       bendpath3="m 13.554309,122.27065 71.815474,27.21429"
       bendpath4="m 36.340661,81.764477 v 7.75144"
       bendpath1-nodetypes="cc"
       bendpath3-nodetypes="cc" />
    <inkscape:path-effect
       effect="envelope"
       id="path-effect399"
       is_visible="true"
       lpeversion="1"
       yy="true"
       xx="false"
       bendpath1="M 72.707582,5.2870248 142.63318,20.784048"
       bendpath2="m 99.831036,10.704952 v 7.75144"
       bendpath3="M 20.052623,26.218846 91.606391,42.895654"
       bendpath4="m 89.733493,10.704952 v 7.75144"
       bendpath1-nodetypes="cc"
       bendpath3-nodetypes="cc" />
    <inkscape:path-effect
       effect="envelope"
       id="path-effect388"
       is_visible="true"
       lpeversion="1"
       yy="true"
       xx="false"
       bendpath1="M 103.13466,59.526608 155.48437,32.50131"
       bendpath2="m 131.86303,80.252572 v 7.751442"
       bendpath3="m 102.18973,148.54 47.43601,-33.26191"
       bendpath4="m 120.43224,80.252572 v 7.751442"
       bendpath1-nodetypes="cc"
       bendpath3-nodetypes="cc" />
    <inkscape:path-effect
       effect="envelope"
       id="path-effect377"
       is_visible="true"
       lpeversion="1"
       yy="true"
       xx="false"
       bendpath1="M 10.5305,40.627797 86.125738,59.904584"
       bendpath2="m 54.600121,75.338876 v 7.751443"
       bendpath3="m 13.554309,122.27065 71.815474,27.21429"
       bendpath4="m 42.947122,75.338876 v 7.751443"
       bendpath1-nodetypes="cc"
       bendpath3-nodetypes="cc" />
    <inkscape:path-effect
       effect="envelope"
       id="path-effect292"
       is_visible="true"
       lpeversion="1"
       yy="true"
       xx="false"
       bendpath1="M 72.707582,5.2870248 142.63318,20.784048"
       bendpath2="m 88.175061,16.742236 v 7.75144"
       bendpath3="M 20.052623,26.218846 91.606391,42.895654"
       bendpath4="m 82.800729,16.742236 v 7.75144"
       bendpath1-nodetypes="cc"
       bendpath3-nodetypes="cc" />
    <inkscape:path-effect
       effect="envelope"
       id="path-effect283"
       is_visible="true"
       lpeversion="1"
       yy="true"
       xx="false"
       bendpath1="M 103.13466,59.526608 155.48437,32.50131"
       bendpath2="m 145.92566,83.654362 v 7.622249"
       bendpath3="m 102.18973,148.54 47.43601,-33.26191"
       bendpath4="m 134.33467,83.654362 v 7.622249"
       bendpath1-nodetypes="cc"
       bendpath3-nodetypes="cc" />
    <inkscape:path-effect
       effect="envelope"
       id="path-effect272"
       is_visible="true"
       lpeversion="1"
       yy="true"
       xx="false"
       bendpath1="M 10.5305,40.627797 86.125738,59.904584"
       bendpath2="m 41.982214,63.243646 v 7.75144"
       bendpath3="m 13.554309,122.27065 71.815474,27.21429"
       bendpath4="m 30.473909,63.243646 v 7.75144"
       bendpath1-nodetypes="cc"
       bendpath3-nodetypes="cc" />
    <inkscape:path-effect
       effect="envelope"
       id="path-effect132"
       is_visible="true"
       lpeversion="1"
       yy="true"
       xx="true"
       bendpath1="M 15.354861,44.722804 80.302503,63.243638"
       bendpath2="M 79.924527,63.243638 79.546551,140.16472"
       bendpath3="m 18.378671,120.13199 61.16788,19.65476"
       bendpath4="m 15.354861,44.722804 1.511905,74.275256"
       bendpath1-nodetypes="cc"
       bendpath2-nodetypes="cc"
       bendpath3-nodetypes="cc"
       bendpath4-nodetypes="cc" />
    <inkscape:path-effect
       effect="envelope"
       id="path-effect1206"
       is_visible="true"
       lpeversion="1"
       yy="true"
       xx="true"
       bendpath1="M 73.232886,6.6145831 139.3625,20.899397"
       bendpath2="M 139.3625,20.899397 91.714578,42.466967"
       bendpath3="M 25.591674,25.969651 91.714578,42.466967"
       bendpath4="M 73.232886,6.6145831 25.591674,25.969651"
       bendpath1-nodetypes="cc"
       bendpath2-nodetypes="cc"
       bendpath3-nodetypes="cc"
       bendpath4-nodetypes="cc" />
    <inkscape:path-effect
       effect="envelope"
       id="path-effect1197"
       is_visible="true"
       lpeversion="1"
       yy="true"
       xx="true"
       bendpath1="M 106.96726,64.255952 151.81001,40.409875"
       bendpath2="m 151.81001,40.409875 -4.44122,72.973475"
       bendpath3="m 106.21131,140.04017 41.15748,-26.65682"
       bendpath4="m 106.96726,64.255952 -0.75595,75.784218"
       bendpath1-nodetypes="cc"
       bendpath2-nodetypes="cc"
       bendpath3-nodetypes="cc"
       bendpath4-nodetypes="cc" />
    <inkscape:path-effect
       effect="envelope"
       id="path-effect1186"
       is_visible="true"
       lpeversion="1"
       yy="true"
       xx="true"
       bendpath1="M 12.095238,44.60119 83.15476,63.122023"
       bendpath2="M 83.15476,63.122023 83.06027,146.74926"
       bendpath3="m 15.686012,121.70834 67.374254,25.04092"
       bendpath4="m 12.095238,44.60119 3.590774,77.10715"
       bendpath1-nodetypes="cc"
       bendpath2-nodetypes="cc"
       bendpath3-nodetypes="cc"
       bendpath4-nodetypes="cc" />
    <inkscape:path-effect
       effect="dashed_stroke"
       id="path-effect246"
       is_visible="true"
       lpeversion="1"
       numberdashes="17"
       holefactor="0.99999"
       splitsegments="false"
       halfextreme="false"
       unifysegment="false"
       message="Add &lt;b&gt;&quot;Fill Between Many LPE&quot;&lt;/b&gt; to add fill." />
    <inkscape:path-effect
       effect="envelope"
       id="path-effect156"
       is_visible="true"
       lpeversion="1"
       yy="true"
       xx="true"
       bendpath1="M 87.406074,33.948002 104.29095,21.089444"
       bendpath2="m 104.29095,21.089444 -4.02636,48.96645"
       bendpath3="M 84.288834,92.525779 100.26459,70.055894"
       bendpath4="m 87.406074,33.948002 -3.11724,58.577777"
       bendpath1-nodetypes="cc"
       bendpath2-nodetypes="cc"
       bendpath3-nodetypes="cc"
       bendpath4-nodetypes="cc" />
    <inkscape:path-effect
       effect="envelope"
       id="path-effect145"
       is_visible="true"
       lpeversion="1"
       yy="true"
       xx="true"
       bendpath1="m 8.3563621,25.379013 65.8805439,8.1793"
       bendpath2="m 74.236906,33.558313 -3.56914,67.070237"
       bendpath3="M 11.033223,86.946843 70.667766,100.62855"
       bendpath4="m 8.3563621,25.379013 2.6768609,61.56783"
       bendpath1-nodetypes="cc"
       bendpath2-nodetypes="cc"
       bendpath3-nodetypes="cc"
       bendpath4-nodetypes="cc" />
  </defs>
  <sodipodi:namedview
     id="base"
     pagecolor="#ffffff"
     bordercolor="#666666"
     borderopacity="1.0"
     inkscape:pageopacity="0.0"
     inkscape:pageshadow="2"
     inkscape:zoom="0.7"
     inkscape:cx="183.61616"
     inkscape:cy="259.27224"
     inkscape:document-units="mm"
     inkscape:current-layer="layer1"
     inkscape:document-rotation="0"
     showgrid="false"
     fit-margin-top="0"
     fit-margin-left="0"
     fit-margin-right="0"
     fit-margin-bottom="0"
     inkscape:window-width="1431"
     inkscape:window-height="1030"
     inkscape:window-x="128"
     inkscape:window-y="0"
     inkscape:window-maximized="0" />
  <metadata
     id="metadata5">
    <rdf:RDF>
      <cc:Work
         rdf:about="">
        <dc:format>image/svg+xml</dc:format>
        <dc:type
           rdf:resource="http://purl.org/dc/dcmitype/StillImage" />
        <dc:title></dc:title>
      </cc:Work>
    </rdf:RDF>
  </metadata>
  <g
     inkscape:label="Layer 1"
     inkscape:groupmode="layer"
     id="layer1"
     transform="translate(0.43080961,0.19363)">
    <text
       xml:space="preserve"
       style="font-style:normal;font-weight:normal;font-size:10.5833px;line-height:1.25;font-family:sans-serif;fill:#000000;fill-opacity:1;stroke:none;stroke-width:0.264583"
       x="22.300594"
       y="46.491074"
       id="text127"><tspan
         sodipodi:role="line"
         id="tspan125"
         x="22.300594"
         y="46.491074"
         style="stroke-width:0.264583" /></text>
    <path
       style="fill:none;stroke:#696969;stroke-width:0.529167;stroke-linecap:butt;stroke-linejoin:miter;stroke-miterlimit:4;stroke-dasharray:none;stroke-opacity:1"
       d="M 0.43080844,27.321486 96.113298,51.910281 95.04422,164.16349 4.1725816,132.09115 Z"
       id="path223" />
    <path
       style="fill:none;stroke:#696969;stroke-width:0.529167;stroke-linecap:butt;stroke-linejoin:miter;stroke-miterlimit:4;stroke-dasharray:none;stroke-opacity:1"
       d="M 0.43080844,27.321486 70.054521,0.19362949 161.32706,19.837939 96.113296,51.910281 Z"
       id="path225" />
    <path
       style="fill:none;stroke:#696969;stroke-width:0.529167;stroke-linecap:butt;stroke-linejoin:miter;stroke-miterlimit:4;stroke-dasharray:none;stroke-opacity:1"
       d="M 96.113296,51.910281 161.32706,19.837939 155.71441,123.00398 95.044218,164.16349 Z"
       id="path227" />
    <path
       style="fill:none;stroke:#696969;stroke-width:0.529167;stroke-linecap:butt;stroke-linejoin:miter;stroke-miterlimit:4;stroke-dasharray:4.23333, 4.23333;stroke-dashoffset:0;stroke-opacity:1"
       d="M 4.1725816,132.09115 69.920885,96.009753 155.71441,123.00398 95.044218,164.16349 Z"
       id="path229" />
    <path
       style="fill:none;stroke:#696969;stroke-width:0.529167;stroke-linecap:butt;stroke-linejoin:miter;stroke-miterlimit:4;stroke-dasharray:4.23333, 4.23333;stroke-dashoffset:0;stroke-opacity:1"
       d="M 4.1725816,132.09115 69.920885,96.009753 70.054521,0.19362949 0.43080844,27.321486 Z"
       id="path231" />
    <path
       style="fill:none;stroke:#696969;stroke-width:0.529167;stroke-linecap:butt;stroke-linejoin:miter;stroke-miterlimit:4;stroke-dasharray:4.23333, 4.23333;stroke-dashoffset:0;stroke-opacity:1"
       d="M 70.054521,0.19362949 161.32706,19.837939 155.71441,123.00398 69.920885,96.009753 Z"
       id="path233" />
    <g
       aria-label="6"
       id="text478"
       style="font-size:10.5833px;line-height:1.25;font-family:'Arial Rounded MT Bold';-inkscape-font-specification:'Arial Rounded MT Bold, Normal';stroke-width:0.264583"
       inkscape:path-effect="#path-effect483">
      <path
         d="m 31.137998,82.831185 c 3.122692,-2.026168 6.564473,-3.223642 10.314613,-3.565751 3.74865,-0.341963 7.976499,0.163453 12.659807,1.547362 4.497001,1.328855 8.643459,3.241983 12.433355,5.772355 3.836973,2.505554 7.166744,5.482963 9.989478,8.950121 2.86951,3.441711 5.061266,7.177408 6.581739,11.203508 1.519969,4.02478 2.251952,7.97937 2.209259,11.83593 -0.06206,5.60582 -1.640499,10.18185 -4.692303,13.65347 -3.008296,3.49108 -7.180774,5.5066 -12.517775,6.05367 -5.294345,0.52562 -11.255931,-0.50978 -17.939017,-3.03313 -7.67836,-2.89913 -14.33515,-6.96368 -19.977775,-12.06565 -5.644206,-5.10341 -10.058581,-11.11024 -13.230323,-17.97955 -3.128782,-6.894389 -4.866885,-14.506203 -5.179034,-22.910463 -0.254562,-6.853818 0.415645,-12.697138 2.050581,-17.59418 1.6339,-4.893979 4.120936,-8.672403 7.477459,-11.344182 3.354335,-2.670047 7.507584,-4.310574 12.44788,-4.895894 4.937551,-0.584992 10.628943,-0.09127 17.031289,1.533376 6.168445,1.565296 11.598653,3.896613 16.287914,7.052516 4.73581,3.167261 8.275615,6.529058 10.633918,10.082769 2.404531,3.564015 3.597529,6.71369 3.597067,9.409979 -2.79e-4,1.626091 -0.739894,2.906628 -2.213114,3.831288 -1.47391,0.885545 -3.3471,0.994975 -5.62643,0.339704 -1.993872,-0.573206 -3.847666,-1.616072 -5.564787,-3.118381 -1.717234,-1.541177 -2.990383,-3.337958 -3.817648,-5.38926 -1.118777,-2.638024 -2.881123,-4.976838 -5.290996,-7.016983 -2.410648,-2.078975 -5.197558,-3.532271 -8.356998,-4.38163 -2.53623,-0.68182 -5.060799,-0.771067 -7.566507,-0.284572 -2.458617,0.461564 -4.520752,1.432576 -6.184563,2.908383 -3.379624,3.019133 -5.204298,9.476121 -5.557089,19.405195 z m 19.402376,41.342205 c 4.654155,1.67816 8.491449,1.5032 11.544641,-0.58551 3.048959,-2.12438 4.593891,-5.81597 4.595721,-11.02401 0.0012,-3.5369 -0.723562,-6.80737 -2.181959,-9.79561 -1.458904,-3.027819 -3.461136,-5.590774 -6.008014,-7.696617 -2.546981,-2.144196 -5.351651,-3.681014 -8.408459,-4.631774 -2.914776,-0.906585 -5.70415,-1.14817 -8.358209,-0.743983 -2.607275,0.418957 -4.705998,1.545075 -6.294692,3.37238 -1.543465,1.805906 -2.276394,4.262372 -2.212325,7.390444 0.102885,5.02324 1.808872,9.76579 5.091165,14.27549 3.280379,4.50709 7.35272,7.6798 12.232131,9.43919 z"
         style="stroke-width:0.264583"
         id="path480"
         inkscape:original-d="m 37.772094,85.288798 q 0.351398,-0.418577 0.764808,-0.620115 0.413411,-0.201537 0.925006,-0.201537 0.490924,0 0.904334,0.186034 0.418578,0.180867 0.728636,0.521931 0.315225,0.335895 0.485757,0.795814 0.170531,0.459919 0.170531,0.961179 0,0.728635 -0.335895,1.322912 -0.330729,0.594277 -0.930173,0.930173 -0.594277,0.330728 -1.348751,0.330728 -0.868161,0 -1.498612,-0.423745 -0.63045,-0.423746 -0.966346,-1.250566 -0.330728,-0.831988 -0.330728,-2.030877 0,-0.976682 0.201538,-1.746658 0.201537,-0.769977 0.578774,-1.276404 0.377236,-0.506427 0.91467,-0.764809 0.537433,-0.258381 1.224727,-0.258381 0.661456,0 1.162716,0.258381 0.506428,0.258382 0.759641,0.640786 0.258382,0.382404 0.258382,0.733803 0,0.211873 -0.160197,0.387572 -0.160196,0.170532 -0.408242,0.170532 -0.217041,0 -0.403075,-0.134359 -0.186035,-0.139526 -0.273884,-0.382404 -0.118856,-0.310058 -0.377237,-0.496092 -0.258381,-0.191202 -0.599445,-0.191202 -0.273884,0 -0.547768,0.160196 -0.268717,0.155029 -0.454751,0.423745 -0.377237,0.547769 -0.444416,1.953363 z m 1.395259,3.209097 q 0.52193,0 0.862994,-0.423746 0.341063,-0.428913 0.341063,-1.121375 0,-0.470254 -0.160196,-0.80615 -0.160197,-0.341063 -0.439249,-0.516762 -0.279052,-0.180867 -0.614947,-0.180867 -0.320393,0 -0.614948,0.170531 -0.289387,0.170532 -0.470254,0.496093 -0.175699,0.320392 -0.175699,0.754473 0,0.69763 0.361734,1.162716 0.361733,0.465087 0.909502,0.465087 z" />
    </g>
    <g
       aria-label="16"
       id="text487"
       style="font-size:10.5833px;line-height:1.25;font-family:'Arial Rounded MT Bold';-inkscape-font-specification:'Arial Rounded MT Bold, Normal';stroke-width:0.264583"
       inkscape:path-effect="#path-effect494">
      <path
         d="m 111.33928,131.75846 c 0.24244,-17.67748 0.59461,-35.421333 1.05651,-53.231573 -4.08079,9.83505 -6.66554,15.184668 -8.00966,15.973062 -0.63259,0.371047 -1.1883,0.0506 -1.66934,-0.966414 -0.46528,-1.06512 -0.68828,-2.472753 -0.66493,-4.218351 0.0271,-2.024135 0.29126,-3.650197 0.79375,-4.877773 0.50158,-1.22538 1.38473,-2.942993 2.65202,-5.134608 1.89432,-3.284959 3.43209,-6.465024 4.6053,-9.545853 1.18863,-3.089184 2.26555,-6.393876 3.23041,-9.911794 0.96106,-3.504171 1.60557,-5.706819 1.89074,-6.535261 0.29021,-0.842718 0.80381,-1.452439 1.54056,-1.831342 0.83098,-0.427359 1.46781,0.03137 1.90832,1.369211 0.44092,1.339003 0.60629,3.405154 0.50353,6.206044 -0.8169,22.266243 -1.46008,44.427392 -1.92952,66.483442 -0.16454,7.73048 -1.20855,12.28883 -3.15026,13.64571 -0.86631,0.60538 -1.55122,0.29986 -2.05773,-0.92456 -0.50591,-1.22298 -0.74231,-3.39253 -0.6997,-6.49997 0,1e-5 0,2e-5 0,3e-5 z"
         style="stroke-width:0.264583"
         id="path489"
         inkscape:original-d="m 132.57989,97.750188 v -4.70254 q -1.31258,1.007687 -1.76733,1.007687 -0.21704,0 -0.38757,-0.170532 -0.16536,-0.175699 -0.16536,-0.403075 0,-0.263549 0.16536,-0.387572 0.16536,-0.124023 0.58394,-0.320393 0.62528,-0.294554 0.99735,-0.620115 0.37724,-0.32556 0.66663,-0.728635 0.28938,-0.403075 0.37723,-0.496092 0.0879,-0.09302 0.33073,-0.09302 0.27389,0 0.43925,0.211873 0.16537,0.211873 0.16537,0.583942 v 5.916932 q 0,1.038693 -0.70797,1.038693 -0.31523,0 -0.50643,-0.211872 -0.1912,-0.211873 -0.1912,-0.625283 z" />
      <path
         d="m 134.76902,79.927622 c 1.17207,-3.668626 2.40868,-6.583411 3.69982,-8.753247 1.29128,-2.170068 2.69179,-3.679877 4.19322,-4.542541 1.44038,-0.827579 2.72566,-0.915951 3.84842,-0.276483 1.14052,0.593589 2.07886,1.848124 2.81473,3.758036 0.75366,1.864686 1.26034,4.284695 1.52683,7.265077 0.26653,2.980441 0.27573,6.246638 0.0375,9.811444 -0.3461,5.178447 -1.12751,10.184193 -2.32532,15.033152 -1.18304,4.83799 -2.66591,9.03326 -4.44859,12.57203 -1.76706,3.49327 -3.67713,5.98009 -5.75007,7.42868 -2.38603,1.66737 -4.37832,1.58047 -6.00283,-0.3055 -1.62193,-1.88297 -2.8023,-5.54612 -3.52223,-10.99238 -0.70296,-5.48553 -0.90283,-12.683457 -0.54466,-21.519182 0.29217,-7.207791 0.86293,-13.829861 1.72027,-19.857278 0.85731,-6.027227 1.95095,-11.211131 3.27796,-15.555213 1.32691,-4.343702 2.86343,-7.880915 4.60195,-10.624148 1.73843,-2.743057 3.6569,-4.639691 5.74238,-5.712219 2.00633,-1.031824 3.70577,-0.997796 5.08605,0.08279 1.39618,1.072695 2.36757,2.778826 2.92109,5.122068 0.56896,2.334851 0.7546,4.755061 0.56695,7.273655 -0.11313,1.518405 -0.45388,3.038502 -1.0193,4.563154 -0.56264,1.487447 -1.20862,2.439531 -1.94087,2.851672 -0.64083,0.360682 -1.20239,0.212811 -1.68684,-0.447655 -0.48174,-0.697503 -0.79497,-1.852068 -0.93763,-3.462967 -0.20204,-2.045691 -0.64262,-3.533511 -1.32544,-4.465081 -0.67997,-0.968572 -1.53329,-1.183122 -2.55554,-0.635364 -0.82081,0.439819 -1.67904,1.462757 -2.56909,3.074482 -0.87249,1.565999 -1.64228,3.48308 -2.308,5.754013 -1.35207,4.629004 -2.39643,12.151754 -3.10074,22.559007 z m 4.24242,31.202558 c 1.45341,-0.97731 2.73145,-3.3137 3.85154,-6.98563 1.12169,-3.70772 1.83465,-8.041424 2.12817,-13.005664 0.19955,-3.375041 0.14686,-6.123616 -0.16759,-8.258042 -0.312,-2.170468 -0.83254,-3.647843 -1.56435,-4.430918 -0.72927,-0.819969 -1.58297,-0.943194 -2.55646,-0.361559 -0.92855,0.554787 -1.85451,1.705378 -2.77174,3.458647 -0.90253,1.744715 -1.67275,3.961923 -2.3087,6.655455 -0.61929,2.646862 -0.99948,5.55506 -1.14497,8.721133 -0.23367,5.084828 0.0949,8.995128 0.95678,11.699368 0.86315,2.70813 2.05207,3.53282 3.57732,2.50721 z"
         style="stroke-width:0.264583"
         id="path491"
         inkscape:original-d="m 137.79919,94.360225 q 0.3514,-0.418578 0.76481,-0.620115 0.41341,-0.201538 0.92501,-0.201538 0.49092,0 0.90433,0.186035 0.41858,0.180867 0.72864,0.52193 0.31522,0.335896 0.48575,0.795814 0.17054,0.459919 0.17054,0.961179 0,0.728635 -0.3359,1.322913 -0.33073,0.594277 -0.93017,0.930172 -0.59428,0.330728 -1.34875,0.330728 -0.86816,0 -1.49861,-0.423745 -0.63045,-0.423745 -0.96635,-1.250566 -0.33073,-0.831988 -0.33073,-2.030877 0,-0.976681 0.20154,-1.746658 0.20154,-0.769976 0.57877,-1.276404 0.37724,-0.506427 0.91467,-0.764808 0.53744,-0.258382 1.22473,-0.258382 0.66146,0 1.16272,0.258382 0.50642,0.258381 0.75964,0.640785 0.25838,0.382405 0.25838,0.733803 0,0.211873 -0.1602,0.387572 -0.16019,0.170532 -0.40824,0.170532 -0.21704,0 -0.40308,-0.134358 -0.18603,-0.139526 -0.27388,-0.382405 -0.11885,-0.310057 -0.37724,-0.496092 -0.25838,-0.191202 -0.59944,-0.191202 -0.27388,0 -0.54777,0.160196 -0.26872,0.155029 -0.45475,0.423746 -0.37724,0.547768 -0.44442,1.953363 z m 1.39526,3.209096 q 0.52193,0 0.863,-0.423745 0.34106,-0.428913 0.34106,-1.121375 0,-0.470254 -0.1602,-0.80615 -0.16019,-0.341064 -0.43924,-0.516763 -0.27906,-0.180867 -0.61495,-0.180867 -0.3204,0 -0.61495,0.170532 -0.28939,0.170532 -0.47025,0.496092 -0.1757,0.320393 -0.1757,0.754474 0,0.697629 0.36173,1.162716 0.36173,0.465086 0.9095,0.465086 z" />
    </g>
    <g
       aria-label="20"
       id="text498"
       style="font-size:10.5833px;line-height:1.25;font-family:'Arial Rounded MT Bold';-inkscape-font-specification:'Arial Rounded MT Bold, Normal';stroke-width:0.264583"
       inkscape:path-effect="#path-effect505">
      <path
         d="m 39.718805,25.009266 16.728105,3.866109 c 1.666313,0.385109 2.567365,0.830973 2.704138,1.338594 0.136738,0.507489 -0.429548,1.024054 -1.700176,1.548419 -1.132168,0.467226 -2.444044,0.780824 -3.937396,0.940201 -1.471904,0.16436 -2.915558,0.0814 -4.330881,-0.248204 l -23.67076,-5.512494 c -1.608194,-0.374519 -2.382596,-0.857718 -2.322041,-1.448335 0.08399,-0.600029 0.783036,-1.159495 2.095514,-1.679908 0.843965,-0.334642 2.245485,-0.708846 4.204591,-1.124293 1.982137,-0.424663 3.712167,-0.716936 5.190351,-0.876333 6.070797,-0.632114 11.370587,-1.149291 15.933835,-1.548307 4.5877,-0.4085 7.710917,-0.649886 9.413567,-0.719733 3.08832,-0.149857 5.876373,-0.369608 8.365744,-0.658106 2.533786,-0.293144 4.802478,-0.662121 6.807783,-1.105885 2.049535,-0.44844 3.756586,-0.952816 5.122701,-1.511779 1.481839,-0.606312 2.474656,-1.219985 2.97967,-1.839605 0.549276,-0.624422 0.590948,-1.193528 0.125191,-1.707166 -0.444778,-0.508994 -1.31832,-0.908457 -2.621981,-1.199438 -2.753431,-0.614575 -6.256943,-0.557026 -10.51459,0.166729 -0.560809,0.09351 -1.87227,0.397267 -3.940699,0.911101 -2.046721,0.518408 -3.806926,0.874215 -5.280607,1.067929 -1.452553,0.198474 -2.781415,0.161333 -3.986372,-0.110742 -1.056876,-0.238639 -1.548462,-0.59058 -1.473953,-1.055043 0.07453,-0.464567 0.778915,-0.961455 2.112224,-1.491805 1.613992,-0.641998 3.62467,-1.2383214 6.030268,-1.7908029 2.405275,-0.5524057 4.961534,-0.9703167 7.666108,-1.2544532 2.725521,-0.2794533 5.505339,-0.3740018 8.337846,-0.2833302 2.876875,0.085956 5.645258,0.4227201 8.306955,1.0126143 3.206987,0.710743 5.385714,1.543361 6.541378,2.501815 0.728352,0.629543 1.002469,1.334517 0.822803,2.115292 -0.179656,0.780714 -0.817399,1.592527 -1.913999,2.4345 -1.052495,0.837154 -2.488859,1.633375 -4.310989,2.386921 -2.86057,1.182997 -6.120986,2.113215 -9.789978,2.787101 -3.624237,0.669072 -6.787995,1.123179 -9.488694,1.364207 -2.654614,0.229555 -7.066901,0.566511 -13.113473,0.989269 -6.054828,0.429708 -10.46464,0.819236 -13.24998,1.18266 -1.141364,0.135323 -2.421936,0.319491 -3.842203,0.552301 z"
         style="stroke-width:0.264583"
         id="path500"
         inkscape:original-d="m 86.219485,15.595738 h 2.697501 q 0.403075,0 0.614948,0.165364 0.211873,0.165364 0.211873,0.449584 0,0.253213 -0.170532,0.428913 -0.165364,0.175699 -0.506428,0.175699 h -3.803373 q -0.387572,0 -0.604612,-0.211873 -0.217041,-0.21704 -0.217041,-0.506427 0,-0.186035 0.139526,-0.490925 0.139526,-0.310057 0.30489,-0.485757 0.687295,-0.713132 1.240231,-1.219559 0.552936,-0.511595 0.790647,-0.671792 0.423745,-0.299722 0.702797,-0.599445 0.284219,-0.30489 0.428913,-0.620115 0.149861,-0.320393 0.149861,-0.625283 0,-0.330728 -0.160196,-0.589109 -0.155029,-0.263549 -0.428913,-0.408243 -0.268717,-0.144693 -0.58911,-0.144693 -0.676959,0 -1.064531,0.594277 -0.05168,0.07751 -0.175699,0.423745 -0.118856,0.346231 -0.273884,0.532266 -0.149862,0.186034 -0.444416,0.186034 -0.258382,0 -0.428913,-0.170531 -0.170532,-0.170532 -0.170532,-0.465087 0,-0.356566 0.160196,-0.744138 0.160197,-0.387572 0.475422,-0.7027972 0.320393,-0.3152252 0.80615,-0.5064274 0.490924,-0.1963698 1.147213,-0.1963698 0.790647,0 1.348751,0.2480461 0.361733,0.165364 0.635618,0.4547511 0.273884,0.2893872 0.423745,0.6717912 0.155029,0.377237 0.155029,0.78548 0,0.640785 -0.320393,1.167883 -0.315225,0.521931 -0.645953,0.821653 -0.330728,0.294555 -1.11104,0.930173 -0.775144,0.635618 -1.064531,0.987016 -0.124023,0.139526 -0.253214,0.335896 z" />
      <path
         d="m 116.40886,31.818027 c -3.72101,1.61139 -7.13134,2.947227 -10.23729,4.007957 -3.1055,1.060574 -6.324409,1.928329 -9.661688,2.602024 -4.136969,0.820085 -8.091243,1.27238 -11.865828,1.358324 -3.77394,0.08593 -7.079326,-0.20342 -9.910856,-0.863318 -3.260365,-0.75984 -5.203277,-1.85877 -5.8196,-3.289347 -0.595107,-1.4261 0.206907,-3.017015 2.40394,-4.775336 1.249003,-0.948778 2.865405,-1.938279 4.848724,-2.969812 2.027704,-1.036284 4.388343,-2.114155 7.081721,-3.235334 3.47519,-1.446626 6.775338,-2.711883 9.895684,-3.795683 3.120487,-1.083851 6.039459,-1.963408 8.753563,-2.638426 4.54933,-1.104356 8.86072,-1.757765 12.92765,-1.958861 4.11176,-0.206125 7.7996,0.05016 11.06869,0.774615 2.15891,0.478431 3.73095,1.077881 4.71882,1.800349 1.01063,0.712715 1.43883,1.534005 1.28565,2.464755 -0.10944,0.925537 -0.77849,1.95824 -2.00719,3.097594 -2.14087,1.975009 -6.63452,4.455158 -13.48203,7.420492 10e-6,2e-6 2e-5,5e-6 4e-5,7e-6 z m -8.03289,-2.275302 c 4.16608,-1.785369 7.3384,-3.298725 9.51374,-4.534392 2.19899,-1.245926 3.42313,-2.279351 3.67272,-3.098634 0.27247,-0.829356 -0.55741,-1.458749 -2.49159,-1.890434 -2.77381,-0.619081 -6.23016,-0.40656 -10.36934,0.632806 -4.11541,1.043408 -9.358242,2.902 -15.705978,5.572903 -4.311668,1.814197 -7.60815,3.351447 -9.892878,4.617611 -2.283798,1.265649 -3.580997,2.32566 -3.891278,3.181778 -0.287237,0.846125 0.521794,1.490658 2.425058,1.931331 1.967631,0.455576 4.238125,0.501376 6.810133,0.135181 2.572444,-0.366257 5.436913,-1.07804 8.59738,-2.135825 3.161193,-1.058028 6.935743,-2.528297 11.332033,-4.412325 z"
         style="stroke-width:0.264583"
         id="path502"
         inkscape:original-d="m 95.934624,13.099774 q 0,0.847491 -0.103353,1.457271 -0.103353,0.60978 -0.382404,1.105872 -0.351399,0.60978 -0.909503,0.940508 -0.558103,0.330728 -1.24023,0.330728 -0.785479,0 -1.410762,-0.444415 -0.620115,-0.444416 -0.935341,-1.229896 -0.160196,-0.428913 -0.23771,-0.945675 -0.07235,-0.521931 -0.07235,-1.126543 0,-0.780312 0.08268,-1.405594 0.08268,-0.625283 0.258381,-1.074867 0.30489,-0.744138 0.883664,-1.13171 0.583942,-0.3927397 1.390092,-0.3927397 0.532265,0 0.966346,0.1756993 0.434081,0.1705317 0.759641,0.5064275 0.330728,0.3307279 0.558104,0.8216529 0.39274,0.852658 0.39274,2.413281 z m -1.41593,-0.103352 q 0,-0.945676 -0.113688,-1.545121 -0.113688,-0.604612 -0.382404,-0.909502 -0.268717,-0.310057 -0.744139,-0.310057 -0.682126,0 -0.950843,0.687294 -0.263549,0.687294 -0.263549,2.118727 0,0.971514 0.113688,1.591629 0.113688,0.620115 0.382404,0.940508 0.268717,0.315225 0.728636,0.315225 0.475421,0 0.744138,-0.330728 0.268717,-0.330728 0.377237,-0.945676 0.10852,-0.614947 0.10852,-1.612299 z" />
    </g>
  </g>
</svg>
