<?xml version="1.0" encoding="UTF-8" standalone="no"?>
<svg
   xmlns:dc="http://purl.org/dc/elements/1.1/"
   xmlns:cc="http://creativecommons.org/ns#"
   xmlns:rdf="http://www.w3.org/1999/02/22-rdf-syntax-ns#"
   xmlns:svg="http://www.w3.org/2000/svg"
   xmlns="http://www.w3.org/2000/svg"
   xmlns:sodipodi="http://sodipodi.sourceforge.net/DTD/sodipodi-0.dtd"
   xmlns:inkscape="http://www.inkscape.org/namespaces/inkscape"
   width="162.55768mm"
   height="164.85959mm"
   viewBox="0 0 162.55768 164.85959"
   version="1.1"
   id="svg8"
   inkscape:version="1.0.2-2 (e86c870879, 2021-01-15)"
   sodipodi:docname="sums_on_cube_8_12_22.svg">
  <defs
     id="defs2">
    <inkscape:path-effect
       effect="envelope"
       id="path-effect292"
       is_visible="true"
       lpeversion="1"
       yy="true"
       xx="false"
       bendpath1="M 72.707582,5.2870248 142.63318,20.784048"
       bendpath2="m 88.175061,16.742236 v 7.75144"
       bendpath3="M 20.052623,26.218846 91.606391,42.895654"
       bendpath4="m 82.800729,16.742236 v 7.75144"
       bendpath1-nodetypes="cc"
       bendpath3-nodetypes="cc" />
    <inkscape:path-effect
       effect="envelope"
       id="path-effect283"
       is_visible="true"
       lpeversion="1"
       yy="true"
       xx="false"
       bendpath1="M 103.13466,59.526608 155.48437,32.50131"
       bendpath2="m 145.92566,83.654362 v 7.622249"
       bendpath3="m 102.18973,148.54 47.43601,-33.26191"
       bendpath4="m 134.33467,83.654362 v 7.622249"
       bendpath1-nodetypes="cc"
       bendpath3-nodetypes="cc" />
    <inkscape:path-effect
       effect="envelope"
       id="path-effect272"
       is_visible="true"
       lpeversion="1"
       yy="true"
       xx="false"
       bendpath1="M 10.5305,40.627797 86.125738,59.904584"
       bendpath2="m 41.982214,63.243646 v 7.75144"
       bendpath3="m 13.554309,122.27065 71.815474,27.21429"
       bendpath4="m 30.473909,63.243646 v 7.75144"
       bendpath1-nodetypes="cc"
       bendpath3-nodetypes="cc" />
    <inkscape:path-effect
       effect="envelope"
       id="path-effect132"
       is_visible="true"
       lpeversion="1"
       yy="true"
       xx="true"
       bendpath1="M 15.354861,44.722804 80.302503,63.243638"
       bendpath2="M 79.924527,63.243638 79.546551,140.16472"
       bendpath3="m 18.378671,120.13199 61.16788,19.65476"
       bendpath4="m 15.354861,44.722804 1.511905,74.275256"
       bendpath1-nodetypes="cc"
       bendpath2-nodetypes="cc"
       bendpath3-nodetypes="cc"
       bendpath4-nodetypes="cc" />
    <inkscape:path-effect
       effect="envelope"
       id="path-effect1206"
       is_visible="true"
       lpeversion="1"
       yy="true"
       xx="true"
       bendpath1="M 73.232886,6.6145831 139.3625,20.899397"
       bendpath2="M 139.3625,20.899397 91.714578,42.466967"
       bendpath3="M 25.591674,25.969651 91.714578,42.466967"
       bendpath4="M 73.232886,6.6145831 25.591674,25.969651"
       bendpath1-nodetypes="cc"
       bendpath2-nodetypes="cc"
       bendpath3-nodetypes="cc"
       bendpath4-nodetypes="cc" />
    <inkscape:path-effect
       effect="envelope"
       id="path-effect1197"
       is_visible="true"
       lpeversion="1"
       yy="true"
       xx="true"
       bendpath1="M 106.96726,64.255952 151.81001,40.409875"
       bendpath2="m 151.81001,40.409875 -4.44122,72.973475"
       bendpath3="m 106.21131,140.04017 41.15748,-26.65682"
       bendpath4="m 106.96726,64.255952 -0.75595,75.784218"
       bendpath1-nodetypes="cc"
       bendpath2-nodetypes="cc"
       bendpath3-nodetypes="cc"
       bendpath4-nodetypes="cc" />
    <inkscape:path-effect
       effect="envelope"
       id="path-effect1186"
       is_visible="true"
       lpeversion="1"
       yy="true"
       xx="true"
       bendpath1="M 12.095238,44.60119 83.15476,63.122023"
       bendpath2="M 83.15476,63.122023 83.06027,146.74926"
       bendpath3="m 15.686012,121.70834 67.374254,25.04092"
       bendpath4="m 12.095238,44.60119 3.590774,77.10715"
       bendpath1-nodetypes="cc"
       bendpath2-nodetypes="cc"
       bendpath3-nodetypes="cc"
       bendpath4-nodetypes="cc" />
    <inkscape:path-effect
       effect="dashed_stroke"
       id="path-effect246"
       is_visible="true"
       lpeversion="1"
       numberdashes="17"
       holefactor="0.99999"
       splitsegments="false"
       halfextreme="false"
       unifysegment="false"
       message="Add &lt;b&gt;&quot;Fill Between Many LPE&quot;&lt;/b&gt; to add fill." />
    <inkscape:path-effect
       effect="envelope"
       id="path-effect156"
       is_visible="true"
       lpeversion="1"
       yy="true"
       xx="true"
       bendpath1="M 87.406074,33.948002 104.29095,21.089444"
       bendpath2="m 104.29095,21.089444 -4.02636,48.96645"
       bendpath3="M 84.288834,92.525779 100.26459,70.055894"
       bendpath4="m 87.406074,33.948002 -3.11724,58.577777"
       bendpath1-nodetypes="cc"
       bendpath2-nodetypes="cc"
       bendpath3-nodetypes="cc"
       bendpath4-nodetypes="cc" />
    <inkscape:path-effect
       effect="envelope"
       id="path-effect145"
       is_visible="true"
       lpeversion="1"
       yy="true"
       xx="true"
       bendpath1="m 8.3563621,25.379013 65.8805439,8.1793"
       bendpath2="m 74.236906,33.558313 -3.56914,67.070237"
       bendpath3="M 11.033223,86.946843 70.667766,100.62855"
       bendpath4="m 8.3563621,25.379013 2.6768609,61.56783"
       bendpath1-nodetypes="cc"
       bendpath2-nodetypes="cc"
       bendpath3-nodetypes="cc"
       bendpath4-nodetypes="cc" />
  </defs>
  <sodipodi:namedview
     id="base"
     pagecolor="#ffffff"
     bordercolor="#666666"
     borderopacity="1.0"
     inkscape:pageopacity="0.0"
     inkscape:pageshadow="2"
     inkscape:zoom="0.7"
     inkscape:cx="183.61616"
     inkscape:cy="259.27224"
     inkscape:document-units="mm"
     inkscape:current-layer="layer1"
     inkscape:document-rotation="0"
     showgrid="false"
     fit-margin-top="0"
     fit-margin-left="0"
     fit-margin-right="0"
     fit-margin-bottom="0"
     inkscape:window-width="1431"
     inkscape:window-height="1030"
     inkscape:window-x="128"
     inkscape:window-y="0"
     inkscape:window-maximized="0" />
  <metadata
     id="metadata5">
    <rdf:RDF>
      <cc:Work
         rdf:about="">
        <dc:format>image/svg+xml</dc:format>
        <dc:type
           rdf:resource="http://purl.org/dc/dcmitype/StillImage" />
        <dc:title></dc:title>
      </cc:Work>
    </rdf:RDF>
  </metadata>
  <g
     inkscape:label="Layer 1"
     inkscape:groupmode="layer"
     id="layer1"
     transform="translate(0.43080961,0.19363)">
    <text
       xml:space="preserve"
       style="font-style:normal;font-weight:normal;font-size:10.5833px;line-height:1.25;font-family:sans-serif;fill:#000000;fill-opacity:1;stroke:none;stroke-width:0.264583"
       x="22.300594"
       y="46.491074"
       id="text127"><tspan
         sodipodi:role="line"
         id="tspan125"
         x="22.300594"
         y="46.491074"
         style="stroke-width:0.264583" /></text>
    <path
       style="fill:none;stroke:#696969;stroke-width:0.529167;stroke-linecap:butt;stroke-linejoin:miter;stroke-miterlimit:4;stroke-dasharray:none;stroke-opacity:1"
       d="M 0.43080844,27.321486 96.113298,51.910281 95.04422,164.16349 4.1725816,132.09115 Z"
       id="path223" />
    <path
       style="fill:none;stroke:#696969;stroke-width:0.529167;stroke-linecap:butt;stroke-linejoin:miter;stroke-miterlimit:4;stroke-dasharray:none;stroke-opacity:1"
       d="M 0.43080844,27.321486 70.054521,0.19362949 161.32706,19.837939 96.113296,51.910281 Z"
       id="path225" />
    <path
       style="fill:none;stroke:#696969;stroke-width:0.529167;stroke-linecap:butt;stroke-linejoin:miter;stroke-miterlimit:4;stroke-dasharray:none;stroke-opacity:1"
       d="M 96.113296,51.910281 161.32706,19.837939 155.71441,123.00398 95.044218,164.16349 Z"
       id="path227" />
    <path
       style="fill:none;stroke:#696969;stroke-width:0.529167;stroke-linecap:butt;stroke-linejoin:miter;stroke-miterlimit:4;stroke-dasharray:4.23333, 4.23333;stroke-dashoffset:0;stroke-opacity:1"
       d="M 4.1725816,132.09115 69.920885,96.009753 155.71441,123.00398 95.044218,164.16349 Z"
       id="path229" />
    <path
       style="fill:none;stroke:#696969;stroke-width:0.529167;stroke-linecap:butt;stroke-linejoin:miter;stroke-miterlimit:4;stroke-dasharray:4.23333, 4.23333;stroke-dashoffset:0;stroke-opacity:1"
       d="M 4.1725816,132.09115 69.920885,96.009753 70.054521,0.19362949 0.43080844,27.321486 Z"
       id="path231" />
    <path
       style="fill:none;stroke:#696969;stroke-width:0.529167;stroke-linecap:butt;stroke-linejoin:miter;stroke-miterlimit:4;stroke-dasharray:4.23333, 4.23333;stroke-dashoffset:0;stroke-opacity:1"
       d="M 70.054521,0.19362949 161.32706,19.837939 155.71441,123.00398 69.920885,96.009753 Z"
       id="path233" />
    <g
       aria-label="12"
       id="text265"
       style="font-size:10.5833px;line-height:1.25;font-family:'Arial Rounded MT Bold';-inkscape-font-specification:'Arial Rounded MT Bold, Normal';stroke-width:0.264583"
       inkscape:path-effect="#path-effect272">
      <path
         d="m 27.66481,118.04543 c -0.330322,-16.7886 -0.762648,-33.609419 -1.296979,-50.462458 -5.428302,5.578357 -9.099747,7.963736 -11.043357,7.372993 -0.931027,-0.282978 -1.784565,-1.137282 -2.563383,-2.557433 -0.758055,-1.449854 -1.170509,-2.971476 -1.235251,-4.569094 -0.07505,-1.851962 0.224726,-3.10976 0.903215,-3.776842 0.678724,-0.667319 1.893055,-1.432338 3.649913,-2.308049 2.623674,-1.316535 4.704006,-2.920609 6.235665,-4.801703 1.553947,-1.874735 2.912187,-4.093903 4.072577,-6.656898 1.161407,-2.565243 1.922748,-4.139545 2.284666,-4.713043 0.361096,-0.57222 1.07389,-0.723942 2.137928,-0.453634 1.200129,0.304881 2.187723,1.315262 2.959926,3.038496 0.772157,1.723137 1.197548,3.937458 1.277071,6.639151 0.632143,21.476289 1.102795,42.901568 1.411957,64.275834 0.108733,7.51743 -1.333259,10.69208 -4.271937,9.5816 -1.311635,-0.49564 -2.377411,-1.65399 -3.200266,-3.4662 -0.822905,-1.81233 -1.263688,-4.19195 -1.321746,-7.14275 0,1e-5 10e-7,2e-5 10e-7,3e-5 z"
         style="stroke-width:0.264583"
         id="path267"
         inkscape:original-d="m 32.794174,70.157933 v -4.70254 q -1.312578,1.007687 -1.767329,1.007687 -0.21704,0 -0.387572,-0.170532 -0.165364,-0.175699 -0.165364,-0.403074 0,-0.263549 0.165364,-0.387572 0.165364,-0.124024 0.583942,-0.320393 0.625283,-0.294555 0.997352,-0.620116 0.377237,-0.32556 0.666624,-0.728635 0.289387,-0.403075 0.377237,-0.496092 0.08785,-0.09302 0.330728,-0.09302 0.273884,0 0.439248,0.211872 0.165364,0.211873 0.165364,0.583942 v 5.916933 q 0,1.038693 -0.707965,1.038693 -0.315225,0 -0.506427,-0.211873 -0.191202,-0.211873 -0.191202,-0.625283 z" />
      <path
         d="m 63.235631,125.24664 16.994647,6.04001 c 1.693487,0.60188 2.976548,1.69259 3.848173,3.28074 0.871392,1.58772 1.28896,3.47599 1.254571,5.66076 -0.03063,1.94589 -0.414289,3.46289 -1.147201,4.54558 -0.711465,1.09089 -1.776768,1.36671 -3.197516,0.83292 l -23.765266,-8.92891 c -1.613972,-0.60639 -2.873869,-1.8649 -3.782189,-3.76488 -0.90866,-1.93866 -1.369103,-3.97091 -1.378045,-6.10348 -0.0057,-1.37118 0.277964,-3.07426 0.852879,-5.11628 0.574843,-2.08057 1.207009,-3.65134 1.89748,-4.70998 2.871607,-4.27505 5.477279,-7.93685 7.81558,-10.95888 2.339651,-3.06266 4.015644,-5.05151 5.03021,-5.9392 1.803937,-1.685163 3.30469,-3.483757 4.498585,-5.388066 1.215995,-1.936657 2.136325,-4.015225 2.757316,-6.228444 0.643207,-2.245974 0.964897,-4.534974 0.961317,-6.858601 -0.0039,-2.520913 -0.355378,-4.864983 -1.057027,-7.026298 -0.679453,-2.194684 -1.618176,-4.002527 -2.815802,-5.425508 -1.175077,-1.416765 -2.461275,-2.309753 -3.855549,-2.686305 -2.946651,-0.795804 -5.239078,0.822675 -6.867345,4.802889 -0.217604,0.518569 -0.579799,1.998312 -1.087544,4.435174 -0.485213,2.442218 -1.055098,4.257979 -1.707823,5.448932 -0.630807,1.198135 -1.57889,1.605718 -2.846084,1.229247 -1.111436,-0.330196 -2.04213,-1.237835 -2.794319,-2.716926 -0.752215,-1.479154 -1.146335,-3.306636 -1.181095,-5.4857 -0.04209,-2.638438 0.257653,-5.293076 0.903756,-7.974594 0.646124,-2.681609 1.634221,-5.01084 2.96907,-6.994119 1.357302,-1.977192 3.087282,-3.410339 5.19099,-4.297446 2.12496,-0.919686 4.630205,-1.023459 7.504919,-0.293168 3.465298,0.880324 6.426904,2.569332 8.879662,5.096127 1.58938,1.672277 2.984572,3.775401 4.183713,6.314402 1.199112,2.538941 2.121902,5.371423 2.769365,8.49575 0.669858,3.090303 0.996949,6.213153 0.985647,9.359003 -0.01774,4.937224 -0.733233,9.235367 -2.12763,12.862636 -1.372207,3.594785 -2.769141,6.306035 -4.190136,8.144995 -1.411461,1.78768 -3.813426,4.59889 -7.125716,8.294 -3.300189,3.71335 -5.545345,6.63304 -6.769203,8.84419 -0.52365,0.8633 -1.057782,1.93354 -1.60239,3.20943 z"
         style="stroke-width:0.264583"
         id="path269"
         inkscape:original-d="m 38.457893,69.646338 h 2.697501 q 0.403075,0 0.614947,0.165364 0.211873,0.165364 0.211873,0.449584 0,0.253214 -0.170532,0.428913 -0.165364,0.175699 -0.506427,0.175699 h -3.803373 q -0.387572,0 -0.604613,-0.211873 -0.21704,-0.21704 -0.21704,-0.506427 0,-0.186035 0.139526,-0.490925 0.139526,-0.310057 0.30489,-0.485756 0.687294,-0.713133 1.24023,-1.21956 0.552936,-0.511595 0.790647,-0.671792 0.423746,-0.299722 0.702798,-0.599445 0.284219,-0.30489 0.428913,-0.620115 0.149861,-0.320393 0.149861,-0.625283 0,-0.330728 -0.160197,-0.589109 -0.155028,-0.263549 -0.428913,-0.408243 -0.268716,-0.144693 -0.589109,-0.144693 -0.676959,0 -1.064531,0.594277 -0.05168,0.07751 -0.1757,0.423745 -0.118855,0.346231 -0.273884,0.532266 -0.149861,0.186034 -0.444416,0.186034 -0.258381,0 -0.428913,-0.170531 -0.170531,-0.170532 -0.170531,-0.465087 0,-0.356566 0.160196,-0.744138 0.160196,-0.387572 0.475422,-0.702797 0.320393,-0.315225 0.806149,-0.506428 0.490925,-0.196369 1.147214,-0.196369 0.790646,0 1.34875,0.248046 0.361734,0.165364 0.635618,0.454751 0.273884,0.289387 0.423746,0.671791 0.155028,0.377237 0.155028,0.78548 0,0.640785 -0.320392,1.167883 -0.315226,0.521931 -0.645954,0.821653 -0.330728,0.294555 -1.111039,0.930173 -0.775145,0.635618 -1.064532,0.987016 -0.124023,0.139526 -0.253213,0.335896 z" />
    </g>
    <g
       aria-label="22"
       id="text276"
       style="font-size:10.5833px;line-height:1.25;font-family:'Arial Rounded MT Bold';-inkscape-font-specification:'Arial Rounded MT Bold, Normal';stroke-width:0.264583"
       inkscape:path-effect="#path-effect283">
      <path
         d="m 109.07106,128.83176 11.23501,-7.49269 c 1.11928,-0.74646 1.95651,-0.69173 2.50814,0.15733 0.55212,0.8499 0.79502,2.33851 0.73498,4.47145 -0.0535,1.89957 -0.3322,3.66974 -0.83345,5.31244 -0.48704,1.6326 -1.195,2.77758 -2.12617,3.42842 l -15.58295,10.89183 c -1.05844,0.7398 -1.88155,0.50039 -2.4732,-0.72751 -0.59118,-1.26705 -0.88773,-3.02633 -0.88283,-5.27036 0.003,-1.44124 0.20023,-3.47911 0.59717,-6.10053 0.3973,-2.6628 0.83342,-4.82549 1.30481,-6.48893 1.9555,-6.77135 3.77262,-12.60926 5.40212,-17.48019 1.62725,-4.90196 2.82848,-8.20424 3.52862,-9.829916 1.26369,-3.037389 2.33139,-5.938013 3.19827,-8.707995 0.88283,-2.818229 1.57377,-5.549888 2.06827,-8.200066 0.51077,-2.698599 0.80724,-5.208231 0.88389,-7.536463 0.0831,-2.52569 -0.0757,-4.643177 -0.48264,-6.359914 -0.39025,-1.764218 -0.97333,-2.982151 -1.75057,-3.652739 -0.76183,-0.678809 -1.62129,-0.765001 -2.57453,-0.252416 -2.01557,1.083823 -3.66397,4.225776 -4.91584,9.464464 -0.16563,0.680807 -0.46487,2.473365 -0.88537,5.357365 -0.40597,2.879367 -0.84649,5.170603 -1.32544,6.873036 -0.46377,1.693304 -1.12281,2.790261 -1.97986,3.285374 -0.75197,0.434404 -1.36616,0.131987 -1.84484,-0.912701 -0.47839,-1.043966 -0.70368,-2.719044 -0.67021,-5.019839 0.0405,-2.785127 0.32038,-5.82645 0.847,-9.113425 0.5268,-3.288097 1.28566,-6.412352 2.28022,-9.370849 1.01015,-2.967057 2.26564,-5.569797 3.76616,-7.81342 1.51722,-2.29194 3.26924,-3.938602 5.24808,-4.956533 2.3829,-1.225783 4.38367,-1.315059 5.98596,-0.289871 1.03766,0.699963 1.92069,1.936755 2.64862,3.706599 0.72813,1.77022 1.25162,3.983002 1.5754,6.642289 0.34073,2.611742 0.44528,5.458134 0.32097,8.548551 -0.19502,4.848308 -0.8344,9.532737 -1.90195,14.068283 -1.05173,4.48971 -2.07807,8.162559 -3.09269,11.01555 -1.09736,3.046755 -2.61704,7.086286 -5.0149,13.565326 -2.29091,6.22022 -3.8479,11.01423 -4.68836,14.22147 -0.36109,1.29764 -0.73096,2.8199 -1.10789,4.56658 z"
         style="stroke-width:0.264583"
         id="path278"
         inkscape:original-d="m 136.11234,90.057051 h 2.6975 q 0.40307,0 0.61495,0.165364 0.21187,0.165365 0.21187,0.449584 0,0.253214 -0.17053,0.428913 -0.16537,0.175699 -0.50643,0.175699 h -3.80337 q -0.38758,0 -0.60462,-0.211872 -0.21704,-0.217041 -0.21704,-0.506428 0,-0.186034 0.13953,-0.490924 0.13953,-0.310058 0.30489,-0.485757 0.68729,-0.713133 1.24023,-1.21956 0.55294,-0.511595 0.79065,-0.671792 0.42374,-0.299722 0.70279,-0.599444 0.28422,-0.30489 0.42892,-0.620116 0.14986,-0.320392 0.14986,-0.625282 0,-0.330729 -0.1602,-0.58911 -0.15503,-0.263549 -0.42891,-0.408242 -0.26872,-0.144694 -0.58911,-0.144694 -0.67696,0 -1.06453,0.594277 -0.0517,0.07751 -0.1757,0.423746 -0.11886,0.346231 -0.27388,0.532265 -0.14987,0.186035 -0.44442,0.186035 -0.25838,0 -0.42891,-0.170532 -0.17054,-0.170532 -0.17054,-0.465086 0,-0.356567 0.1602,-0.744139 0.1602,-0.387572 0.47542,-0.702797 0.3204,-0.315225 0.80615,-0.506427 0.49093,-0.19637 1.14722,-0.19637 0.79064,0 1.34875,0.248046 0.36173,0.165364 0.63561,0.454751 0.27389,0.289387 0.42375,0.671792 0.15503,0.377236 0.15503,0.785479 0,0.640786 -0.32039,1.167883 -0.31523,0.521931 -0.64596,0.821653 -0.33073,0.294555 -1.11104,0.930173 -0.77514,0.635618 -1.06453,0.987017 -0.12402,0.139526 -0.25321,0.335895 z" />
      <path
         d="m 135.26456,111.36317 11.23501,-7.49268 c 1.11931,-0.74648 1.93725,-0.71622 2.4503,0.0839 0.51356,0.80095 0.70405,2.22304 0.57773,4.27186 -0.11249,1.82461 -0.44127,3.53134 -0.98348,5.12203 -0.52795,1.58055 -1.25646,2.69958 -2.18762,3.35042 l -15.58295,10.89182 c -1.0584,0.73978 -1.85682,0.53172 -2.39906,-0.63347 -0.54057,-1.20282 -0.77806,-2.88716 -0.70569,-5.04554 0.0465,-1.38616 0.30088,-3.35141 0.76884,-5.88256 0.46961,-2.57105 0.96236,-4.66182 1.47472,-6.27329 2.12148,-6.5603 4.08147,-12.217734 5.82869,-16.938772 1.74579,-4.750256 3.02686,-7.9537 3.76359,-9.531675 1.33358,-2.948683 2.47119,-5.760609 3.40799,-8.441902 0.95391,-2.727989 1.71716,-5.367882 2.28512,-7.924745 0.58549,-2.603779 0.95485,-5.020874 1.10259,-7.258873 0.16028,-2.427811 0.0701,-4.458115 -0.27658,-6.098384 -0.32876,-1.686233 -0.86424,-2.843755 -1.60777,-3.471502 -0.7281,-0.635986 -1.57068,-0.700765 -2.52393,-0.188181 -2.01571,1.083899 -3.73311,4.137759 -5.1237,9.20064 -0.18356,0.65788 -0.53248,2.387704 -1.03359,5.169245 -0.48666,2.776854 -0.98925,4.989377 -1.5116,6.636742 -0.5071,1.638214 -1.18788,2.707669 -2.04494,3.202785 -0.75196,0.434402 -1.34627,0.157224 -1.78519,-0.836995 -0.4386,-0.993512 -0.60963,-2.599773 -0.50748,-4.813392 0.12365,-2.67959 0.49028,-5.610799 1.10723,-8.783046 0.61721,-3.173408 1.45795,-6.193626 2.52603,-9.058847 1.08371,-2.87379 2.39815,-5.401534 3.9433,-7.588596 1.56306,-2.233847 3.33788,-3.8514 5.31677,-4.869355 2.38288,-1.225775 4.35477,-1.351774 5.8992,-0.39999 0.9991,0.651022 1.82912,1.820512 2.4896,3.504692 0.66061,1.684587 1.10578,3.797967 1.34039,6.344076 0.25275,2.500098 0.26574,5.230247 0.0462,8.199843 -0.34436,4.658607 -1.12005,9.170318 -2.31044,13.549811 -1.17344,4.335202 -2.29556,7.886534 -3.38008,10.650783 -1.18471,2.985045 -2.77546,6.835961 -5.34025,13.152381 -2.43836,6.031776 -4.11197,10.680377 -5.0336,13.783287 -0.39361,1.25635 -0.80265,2.72891 -1.22537,4.41746 z"
         style="stroke-width:0.264583"
         id="path280"
         inkscape:original-d="m 142.40134,90.057051 h 2.6975 q 0.40308,0 0.61495,0.165364 0.21187,0.165365 0.21187,0.449584 0,0.253214 -0.17053,0.428913 -0.16536,0.175699 -0.50643,0.175699 h -3.80337 q -0.38757,0 -0.60461,-0.211872 -0.21704,-0.217041 -0.21704,-0.506428 0,-0.186034 0.13952,-0.490924 0.13953,-0.310058 0.30489,-0.485757 0.6873,-0.713133 1.24023,-1.21956 0.55294,-0.511595 0.79065,-0.671792 0.42374,-0.299722 0.7028,-0.599444 0.28422,-0.30489 0.42891,-0.620116 0.14986,-0.320392 0.14986,-0.625282 0,-0.330729 -0.1602,-0.58911 -0.15502,-0.263549 -0.42891,-0.408242 -0.26872,-0.144694 -0.58911,-0.144694 -0.67696,0 -1.06453,0.594277 -0.0517,0.07751 -0.1757,0.423746 -0.11885,0.346231 -0.27388,0.532265 -0.14986,0.186035 -0.44442,0.186035 -0.25838,0 -0.42891,-0.170532 -0.17053,-0.170532 -0.17053,-0.465086 0,-0.356567 0.16019,-0.744139 0.1602,-0.387572 0.47542,-0.702797 0.3204,-0.315225 0.80615,-0.506427 0.49093,-0.19637 1.14722,-0.19637 0.79064,0 1.34875,0.248046 0.36173,0.165364 0.63562,0.454751 0.27388,0.289387 0.42374,0.671792 0.15503,0.377236 0.15503,0.785479 0,0.640786 -0.32039,1.167883 -0.31523,0.521931 -0.64596,0.821653 -0.33072,0.294555 -1.11104,0.930173 -0.77514,0.635618 -1.06453,0.987017 -0.12402,0.139526 -0.25321,0.335895 z" />
    </g>
    <g
       aria-label="8"
       id="text287"
       style="font-size:10.5833px;line-height:1.25;font-family:'Arial Rounded MT Bold';-inkscape-font-specification:'Arial Rounded MT Bold, Normal';stroke-width:0.264583"
       inkscape:path-effect="#path-effect292">
      <path
         d="m 61.62262,11.090804 c 2.33586,-0.932272 5.749123,-1.5357213 10.22812,-1.817113 4.546375,-0.2806566 9.79337,-0.1476774 15.731349,0.397809 5.98316,0.555473 12.132171,1.529692 18.450491,2.929808 5.3342,1.18204 9.66059,2.368091 12.98787,3.563244 3.32668,1.194949 5.71028,2.359648 7.15171,3.494837 1.4642,1.125447 2.06609,2.172432 1.80297,3.13905 -0.24039,0.956779 -1.23284,1.813956 -2.98134,2.568272 -2.22584,0.960241 -5.36251,1.55865 -9.42082,1.789946 -4.0135,0.241535 -8.84174,0.08664 -14.49315,-0.46639 3.09591,1.193473 5.29897,2.342606 6.60965,3.44786 1.33328,1.095359 1.83095,2.137307 1.49054,3.124088 -0.27222,0.987262 -1.38256,1.904746 -3.33502,2.748872 -2.86128,1.237044 -6.850288,2.041031 -11.983671,2.4034 -5.111427,0.352639 -11.029919,0.18154 -17.76692,-0.514413 -6.736614,-0.695916 -13.77701,-1.90345 -21.117504,-3.614098 -7.61306,-1.774168 -13.457194,-3.568832 -17.513126,-5.371763 -4.057466,-1.803617 -6.274408,-3.492636 -6.654105,-5.068506 -0.356397,-1.585587 0.947852,-2.95861 3.899983,-4.12943 6.293463,-2.495998 16.408087,-2.894399 30.221432,-1.228034 -7.061366,-3.014039 -8.142822,-5.467982 -3.308459,-7.397439 z m 25.774192,20.503748 c 1.785682,-0.754837 2.613741,-1.580351 2.488012,-2.473201 -0.125746,-0.893005 -1.149129,-1.788613 -3.069741,-2.686796 -1.920895,-0.898317 -4.512541,-1.717882 -7.779315,-2.46167 -4.62655,-1.053386 -9.292622,-1.612645 -14.001784,-1.684038 -4.708361,-0.07138 -8.488174,0.465086 -11.322006,1.615087 -1.812582,0.735566 -2.687139,1.553519 -2.619739,2.457251 0.136253,0.904682 1.101986,1.809751 2.897469,2.715185 1.818395,0.895825 4.307463,1.710633 7.462956,2.44149 3.201627,0.741542 6.462825,1.251054 9.781479,1.526026 3.318925,0.274992 6.395356,0.291185 9.231837,0.04845 2.836388,-0.242722 5.144814,-0.742809 6.930832,-1.497788 z M 99.840088,15.430325 c -4.224545,-0.942425 -8.32315,-1.423342 -12.297047,-1.447164 -3.905712,-0.02325 -6.930178,0.397765 -9.06239,1.267264 -1.970513,0.80356 -2.285785,1.774062 -0.938505,2.916658 1.370429,1.133114 4.162545,2.178018 8.369679,3.129768 2.12631,0.48102 4.22149,0.844194 6.285052,1.088783 2.108782,0.254838 4.07134,0.394843 5.888234,0.41989 1.88501,0.02563 3.577979,-0.05923 5.079969,-0.254289 1.52483,-0.204718 2.7901,-0.520094 3.79733,-0.945397 1.35047,-0.570241 1.9548,-1.21934 1.81561,-1.945118 -0.0942,-0.71578 -0.91099,-1.444583 -2.44995,-2.18622 -1.53916,-0.741736 -3.70076,-1.422413 -6.488014,-2.044203 1.1e-5,1e-5 2.1e-5,1.9e-5 3.2e-5,2.8e-5 z"
         style="stroke-width:0.264583"
         id="path289"
         inkscape:original-d="m 83.053943,18.721437 q 0,-0.516763 0.279051,-0.971514 0.28422,-0.459919 0.826821,-0.733803 0.547768,-0.273884 1.276404,-0.273884 0.614947,0 1.080034,0.160196 0.465086,0.160197 0.775144,0.444416 0.310057,0.279052 0.459918,0.635618 0.149862,0.351399 0.149862,0.749306 0,0.506428 -0.263549,0.904335 -0.258382,0.397907 -0.775144,0.651121 0.439248,0.170532 0.728635,0.449583 0.289387,0.273885 0.434081,0.640786 0.149861,0.361734 0.149861,0.80615 0,0.651121 -0.315225,1.183386 -0.315226,0.527098 -0.925006,0.826821 -0.60978,0.299722 -1.4366,0.299722 -0.857826,0 -1.467606,-0.299722 -0.60978,-0.299723 -0.919837,-0.821653 -0.310058,-0.527098 -0.310058,-1.178219 0,-1.390091 1.312577,-1.906854 -1.059363,-0.496092 -1.059363,-1.565791 z m 3.705188,3.420969 q 0,-0.403075 -0.165364,-0.702797 -0.165364,-0.299723 -0.465086,-0.459919 -0.299723,-0.160197 -0.671792,-0.160197 -0.527098,0 -0.883664,0.351399 -0.356566,0.351399 -0.356566,0.981849 0,0.403075 0.165364,0.713133 0.170531,0.30489 0.459919,0.475421 0.289387,0.165364 0.645953,0.165364 0.361734,0 0.651121,-0.170531 0.289387,-0.170532 0.454751,-0.48059 0.165364,-0.310057 0.165364,-0.713132 z m -1.291907,-4.413153 q -0.485757,0 -0.785479,0.30489 -0.294555,0.299722 -0.294555,0.775144 0,0.439248 0.30489,0.733803 0.30489,0.289387 0.78548,0.289387 0.242878,0 0.439248,-0.07752 0.201537,-0.07751 0.341063,-0.211872 0.144694,-0.139526 0.222208,-0.325561 0.07751,-0.191202 0.07751,-0.418578 0,-0.30489 -0.139526,-0.547768 -0.134359,-0.242878 -0.382405,-0.382404 -0.248046,-0.139526 -0.568439,-0.139526 z" />
    </g>
  </g>
</svg>
